<?xml version="1.0" encoding="utf-8"?>
<!-- Generator: Adobe Illustrator 28.0.0, SVG Export Plug-In . SVG Version: 6.00 Build 0)  -->
<svg version="1.1" id="bfc59778-adb9-4ded-81d5-12977ec092f3"
	 xmlns="http://www.w3.org/2000/svg" xmlns:xlink="http://www.w3.org/1999/xlink" x="0px" y="0px" viewBox="0 0 996.5 828.2"
	 style="enable-background:new 0 0 996.5 828.2;" xml:space="preserve">
<style type="text/css">
	.st0{fill:url(#SVGID_1_);}
	.st1{fill:url(#SVGID_00000007391784078758550500000015041059414815118225_);}
	.st2{fill:url(#SVGID_00000157999304249048787300000004611043440264010902_);}
	.st3{fill:url(#SVGID_00000044897998851613649450000017694019901638529167_);}
	.st4{fill:url(#SVGID_00000028313007005288780080000012331728265519226300_);}
	.st5{fill:url(#SVGID_00000139275872189101590970000014869096239879077544_);}
	.st6{fill:url(#SVGID_00000001632948524313767850000000326905873014020234_);}
	.st7{fill:url(#SVGID_00000002372933660738221420000009981657658749273531_);}
	.st8{fill:url(#SVGID_00000089535100529843707810000004943811808369344665_);}
	.st9{fill:url(#SVGID_00000129889370866403721690000015432933532020115859_);}
	.st10{fill:url(#SVGID_00000056407443947419820850000000380807123714569127_);}
	.st11{enable-background:new    ;}
	.st12{fill:none;stroke:#91F2E2;stroke-width:0.5538;stroke-miterlimit:10;}
	.st13{fill:url(#SVGID_00000130619129791241337700000008029708975784668548_);}
	.st14{fill:url(#SVGID_00000008852077504659355220000018085160339477404562_);}
	.st15{fill:url(#SVGID_00000070835057435497659130000017789508816913746076_);}
	.st16{fill:url(#SVGID_00000132779714220662110460000013740330544957425798_);}
	.st17{fill:url(#SVGID_00000168800421822339378820000014940564476619920775_);}
	.st18{fill:url(#SVGID_00000144321514656508373690000001755917681209939385_);}
	.st19{fill:url(#SVGID_00000157994352739682597550000003178232955794485683_);}
	.st20{fill:url(#SVGID_00000152253574764512400230000018336020779386510742_);}
	.st21{fill:url(#SVGID_00000129201190916498756100000002311880857851549885_);}
	
		.st22{fill:none;stroke:url(#SVGID_00000178887402472375601890000005436297735835713678_);stroke-width:0.5538;stroke-miterlimit:10;}
	
		.st23{fill:none;stroke:url(#SVGID_00000104668886960409696450000008146804925299861899_);stroke-width:0.5538;stroke-miterlimit:10;}
	
		.st24{fill:none;stroke:url(#SVGID_00000042719419442245970260000010784157790565570706_);stroke-width:0.5538;stroke-miterlimit:10;}
	.st25{fill:none;stroke:#91F2E2;stroke-width:0.5538;stroke-linecap:round;stroke-linejoin:round;stroke-miterlimit:10;}
	.st26{fill:url(#SVGID_00000065756868380408627180000015267068705070476968_);}
	.st27{fill:url(#SVGID_00000032632734932400249630000004306342698264531350_);}
	.st28{fill:url(#SVGID_00000070104459380886624430000006168524504927339911_);}
	.st29{fill:url(#SVGID_00000129202043244466062820000016734827786745972657_);}
	.st30{fill:url(#SVGID_00000091730623547281416770000008267383573971445136_);}
	.st31{fill:url(#SVGID_00000063618379314037328010000008398004439852744604_);}
	.st32{fill:url(#SVGID_00000104692044757660201180000009047632196428353459_);}
	.st33{fill:url(#SVGID_00000098184021477639551740000014999360053094714300_);}
	.st34{fill:url(#SVGID_00000035520279436417453890000002854810733212331966_);}
	.st35{fill:url(#SVGID_00000020361103011532839380000002940014942932619405_);}
	.st36{fill:url(#SVGID_00000180365892929128508450000000240898908827406516_);}
	.st37{fill:url(#SVGID_00000043425956856568556870000014730524721193149885_);}
	.st38{fill:url(#SVGID_00000150783504618326413940000008806920561625383320_);}
	.st39{fill:url(#SVGID_00000044163681916740153140000006346833037346693513_);}
	.st40{fill:url(#SVGID_00000067229690846741030810000008465014042238259103_);}
	.st41{fill:url(#SVGID_00000029019969860619070000000017458454491977151668_);}
	.st42{fill:url(#SVGID_00000131327498568880283970000006258038318177649599_);}
	.st43{fill:url(#SVGID_00000166663530058053026750000000777052838813237918_);}
	.st44{clip-path:url(#SVGID_00000156583686302341500930000014533009626116500112_);}
	.st45{fill:url(#SVGID_00000069361910113949409590000018234268084055115417_);}
	.st46{fill:url(#SVGID_00000134213851333115289960000003935479387049099181_);}
	.st47{fill:url(#SVGID_00000015343672984628576600000016880399847495741075_);}
	.st48{fill:url(#SVGID_00000158713691563102420920000005534003487118765453_);}
	.st49{fill:url(#SVGID_00000116918823522711518650000015656891270163518100_);}
	.st50{fill:url(#SVGID_00000140709058527794377300000008301963448917161108_);}
	.st51{fill:url(#SVGID_00000078763718743989391020000013671365192978682794_);}
	.st52{fill:url(#SVGID_00000063600460824698424280000000822053425244954261_);}
	.st53{fill:url(#SVGID_00000049205413490178614460000004497730058341128082_);}
	.st54{fill:url(#SVGID_00000092457273311631783150000014217282266398081157_);}
	.st55{fill:url(#SVGID_00000008842373682191501430000001082543206026569626_);}
	.st56{fill:url(#SVGID_00000160880656146136866210000017496657441590091165_);}
	.st57{fill:#0067E1;}
	.st58{fill:url(#SVGID_00000044884031731010743910000015544848555103413399_);}
	.st59{fill:url(#SVGID_00000179604705815434478510000003511476998150173869_);}
	.st60{fill:url(#SVGID_00000036971064104675767230000010346217556560722085_);}
	.st61{opacity:0.4;fill:url(#SVGID_00000159432180810140431580000015156110241988774300_);}
	.st62{fill:none;stroke:#91F2E2;stroke-width:0.5538;stroke-linejoin:round;stroke-miterlimit:10;}
	.st63{fill:url(#SVGID_00000159448628586067441550000008136791682665424256_);}
	.st64{fill:url(#SVGID_00000018200996531960838380000001087430543924344494_);}
	.st65{fill:url(#SVGID_00000166660662231560186360000017787401745008862388_);}
	.st66{fill:url(#SVGID_00000177446791939337817480000017459904043985786034_);}
	.st67{fill:url(#SVGID_00000028283432929300027810000005293905404433307556_);}
	.st68{fill:url(#SVGID_00000117638760935300059430000002082626648885648265_);}
	.st69{fill:url(#SVGID_00000023987780023100985320000004355198322823227565_);}
	.st70{fill:url(#SVGID_00000132049358761095046040000012166119326464660101_);}
	.st71{fill:url(#SVGID_00000041290368916249467610000010043768983457624193_);}
	.st72{fill:url(#SVGID_00000093869272084188034920000002555666963018298503_);}
	.st73{fill:url(#SVGID_00000076569393266902535320000001909812043463637900_);}
	.st74{fill:url(#SVGID_00000106115764322638876850000017003817273203846558_);}
	.st75{fill:url(#SVGID_00000013183845740506387700000003012834496890880935_);}
	.st76{fill:url(#SVGID_00000155138058170865753150000000258332108792528055_);}
	.st77{fill:url(#SVGID_00000083076298487955061500000017481625463653484435_);}
	.st78{fill:url(#SVGID_00000037681775441044664360000006513475379953378451_);}
	.st79{fill:#FFFFFF;}
	.st80{fill:url(#SVGID_00000181051818804224256800000001853893139509975456_);}
	.st81{fill:url(#SVGID_00000038405442343973442770000017403277252721371281_);}
	.st82{fill:url(#XMLID_00000097496326062157243850000009494717786888042888_);}
	.st83{fill:url(#XMLID_00000112614243231050047400000006842102235959387553_);}
	.st84{fill:url(#XMLID_00000129188574629007579580000009632759958951038395_);}
	.st85{fill:url(#XMLID_00000074402496150247250080000009062414176655418774_);}
	.st86{fill:url(#XMLID_00000168822139573769967320000016150304786248836758_);}
	.st87{fill:url(#SVGID_00000032626706075274875190000002631137543963516035_);}
	.st88{fill:url(#SVGID_00000107547457813739049960000007904069374722968255_);}
	.st89{fill:#EABF9B;}
	.st90{fill:#152C7C;}
	.st91{fill:#F1CBA7;}
	.st92{fill:#DFEBF4;}
	.st93{fill:#1F3598;}
	.st94{fill:#213745;}
	.st95{fill:#192A38;}
	.st96{fill:url(#SVGID_00000142164479604704515410000001848076755616375972_);}
	.st97{fill:url(#SVGID_00000106858080286540939690000018244958472769346204_);}
	.st98{fill:url(#SVGID_00000010306909524836414330000009624414708365726894_);}
	.st99{fill:url(#SVGID_00000052087401959021440750000000728144498392475782_);}
	.st100{fill:url(#SVGID_00000150803827687976164850000012946395091809830053_);}
	.st101{fill:#304AAA;}
	.st102{fill:url(#SVGID_00000044175709712575648330000012250854046436872078_);}
	.st103{fill:url(#SVGID_00000095304638520180188320000017890843582723044270_);}
	.st104{fill:#22389B;}
	.st105{opacity:0.2;fill:#FFFFFF;}
</style>
<g>
	<g>
		<linearGradient id="SVGID_1_" gradientUnits="userSpaceOnUse" x1="591.3967" y1="153.0246" x2="681.2576" y2="153.0246">
			<stop  offset="0" style="stop-color:#4D87F4"/>
			<stop  offset="1" style="stop-color:#1E34B4"/>
		</linearGradient>
		<path class="st0" d="M681.2,181.3c0-0.7,0-1.5,0.1-2.2c0-0.5,0-1.1,0-1.6c0-0.2,0-0.4,0-0.6c0-0.8-0.1-1.5-0.1-2.3
			c0-0.8-0.1-1.5-0.2-2.3c0-0.1,0-0.2,0-0.3c0-0.1,0-0.2,0-0.3c-0.1-0.6-0.1-1.1-0.2-1.7c-0.1-0.8-0.2-1.6-0.3-2.3
			c-0.1-0.4-0.1-0.8-0.2-1.2c0-0.2-0.1-0.3-0.1-0.5c0-0.2-0.1-0.5-0.1-0.7c-0.2-0.8-0.3-1.6-0.5-2.4c-0.2-0.8-0.4-1.6-0.6-2.4
			c0,0,0,0,0,0c0,0,0,0,0,0c-0.2-0.8-0.4-1.7-0.7-2.5c-0.2-0.8-0.5-1.7-0.7-2.5c-0.1-0.2-0.1-0.4-0.2-0.6c0-0.2-0.1-0.3-0.1-0.5
			c-0.1-0.5-0.3-0.9-0.4-1.4c-0.3-0.8-0.5-1.6-0.8-2.4c-0.2-0.5-0.4-1-0.6-1.5c0-0.1-0.1-0.2-0.1-0.3c-0.1-0.1-0.1-0.3-0.2-0.4
			c-0.3-0.8-0.6-1.5-0.9-2.3c-0.3-0.8-0.6-1.5-1-2.3c-0.1-0.2-0.1-0.3-0.2-0.5c-0.1-0.1-0.1-0.2-0.2-0.4c-0.2-0.5-0.4-1-0.7-1.4
			c-0.4-0.8-0.8-1.7-1.2-2.5c-0.2-0.4-0.4-0.8-0.6-1.1c-0.1-0.2-0.2-0.4-0.3-0.6c-0.1-0.3-0.3-0.6-0.4-0.8c-0.7-1.4-1.5-2.7-2.3-4
			c0,0-0.1-0.1-0.1-0.1c-1.1-1.9-2.3-3.8-3.6-5.7c0-0.1-0.1-0.1-0.1-0.2c-0.9-1.4-1.9-2.8-2.9-4.2c-0.1-0.1-0.2-0.2-0.3-0.3
			c-0.1-0.2-0.3-0.3-0.4-0.5c-0.5-0.6-0.9-1.3-1.4-1.9c-0.6-0.7-1.2-1.5-1.8-2.2c-0.1-0.1-0.2-0.2-0.2-0.3c-0.1-0.1-0.2-0.2-0.3-0.3
			c-0.4-0.5-0.9-1-1.3-1.5c-0.6-0.7-1.2-1.4-1.8-2c-0.2-0.2-0.4-0.4-0.5-0.6c-0.1-0.1-0.3-0.3-0.4-0.4c-0.3-0.3-0.6-0.7-1-1
			c-0.7-0.7-1.3-1.3-2-2c-0.3-0.3-0.6-0.5-0.8-0.8c-0.2-0.1-0.3-0.3-0.5-0.4c-0.3-0.2-0.5-0.5-0.8-0.7c-0.7-0.6-1.4-1.2-2.1-1.8
			c-0.4-0.3-0.7-0.6-1.1-0.9c-0.1-0.1-0.3-0.2-0.4-0.4c-0.2-0.1-0.4-0.3-0.6-0.5c-0.7-0.5-1.4-1.1-2.1-1.6c-0.5-0.4-1.1-0.8-1.6-1.1
			c-0.1-0.1-0.1-0.1-0.2-0.2c-0.1,0-0.1-0.1-0.2-0.1c-0.7-0.5-1.3-0.9-2-1.3c-0.7-0.4-1.3-0.8-2-1.2c-0.2-0.1-0.3-0.2-0.5-0.3
			c-0.4-0.2-0.9-0.5-1.3-0.7c-0.1,0-0.1-0.1-0.2-0.1c-0.6-0.3-1.3-0.7-1.9-1c-0.6-0.3-1.3-0.6-1.9-0.9c-0.2-0.1-0.3-0.1-0.5-0.2
			c-0.1-0.1-0.2-0.1-0.4-0.2c-0.4-0.2-0.7-0.3-1.1-0.5c-0.6-0.3-1.3-0.5-1.9-0.7c-0.4-0.1-0.8-0.3-1.2-0.4c-0.1,0-0.2-0.1-0.4-0.1
			c-0.1,0-0.3-0.1-0.4-0.1c-0.6-0.2-1.3-0.4-1.9-0.5c-0.6-0.2-1.2-0.3-1.8-0.4c0,0-0.1,0-0.1,0c0,0,0,0,0,0c-0.7-0.1-1.4-0.2-2-0.3
			c-0.7-0.1-1.4-0.2-2.1-0.2c0,0,0,0,0,0c-0.8-0.1-1.5-0.1-2.3-0.1c-0.4,0-0.9,0-1.3,0.1c-0.2,0-0.4,0-0.7,0c-0.1,0-0.3,0-0.4,0
			c-0.9,0.1-1.8,0.2-2.7,0.4c-0.1,0-0.1,0-0.2,0.1c-0.5,0.1-0.9,0.2-1.3,0.4c-0.6,0.2-1.2,0.3-1.8,0.5c-0.1,0-0.2,0.1-0.3,0.1
			c-1.2,0.5-2.4,1-3.6,1.6l-9.6,5.6c1.1-0.7,2.3-1.2,3.6-1.6c0.7-0.2,1.3-0.4,2-0.6c0.5-0.1,0.9-0.3,1.3-0.4
			c1.1-0.2,2.2-0.4,3.3-0.5c0.2,0,0.4,0,0.6,0c2.4-0.1,5,0,7.7,0.6c0,0,0.1,0,0.1,0c1.4,0.3,2.7,0.6,4.2,1.1c0.1,0,0.2,0.1,0.3,0.1
			c1.3,0.4,2.7,0.9,4.1,1.5c0.1,0.1,0.2,0.1,0.4,0.2c1.5,0.6,3,1.4,4.5,2.2c0.4,0.2,0.9,0.5,1.3,0.7c1.6,0.9,3.1,1.9,4.6,2.9
			c0.1,0.1,0.2,0.1,0.2,0.2c1.4,1,2.8,2,4.2,3.2c0.2,0.1,0.3,0.2,0.5,0.4c1.3,1.1,2.6,2.2,3.9,3.4c0.2,0.1,0.3,0.3,0.5,0.4
			c1.3,1.2,2.5,2.4,3.8,3.7c0.1,0.2,0.3,0.3,0.4,0.5c1.3,1.3,2.5,2.7,3.7,4.1c0.1,0.1,0.2,0.2,0.3,0.3c1.2,1.4,2.3,2.9,3.5,4.4
			c0.1,0.2,0.3,0.4,0.4,0.5c1.1,1.5,2.2,3.1,3.3,4.7c1.2,1.9,2.4,3.7,3.6,5.7c1,1.7,1.9,3.3,2.8,5c0.1,0.2,0.2,0.4,0.3,0.6
			c0.9,1.7,1.7,3.4,2.5,5.1c0.1,0.1,0.1,0.2,0.2,0.3c0.8,1.8,1.6,3.6,2.3,5.4c0,0.1,0.1,0.2,0.1,0.4c0.7,1.8,1.3,3.5,1.8,5.3
			c0,0.1,0.1,0.3,0.1,0.4c0.6,1.9,1.1,3.7,1.6,5.6c0,0,0,0,0,0c0.5,1.8,0.8,3.7,1.2,5.5c0,0.2,0.1,0.3,0.1,0.5
			c0.3,1.8,0.6,3.5,0.7,5.3c0,0.1,0,0.2,0,0.3c0.2,1.9,0.3,3.7,0.3,5.5c0,1.9,0,3.7-0.1,5.4c0,0.1,0,0.2,0,0.3
			c-0.1,1.7-0.3,3.4-0.6,5c0,0.1,0,0.1,0,0.2c-0.3,1.6-0.6,3.1-1.1,4.5c0,0.1-0.1,0.2-0.1,0.3c-0.4,1.2-0.8,2.4-1.3,3.5
			c-0.1,0.3-0.2,0.6-0.3,0.8c-0.4,1-0.9,1.8-1.4,2.7c-0.2,0.3-0.3,0.6-0.5,0.9c-0.1,0.2-0.2,0.3-0.3,0.5c-0.9,1.3-1.9,2.5-3,3.7
			c-0.3,0.3-0.6,0.6-0.9,0.9c-1.2,1.1-2.5,2.2-4,3l9.6-5.6c1.4-0.8,2.7-1.9,4-3c0.3-0.3,0.6-0.6,0.9-0.9c1.1-1.1,2.1-2.3,3-3.6
			c0.1-0.1,0.2-0.2,0.3-0.3c0,0,0-0.1,0.1-0.1c0.2-0.3,0.3-0.6,0.5-0.9c0.4-0.7,0.9-1.4,1.2-2.2c0.1-0.2,0.1-0.3,0.2-0.5
			c0.1-0.3,0.2-0.5,0.3-0.8c0.2-0.5,0.4-0.9,0.6-1.4c0.2-0.7,0.5-1.4,0.7-2.1c0-0.1,0.1-0.2,0.1-0.3c0-0.1,0-0.1,0.1-0.2
			c0.2-0.8,0.4-1.6,0.6-2.4c0.1-0.6,0.3-1.3,0.4-2c0-0.1,0-0.1,0-0.2c0,0,0-0.1,0-0.1c0.1-0.7,0.2-1.5,0.3-2.3
			c0.1-0.7,0.2-1.5,0.2-2.2c0-0.1,0-0.3,0-0.4c0-0.1,0-0.2,0-0.3C681.1,182.4,681.2,181.9,681.2,181.3z"/>
		
			<linearGradient id="SVGID_00000093861540973730723760000006509746473943404198_" gradientUnits="userSpaceOnUse" x1="648.2948" y1="226.2406" x2="603.2672" y2="95.0313">
			<stop  offset="0" style="stop-color:#82DEFE"/>
			<stop  offset="1" style="stop-color:#3262FF"/>
		</linearGradient>
		<path style="fill:url(#SVGID_00000093861540973730723760000006509746473943404198_);" d="M624.9,103.4c-0.4-0.2-0.9-0.5-1.3-0.7
			c-25.9-14.2-46.5-1.2-45.9,29.1c0.6,29.7,21.5,65,46.8,79.6c0.4,0.2,0.9,0.5,1.3,0.7c25.9,14.2,46.5,1.2,45.9-29
			C671,153.4,650.2,118.1,624.9,103.4z"/>
		
			<linearGradient id="SVGID_00000018236721296832661700000004968143079379667074_" gradientUnits="userSpaceOnUse" x1="644.5103" y1="215.2125" x2="606.697" y2="105.0254">
			<stop  offset="0" style="stop-color:#FFFFFF"/>
			<stop  offset="1" style="stop-color:#A7FFFF"/>
		</linearGradient>
		<path style="fill:url(#SVGID_00000018236721296832661700000004968143079379667074_);" d="M624.8,112.1c-0.4-0.2-0.7-0.4-1.1-0.6
			c-21.8-11.9-39-1-38.5,24.4c0.5,24.9,18,54.6,39.3,66.9c0.4,0.2,0.7,0.4,1.1,0.6c21.8,11.9,39,1,38.5-24.4
			C663.6,154,646.1,124.4,624.8,112.1z"/>
		
			<linearGradient id="SVGID_00000104701776839474229380000017538490039162925737_" gradientUnits="userSpaceOnUse" x1="641.2917" y1="205.8339" x2="609.6135" y2="113.5244">
			<stop  offset="0" style="stop-color:#82DEFE"/>
			<stop  offset="1" style="stop-color:#3262FF"/>
		</linearGradient>
		<path style="fill:url(#SVGID_00000104701776839474229380000017538490039162925737_);" d="M624.8,119.4c-0.3-0.2-0.6-0.3-0.9-0.5
			c-18.2-10-32.7-0.8-32.3,20.4c0.4,20.9,15.1,45.7,32.9,56c0.3,0.2,0.6,0.3,0.9,0.5c18.2,10,32.7,0.8,32.3-20.4
			C657.3,154.6,642.6,129.7,624.8,119.4z"/>
		
			<linearGradient id="SVGID_00000163046807200953761970000003640009558659681424_" gradientUnits="userSpaceOnUse" x1="638.2795" y1="197.056" x2="612.3436" y2="121.4793">
			<stop  offset="0" style="stop-color:#FFFFFF"/>
			<stop  offset="1" style="stop-color:#A7FFFF"/>
		</linearGradient>
		<path style="fill:url(#SVGID_00000163046807200953761970000003640009558659681424_);" d="M624.8,126.3c-0.2-0.1-0.5-0.3-0.7-0.4
			c-14.9-8.2-26.8-0.7-26.4,16.7c0.4,17.1,12.4,37.4,27,45.9c0.2,0.1,0.5,0.3,0.7,0.4c14.9,8.2,26.8,0.7,26.4-16.7
			C651.4,155.1,639.4,134.7,624.8,126.3z"/>
		
			<linearGradient id="SVGID_00000169522644872727204330000001428698181542727317_" gradientUnits="userSpaceOnUse" x1="634.9965" y1="187.4895" x2="615.3186" y2="130.1487">
			<stop  offset="0" style="stop-color:#82DEFE"/>
			<stop  offset="1" style="stop-color:#3262FF"/>
		</linearGradient>
		<path style="fill:url(#SVGID_00000169522644872727204330000001428698181542727317_);" d="M624.8,133.8c-0.2-0.1-0.4-0.2-0.6-0.3
			c-11.3-6.2-20.3-0.5-20,12.7c0.3,13,9.4,28.4,20.5,34.8c0.2,0.1,0.4,0.2,0.6,0.3c11.3,6.2,20.3,0.5,20-12.7
			C644.9,155.6,635.8,140.2,624.8,133.8z"/>
		
			<linearGradient id="SVGID_00000137127011545861748500000009801978775543407240_" gradientUnits="userSpaceOnUse" x1="632.5238" y1="180.2838" x2="617.5596" y2="136.6787">
			<stop  offset="0" style="stop-color:#FFFFFF"/>
			<stop  offset="1" style="stop-color:#A7FFFF"/>
		</linearGradient>
		<path style="fill:url(#SVGID_00000137127011545861748500000009801978775543407240_);" d="M624.7,139.5c-0.1-0.1-0.3-0.2-0.4-0.2
			c-8.6-4.7-15.4-0.4-15.2,9.7c0.2,9.9,7.1,21.6,15.6,26.5c0.1,0.1,0.3,0.2,0.4,0.2c8.6,4.7,15.4,0.4,15.2-9.7
			C640.1,156.1,633.2,144.3,624.7,139.5z"/>
		
			<linearGradient id="SVGID_00000003098022136597501770000002948539891423836064_" gradientUnits="userSpaceOnUse" x1="629.977" y1="172.8631" x2="619.8672" y2="143.4036">
			<stop  offset="0" style="stop-color:#82DEFE"/>
			<stop  offset="1" style="stop-color:#3262FF"/>
		</linearGradient>
		<path style="fill:url(#SVGID_00000003098022136597501770000002948539891423836064_);" d="M624.7,145.3c-0.1-0.1-0.2-0.1-0.3-0.2
			c-5.8-3.2-10.4-0.3-10.3,6.5c0.1,6.7,4.8,14.6,10.5,17.9c0.1,0.1,0.2,0.1,0.3,0.2c5.8,3.2,10.4,0.3,10.3-6.5
			C635.1,156.5,630.4,148.6,624.7,145.3z"/>
		
			<linearGradient id="SVGID_00000136388103062228917360000016444425814218948788_" gradientUnits="userSpaceOnUse" x1="544.4405" y1="207.3164" x2="566.2064" y2="193.3027">
			<stop  offset="0" style="stop-color:#FFFFFF"/>
			<stop  offset="1" style="stop-color:#A7FFFF"/>
		</linearGradient>
		<polygon style="fill:url(#SVGID_00000136388103062228917360000016444425814218948788_);" points="545,201.9 541,213.7 
			559.9,202.4 562.4,192.1 		"/>
		
			<linearGradient id="SVGID_00000112629829732568848900000006821197008335458734_" gradientUnits="userSpaceOnUse" x1="540.2275" y1="200.7723" x2="561.9932" y2="186.7588">
			<stop  offset="0" style="stop-color:#FFFFFF"/>
			<stop  offset="1" style="stop-color:#A7FFFF"/>
		</linearGradient>
		<polyline style="fill:url(#SVGID_00000112629829732568848900000006821197008335458734_);" points="545,201.9 536.1,197.9 
			554.8,187.6 562.4,192.1 		"/>
		<g>
			
				<linearGradient id="SVGID_00000129900309544224874550000014721143472982478262_" gradientUnits="userSpaceOnUse" x1="587.2034" y1="189.6425" x2="580.6744" y2="170.6172">
				<stop  offset="0" style="stop-color:#82DEFE"/>
				<stop  offset="1" style="stop-color:#3262FF"/>
			</linearGradient>
			<path style="fill:url(#SVGID_00000129900309544224874550000014721143472982478262_);" d="M543.2,204.6c-0.6,0-1.2-0.3-1.6-0.9
				c-0.5-0.9-0.2-2,0.7-2.4l81.5-45.4c0.9-0.5,2-0.2,2.4,0.7c0.5,0.9,0.2,2-0.7,2.4l-81.5,45.4C543.8,204.6,543.5,204.6,543.2,204.6
				z"/>
		</g>
	</g>
	<g class="st11">
		<g>
			<polygon class="st12" points="713.4,436.7 641.1,394.6 711.2,354.8 783.5,396.8 			"/>
		</g>
		<line class="st12" x1="674.1" y1="413.7" x2="552.3" y2="483.8"/>
		<g>
			
				<linearGradient id="SVGID_00000083085343960808209600000012399369146203439259_" gradientUnits="userSpaceOnUse" x1="715.1053" y1="369.422" x2="837.9666" y2="369.422">
				<stop  offset="0" style="stop-color:#3E6EE1"/>
				<stop  offset="0.9792" style="stop-color:#6BBDF6"/>
			</linearGradient>
			<polygon style="fill:url(#SVGID_00000083085343960808209600000012399369146203439259_);" points="783.5,317.8 783.8,381.2 
				713.7,421.1 713.4,357.6 			"/>
		</g>
		<g>
			
				<linearGradient id="SVGID_00000097477478445167517570000017126845066381303691_" gradientUnits="userSpaceOnUse" x1="641.0825" y1="368.3374" x2="713.6855" y2="368.3374">
				<stop  offset="0" style="stop-color:#83E8F7"/>
				<stop  offset="1" style="stop-color:#6BBDF6"/>
			</linearGradient>
			<polygon style="fill:url(#SVGID_00000097477478445167517570000017126845066381303691_);" points="713.7,421.1 641.4,379.1 
				641.1,315.6 713.4,357.6 			"/>
		</g>
		<g>
			
				<linearGradient id="SVGID_00000010299999027424767420000002287613492543657612_" gradientUnits="userSpaceOnUse" x1="641.0825" y1="316.6912" x2="783.4779" y2="316.6912">
				<stop  offset="0" style="stop-color:#1E34B4"/>
				<stop  offset="1" style="stop-color:#4D87F4"/>
			</linearGradient>
			<polygon style="fill:url(#SVGID_00000010299999027424767420000002287613492543657612_);" points="713.4,357.6 641.1,315.6 
				711.2,275.8 783.5,317.8 			"/>
		</g>
		<g>
			
				<linearGradient id="SVGID_00000110433931849120173450000010736392904355525301_" gradientUnits="userSpaceOnUse" x1="660.5672" y1="316.6911" x2="763.9929" y2="316.6911">
				<stop  offset="0" style="stop-color:#3E6EE1"/>
				<stop  offset="1" style="stop-color:#6BFFF6"/>
			</linearGradient>
			<polygon style="fill:url(#SVGID_00000110433931849120173450000010736392904355525301_);" points="713.1,346.4 660.6,315.9 
				711.5,287 764,317.5 			"/>
		</g>
	</g>
	<g>
		<g>
			
				<linearGradient id="SVGID_00000035510572666334209980000014936694942729733019_" gradientUnits="userSpaceOnUse" x1="721.5007" y1="323.092" x2="706.7496" y2="305.8824">
				<stop  offset="0" style="stop-color:#002CFF"/>
				<stop  offset="1" style="stop-color:#39D1FC"/>
			</linearGradient>
			<path style="fill:url(#SVGID_00000035510572666334209980000014936694942729733019_);" d="M708.6,322c0,0.5-0.2,0.8-0.5,1
				l11.5-6.7c0.3-0.2,0.5-0.5,0.5-1l0.8-8.6l-11.5,6.7L708.6,322z"/>
			
				<linearGradient id="SVGID_00000017513064845519333130000006865637938574736291_" gradientUnits="userSpaceOnUse" x1="684.7826" y1="258.5074" x2="666.3238" y2="236.9721">
				<stop  offset="0" style="stop-color:#002CFF"/>
				<stop  offset="1" style="stop-color:#39D1FC"/>
			</linearGradient>
			<path style="fill:url(#SVGID_00000017513064845519333130000006865637938574736291_);" d="M678.3,243
				C678.3,243,678.3,243,678.3,243c-0.1-0.1-0.2-0.1-0.3-0.1c-0.1,0-0.1,0-0.2,0c0,0-0.1,0-0.1,0c0,0-0.1,0-0.1,0c0,0-0.1,0-0.1,0
				c0,0-0.1,0-0.1,0c0,0-0.1,0-0.1,0c0,0-0.1,0-0.1,0c0,0,0,0,0,0l-11.5,6.7c0,0,0,0,0,0c0,0,0.1,0,0.1,0c0,0,0.1,0,0.1,0
				c0,0,0.1,0,0.1,0c0,0,0.1,0,0.1,0c0,0,0.1,0,0.1,0c0,0,0.1,0,0.1,0c0.1,0,0.1,0,0.2,0c0.1,0,0.1,0,0.2,0.1c0,0,0,0,0.1,0l7.9,3.7
				l11.5-6.7L678.3,243z"/>
			
				<linearGradient id="SVGID_00000118393604385209264750000002499998644813673866_" gradientUnits="userSpaceOnUse" x1="804.6609" y1="366.8311" x2="623.642" y2="155.6422">
				<stop  offset="0" style="stop-color:#002CFF"/>
				<stop  offset="1" style="stop-color:#39D1FC"/>
			</linearGradient>
			<path style="fill:url(#SVGID_00000118393604385209264750000002499998644813673866_);" d="M752.6,287.9
				C752.6,287.9,752.6,287.9,752.6,287.9C752.6,287.9,752.6,287.9,752.6,287.9c0-0.1,0-0.2-0.1-0.3c0,0,0-0.1,0-0.1c0,0,0,0,0-0.1
				c0,0,0,0,0-0.1c0-0.1,0-0.2-0.1-0.2c0,0,0-0.1-0.1-0.1c0,0,0,0,0,0c0,0,0,0,0,0c0-0.1-0.1-0.1-0.1-0.2c0-0.1-0.1-0.1-0.1-0.2
				c0,0,0,0,0,0c0,0,0,0,0,0c0,0,0-0.1-0.1-0.1c0-0.1-0.1-0.1-0.1-0.2c0-0.1-0.1-0.1-0.1-0.2c0,0,0,0,0,0c0,0,0,0,0,0
				c0-0.1-0.1-0.1-0.1-0.2c0-0.1-0.1-0.1-0.1-0.2c0,0,0,0,0-0.1c0,0,0,0,0,0c0,0,0-0.1-0.1-0.1c-0.1-0.1-0.1-0.1-0.2-0.2
				c0,0,0,0,0,0c-0.1-0.1-0.3-0.2-0.4-0.3l-7.9-5.4c-0.1-0.6-0.2-1.3-0.4-1.9c0-0.1,0-0.1,0-0.2c0-0.2-0.1-0.4-0.1-0.5
				c-0.1-0.3-0.1-0.6-0.2-0.9c-0.1-0.3-0.1-0.5-0.2-0.8c-0.1-0.3-0.1-0.6-0.2-0.9c0-0.1,0-0.2-0.1-0.3c0-0.1-0.1-0.2-0.1-0.2
				c-0.2-0.9-0.5-1.7-0.8-2.6c0,0,0-0.1,0-0.1c0-0.1-0.1-0.2-0.1-0.2c-0.3-0.8-0.6-1.6-0.9-2.4c0,0,0-0.1,0-0.1c0,0,0,0,0-0.1
				c-0.2-0.6-0.4-1.1-0.7-1.7l5.1-4.1c0.1-0.1,0.2-0.2,0.2-0.2c0,0,0-0.1,0-0.1c0-0.1,0.1-0.1,0.1-0.2c0,0,0-0.1,0-0.2
				c0-0.1,0-0.2,0-0.2c0-0.1,0-0.1,0-0.2c0-0.1,0-0.2,0-0.3c0,0,0,0,0-0.1c0-0.1,0-0.2-0.1-0.3c0,0,0,0,0,0c0,0,0,0,0,0
				c0-0.1,0-0.2-0.1-0.2c0-0.1,0-0.2-0.1-0.2c0,0,0,0,0,0c0,0,0,0,0,0c0-0.1,0-0.1-0.1-0.2c0-0.1-0.1-0.1-0.1-0.2c0,0,0,0,0-0.1
				c0,0,0,0,0,0c0,0,0-0.1,0-0.1c0-0.1-0.1-0.1-0.1-0.2c0-0.1-0.1-0.1-0.1-0.2l-4.9-8.4c0,0,0,0,0,0c0-0.1-0.1-0.1-0.1-0.2
				c0-0.1-0.1-0.1-0.1-0.2c0,0,0-0.1-0.1-0.1c0,0,0,0,0,0c0,0,0-0.1-0.1-0.1c-0.1-0.1-0.1-0.2-0.2-0.2c0,0-0.1-0.1-0.1-0.1
				c0,0-0.1-0.1-0.1-0.1c0,0-0.1-0.1-0.1-0.1c-0.1-0.1-0.1-0.1-0.2-0.2c0,0-0.1-0.1-0.1-0.1c-0.1-0.1-0.3-0.2-0.4-0.3
				c-0.1-0.1-0.2-0.1-0.3-0.1c0,0,0,0,0,0c0,0,0,0-0.1,0c0,0-0.1,0-0.1,0c0,0-0.1,0-0.1,0c0,0,0,0,0,0c0,0,0,0,0,0c0,0-0.1,0-0.1,0
				c0,0-0.1,0-0.1,0h0l0,0c0,0-0.1,0-0.1,0c0,0-0.1,0-0.1,0c0,0,0,0-0.1,0l-6.1,2.3c-0.1-0.1-0.2-0.3-0.3-0.4
				c-0.1-0.1-0.2-0.3-0.3-0.4c-0.2-0.3-0.4-0.5-0.6-0.8c-0.2-0.2-0.3-0.4-0.5-0.6c-0.2-0.3-0.4-0.5-0.6-0.8
				c-0.1-0.1-0.2-0.2-0.2-0.3c-0.1-0.1-0.1-0.2-0.2-0.2c-0.4-0.4-0.7-0.8-1.1-1.2c-0.1-0.1-0.2-0.2-0.3-0.4c-0.5-0.5-0.9-1-1.4-1.5
				c0,0-0.1-0.1-0.1-0.1c-0.1-0.1-0.2-0.1-0.2-0.2c-0.4-0.4-0.8-0.8-1.2-1.2c-0.1-0.1-0.3-0.3-0.4-0.4c-0.3-0.3-0.7-0.6-1-0.9l0,0
				l-0.5-0.5c0,0,0,0,0,0l0,0l0,0l0-0.5l0,0l-0.7-9c0,0,0-0.1,0-0.1c0-0.1,0-0.2,0-0.2c0,0,0,0,0-0.1c0,0,0,0,0,0c0,0,0-0.1,0-0.1
				c0-0.1,0-0.1-0.1-0.2c0,0,0-0.1-0.1-0.1c0,0,0,0,0,0c0,0,0,0,0,0c0-0.1,0-0.1-0.1-0.2c0-0.1,0-0.1-0.1-0.2c0,0,0-0.1-0.1-0.1
				c0,0,0,0,0,0c0,0,0,0,0,0c0-0.1-0.1-0.1-0.1-0.2c0-0.1-0.1-0.1-0.1-0.2c0,0,0,0,0-0.1c0,0,0,0,0,0c0,0,0-0.1-0.1-0.1
				c0-0.1-0.1-0.1-0.1-0.2c0,0,0-0.1-0.1-0.1c0,0,0,0,0-0.1c0,0,0-0.1-0.1-0.1c-0.1-0.1-0.2-0.2-0.3-0.3c0,0,0,0,0,0
				c-0.1-0.1-0.2-0.2-0.3-0.2c0,0-0.1-0.1-0.1-0.1c-0.1-0.1-0.3-0.2-0.4-0.3l-6.9-4c-0.1-0.1-0.2-0.1-0.3-0.2c0,0-0.1,0-0.1,0
				c0,0-0.1,0-0.1,0c0,0-0.1,0-0.1,0c-0.1,0-0.1,0-0.2,0c0,0,0,0-0.1,0c0,0,0,0,0,0c0,0-0.1,0-0.1,0c-0.1,0-0.1,0-0.2,0
				c0,0-0.1,0-0.1,0c0,0,0,0,0,0c0,0,0,0,0,0c0,0-0.1,0-0.1,0c0,0-0.1,0-0.1,0c0,0-0.1,0-0.1,0.1c0,0,0,0,0,0l-11.5,6.7
				c0.1-0.1,0.2-0.1,0.3-0.1c0,0,0,0,0,0c0.1,0,0.2,0,0.4,0c0,0,0,0,0,0c0.1,0,0.2,0,0.4,0.1c0,0,0.1,0,0.1,0
				c0.1,0.1,0.3,0.1,0.4,0.2l2.8,1.6c0,0-0.1,0-0.1,0c-0.7,0-1.3,0-1.9,0c-0.5,0-1,0.1-1.4,0.2l-6.1-9.3c0,0-0.1-0.1-0.1-0.1
				c0-0.1-0.1-0.1-0.1-0.2c0-0.1-0.1-0.1-0.1-0.2c-0.1-0.1-0.1-0.1-0.2-0.2c-0.2-0.2-0.4-0.4-0.6-0.5c-0.1-0.1-0.2-0.1-0.3-0.1
				c-0.1,0-0.2-0.1-0.3-0.1c-0.1,0-0.1,0-0.2,0c-0.1,0-0.1,0-0.2,0c-0.1,0-0.1,0-0.2,0c0,0-0.1,0-0.1,0c0,0-0.1,0-0.1,0
				c0,0-0.1,0-0.1,0c0,0-0.1,0-0.1,0.1c0,0,0,0,0,0l-4.9,2.8l-11.5,6.7l4.9-2.8c0,0,0,0,0,0c0,0,0.1,0,0.1-0.1c0,0,0.1,0,0.1,0
				c0,0,0.1,0,0.1,0c0,0,0.1,0,0.1,0c0.1,0,0.1,0,0.2,0c0.1,0,0.1,0,0.2,0c0.1,0,0.1,0,0.2,0c0.1,0,0.2,0.1,0.3,0.1
				c0.1,0,0.2,0.1,0.3,0.1c0.2,0.1,0.4,0.3,0.6,0.5c0.1,0.1,0.1,0.1,0.2,0.2c0,0.1,0.1,0.1,0.1,0.2c0,0,0.1,0.1,0.1,0.2
				c0,0,0.1,0.1,0.1,0.1l6.1,9.3c0.5-0.1,0.9-0.1,1.4-0.2c0.6,0,1.3,0,1.9,0c0.7,0,1.4,0.1,2.2,0.2c0.8,0.1,1.7,0.3,2.6,0.5
				c0.4,0.1,0.8,0.2,1.2,0.4l9.6-5.6l0.2,0.1c0.1,0.1,0.3,0.2,0.4,0.3c0,0,0.1,0.1,0.1,0.1c0.1,0.1,0.2,0.1,0.3,0.2
				c0.1,0.1,0.2,0.2,0.3,0.4c0,0,0,0,0,0.1c0.1,0.1,0.2,0.2,0.3,0.4c0,0,0,0,0,0c0.1,0.1,0.2,0.3,0.2,0.4c0,0,0,0,0,0
				c0.1,0.1,0.1,0.3,0.2,0.4c0,0,0,0,0,0c0.1,0.1,0.1,0.3,0.1,0.4c0,0,0,0,0,0c0,0.1,0.1,0.3,0.1,0.4l0.7,9.5c0.5,0.4,1,0.9,1.6,1.4
				c0.1,0.1,0.3,0.3,0.4,0.4c0.4,0.4,0.8,0.8,1.2,1.2c0.1,0.1,0.2,0.2,0.3,0.3c0.5,0.5,1,1,1.4,1.5c0.1,0.1,0.2,0.2,0.3,0.4
				c0.4,0.4,0.7,0.8,1.1,1.2c0.2,0.2,0.3,0.3,0.5,0.5c0.2,0.3,0.4,0.5,0.6,0.8c0.2,0.2,0.3,0.4,0.5,0.6c0.2,0.3,0.4,0.5,0.6,0.8
				c0.2,0.3,0.4,0.5,0.6,0.8l6.1-2.3c0.1,0,0.2,0,0.3-0.1c0,0,0,0,0,0c0.1,0,0.2,0,0.3,0c0,0,0,0,0,0c0.1,0,0.2,0,0.2,0.1
				c0,0,0,0,0.1,0c0.1,0,0.2,0.1,0.3,0.1c0.1,0.1,0.3,0.2,0.4,0.3c0,0,0.1,0.1,0.1,0.1c0.1,0.1,0.2,0.2,0.3,0.3c0,0,0.1,0.1,0.1,0.1
				c0.1,0.1,0.2,0.3,0.3,0.4c0,0,0,0,0,0c0.1,0.2,0.2,0.3,0.4,0.5l4.9,8.4c0.1,0.2,0.2,0.3,0.3,0.5c0,0,0,0,0,0
				c0.1,0.2,0.1,0.3,0.2,0.5c0,0,0,0,0,0c0.1,0.2,0.1,0.3,0.1,0.5c0,0,0,0,0,0c0,0.1,0,0.3,0.1,0.4c0,0.1,0,0.2,0,0.3
				c0,0.1,0,0.1,0,0.2c0,0.1,0,0.2,0,0.2c0,0.1,0,0.1,0,0.2c0,0.1-0.1,0.2-0.1,0.2c0,0,0,0.1,0,0.1c-0.1,0.1-0.1,0.2-0.2,0.2
				l-5.1,4.1c0.2,0.5,0.4,1.1,0.7,1.7c0,0.1,0,0.1,0.1,0.2c0.3,0.8,0.6,1.6,0.9,2.4c0,0.1,0.1,0.2,0.1,0.3c0.3,0.9,0.6,1.7,0.8,2.6
				c0,0.2,0.1,0.4,0.1,0.5c0.1,0.3,0.2,0.6,0.2,0.9c0.1,0.3,0.1,0.5,0.2,0.8c0.1,0.3,0.1,0.6,0.2,0.9c0.1,0.2,0.1,0.5,0.2,0.7
				c0.1,0.6,0.3,1.3,0.4,1.9l7.9,5.4c0.1,0.1,0.3,0.2,0.4,0.3c0.1,0.1,0.2,0.2,0.3,0.3c0,0,0,0,0,0c0.1,0.1,0.2,0.3,0.3,0.4
				c0,0,0,0,0,0c0.1,0.1,0.2,0.3,0.2,0.4c0,0,0,0,0,0c0.1,0.1,0.1,0.3,0.2,0.5c0,0,0,0,0,0c0.1,0.1,0.1,0.3,0.1,0.4c0,0,0,0,0,0.1
				c0,0.1,0.1,0.3,0.1,0.4c0,0,0,0,0,0c0,0.2,0,0.3,0,0.5l0,0.1l-9.7,5.6c-0.8,3.4-2.1,6.2-3.9,8.4l5,9.9c0.1,0.2,0.1,0.3,0.2,0.5
				c0,0,0,0,0,0c0.1,0.1,0.1,0.3,0.1,0.4c0,0,0,0,0,0c0,0.1,0,0.2,0,0.3c0,0.2,0,0.3,0,0.4c0,0,0,0.1,0,0.1c0,0.2-0.1,0.3-0.1,0.5
				c0,0,0,0.1,0,0.1c0,0.1-0.1,0.2-0.2,0.3c0,0,0,0.1-0.1,0.1c-0.1,0.1-0.2,0.2-0.3,0.3l11.5-6.7c0.1-0.1,0.2-0.2,0.3-0.3
				c0,0,0-0.1,0.1-0.1c0.1-0.1,0.1-0.2,0.2-0.3c0,0,0-0.1,0-0.1c0-0.1,0.1-0.3,0.1-0.5c0,0,0-0.1,0-0.1c0-0.1,0-0.3,0-0.4
				c0,0,0,0,0-0.1c0-0.1,0-0.2,0-0.2c0,0,0,0,0,0c0,0,0,0,0,0c0-0.1,0-0.1-0.1-0.2c0-0.1,0-0.1-0.1-0.2c0,0,0,0,0,0c0,0,0,0,0,0
				c0,0,0-0.1,0-0.1c0-0.1,0-0.1-0.1-0.2c0,0,0-0.1-0.1-0.1c0,0,0,0,0-0.1l-5-9.9c0.8-0.9,1.4-2,2-3.2l0,3.7c0,0.7-0.3,1.3-0.6,1.5
				l11.5-6.7c0.1-0.1,0.2-0.1,0.3-0.2c0.2-0.3,0.4-0.7,0.4-1.3l0-7.9C752.6,288.3,752.6,288.1,752.6,287.9z"/>
			
				<linearGradient id="SVGID_00000097492245503104772130000009520789545478368388_" gradientUnits="userSpaceOnUse" x1="751.5311" y1="334.0725" x2="649.9598" y2="215.5727">
				<stop  offset="0" style="stop-color:#002CFF"/>
				<stop  offset="1" style="stop-color:#39D1FC"/>
			</linearGradient>
			<path style="fill:url(#SVGID_00000097492245503104772130000009520789545478368388_);" d="M713.4,293.5
				c-11.8-6.8-21.3-23.3-21.3-36.8c0-6.1,2-10.6,5.2-13c-3.1,0.7-5.6,2.5-7.2,5.5c-1.3,0.7-2.4,1.6-3.4,2.8c-3.1,2.5-5,6.8-5,12.8
				c0,13.5,9.5,30,21.3,36.8c4.4,2.5,8.5,3.3,11.9,2.7c0.6,0.1,1.1,0.2,1.5,0.3c1.2,0.1,3.3-1,4.6-2.5c1.3-1.5,2.5-3.8,2.5-3.8
				l1.9-2.1c0,0-0.4,0.4-1.2,0.8c0.4-0.2,0.8-0.5,1.2-0.8C722,296.9,717.8,296.1,713.4,293.5z"/>
		</g>
		
			<linearGradient id="SVGID_00000051378627557771352380000015238611796745391756_" gradientUnits="userSpaceOnUse" x1="840.2317" y1="346.0194" x2="785.1014" y2="265.6939" gradientTransform="matrix(1 0 0 1 -89.8621 0)">
			<stop  offset="0" style="stop-color:#FFFFFF"/>
			<stop  offset="1" style="stop-color:#A7FFFF"/>
		</linearGradient>
		<path style="fill:url(#SVGID_00000051378627557771352380000015238611796745391756_);" d="M665,259.1c0,1.3,0.8,2.8,1.7,3.5
			l7.9,5.4c0.7,4.3,2,8.6,3.8,12.8l-5.1,4.1c-0.6,0.5-0.5,2,0.3,3.4l4.9,8.4c0.5,0.8,1,1.4,1.6,1.7c0.4,0.2,0.8,0.3,1.2,0.2l6.1-2.3
			c2.8,3.6,5.9,7,9.2,9.7l0.7,9.5c0.1,1.2,1,2.6,2.2,3.3l6.9,4c1.1,0.7,2.1,0.3,2.2-0.8l0.8-8.6c3.3,1.1,6.5,1.4,9.3,0.9l6.1,9.3
			c0.3,0.5,0.7,0.9,1.1,1.1c0.6,0.3,1.2,0.4,1.6,0.1l4.9-2.8c0.8-0.5,0.9-1.8,0.3-3l-5-9.9c1.8-2.2,3.1-5,3.9-8.4l7.9,3.7
			c1,0.5,1.8-0.2,1.8-1.5l0-7.9c0-1.3-0.7-2.8-1.7-3.5l-7.9-5.4c-0.7-4.3-2-8.6-3.8-12.8l5.1-4.1c0.6-0.5,0.5-2-0.3-3.4l-4.9-8.4
			c-0.5-0.8-1.1-1.4-1.6-1.7c-0.4-0.2-0.8-0.3-1.2-0.2l-6.1,2.3c-2.8-3.7-5.9-7-9.2-9.7l-0.7-9.5c-0.1-1.2-1-2.6-2.2-3.3l-6.9-4
			c-1.1-0.7-2.1-0.3-2.2,0.8l-0.8,8.6c-3.3-1.1-6.5-1.4-9.3-0.9l-6.1-9.3c-0.3-0.5-0.7-0.9-1.1-1.1c-0.6-0.3-1.2-0.4-1.6-0.1
			l-4.9,2.8c-0.8,0.5-0.9,1.8-0.3,3l5,9.9c-1.8,2.2-3.1,5-3.9,8.4l-7.9-3.7c-1-0.5-1.8,0.2-1.8,1.5L665,259.1z M681.7,264.8
			c0-13.5,9.6-19,21.4-12.2c11.8,6.8,21.3,23.3,21.3,36.8c0,13.5-9.6,19-21.4,12.2C691.2,294.8,681.7,278.3,681.7,264.8z"/>
	</g>
	<g>
		
			<linearGradient id="SVGID_00000156573699196338226250000008323529967046247078_" gradientUnits="userSpaceOnUse" x1="135.4237" y1="494.2816" x2="212.56" y2="494.2816">
			<stop  offset="0" style="stop-color:#91F2E2;stop-opacity:0"/>
			<stop  offset="1" style="stop-color:#91F2E2"/>
		</linearGradient>
		
			<line style="fill:none;stroke:url(#SVGID_00000156573699196338226250000008323529967046247078_);stroke-width:0.5538;stroke-miterlimit:10;" x1="135.6" y1="515.7" x2="212.4" y2="472.9"/>
		
			<linearGradient id="SVGID_00000038411452658879424030000011782808919711084983_" gradientUnits="userSpaceOnUse" x1="621.0755" y1="775.4913" x2="698.212" y2="775.4913">
			<stop  offset="0" style="stop-color:#91F2E2;stop-opacity:0"/>
			<stop  offset="1" style="stop-color:#91F2E2"/>
		</linearGradient>
		
			<line style="fill:none;stroke:url(#SVGID_00000038411452658879424030000011782808919711084983_);stroke-width:0.5538;stroke-miterlimit:10;" x1="621.2" y1="796.9" x2="698.1" y2="754.1"/>
		
			<linearGradient id="SVGID_00000144315866199581494320000003152939204644348564_" gradientUnits="userSpaceOnUse" x1="752.4911" y1="435.5121" x2="825.0723" y2="435.5121">
			<stop  offset="0" style="stop-color:#91F2E2"/>
			<stop  offset="1" style="stop-color:#91F2E2;stop-opacity:0"/>
		</linearGradient>
		
			<line style="fill:none;stroke:url(#SVGID_00000144315866199581494320000003152939204644348564_);stroke-width:0.5538;stroke-miterlimit:10;" x1="824.9" y1="456.5" x2="752.6" y2="414.5"/>
		
			<ellipse transform="matrix(1 -5.764696e-03 5.764696e-03 1 -3.2343 2.6903)" class="st12" cx="465.1" cy="562.4" rx="127.4" ry="72.5"/>
	</g>
	<g class="st11">
		<line class="st12" x1="290.3" y1="474.6" x2="361.1" y2="516.2"/>
		<g>
			<polygon class="st25" points="252.4,496.2 173.4,450.3 250,406.8 328.9,452.7 			"/>
		</g>
		<g>
			<g>
				
					<linearGradient id="SVGID_00000114069542895929168440000018103125148727543735_" gradientUnits="userSpaceOnUse" x1="253.9998" y1="444.1338" x2="376.8614" y2="444.1338">
					<stop  offset="0" style="stop-color:#3E6EE1"/>
					<stop  offset="0.9792" style="stop-color:#6BBDF6"/>
				</linearGradient>
				<polygon style="fill:url(#SVGID_00000114069542895929168440000018103125148727543735_);" points="322.4,410.8 322.7,437.6 
					252.6,477.4 252.3,450.7 				"/>
			</g>
			<g>
				
					<linearGradient id="SVGID_00000124871448731374275020000011198393522400264629_" gradientUnits="userSpaceOnUse" x1="179.9771" y1="443.049" x2="252.5802" y2="443.049">
					<stop  offset="0" style="stop-color:#83E8F7"/>
					<stop  offset="1" style="stop-color:#6BBDF6"/>
				</linearGradient>
				<polygon style="fill:url(#SVGID_00000124871448731374275020000011198393522400264629_);" points="252.6,477.4 180.3,435.4 
					180,408.7 252.3,450.7 				"/>
			</g>
			<g>
				
					<linearGradient id="SVGID_00000162323706819637196270000001417983691868688828_" gradientUnits="userSpaceOnUse" x1="179.9771" y1="409.7574" x2="322.3726" y2="409.7574">
					<stop  offset="0" style="stop-color:#1E34B4"/>
					<stop  offset="1" style="stop-color:#4D87F4"/>
				</linearGradient>
				<polygon style="fill:url(#SVGID_00000162323706819637196270000001417983691868688828_);" points="252.3,450.7 180,408.7 
					250.1,368.8 322.4,410.8 				"/>
			</g>
		</g>
		<g>
			<g>
				
					<linearGradient id="SVGID_00000163037450473677074630000007585478153235501476_" gradientUnits="userSpaceOnUse" x1="253.9998" y1="404.2857" x2="376.8614" y2="404.2857">
					<stop  offset="0" style="stop-color:#3E6EE1"/>
					<stop  offset="0.9792" style="stop-color:#6BBDF6"/>
				</linearGradient>
				<polygon style="fill:url(#SVGID_00000163037450473677074630000007585478153235501476_);" points="322.4,371 322.7,397.7 
					252.6,437.6 252.3,410.8 				"/>
			</g>
			<g>
				
					<linearGradient id="SVGID_00000063595929598971330720000004741101139708826546_" gradientUnits="userSpaceOnUse" x1="179.9771" y1="403.2011" x2="252.5802" y2="403.2011">
					<stop  offset="0" style="stop-color:#83E8F7"/>
					<stop  offset="1" style="stop-color:#6BBDF6"/>
				</linearGradient>
				<polygon style="fill:url(#SVGID_00000063595929598971330720000004741101139708826546_);" points="252.6,437.6 180.3,395.6 
					180,368.8 252.3,410.8 				"/>
			</g>
			<g>
				
					<linearGradient id="SVGID_00000173878576524796185140000000089859770715036824_" gradientUnits="userSpaceOnUse" x1="179.9771" y1="369.9093" x2="322.3726" y2="369.9093">
					<stop  offset="0" style="stop-color:#1E34B4"/>
					<stop  offset="1" style="stop-color:#4D87F4"/>
				</linearGradient>
				<polygon style="fill:url(#SVGID_00000173878576524796185140000000089859770715036824_);" points="252.3,410.8 180,368.8 
					250.1,329 322.4,371 				"/>
			</g>
			<g>
				
					<linearGradient id="SVGID_00000031911234642050408250000007048983563267600044_" gradientUnits="userSpaceOnUse" x1="198.5156" y1="369.9095" x2="303.8341" y2="369.9095">
					<stop  offset="0" style="stop-color:#3E6EE1"/>
					<stop  offset="1" style="stop-color:#6BFFF6"/>
				</linearGradient>
				<polygon style="fill:url(#SVGID_00000031911234642050408250000007048983563267600044_);" points="252,400.2 198.5,369.1 
					250.4,339.6 303.8,370.7 				"/>
			</g>
		</g>
	</g>
	<g>
		<g>
			
				<linearGradient id="SVGID_00000176019848158494104930000005651509560583244721_" gradientUnits="userSpaceOnUse" x1="342.6788" y1="543.3306" x2="585.2954" y2="543.3306" gradientTransform="matrix(1 -5.800000e-03 5.800000e-03 1 -1.9686 3.5859)">
				<stop  offset="2.082500e-02" style="stop-color:#6BBDF6"/>
				<stop  offset="1" style="stop-color:#3E33E1"/>
			</linearGradient>
			<path style="fill:url(#SVGID_00000176019848158494104930000005651509560583244721_);" d="M584.6,524.5
				c-10-32.4-59.9-56.9-119.8-56.5c-59.9,0.3-109.5,25.4-119.2,57.9l-1.8,0l0.2,26.2c0.2,38.1,54.7,68.7,121.7,68.3
				c67-0.4,121.1-31.6,120.9-69.7l-0.2-26.2L584.6,524.5z"/>
			
				<linearGradient id="SVGID_00000165953719080081676530000004022151960190959013_" gradientUnits="userSpaceOnUse" x1="342.6794" y1="524.3139" x2="585.2954" y2="524.3139" gradientTransform="matrix(1 -5.800000e-03 5.800000e-03 1 -1.9686 3.5859)">
				<stop  offset="0" style="stop-color:#3E6EE1"/>
				<stop  offset="0.9792" style="stop-color:#6BBDF6"/>
			</linearGradient>
			<path style="fill:url(#SVGID_00000165953719080081676530000004022151960190959013_);" d="M586.4,524.5
				c0.2,38.1-53.9,69.3-120.9,69.7c-67,0.4-121.5-30.2-121.7-68.3c-0.2-38.1,53.9-69.3,120.9-69.7
				C531.7,455.8,586.1,486.4,586.4,524.5z"/>
			
				<linearGradient id="SVGID_00000023247099441348335170000016911625589601485996_" gradientUnits="userSpaceOnUse" x1="349.8471" y1="541.7004" x2="578.1287" y2="541.7004" gradientTransform="matrix(1 -5.800000e-03 5.800000e-03 1 -1.9686 3.5859)">
				<stop  offset="2.082500e-02" style="stop-color:#6BBDF6"/>
				<stop  offset="1" style="stop-color:#3E33E1"/>
			</linearGradient>
			<path style="fill:url(#SVGID_00000023247099441348335170000016911625589601485996_);" d="M350.8,504.5l0.1,12.6
				c0.2,35.9,51.5,64.7,114.5,64.3c63-0.4,114-29.7,113.8-65.6l-0.1-12.6L350.8,504.5z"/>
			
				<linearGradient id="SVGID_00000017497075146845727020000013275220098282016419_" gradientUnits="userSpaceOnUse" x1="349.8476" y1="502.9265" x2="578.1287" y2="502.9265" gradientTransform="matrix(1 -5.800000e-03 5.800000e-03 1 -1.9686 3.5859)">
				<stop  offset="0" style="stop-color:#3E6EE1"/>
				<stop  offset="0.9792" style="stop-color:#6BBDF6"/>
			</linearGradient>
			<path style="fill:url(#SVGID_00000017497075146845727020000013275220098282016419_);" d="M579.1,503.2
				c0.2,35.9-50.7,65.2-113.8,65.6c-63,0.4-114.3-28.4-114.5-64.3c-0.2-35.9,50.7-65.2,113.8-65.6
				C527.6,438.5,578.9,467.3,579.1,503.2z"/>
			
				<linearGradient id="SVGID_00000136404702831424130860000008287335477338907020_" gradientUnits="userSpaceOnUse" x1="349.8476" y1="502.9265" x2="578.1287" y2="502.9265" gradientTransform="matrix(1 -5.800000e-03 5.800000e-03 1 -1.9686 3.5859)">
				<stop  offset="0" style="stop-color:#3E6EE1"/>
				<stop  offset="1" style="stop-color:#6BFFF6"/>
			</linearGradient>
			<path style="fill:url(#SVGID_00000136404702831424130860000008287335477338907020_);" d="M579.1,503.2
				c0.2,35.9-50.7,65.2-113.8,65.6c-63,0.4-114.3-28.4-114.5-64.3c-0.2-35.9,50.7-65.2,113.8-65.6
				C527.6,438.5,578.9,467.3,579.1,503.2z"/>
			
				<linearGradient id="SVGID_00000113338884898163144000000013559601613228072836_" gradientUnits="userSpaceOnUse" x1="371.1145" y1="502.9266" x2="556.8616" y2="502.9266" gradientTransform="matrix(1 -5.800000e-03 5.800000e-03 1 -1.9686 3.5859)">
				<stop  offset="2.082500e-02" style="stop-color:#6BBDF6"/>
				<stop  offset="1" style="stop-color:#3E33E1"/>
			</linearGradient>
			<path style="fill:url(#SVGID_00000113338884898163144000000013559601613228072836_);" d="M557.8,503.3
				c0.2,26.3-41.3,47.9-92.6,48.2c-51.3,0.3-93-20.8-93.1-47.1c-0.2-26.3,41.3-47.9,92.6-48.2C516,455.9,557.7,477,557.8,503.3z"/>
		</g>
		
			<radialGradient id="SVGID_00000128476172256507789230000008067534978169678760_" cx="464.7193" cy="541.3193" r="73.7992" gradientTransform="matrix(1 -5.800000e-03 4.282540e-03 0.7384 -1.1472 145.2118)" gradientUnits="userSpaceOnUse">
			<stop  offset="0" style="stop-color:#E06F1D"/>
			<stop  offset="1" style="stop-color:#FDFA3B;stop-opacity:0"/>
		</radialGradient>
		<path style="fill:url(#SVGID_00000128476172256507789230000008067534978169678760_);" d="M557.8,503.3
			c0.2,26.3-41.3,47.9-92.6,48.2c-51.3,0.3-93-20.8-93.1-47.1c-0.2-26.3,41.3-47.9,92.6-48.2C516,455.9,557.7,477,557.8,503.3z"/>
		<g>
			<g>
				<g>
					
						<linearGradient id="SVGID_00000105389679962597743210000004900382799320481667_" gradientUnits="userSpaceOnUse" x1="395.7439" y1="467.5096" x2="401.9367" y2="450.8481" gradientTransform="matrix(1 -5.800000e-03 5.800000e-03 1 -1.9686 3.5859)">
						<stop  offset="0" style="stop-color:#4D87F4"/>
						<stop  offset="1" style="stop-color:#1E34B4"/>
					</linearGradient>
					<path style="fill:url(#SVGID_00000105389679962597743210000004900382799320481667_);" d="M403.4,449.6c-4,2.3-7.9,6.3-8.7,15.1
						c-0.3,0.4-0.4,2.3-0.4,2.5c0,0.1,0.1,0.6,0.2,1c-0.2,0.2-0.4,0.4-0.7,0.6l0.7-0.4c0.1,0.3,0.1,0.5,0.1,0.5c0,0.1,0.1,1,0.1,1
						l0.4,1.4l5.7-3.3c0,0,0-3.3,0.1-5.4c0,0,0-0.1,0-0.1c0.7-9.1,4-13.9,8.1-16.3L403.4,449.6z"/>
					
						<linearGradient id="SVGID_00000119824654355606002610000011447579198650032263_" gradientUnits="userSpaceOnUse" x1="383.438" y1="469.7639" x2="422.9722" y2="422.627" gradientTransform="matrix(1 -5.800000e-03 5.800000e-03 1 -1.9686 3.5859)">
						<stop  offset="2.082500e-02" style="stop-color:#6BBDF6"/>
						<stop  offset="1" style="stop-color:#3E6EE1"/>
					</linearGradient>
					<path style="fill:url(#SVGID_00000119824654355606002610000011447579198650032263_);" d="M420.5,417.1
						c-33.3-3.7-33.6,43.5-33.5,49.1l0,0.4l8.1,4.6l0.2-5.5c1.9-25.3,29.5-16.8,30.7-16.4L420.5,417.1z"/>
				</g>
				<g>
					
						<linearGradient id="SVGID_00000072992660508616067030000008338234492907492766_" gradientUnits="userSpaceOnUse" x1="880.3046" y1="466.9553" x2="886.4975" y2="450.2936" gradientTransform="matrix(-1 5.800000e-03 5.800000e-03 1 1410.5751 -4.0484)">
						<stop  offset="0" style="stop-color:#4D87F4"/>
						<stop  offset="1" style="stop-color:#1E34B4"/>
					</linearGradient>
					<path style="fill:url(#SVGID_00000072992660508616067030000008338234492907492766_);" d="M525.9,448.9c4,2.3,8,6.2,8.9,15
						c0.3,0.4,0.4,2.3,0.4,2.5c0,0.1-0.1,0.6-0.2,1c0.2,0.2,0.4,0.4,0.7,0.6l-0.7-0.4c-0.1,0.3-0.1,0.5-0.1,0.5c0,0.1-0.1,1-0.1,1
						l-0.4,1.4l-5.7-3.2c0,0,0-3.3-0.2-5.4c0,0,0-0.1,0-0.1c-0.8-9.1-4.2-13.8-8.2-16.2L525.9,448.9z"/>
					
						<linearGradient id="SVGID_00000022540157183503746110000017815541605173820553_" gradientUnits="userSpaceOnUse" x1="867.9976" y1="469.2094" x2="907.5317" y2="422.0726" gradientTransform="matrix(-1 5.800000e-03 5.800000e-03 1 1410.5751 -4.0484)">
						<stop  offset="2.082500e-02" style="stop-color:#6BBDF6"/>
						<stop  offset="1" style="stop-color:#3E6EE1"/>
					</linearGradient>
					<path style="fill:url(#SVGID_00000022540157183503746110000017815541605173820553_);" d="M508.3,416.6
						c33.3-4.1,34.1,43.1,34.1,48.7l0,0.4l-8.1,4.7l-0.2-5.5c-2.2-25.2-29.7-16.5-30.8-16L508.3,416.6z"/>
				</g>
			</g>
			<g>
				<defs>
					<path id="SVGID_00000078732840400525247430000016203399148186288005_" d="M557.8,503.3c0.2,26.3-41.3,47.9-92.6,48.2
						c-51.3,0.3-93-20.8-93.1-47.1c-0.2-26.3,41.3-47.9,92.6-48.2C516,455.9,557.7,477,557.8,503.3z"/>
				</defs>
				<clipPath id="SVGID_00000155860092684458198160000001978714989134132403_">
					<use xlink:href="#SVGID_00000078732840400525247430000016203399148186288005_"  style="overflow:visible;"/>
				</clipPath>
				<g style="clip-path:url(#SVGID_00000155860092684458198160000001978714989134132403_);">
					
						<linearGradient id="SVGID_00000145017841964972239440000014406905120310666630_" gradientUnits="userSpaceOnUse" x1="463.9935" y1="488.6564" x2="463.9935" y2="547.9008" gradientTransform="matrix(1 -5.800000e-03 5.800000e-03 1 -1.9686 3.5859)">
						<stop  offset="0" style="stop-color:#E06F1D"/>
						<stop  offset="1" style="stop-color:#FDFA3B"/>
					</linearGradient>
					<path style="fill:url(#SVGID_00000145017841964972239440000014406905120310666630_);" d="M486.7,509.5
						c-0.1-17.1-9.9-31-21.9-30.9c-12,0.1-21.7,14-21.6,31.2c0.1,17.1,22.2,79.5,22.2,79.5S486.8,526.7,486.7,509.5z"/>
				</g>
			</g>
			
				<linearGradient id="SVGID_00000084530674368943749310000016571671778736635283_" gradientUnits="userSpaceOnUse" x1="405.5823" y1="379.0602" x2="524.5699" y2="379.0602">
				<stop  offset="0" style="stop-color:#FFFFFF"/>
				<stop  offset="1" style="stop-color:#A7FFFF"/>
			</linearGradient>
			<path style="fill:url(#SVGID_00000084530674368943749310000016571671778736635283_);" d="M540.7,256.8c0,0-1.5,9.9-4,25.8v0
				c-0.3,1.9-0.6,3.8-1,5.9l-0.5,3h0c-2.7,16.6-6.2,37.8-10.2,60.3c-8.1,45.6-18.2,96.8-27.3,126.7c-0.9,2.9-1.8,5.7-2.6,8.2
				c-1,4.2-6,14.1-30.2,14.7c-23.3-0.4-28.9-9.5-30.2-13.9c-1-2.6-1.9-5.5-2.9-8.6c-14.1-44.6-30.9-136.4-39.7-186.6
				c-0.6-3.2-1.1-6.2-1.6-9l0,0c-2.7-15.7-4.3-25.5-4.3-25.5l77.3,10.6L540.7,256.8z"/>
			
				<linearGradient id="SVGID_00000181765495671804040420000006258932620663224704_" gradientUnits="userSpaceOnUse" x1="435.7984" y1="496.481" x2="492.1655" y2="496.481" gradientTransform="matrix(1 -5.800000e-03 5.800000e-03 1 -1.9686 3.5859)">
				<stop  offset="2.082500e-02" style="stop-color:#6BBDF6"/>
				<stop  offset="1" style="stop-color:#3E33E1"/>
			</linearGradient>
			<path style="fill:url(#SVGID_00000181765495671804040420000006258932620663224704_);" d="M493,487.5c-0.8,2.5-1.5,4.9-2.3,7
				c-0.9,3.6-5.1,12.1-25.8,12.6c-19.9-0.3-24.7-8.1-25.8-11.9c-0.8-2.2-1.6-4.7-2.5-7.4c6.1,3.1,15,5.3,28.2,5.6
				C478.1,493,487,490.6,493,487.5z"/>
			
				<linearGradient id="SVGID_00000132802221332504059500000001713430045171093178_" gradientUnits="userSpaceOnUse" x1="431.012" y1="489.0886" x2="496.9522" y2="489.0886" gradientTransform="matrix(1 -5.800000e-03 5.800000e-03 1 -1.9686 3.5859)">
				<stop  offset="2.082500e-02" style="stop-color:#6BBDF6"/>
				<stop  offset="1" style="stop-color:#3E6EE1"/>
			</linearGradient>
			<path style="fill:url(#SVGID_00000132802221332504059500000001713430045171093178_);" d="M497.8,478.4c-0.9,2.9-1.8,5.7-2.6,8.2
				c-1,4.2-6,14.1-30.2,14.7c-23.3-0.4-28.9-9.5-30.2-13.9c-1-2.6-1.9-5.5-2.9-8.6c7.1,3.6,17.6,6.3,33,6.5
				C480.2,484.9,490.7,482.1,497.8,478.4z"/>
			
				<linearGradient id="SVGID_00000158019021312308366280000017729405435719621291_" gradientUnits="userSpaceOnUse" x1="404.1632" y1="184.6138" x2="517.4808" y2="268.6639" gradientTransform="matrix(1 -5.800000e-03 5.800000e-03 1 -1.9686 3.5859)">
				<stop  offset="0" style="stop-color:#6BFFF6"/>
				<stop  offset="1" style="stop-color:#3E56E1"/>
			</linearGradient>
			<path style="fill:url(#SVGID_00000158019021312308366280000017729405435719621291_);" d="M459.2,135.3
				c-14.1,11.7-64.4,57.6-72.9,121.1c0,0-0.2,39.8,77.4,41c77.6-2.1,77-41.9,77-41.9c-9.2-63.4-60.1-108.8-74.2-120.3
				C464.3,133.5,461.3,133.5,459.2,135.3z"/>
			<g>
				
					<linearGradient id="SVGID_00000008146053790968315350000000764903756467414206_" gradientUnits="userSpaceOnUse" x1="390.9341" y1="296.4424" x2="537.0569" y2="296.4424" gradientTransform="matrix(1 -5.800000e-03 5.800000e-03 1 -1.9686 3.5859)">
					<stop  offset="2.082500e-02" style="stop-color:#6BBDF6"/>
					<stop  offset="1" style="stop-color:#3E33E1"/>
				</linearGradient>
				<path style="fill:url(#SVGID_00000008146053790968315350000000764903756467414206_);" d="M536.7,282.7l-1,5.9l-0.5,3l0,0
					c-11.2,9.9-32.1,19.4-71.4,20.4c-39.4-0.6-60.5-9.8-71.7-19.6c-0.6-3.2-1.1-6.2-1.6-9c8.5,10.6,28.1,23.1,73.3,23.7
					C508.8,305.8,528.3,293.3,536.7,282.7z"/>
			</g>
			<g>
				<g>
					
						<linearGradient id="SVGID_00000138534746559431905970000014145249087518388908_" gradientUnits="userSpaceOnUse" x1="386.3467" y1="491.0776" x2="431.3069" y2="491.0776" gradientTransform="matrix(1 -5.800000e-03 5.800000e-03 1 -1.9686 3.5859)">
						<stop  offset="0" style="stop-color:#1E34B4"/>
						<stop  offset="1" style="stop-color:#4D87F4"/>
					</linearGradient>
					<path style="fill:url(#SVGID_00000138534746559431905970000014145249087518388908_);" d="M431.9,440L431.9,440L431.9,440
						L431.9,440L431.9,440l-4.3-2.3l-2.8,2.6l-0.1,0c0,0-37.7,34.9-37.1,103.9l4.6,2.6C392,543.7,390.6,483.4,431.9,440z"/>
					
						<linearGradient id="SVGID_00000102503579518498880250000003004899261908284067_" gradientUnits="userSpaceOnUse" x1="390.903" y1="492.2455" x2="437.5511" y2="492.2455" gradientTransform="matrix(1 -5.800000e-03 5.800000e-03 1 -1.9686 3.5859)">
						<stop  offset="0" style="stop-color:#3E6EE1"/>
						<stop  offset="0.9792" style="stop-color:#6BBDF6"/>
					</linearGradient>
					<path style="fill:url(#SVGID_00000102503579518498880250000003004899261908284067_);" d="M431.9,440
						c-41.3,43.4-39.9,103.6-39.8,106.8l0,0l0,0c0,0,0,0,0,0l3.7-2.1c0.1-0.1,0.3-0.2,0.4-0.3l5.6-3.4l0.2-6.8
						c2.1-33.3,29.4-57.2,36.3-61.1L431.9,440z"/>
				</g>
				<g>
					
						<linearGradient id="SVGID_00000042737885224245220380000014002477113519648660_" gradientUnits="userSpaceOnUse" x1="798.9266" y1="490.5253" x2="843.8799" y2="490.5253" gradientTransform="matrix(-1 5.800000e-03 5.800000e-03 1 1338.5883 -3.6333)">
						<stop  offset="0" style="stop-color:#1E34B4"/>
						<stop  offset="1" style="stop-color:#4D87F4"/>
					</linearGradient>
					<path style="fill:url(#SVGID_00000042737885224245220380000014002477113519648660_);" d="M497.3,439.7L497.3,439.7L497.3,439.7
						L497.3,439.7L497.3,439.7l4.3-2.4l2.9,2.6l0.1,0c0,0,38.1,34.4,38.3,103.4l-4.6,2.7C538.3,542.8,539.1,482.6,497.3,439.7z"/>
					
						<linearGradient id="SVGID_00000141434593897734937330000005925671361521981621_" gradientUnits="userSpaceOnUse" x1="803.4832" y1="491.6934" x2="850.1263" y2="491.6934" gradientTransform="matrix(-1 5.800000e-03 5.800000e-03 1 1338.5883 -3.6333)">
						<stop  offset="0" style="stop-color:#3E6EE1"/>
						<stop  offset="0.9792" style="stop-color:#6BBDF6"/>
					</linearGradient>
					<path style="fill:url(#SVGID_00000141434593897734937330000005925671361521981621_);" d="M497.3,439.7
						c41.8,42.9,41,103.1,41,106.3l0,0l0,0c0,0,0,0,0,0l-3.7-2.1c-0.1-0.1-0.3-0.2-0.4-0.3l-5.7-3.3l-0.3-6.8
						c-2.5-33.3-30-56.9-37-60.7L497.3,439.7z"/>
				</g>
			</g>
			
				<linearGradient id="SVGID_00000163768770045831816110000012928972728177198487_" gradientUnits="userSpaceOnUse" x1="435.7519" y1="367.5337" x2="490.3186" y2="367.5337" gradientTransform="matrix(1 -5.800000e-03 5.800000e-03 1 -1.9686 3.5859)">
				<stop  offset="2.082500e-02" style="stop-color:#6BBDF6"/>
				<stop  offset="1" style="stop-color:#3E56E1"/>
			</linearGradient>
			<path style="fill:url(#SVGID_00000163768770045831816110000012928972728177198487_);" d="M463.4,399.5L463.4,399.5
				c-12.5,0.1-24.2-9.5-26.3-23.2l-0.8-5c-2.7-17.2,9-34,26.7-34.1h0c17.7-0.1,29.6,16.5,27.1,33.8l-0.7,5
				C487.4,389.8,475.9,399.5,463.4,399.5z"/>
			
				<linearGradient id="SVGID_00000067220376886381665590000009064667760693712529_" gradientUnits="userSpaceOnUse" x1="435.7519" y1="367.5337" x2="490.3186" y2="367.5337" gradientTransform="matrix(1 -5.800000e-03 5.800000e-03 1 -1.9686 3.5859)">
				<stop  offset="2.082500e-02" style="stop-color:#6BBDF6"/>
				<stop  offset="1" style="stop-color:#3E56E1"/>
			</linearGradient>
			<path style="fill:url(#SVGID_00000067220376886381665590000009064667760693712529_);" d="M463.4,399.5L463.4,399.5
				c-12.5,0.1-24.2-9.5-26.3-23.2l-0.8-5c-2.7-17.2,9-34,26.7-34.1h0c17.7-0.1,29.6,16.5,27.1,33.8l-0.7,5
				C487.4,389.8,475.9,399.5,463.4,399.5z"/>
			<path class="st57" d="M463.4,402.2L463.4,402.2c-12.5,0.1-24.2-9.5-26.3-23.2l-0.8-5c-2.7-17.2,9-34,26.7-34.1l0,0
				c17.7-0.1,29.6,16.5,27.1,33.8l-0.7,5C487.5,392.5,475.9,402.2,463.4,402.2z"/>
			
				<linearGradient id="SVGID_00000067229388772341723710000018377795304390832516_" gradientUnits="userSpaceOnUse" x1="444.2285" y1="349.8119" x2="481.601" y2="390.0592" gradientTransform="matrix(1 -5.800000e-03 5.800000e-03 1 -1.9686 3.5859)">
				<stop  offset="0" style="stop-color:#3E6EE1"/>
				<stop  offset="0.9792" style="stop-color:#6BBDF6"/>
			</linearGradient>
			<path style="fill:url(#SVGID_00000067229388772341723710000018377795304390832516_);" d="M463.4,398.4L463.4,398.4
				c-11,0.1-21.2-8.3-23.1-20.3l-0.7-4.4c-2.4-15.1,7.9-29.8,23.5-29.9l0,0c15.5-0.1,26,14.5,23.8,29.6l-0.6,4.4
				C484.5,389.9,474.4,398.4,463.4,398.4z"/>
			
				<linearGradient id="SVGID_00000140003877091667864740000016578201662441746052_" gradientUnits="userSpaceOnUse" x1="463.0412" y1="341.8943" x2="463.0412" y2="397.7996" gradientTransform="matrix(1 -5.800000e-03 5.800000e-03 1 -1.9686 3.5859)">
				<stop  offset="2.082500e-02" style="stop-color:#6BBDF6"/>
				<stop  offset="1" style="stop-color:#3E6EE1"/>
			</linearGradient>
			<path style="fill:url(#SVGID_00000140003877091667864740000016578201662441746052_);" d="M487.2,369.3c0,1.4-0.1,2.8-0.3,4.2
				l-0.6,4.4c-1.8,12-11.9,20.5-22.9,20.6c-11,0.1-21.2-8.3-23.1-20.3l-0.7-4.4c-0.3-1.9-0.4-3.8-0.3-5.6
				c0.6-13,10.2-24.2,23.8-24.3c13.6-0.1,23.3,11,24.1,23.9C487.1,368.2,487.2,368.8,487.2,369.3z"/>
			
				<linearGradient id="SVGID_00000023252844843896363820000013110628333549867151_" gradientUnits="userSpaceOnUse" x1="444.9221" y1="349.2475" x2="480.9157" y2="388.0098" gradientTransform="matrix(1 -5.800000e-03 5.800000e-03 1 -1.9686 3.5859)">
				<stop  offset="2.082500e-02" style="stop-color:#6BBDF6"/>
				<stop  offset="1" style="stop-color:#3E6EE1"/>
			</linearGradient>
			<path style="fill:url(#SVGID_00000023252844843896363820000013110628333549867151_);" d="M487.1,367.7c0,1-0.1,2.1-0.3,3.1
				l-0.6,4.4c-1.8,12-11.9,20.5-22.9,20.6c-11,0.1-21.2-8.3-23.1-20.3l-0.7-4.4c-0.2-1-0.3-2-0.3-3c0.6-13,10.2-24.2,23.8-24.3
				C476.6,343.8,486.3,354.8,487.1,367.7z"/>
		</g>
		
			<linearGradient id="SVGID_00000058576976213915225380000005720551885911120046_" gradientUnits="userSpaceOnUse" x1="464.9367" y1="549.0983" x2="464.9367" y2="168.5762">
			<stop  offset="0" style="stop-color:#FFFFFF"/>
			<stop  offset="1" style="stop-color:#FFFFFF;stop-opacity:0"/>
		</linearGradient>
		<path style="opacity:0.4;fill:url(#SVGID_00000058576976213915225380000005720551885911120046_);" d="M636.7,127.8H293.2
			l78.9,376.5c0.2,26.3,41.9,47.4,93.1,47.1c51.3-0.3,92.8-21.9,92.6-48.2h0L636.7,127.8z"/>
	</g>
	<g class="st11">
		<g>
			<polygon class="st62" points="737.7,776.7 661.4,732.4 735.3,690.3 811.6,734.7 			"/>
		</g>
		<line class="st62" x1="547.6" y1="617.3" x2="703.3" y2="708.6"/>
		<g>
			
				<linearGradient id="SVGID_00000011717980658070051870000013658037075153699007_" gradientUnits="userSpaceOnUse" x1="739.3264" y1="672.8278" x2="862.188" y2="672.8278">
				<stop  offset="0" style="stop-color:#3E6EE1"/>
				<stop  offset="0.9792" style="stop-color:#6BBDF6"/>
			</linearGradient>
			<polygon style="fill:url(#SVGID_00000011717980658070051870000013658037075153699007_);" points="807.7,587 808,718.8 
				737.9,758.7 737.6,626.8 			"/>
		</g>
		<g>
			
				<linearGradient id="SVGID_00000070080758920457650910000014369231723725031094_" gradientUnits="userSpaceOnUse" x1="665.3037" y1="671.7432" x2="737.9068" y2="671.7432">
				<stop  offset="0" style="stop-color:#83E8F7"/>
				<stop  offset="1" style="stop-color:#6BBDF6"/>
			</linearGradient>
			<polygon style="fill:url(#SVGID_00000070080758920457650910000014369231723725031094_);" points="737.9,758.7 665.6,716.7 
				665.3,584.8 737.6,626.8 			"/>
		</g>
		<g>
			
				<linearGradient id="SVGID_00000059300656526096766570000014152323745972465037_" gradientUnits="userSpaceOnUse" x1="665.3037" y1="585.8816" x2="807.6995" y2="585.8816">
				<stop  offset="0" style="stop-color:#1E34B4"/>
				<stop  offset="1" style="stop-color:#4D87F4"/>
			</linearGradient>
			<polygon style="fill:url(#SVGID_00000059300656526096766570000014152323745972465037_);" points="737.6,626.8 665.3,584.8 
				735.4,544.9 807.7,587 			"/>
		</g>
		<g>
			
				<linearGradient id="SVGID_00000154398886485505115830000015818644786579604377_" gradientUnits="userSpaceOnUse" x1="683.7634" y1="585.8813" x2="789.2396" y2="585.8813">
				<stop  offset="0" style="stop-color:#3E6EE1"/>
				<stop  offset="1" style="stop-color:#6BFFF6"/>
			</linearGradient>
			<polygon style="fill:url(#SVGID_00000154398886485505115830000015818644786579604377_);" points="737.3,616.2 683.8,585.1 
				735.7,555.6 789.2,586.7 			"/>
		</g>
	</g>
	<g>
		<g>
			
				<linearGradient id="SVGID_00000054975082110392881740000005501703228550941092_" gradientUnits="userSpaceOnUse" x1="713.7903" y1="527.8005" x2="735.405" y2="580.5739">
				<stop  offset="0" style="stop-color:#FFFFFF"/>
				<stop  offset="1" style="stop-color:#A7FFFF"/>
			</linearGradient>
			<path style="fill:url(#SVGID_00000054975082110392881740000005501703228550941092_);" d="M725.6,530.3c0.7,0.4,1.1,1.2,1.2,1.9
				l0,3c3,2.4,5.7,5.6,7.7,9l0,1.8l-3.2,1.8l-0.8-0.1l-0.8-0.8c-1.4-2.4-3.8-4.8-6-6.1c-0.1-0.1-0.2-0.1-0.3-0.2c-1.8-1-5-2.1-4.9,0
				c0,2,1,3.2,5.5,7.3c4.3,3.8,10.7,9.6,10.9,18.3c0.1,4.9-2.7,7.2-7.4,6.1l0.1,3.2c0,0.7-0.5,1-1.1,0.7l-4.5-2.5
				c-0.7-0.4-1.2-1.2-1.2-1.9l0-2.7c-2.5-1.7-4.9-4-6.7-6.4c-0.5-0.7-0.7-1.5-0.4-1.9l2.3-3.1c0.2-0.3,0.6-0.3,1-0.1
				c0.2,0.1,0.4,0.3,0.6,0.6c1.2,1.6,3.3,3.4,5.1,4.4c0.1,0,0.2,0.1,0.2,0.1c1.9,1.1,5.2,2.2,5.1-0.2c0-2.3-1.1-3.8-6-8.1
				c-4.1-3.7-10.3-9.3-10.5-17.4c-0.1-5.2,3.1-7.3,8.3-5.6l0-2.8c0-0.7,0.5-1,1.1-0.7L725.6,530.3z"/>
		</g>
		
			<linearGradient id="SVGID_00000074416638500472287810000010850814395238679177_" gradientUnits="userSpaceOnUse" x1="695.7877" y1="545.839" x2="776.8547" y2="545.839">
			<stop  offset="0" style="stop-color:#1E34B4"/>
			<stop  offset="1" style="stop-color:#4D87F4"/>
		</linearGradient>
		<path style="fill:url(#SVGID_00000074416638500472287810000010850814395238679177_);" d="M776.8,567.2c0-0.6,0-1.2,0-1.8
			c0-0.4,0-0.9,0-1.4c0-0.2,0-0.3,0-0.5c0-0.6,0-1.2-0.1-1.9c0-0.6-0.1-1.3-0.2-1.9c0-0.1,0-0.2,0-0.3c0-0.1,0-0.2,0-0.3
			c0-0.5-0.1-0.9-0.2-1.4c-0.1-0.6-0.2-1.3-0.3-1.9c-0.1-0.3-0.1-0.7-0.2-1c0-0.1,0-0.3-0.1-0.4c0-0.2-0.1-0.4-0.1-0.6
			c-0.1-0.7-0.3-1.3-0.4-2c-0.1-0.7-0.3-1.3-0.5-2c0,0,0,0,0,0c0,0,0,0,0,0c-0.2-0.7-0.3-1.4-0.5-2c-0.2-0.7-0.4-1.4-0.6-2.1
			c0-0.2-0.1-0.3-0.2-0.5c0-0.1-0.1-0.3-0.1-0.4c-0.1-0.4-0.2-0.8-0.4-1.1c-0.2-0.7-0.5-1.3-0.7-2c-0.2-0.4-0.3-0.8-0.5-1.3
			c0-0.1-0.1-0.2-0.1-0.3c0-0.1-0.1-0.2-0.1-0.4c-0.2-0.6-0.5-1.2-0.8-1.9c-0.3-0.6-0.5-1.3-0.8-1.9c-0.1-0.1-0.1-0.2-0.2-0.4
			c0-0.1-0.1-0.2-0.1-0.3c-0.2-0.4-0.4-0.8-0.5-1.2c-0.3-0.7-0.7-1.4-1-2.1c-0.2-0.3-0.3-0.6-0.5-0.9c-0.1-0.2-0.2-0.3-0.3-0.5
			c-0.1-0.2-0.2-0.5-0.4-0.7c-0.6-1.1-1.2-2.2-1.9-3.3c0,0-0.1-0.1-0.1-0.1c-0.9-1.6-1.9-3.2-2.9-4.7c0-0.1-0.1-0.1-0.1-0.2
			c-0.8-1.2-1.6-2.3-2.4-3.4c-0.1-0.1-0.1-0.2-0.2-0.3c-0.1-0.1-0.2-0.3-0.3-0.4c-0.4-0.5-0.8-1-1.2-1.5c-0.5-0.6-1-1.2-1.5-1.8
			c-0.1-0.1-0.1-0.2-0.2-0.2c-0.1-0.1-0.2-0.2-0.2-0.3c-0.4-0.4-0.7-0.8-1.1-1.3c-0.5-0.6-1-1.1-1.5-1.7c-0.1-0.2-0.3-0.3-0.5-0.5
			c-0.1-0.1-0.2-0.2-0.3-0.4c-0.3-0.3-0.5-0.6-0.8-0.8c-0.5-0.6-1.1-1.1-1.6-1.6c-0.2-0.2-0.5-0.4-0.7-0.6c-0.1-0.1-0.3-0.2-0.4-0.4
			c-0.2-0.2-0.4-0.4-0.6-0.6c-0.6-0.5-1.1-1-1.7-1.5c-0.3-0.2-0.6-0.5-0.9-0.7c-0.1-0.1-0.2-0.2-0.4-0.3c-0.2-0.1-0.3-0.3-0.5-0.4
			c-0.6-0.4-1.1-0.9-1.7-1.3c-0.4-0.3-0.9-0.6-1.3-0.9c-0.1,0-0.1-0.1-0.2-0.1c-0.1,0-0.1-0.1-0.2-0.1c-0.5-0.4-1.1-0.7-1.6-1.1
			c-0.5-0.3-1.1-0.7-1.6-1c-0.1-0.1-0.3-0.1-0.4-0.2c-0.4-0.2-0.7-0.4-1.1-0.6c-0.1,0-0.1-0.1-0.2-0.1c-0.5-0.3-1.1-0.6-1.6-0.8
			c-0.5-0.3-1.1-0.5-1.6-0.7c-0.1-0.1-0.3-0.1-0.4-0.2c-0.1,0-0.2-0.1-0.3-0.1c-0.3-0.1-0.6-0.3-0.9-0.4c-0.5-0.2-1-0.4-1.6-0.6
			c-0.3-0.1-0.6-0.2-1-0.3c-0.1,0-0.2-0.1-0.3-0.1c-0.1,0-0.2-0.1-0.3-0.1c-0.5-0.2-1.1-0.3-1.6-0.4c-0.5-0.1-1-0.2-1.5-0.3
			c0,0,0,0-0.1,0c0,0,0,0,0,0c-0.6-0.1-1.1-0.2-1.7-0.3c-0.6-0.1-1.1-0.1-1.7-0.2c0,0,0,0,0,0c-0.6,0-1.2-0.1-1.9-0.1
			c-0.4,0-0.7,0-1.1,0.1c-0.2,0-0.4,0-0.5,0c-0.1,0-0.2,0-0.4,0c-0.8,0.1-1.5,0.2-2.2,0.3c-0.1,0-0.1,0-0.2,0
			c-0.4,0.1-0.7,0.2-1.1,0.3c-0.5,0.1-1,0.2-1.5,0.4c-0.1,0-0.1,0.1-0.2,0.1c-1,0.4-2,0.8-2.9,1.4l-14.8,8.6c0.9-0.5,1.9-1,2.9-1.4
			c0.5-0.2,1.1-0.3,1.7-0.5c0.4-0.1,0.7-0.2,1.1-0.3c0.9-0.2,1.8-0.3,2.7-0.4c0.2,0,0.4,0,0.5,0c2-0.1,4.1,0,6.4,0.5
			c0,0,0.1,0,0.1,0c1.1,0.2,2.3,0.5,3.4,0.9c0.1,0,0.2,0.1,0.3,0.1c1.1,0.4,2.2,0.8,3.4,1.3c0.1,0,0.2,0.1,0.3,0.1
			c1.2,0.5,2.5,1.1,3.7,1.8c0.4,0.2,0.7,0.4,1.1,0.6c1.3,0.7,2.6,1.6,3.8,2.4c0.1,0,0.1,0.1,0.2,0.1c1.2,0.8,2.3,1.7,3.5,2.6
			c0.1,0.1,0.3,0.2,0.4,0.3c1.1,0.9,2.2,1.8,3.2,2.8c0.1,0.1,0.3,0.2,0.4,0.4c1.1,1,2.1,2,3.1,3.1c0.1,0.1,0.2,0.2,0.4,0.4
			c1,1.1,2.1,2.2,3,3.4c0.1,0.1,0.1,0.2,0.2,0.3c1,1.2,1.9,2.4,2.8,3.6c0.1,0.2,0.2,0.3,0.3,0.4c0.9,1.3,1.8,2.6,2.7,3.9
			c1,1.5,2,3.1,2.9,4.7c0.8,1.4,1.6,2.8,2.3,4.2c0.1,0.2,0.2,0.3,0.2,0.5c0.7,1.4,1.4,2.8,2,4.2c0,0.1,0.1,0.2,0.1,0.3
			c0.7,1.5,1.3,3,1.9,4.5c0,0.1,0.1,0.2,0.1,0.3c0.6,1.5,1.1,2.9,1.5,4.4c0,0.1,0.1,0.2,0.1,0.4c0.5,1.5,0.9,3.1,1.3,4.6
			c0,0,0,0,0,0c0.4,1.5,0.7,3,1,4.6c0,0.1,0,0.3,0.1,0.4c0.3,1.5,0.5,2.9,0.6,4.3c0,0.1,0,0.2,0,0.3c0.2,1.5,0.3,3.1,0.3,4.6
			c0,1.5,0,3-0.1,4.5c0,0.1,0,0.2,0,0.3c-0.1,1.4-0.3,2.8-0.5,4.1c0,0.1,0,0.1,0,0.1c-0.2,1.3-0.5,2.5-0.9,3.7
			c0,0.1-0.1,0.2-0.1,0.2c-0.3,1-0.7,2-1.1,2.9c-0.1,0.2-0.2,0.5-0.3,0.7c-0.4,0.8-0.8,1.5-1.2,2.2c-0.1,0.2-0.3,0.5-0.4,0.7
			c-0.1,0.1-0.2,0.2-0.3,0.4c-0.7,1.1-1.6,2.1-2.4,3c-0.3,0.3-0.5,0.5-0.8,0.8c-1,0.9-2.1,1.8-3.3,2.5l14.8-8.6
			c1.2-0.7,2.2-1.5,3.3-2.5c0.3-0.2,0.5-0.5,0.8-0.8c0.9-0.9,1.7-1.9,2.4-3c0.1-0.1,0.2-0.2,0.2-0.3c0,0,0-0.1,0.1-0.1
			c0.1-0.2,0.3-0.5,0.4-0.7c0.3-0.6,0.7-1.2,1-1.8c0.1-0.1,0.1-0.3,0.2-0.4c0.1-0.2,0.2-0.5,0.3-0.7c0.2-0.4,0.3-0.8,0.5-1.2
			c0.2-0.6,0.4-1.1,0.6-1.7c0-0.1,0.1-0.2,0.1-0.2c0,0,0-0.1,0-0.1c0.2-0.6,0.4-1.3,0.5-2c0.1-0.5,0.2-1.1,0.3-1.6
			c0-0.1,0-0.1,0-0.1c0,0,0-0.1,0-0.1c0.1-0.6,0.2-1.2,0.3-1.9c0.1-0.6,0.1-1.2,0.2-1.8c0-0.1,0-0.2,0-0.3c0-0.1,0-0.2,0-0.3
			C776.8,568.1,776.8,567.7,776.8,567.2z"/>
		<g>
			
				<linearGradient id="SVGID_00000008121373986896177770000010479102433857798551_" gradientUnits="userSpaceOnUse" x1="684.4586" y1="551.4422" x2="762.0785" y2="551.4422">
				<stop  offset="0" style="stop-color:#82DEFE"/>
				<stop  offset="1" style="stop-color:#3262FF"/>
			</linearGradient>
			<path style="fill:url(#SVGID_00000008121373986896177770000010479102433857798551_);" d="M762.1,572.6
				c0.5,24.9-16.5,35.7-37.9,24c-0.4-0.2-0.7-0.4-1.1-0.6c-20.9-12.1-38.2-41.2-38.7-65.8c-0.5-24.9,16.5-35.7,37.9-24
				c0.4,0.2,0.7,0.4,1.1,0.6C744.4,518.9,761.6,548.1,762.1,572.6z M723.9,583.2c15,8.2,26.9,0.7,26.6-16.8
				c-0.3-17.2-12.4-37.7-27.1-46.2c-0.2-0.1-0.5-0.3-0.7-0.4c-15.1-8.2-27-0.7-26.6,16.8c0.4,17.2,12.4,37.7,27.1,46.2
				C723.4,582.9,723.7,583,723.9,583.2"/>
		</g>
		<g>
			
				<linearGradient id="SVGID_00000084491404014726194760000002689701209256151213_" gradientUnits="userSpaceOnUse" x1="736.975" y1="591.3501" x2="710.8688" y2="515.2773">
				<stop  offset="0" style="stop-color:#82DEFE"/>
				<stop  offset="1" style="stop-color:#3262FF"/>
			</linearGradient>
			<path style="fill:url(#SVGID_00000084491404014726194760000002689701209256151213_);" d="M750.5,566.3
				c0.4,17.5-11.6,25.1-26.6,16.8c-0.2-0.1-0.5-0.3-0.7-0.4c-14.7-8.5-26.8-28.9-27.1-46.2c-0.4-17.5,11.6-25.1,26.6-16.8
				c0.2,0.1,0.5,0.3,0.7,0.4C738.1,528.6,750.2,549.1,750.5,566.3z M727.6,572.3c4.7,1.2,7.5-1.1,7.4-6.1
				c-0.2-8.7-6.6-14.5-10.9-18.3c-4.5-4.1-5.5-5.3-5.5-7.3c0-2.2,3.1-1,4.9,0c0.1,0.1,0.2,0.1,0.3,0.2c2.2,1.3,4.6,3.7,6,6.1
				l0.8,0.8l0.8,0.1l3.2-1.8l0-1.8c-2-3.4-4.7-6.6-7.7-9l0-3c0-0.7-0.5-1.5-1.1-1.9l-4.6-2.5c-0.6-0.3-1.1,0-1.1,0.7l0,2.8
				c-5.2-1.7-8.4,0.4-8.3,5.6c0.1,8.2,6.4,13.7,10.5,17.4c4.9,4.3,5.9,5.8,6,8.1c0,2.4-3.2,1.2-5.1,0.2c-0.1,0-0.2-0.1-0.2-0.1
				c-1.8-1-3.9-2.8-5.1-4.4c-0.2-0.3-0.4-0.4-0.6-0.6c-0.4-0.2-0.8-0.2-1,0.1l-2.3,3.1c-0.4,0.4-0.2,1.3,0.4,1.9
				c1.8,2.3,4.2,4.7,6.7,6.4l0,2.7c0,0.7,0.5,1.5,1.1,1.9l4.6,2.5c0.6,0.3,1.1,0,1.1-0.7L727.6,572.3"/>
		</g>
	</g>
	<g>
		
			<linearGradient id="SVGID_00000079450116990691188560000013362806074789159582_" gradientUnits="userSpaceOnUse" x1="195.9231" y1="326.6016" x2="279.5475" y2="326.6016">
			<stop  offset="0" style="stop-color:#82DEFE"/>
			<stop  offset="1" style="stop-color:#3262FF"/>
		</linearGradient>
		<path style="fill:url(#SVGID_00000079450116990691188560000013362806074789159582_);" d="M237.9,278.6c-0.4-0.2-0.8-0.4-1.2-0.6
			c-23.1-12.6-41.4-1-40.8,25.8c0.5,26.4,19.1,57.8,41.6,70.9c0.4,0.2,0.8,0.4,1.2,0.6c18.5,10.1,34,4.6,39-11.9l-39.9-36.8V278.6z"
			/>
		
			<linearGradient id="SVGID_00000126318268685341016390000014015654747597495737_" gradientUnits="userSpaceOnUse" x1="209.0803" y1="316.4853" x2="293.6264" y2="316.4853">
			<stop  offset="0" style="stop-color:#1E34B4"/>
			<stop  offset="1" style="stop-color:#4D87F4"/>
		</linearGradient>
		<polygon style="fill:url(#SVGID_00000126318268685341016390000014015654747597495737_);" points="254.2,269.6 254.2,319.6 
			293.6,354.4 277.8,363.4 237.9,326.6 237.9,278.6 		"/>
		
			<linearGradient id="SVGID_00000093174080262769727330000006196974166369727417_" gradientUnits="userSpaceOnUse" x1="208.1281" y1="365.9718" x2="295.4672" y2="365.9718">
			<stop  offset="0" style="stop-color:#1E34B4"/>
			<stop  offset="1" style="stop-color:#4D87F4"/>
		</linearGradient>
		<path style="fill:url(#SVGID_00000093174080262769727330000006196974166369727417_);" d="M277.8,363.4c-0.3,1.1-0.7,2.1-1.1,3.1
			c-0.1,0.2-0.2,0.5-0.3,0.7c-0.4,0.8-0.8,1.6-1.3,2.4c-0.1,0.3-0.3,0.5-0.4,0.8c-0.1,0.1-0.2,0.3-0.3,0.4c-0.8,1.2-1.7,2.3-2.6,3.2
			c-0.3,0.3-0.5,0.6-0.8,0.8c-1.1,1-2.2,1.9-3.5,2.7l15.9-9.3c1.3-0.7,2.4-1.7,3.5-2.7c0.3-0.3,0.6-0.5,0.8-0.8c1-1,1.8-2,2.6-3.2
			c0.1-0.1,0.2-0.2,0.2-0.3c0,0,0-0.1,0.1-0.1c0.2-0.2,0.3-0.5,0.4-0.8c0.4-0.6,0.8-1.3,1.1-2c0.1-0.1,0.1-0.3,0.2-0.4
			c0.1-0.2,0.2-0.5,0.3-0.7c0.2-0.4,0.4-0.8,0.5-1.2c0.2-0.5,0.4-1.1,0.5-1.6L277.8,363.4C277.8,363.4,277.8,363.4,277.8,363.4z"/>
		
			<linearGradient id="SVGID_00000183211454471332321270000003819774029007349159_" gradientUnits="userSpaceOnUse" x1="208.1287" y1="271.0748" x2="295.467" y2="271.0748">
			<stop  offset="0" style="stop-color:#1E34B4"/>
			<stop  offset="1" style="stop-color:#4D87F4"/>
		</linearGradient>
		<path style="fill:url(#SVGID_00000183211454471332321270000003819774029007349159_);" d="M253.8,269.3c-0.4-0.2-0.8-0.4-1.2-0.6
			c-0.1,0-0.1-0.1-0.2-0.1c-0.6-0.3-1.1-0.6-1.7-0.9c-0.6-0.3-1.1-0.5-1.7-0.8c-0.1-0.1-0.3-0.1-0.4-0.2c-0.1,0-0.2-0.1-0.3-0.1
			c-0.3-0.1-0.6-0.3-1-0.4c-0.6-0.2-1.1-0.4-1.7-0.6c-0.3-0.1-0.7-0.2-1-0.3c-0.1,0-0.2-0.1-0.3-0.1c-0.1,0-0.2-0.1-0.4-0.1
			c-0.6-0.2-1.1-0.3-1.7-0.5c-0.5-0.1-1.1-0.3-1.6-0.4c0,0-0.1,0-0.1,0c0,0,0,0,0,0c-0.6-0.1-1.2-0.2-1.8-0.3
			c-0.6-0.1-1.2-0.1-1.8-0.2c0,0,0,0,0,0c-0.7,0-1.3-0.1-2-0.1c-0.4,0-0.8,0-1.2,0.1c-0.2,0-0.4,0-0.6,0c-0.1,0-0.3,0-0.4,0
			c-0.8,0.1-1.6,0.2-2.4,0.3c-0.1,0-0.1,0-0.2,0c-0.4,0.1-0.8,0.2-1.2,0.3c-0.5,0.1-1.1,0.3-1.6,0.4c-0.1,0-0.1,0.1-0.2,0.1
			c-1.1,0.4-2.2,0.9-3.2,1.5l-15.9,9.3c1-0.6,2.1-1.1,3.2-1.5c0.6-0.2,1.2-0.4,1.8-0.5c0.4-0.1,0.8-0.2,1.2-0.3
			c1-0.2,1.9-0.3,2.9-0.4c0.2,0,0.4,0,0.6,0c2.2-0.1,4.5,0,6.9,0.5c0,0,0.1,0,0.1,0c1.2,0.2,2.4,0.6,3.7,0.9c0.1,0,0.2,0.1,0.3,0.1
			c1.2,0.4,2.4,0.8,3.7,1.4c0.1,0,0.2,0.1,0.3,0.1c1.3,0.6,2.7,1.2,4,2c0.4,0.2,0.8,0.4,1.2,0.6l16.3-9
			C254.1,269.5,253.9,269.4,253.8,269.3z"/>
		
			<linearGradient id="SVGID_00000039118930582222260260000014039555011183173283_" gradientUnits="userSpaceOnUse" x1="289.6103" y1="340.4061" x2="249.2362" y2="288.2375">
			<stop  offset="0" style="stop-color:#6AFFFF"/>
			<stop  offset="1" style="stop-color:#BFFFFF"/>
		</linearGradient>
		<path style="fill:url(#SVGID_00000039118930582222260260000014039555011183173283_);" d="M294.8,352.5c0,0,0-0.1,0-0.1
			c0.2-0.7,0.4-1.3,0.5-2c0.1-0.5,0.2-1.1,0.3-1.7c0-0.1,0-0.1,0-0.2c0,0,0-0.1,0-0.1c0.1-0.6,0.2-1.3,0.3-1.9
			c0.1-0.6,0.1-1.2,0.2-1.9c0-0.1,0-0.2,0-0.3c0-0.1,0-0.2,0-0.3c0-0.4,0.1-0.9,0.1-1.3c0-0.6,0-1.3,0-1.9c0-0.5,0-0.9,0-1.4
			c0-0.2,0-0.4,0-0.5c0-0.6,0-1.3-0.1-1.9c0-0.6-0.1-1.3-0.2-1.9c0-0.1,0-0.2,0-0.3c0-0.1,0-0.2,0-0.3c0-0.5-0.1-0.9-0.2-1.4
			c-0.1-0.7-0.2-1.3-0.3-2c-0.1-0.3-0.1-0.7-0.2-1c0-0.1,0-0.3-0.1-0.4c0-0.2-0.1-0.4-0.1-0.6c-0.1-0.7-0.3-1.4-0.4-2.1
			c-0.1-0.7-0.3-1.4-0.5-2c0,0,0,0,0,0c0,0,0,0,0,0c-0.2-0.7-0.4-1.4-0.6-2.1c-0.2-0.7-0.4-1.4-0.6-2.1c-0.1-0.2-0.1-0.3-0.2-0.5
			c0-0.1-0.1-0.3-0.1-0.4c-0.1-0.4-0.2-0.8-0.4-1.2c-0.2-0.7-0.5-1.4-0.7-2c-0.2-0.4-0.3-0.9-0.5-1.3c0-0.1-0.1-0.2-0.1-0.3
			c0-0.1-0.1-0.2-0.1-0.4c-0.3-0.6-0.5-1.3-0.8-1.9c-0.3-0.6-0.5-1.3-0.8-1.9c-0.1-0.1-0.1-0.3-0.2-0.4c0-0.1-0.1-0.2-0.1-0.3
			c-0.2-0.4-0.4-0.8-0.6-1.2c-0.3-0.7-0.7-1.4-1-2.1c-0.2-0.3-0.3-0.6-0.5-1c-0.1-0.2-0.2-0.3-0.3-0.5c-0.1-0.2-0.2-0.5-0.4-0.7
			c-0.6-1.2-1.3-2.3-1.9-3.4c0,0-0.1-0.1-0.1-0.1c-1-1.6-2-3.3-3-4.8c0-0.1-0.1-0.1-0.1-0.2c-0.8-1.2-1.6-2.4-2.5-3.5
			c-0.1-0.1-0.1-0.2-0.2-0.3c-0.1-0.1-0.2-0.3-0.3-0.4c-0.4-0.5-0.8-1.1-1.2-1.6c-0.5-0.6-1-1.3-1.5-1.9c-0.1-0.1-0.1-0.2-0.2-0.2
			c-0.1-0.1-0.2-0.2-0.2-0.3c-0.4-0.4-0.7-0.9-1.1-1.3c-0.5-0.6-1-1.2-1.6-1.7c-0.2-0.2-0.3-0.3-0.5-0.5c-0.1-0.1-0.2-0.2-0.4-0.4
			c-0.3-0.3-0.5-0.6-0.8-0.8c-0.6-0.6-1.1-1.1-1.7-1.7c-0.2-0.2-0.5-0.4-0.7-0.7c-0.1-0.1-0.3-0.3-0.4-0.4c-0.2-0.2-0.4-0.4-0.6-0.6
			c-0.6-0.5-1.2-1-1.8-1.5c-0.3-0.3-0.6-0.5-0.9-0.7c-0.1-0.1-0.3-0.2-0.4-0.3c-0.2-0.1-0.3-0.3-0.5-0.4c-0.6-0.5-1.2-0.9-1.7-1.3
			c-0.5-0.3-0.9-0.7-1.4-1c-0.1,0-0.1-0.1-0.2-0.1c-0.1,0-0.1-0.1-0.2-0.1c-0.6-0.4-1.1-0.8-1.7-1.1c-0.6-0.4-1.1-0.7-1.7-1
			l-15.6,8.6c1.3,0.8,2.6,1.6,3.9,2.5c0.1,0,0.1,0.1,0.2,0.1c1.2,0.8,2.4,1.7,3.6,2.7c0.1,0.1,0.3,0.2,0.4,0.3
			c1.1,0.9,2.2,1.9,3.3,2.9c0.1,0.1,0.3,0.3,0.4,0.4c1.1,1,2.1,2.1,3.2,3.2c0.1,0.1,0.2,0.3,0.4,0.4c1.1,1.1,2.1,2.3,3.1,3.5
			c0.1,0.1,0.1,0.2,0.2,0.3c1,1.2,2,2.4,2.9,3.7c0.1,0.2,0.2,0.3,0.4,0.5c1,1.3,1.9,2.6,2.8,4c1.1,1.6,2.1,3.2,3,4.8
			c0.8,1.4,1.6,2.8,2.4,4.3c0.1,0.2,0.2,0.3,0.2,0.5c0.7,1.4,1.4,2.9,2.1,4.3c0,0.1,0.1,0.2,0.1,0.3c0.7,1.5,1.3,3.1,1.9,4.6
			c0,0.1,0.1,0.2,0.1,0.3c0.6,1.5,1.1,3,1.6,4.5c0,0.1,0.1,0.2,0.1,0.4c0.5,1.6,0.9,3.2,1.3,4.8c0,0,0,0,0,0c0.4,1.6,0.7,3.1,1,4.7
			c0,0.1,0,0.3,0.1,0.4c0.3,1.5,0.5,3,0.6,4.5c0,0.1,0,0.2,0,0.3c0.2,1.6,0.3,3.1,0.3,4.7c0,1.6,0,3.1-0.1,4.6c0,0.1,0,0.2,0,0.3
			c-0.1,1.5-0.3,2.9-0.5,4.2c0,0.1,0,0.1,0,0.2c-0.2,1.3-0.5,2.6-0.9,3.8c0,0.1-0.1,0.2-0.1,0.2l15.1-8.6c0-0.1,0-0.1,0.1-0.2
			C294.8,352.7,294.8,352.6,294.8,352.5z"/>
		
			<linearGradient id="SVGID_00000155824806346220904120000005935792886993784473_" gradientUnits="userSpaceOnUse" x1="241.4594" y1="321.0949" x2="293.0182" y2="321.0949">
			<stop  offset="0" style="stop-color:#FFFFFF"/>
			<stop  offset="1" style="stop-color:#A7FFFF"/>
		</linearGradient>
		<path style="fill:url(#SVGID_00000155824806346220904120000005935792886993784473_);" d="M241.5,280.6v45.9l38.1,35.1
			c1.2-3.8,1.8-8.3,1.7-13.3C280.7,323,263,293,241.5,280.6z"/>
	</g>
	<g>
		<g>
			<g>
				
					<linearGradient id="SVGID_00000119798853849112011790000014843078032976531370_" gradientUnits="userSpaceOnUse" x1="780.4143" y1="492.8375" x2="834.9844" y2="492.8375">
					<stop  offset="0" style="stop-color:#4D87F4"/>
					<stop  offset="1" style="stop-color:#1E34B4"/>
				</linearGradient>
				<path style="fill:url(#SVGID_00000119798853849112011790000014843078032976531370_);" d="M780.4,457.5V502c0,1.2,0.6,2.3,1.6,3
					c0,0,0.1,0.1,0.1,0.1l14.5,9l30,18.5c0.5,0.3,1.1,0.3,1.6,0l5.9-3.6c0.5-0.3,0.8-0.9,0.8-1.5v-43c0-1.7-0.9-3.3-2.3-4.1
					l-44.1-27.2c-0.6-0.4-1.3-0.4-1.9,0l-5.6,3.4c-0.1,0-0.1,0.1-0.2,0.1C780.6,456.8,780.4,457.2,780.4,457.5z"/>
				
					<linearGradient id="SVGID_00000008857206449832495530000017273499749715724165_" gradientUnits="userSpaceOnUse" x1="780.4143" y1="494.6227" x2="828.9211" y2="494.6227">
					<stop  offset="0" style="stop-color:#82DEFE"/>
					<stop  offset="1" style="stop-color:#3288FF"/>
				</linearGradient>
				<path style="fill:url(#SVGID_00000008857206449832495530000017273499749715724165_);" d="M780.4,457.5V502c0,1.2,0.6,2.3,1.6,3
					c0,0,0.1,0.1,0.1,0.1l14.5,9l30,18.5c0.5,0.3,1.1,0.3,1.6,0c0.4-0.2,0.7-0.7,0.7-1.2V488c0-1.6-0.8-3-2.1-3.9l-44.7-27.5
					c-0.3-0.2-0.7-0.2-1-0.1c-0.1,0-0.1,0.1-0.2,0.1C780.6,456.8,780.4,457.2,780.4,457.5z"/>
			</g>
		</g>
		<g>
			<polygon class="st79" points="789.1,475.3 789.1,478.4 803.5,495.3 817.9,496.4 817.9,493.3 			"/>
			<polygon class="st79" points="803.5,497.1 789.1,480.2 789.1,495.9 817.9,514 817.9,498.2 			"/>
		</g>
	</g>
	<g>
		<g>
			<g>
				
					<linearGradient id="SVGID_00000026873213760714998200000001670143663607003558_" gradientUnits="userSpaceOnUse" x1="283.1494" y1="174.0424" x2="182.1971" y2="174.0424">
					<stop  offset="0" style="stop-color:#1E34B4"/>
					<stop  offset="1" style="stop-color:#4D87F4"/>
				</linearGradient>
				<path style="fill:url(#SVGID_00000026873213760714998200000001670143663607003558_);" d="M186.5,116.2v72.9c0,2,0.9,3.8,2.6,4.9
					c0.1,0,0.1,0.1,0.2,0.1l23.8,14.7l49.2,30.3c0.9,0.5,1.8,0.5,2.6,0l9.6-5.9c0.9-0.5,1.4-1.5,1.4-2.4v-70.5
					c0-2.8-1.4-5.3-3.8-6.7L199.8,109c-0.9-0.6-2.1-0.6-3,0l-9.2,5.6c-0.1,0-0.2,0.1-0.3,0.2C186.8,115,186.5,115.6,186.5,116.2z"/>
				
					<linearGradient id="SVGID_00000164503526445029113300000016406881661788287634_" gradientUnits="userSpaceOnUse" x1="186.4619" y1="176.968" x2="265.9514" y2="176.968">
					<stop  offset="0" style="stop-color:#82DEFE"/>
					<stop  offset="1" style="stop-color:#3288FF"/>
				</linearGradient>
				<path style="fill:url(#SVGID_00000164503526445029113300000016406881661788287634_);" d="M186.5,116.2v72.9c0,2,0.9,3.8,2.6,4.9
					c0.1,0,0.1,0.1,0.2,0.1l23.8,14.7l49.2,30.3c0.9,0.5,1.8,0.5,2.6,0c0.6-0.4,1.1-1.1,1.1-2v-71c0-2.6-1.3-5-3.5-6.3l-73.2-45.1
					c-0.5-0.3-1.1-0.4-1.6-0.1c-0.1,0-0.2,0.1-0.3,0.2C186.8,115,186.5,115.6,186.5,116.2z"/>
			</g>
		</g>
		<g id="XMLID_154_">
			<g id="XMLID_64_">
				
					<linearGradient id="XMLID_00000164471767585223617060000014597086812639226783_" gradientUnits="userSpaceOnUse" x1="188.4207" y1="230.8613" x2="257.3687" y2="208.8567" gradientTransform="matrix(1 0.2126 0 1 0 -108.3447)">
					<stop  offset="0" style="stop-color:#FFFFFF"/>
					<stop  offset="1" style="stop-color:#A7FFFF"/>
				</linearGradient>
				<path id="XMLID_162_" style="fill:url(#XMLID_00000164471767585223617060000014597086812639226783_);" d="M234.5,165.3l-0.6-1.3
					c-0.4-0.7-1-1.3-1.5-1.2c-1.6,0.3-3.2,0.6-4.8,0.9c-5.7,0.9-11.8,0.6-18.5-1.6c-1.3-0.4-2.6-2.2-3-4c-0.1-0.6-0.2-1.3-0.3-1.9
					c-0.3-1.7,0.5-2.8,1.7-2.4c7.6,2.4,14.2,2,20.7,0.7c0.5-0.1,0.6-0.9,0.2-1.8l-0.6-1.2c-1-2.1-0.3-3.9,1.3-3.2
					c3.9,1.7,7.8,3.4,11.8,5.1c0.8,0.4,1.5,1.8,1.2,2.6c-1.4,3.7-2.8,7.3-4.2,10.9C237.4,168.3,235.5,167.5,234.5,165.3z"/>
			</g>
			
				<linearGradient id="XMLID_00000174602981440831012850000015287603501372938913_" gradientUnits="userSpaceOnUse" x1="200.3495" y1="268.2344" x2="269.2962" y2="246.2302" gradientTransform="matrix(1 0.2126 0 1 0 -108.3447)">
				<stop  offset="0" style="stop-color:#FFFFFF"/>
				<stop  offset="1" style="stop-color:#A7FFFF"/>
			</linearGradient>
			<path id="XMLID_163_" style="fill:url(#XMLID_00000174602981440831012850000015287603501372938913_);" d="M243.8,217.5l3.4,2.1
				c1.2,0.8,2.2,0.4,2.2-0.8v-37.5c0-1.2-1-2.8-2.2-3.5l-3.4-2.1c-1.2-0.8-2.2-0.4-2.2,0.8V214C241.7,215.2,242.6,216.7,243.8,217.5
				z"/>
			
				<linearGradient id="XMLID_00000134947434769217104670000006668040275458999681_" gradientUnits="userSpaceOnUse" x1="198.6762" y1="262.9938" x2="267.6236" y2="240.9894" gradientTransform="matrix(1 0.2126 0 1 0 -108.3447)">
				<stop  offset="0" style="stop-color:#FFFFFF"/>
				<stop  offset="1" style="stop-color:#A7FFFF"/>
			</linearGradient>
			<path id="XMLID_165_" style="fill:url(#XMLID_00000134947434769217104670000006668040275458999681_);" d="M231.1,209.4l3.2,2
				c1.3,0.8,2.3,0.4,2.3-0.8v-29.7c0-1.3-1-2.9-2.3-3.7l-3.2-2c-1.3-0.8-2.3-0.4-2.3,0.8v29.7C228.8,206.9,229.8,208.6,231.1,209.4z
				"/>
			
				<linearGradient id="XMLID_00000078757800194025062810000009011423814482934660_" gradientUnits="userSpaceOnUse" x1="197.0042" y1="257.7552" x2="265.9516" y2="235.7508" gradientTransform="matrix(1 0.2126 0 1 0 -108.3447)">
				<stop  offset="0" style="stop-color:#FFFFFF"/>
				<stop  offset="1" style="stop-color:#A7FFFF"/>
			</linearGradient>
			<path id="XMLID_166_" style="fill:url(#XMLID_00000078757800194025062810000009011423814482934660_);" d="M217.8,200.9l3.9,2.5
				c1.1,0.7,1.9,0.4,1.9-0.7v-22.8c0-1.1-0.9-2.5-1.9-3.1l-3.9-2.5c-1.1-0.7-1.9-0.4-1.9,0.7v22.8
				C215.9,198.9,216.8,200.3,217.8,200.9z"/>
			
				<linearGradient id="XMLID_00000145056377435002107600000013649098226744673170_" gradientUnits="userSpaceOnUse" x1="195.3318" y1="252.5157" x2="264.2795" y2="230.5112" gradientTransform="matrix(1 0.2126 0 1 0 -108.3447)">
				<stop  offset="0" style="stop-color:#FFFFFF"/>
				<stop  offset="1" style="stop-color:#A7FFFF"/>
			</linearGradient>
			<path id="XMLID_167_" style="fill:url(#XMLID_00000145056377435002107600000013649098226744673170_);" d="M205.4,193l3,1.9
				c1.3,0.8,2.3,0.4,2.3-0.8v-14.4c0-1.3-1-3-2.3-3.8l-3-1.9c-1.3-0.8-2.3-0.4-2.3,0.8v14.4C203.1,190.5,204.1,192.2,205.4,193z"/>
		</g>
	</g>
	<g>
		<g>
			
				<linearGradient id="SVGID_00000160899046683077444870000004194402473160315264_" gradientUnits="userSpaceOnUse" x1="556.6535" y1="400.1841" x2="611.2238" y2="400.1841">
				<stop  offset="0" style="stop-color:#4D87F4"/>
				<stop  offset="1" style="stop-color:#1E34B4"/>
			</linearGradient>
			<path style="fill:url(#SVGID_00000160899046683077444870000004194402473160315264_);" d="M556.7,364.9v44.5c0,1.2,0.6,2.3,1.6,3
				c0,0,0.1,0.1,0.1,0.1l14.5,9l30,18.5c0.5,0.3,1.1,0.3,1.6,0l5.9-3.6c0.5-0.3,0.8-0.9,0.8-1.5v-43c0-1.7-0.9-3.3-2.3-4.1
				l-44.1-27.2c-0.6-0.4-1.3-0.4-1.9,0l-5.6,3.4c-0.1,0-0.1,0.1-0.2,0.1C556.9,364.2,556.7,364.5,556.7,364.9z"/>
			
				<linearGradient id="SVGID_00000030460390494339566230000014969861502781873071_" gradientUnits="userSpaceOnUse" x1="556.6535" y1="401.9693" x2="605.1605" y2="401.9693">
				<stop  offset="0" style="stop-color:#82DEFE"/>
				<stop  offset="1" style="stop-color:#3288FF"/>
			</linearGradient>
			<path style="fill:url(#SVGID_00000030460390494339566230000014969861502781873071_);" d="M556.7,364.9v44.5c0,1.2,0.6,2.3,1.6,3
				c0,0,0.1,0.1,0.1,0.1l14.5,9l30,18.5c0.5,0.3,1.1,0.3,1.6,0c0.4-0.2,0.7-0.7,0.7-1.2v-43.4c0-1.6-0.8-3-2.1-3.9l-44.7-27.5
				c-0.3-0.2-0.7-0.2-1-0.1c-0.1,0-0.1,0.1-0.2,0.1C556.9,364.2,556.7,364.5,556.7,364.9z"/>
		</g>
		<path class="st79" d="M597.3,410.6c-1.5-0.9-4.2-1.1-5.1,0c0.4-0.8,0.6-1.9,0.6-3.1c0-5.5-4.4-12.6-9.9-15.8
			c-5.4-3.2-9.8-1.4-10,3.9c-0.7-1.7-1.6-3.8-4.2-5.1c-3.3-1.7-6.3,0.2-6.3,3.4c0,3.8,1.6,7.8,5.3,10l28.1,16.4
			c2.6,1.5,4.7,0.5,5.3-2C601.7,415.8,599.9,412.1,597.3,410.6z"/>
	</g>
	<g>
		<g>
			<path class="st89" d="M252.2,720.6c-1.9-0.8-7.3-7-8.1-8.4c-1.5-2.5-1.1-11.5-1-12.7c0.3-2.8,3.5-27.6,3.9-32
				c0.4-4.5,0.8-9,1.3-13.4c0.4-4.2,0.8-8.4,1.2-12.6c0.3-3.5,0.7-7,1-10.5c0.2-2.4,0.5-4.8,0.7-7.2c0.1-0.9,0.2-1.8,0.3-2.7
				l-7.3-0.2l-15.6-0.1c-5.8,20.6,0.1,42.7,1.6,55.4c1.2,10.3,1.5,24.6,1.2,30.2c0,0-0.5,3.5,0,5.1c0.5,1.6,3,4.1,7.2,8.4
				c4.2,4.2,6.2,7.2,10.7,7.5c4.5,0.3,5.6-0.2,5.9-1.3c0.1-0.2,0.1-0.5,0.1-0.8c0.4-0.5,0.8-1.5,1.2-3.3
				C256.5,720.1,255.9,722.2,252.2,720.6z"/>
			<path class="st90" d="M256.8,721.1c-3.6,0.1-4.6-0.5-4.6-0.5s3.9,2.6,0.2,4.7c-1.8,1-7.9-3.7-12.5-8.1c-2.4-2.3-3.5-5.1-4.4-6.4
				c-3.5-5.5-5.3-0.4-5.9,1c-0.5,1.1-2.4,2.8-1,8c0.5,1.9,1.9,4.2,1.9,6.2v6.4c0,0-0.1,0.9,0.9,1.1c1.6,0.3,2.1-0.8,2.1-0.8l0.1-7.6
				c0-0.5,0.2-1.5,0.4-2.5c0.6,0,2.2,0.5,5.2,3.5c1.5,1.5,5.8,6.1,9.6,6.1s8.3-1.3,11.6-4.7C263.4,724.3,262.5,720.9,256.8,721.1z"
				/>
		</g>
		<g>
			<path class="st91" d="M274.4,730.8c-1.9-0.8-6.8-6.9-7.6-8.3c-1.5-2.5-1.1-11.5-1-12.7c0.3-2.8,3.1-27.7,3.5-32.1
				c0.4-4.5,0.8-9,1.3-13.4c0.4-4.2,0.8-8.4,1.2-12.6c0.3-3.5,0.7-7,1-10.5c0.2-2.4,0.5-4.8,0.7-7.2c0.1-0.9,0.2-1.8,0.3-2.7
				l-7.3-0.2l-15.6-0.1c-5.8,20.6,0.1,42.7,1.6,55.4c1.2,10.3,1.5,24.6,1.2,30.2c0,0-0.5,3.5,0,5.1c0.5,1.6,3,4.1,7.2,8.4
				c4.2,4.2,6.2,7.2,10.7,7.5c4.5,0.3,5.6-0.2,5.9-1.3c0.1-0.2,0.1-0.5,0.1-0.8c0.4-0.5,0.8-1.5,1.2-3.3
				C278.8,730.3,278.2,732.4,274.4,730.8z"/>
			<path class="st90" d="M279.6,731.2c-3.6,0.1-4.6-0.5-4.6-0.5s3.9,2.6,0.2,4.7c-1.8,1-7.9-3.7-12.5-8.1c-2.4-2.3-3.5-5.1-4.4-6.4
				c-3.5-5.5-5.3-0.4-5.9,1c-0.5,1.1-2.4,2.8-1,8c0.5,1.9,1.5,4.1,1.5,6l0.4,6.6c0,0-0.1,0.9,0.9,1.1c1.6,0.3,2.1-0.8,2.1-0.8
				l0.1-7.6c0-0.5,0.2-1.5,0.4-2.5c0.6,0,2.2,0.5,5.2,3.5c1.5,1.5,5.8,6.1,9.6,6.1c3.8,0,8.3-1.3,11.6-4.7
				C286.3,734.5,285.3,731.1,279.6,731.2z"/>
		</g>
		<path id="XMLID_39_" class="st92" d="M226.6,484.9c-0.5,9.1,23.5,49.6,18.4,51.4c-6.8,2.4-25.1-3.5-26-7c-0.9-3.5-4.1-47.9,1-62.1
			c3.2-2.7,5.3,4.7,6.3,11.6C226.6,480.8,226.7,482.9,226.6,484.9z"/>
		<path id="XMLID_37_" class="st93" d="M274.5,641.9c-0.5,0.7-1.2,1.3-2.3,1.9c-0.7,0.3-1.4,0.6-2,0.9c-2.8,1.2-4.6,1.5-8.4,1.5
			c-14.8-0.3-30.5-7.3-34.8-9.4c-0.7-0.3-1.1-1-1-1.8c0.1-1.3,0.2-4-0.1-9c-0.6-8.3-3.2-37.2-5.3-47.4c-1.1-5.5-0.9-11.9-0.2-15.1
			c0.3-1.4,0.6-2.7,0.9-3.8c0.5-2.4,0.9-4.1,0.9-4.5c0-0.1,0-0.1,0-0.1l56.6,6.1C284.4,595,274.5,641.9,274.5,641.9z"/>
		<path id="XMLID_35_" class="st90" d="M274.5,641.9c-0.5,0.7-1.2,1.3-2.3,1.9c-0.7,0.3-1.4,0.6-2,0.9c2.6-17.4,15.4-61,2.5-72.5
			c-5.2-4.6-10.2-1.6-26.6-3.5c-14.3-1.6-23-7.6-25-9.1c0.5-2.4,0.9-4.1,0.9-4.5l56.6,6C284.4,595,274.5,641.9,274.5,641.9z"/>
		<path class="st91" d="M261.1,453.7c0,0-1.6,3.4-1.3,8.9c0.2,5.4-6.7-0.5-6.7-0.5l-1.5-4.8l2.2-2.8"/>
		<path class="st79" d="M282,558.9c0.2,1.1-0.4,2.2-1.5,2.6c0,0-0.4,0.2-0.7,0.3c-1.5,0.5-3.4,1.1-5.1,1.5c-0.2,0.1-0.4,0.1-0.6,0.2
			c-0.5,0.2-0.9,0.2-1.4,0.4c-0.6,0.1-1.1,0.3-1.6,0.4c-0.7,0.2-1.2,0.3-1.6,0.4c-0.3,0.1-0.5,0.1-0.5,0.1
			c-27.9,4.3-44.2-5.4-48.3-8.3c-0.7-0.4-0.9-1.3-0.8-2c1.1-4.8,6.9-15.1,6.8-23.2c-0.7-38.1-21.4-70.9,8.8-72.1
			c6.3,0.6,14.7,1.9,20.3,2.8c5.4,0.9,10.5,3.1,14.8,6.6c0.6,0.5,1.3,1.1,2,1.7c0,0,0,0,0,0l3.9,40.3c0-0.1,0-0.1,0-0.1
			s1.1,24.6,1.6,31c0,0.2,0,0.4,0.1,0.6c0.1,0.7,0.2,1.3,0.3,2C279.2,549.1,281.2,554.6,282,558.9z"/>
		<path class="st92" d="M274.7,563.3c-0.2,0.1-0.4,0.1-0.6,0.2c-0.5,0.2-0.9,0.2-1.4,0.4c-0.6,0.1-1.1,0.3-1.6,0.4
			c-0.7,0.2-1.2,0.3-1.6,0.4c-1.6-4.1-6.7-17.9-8.7-28.6c-1.8-9.2,0.9-35.5,0.9-35.5L274.7,563.3z"/>
		<g>
			<polygon class="st94" points="257.7,606.2 257.7,645 267.5,650.9 267.5,612.1 			"/>
			<polygon class="st95" points="304.3,577.7 304.3,616.5 314.1,622.4 314.1,583.6 			"/>
			
				<linearGradient id="SVGID_00000161604692798090663160000004873593714840260007_" gradientUnits="userSpaceOnUse" x1="251.9264" y1="628.204" x2="274.8638" y2="629.0018">
				<stop  offset="0" style="stop-color:#3E33E1"/>
				<stop  offset="0.9792" style="stop-color:#6BBDF6"/>
			</linearGradient>
			<polygon style="fill:url(#SVGID_00000161604692798090663160000004873593714840260007_);" points="257.7,606.2 257.7,645 
				267.5,650.9 267.5,612.1 			"/>
			
				<linearGradient id="SVGID_00000112629605943536938000000004708346277141821630_" gradientUnits="userSpaceOnUse" x1="257.6512" y1="594.9156" x2="314.0921" y2="594.9156">
				<stop  offset="0" style="stop-color:#3E33E1"/>
				<stop  offset="0.9792" style="stop-color:#6BBDF6"/>
			</linearGradient>
			<polygon style="fill:url(#SVGID_00000112629605943536938000000004708346277141821630_);" points="314.1,583.6 267.5,612.1 
				257.7,606.2 304.3,577.7 			"/>
			
				<linearGradient id="SVGID_00000158718636315508909950000006047303837808538033_" gradientUnits="userSpaceOnUse" x1="267.4618" y1="617.2872" x2="314.084" y2="617.2872">
				<stop  offset="0" style="stop-color:#3262FF"/>
				<stop  offset="1" style="stop-color:#82DEFE"/>
			</linearGradient>
			<polygon style="fill:url(#SVGID_00000158718636315508909950000006047303837808538033_);" points="267.5,650.9 314.1,622.4 
				314.1,583.6 267.5,612.1 			"/>
			
				<linearGradient id="SVGID_00000006674340938216558480000002716793112332145046_" gradientUnits="userSpaceOnUse" x1="267.4697" y1="600.4581" x2="314.0921" y2="600.4581">
				<stop  offset="0" style="stop-color:#3E33E1"/>
				<stop  offset="0.9792" style="stop-color:#6BBDF6"/>
			</linearGradient>
			<polygon style="fill:url(#SVGID_00000006674340938216558480000002716793112332145046_);" points="314.1,583.6 290.8,617.3 
				267.5,612.1 			"/>
			
				<linearGradient id="SVGID_00000058550168360849890610000016984497903746525586_" gradientUnits="userSpaceOnUse" x1="276.3453" y1="590.8178" x2="295.3873" y2="590.8178">
				<stop  offset="2.082500e-02" style="stop-color:#6BBDF6"/>
				<stop  offset="1" style="stop-color:#3E33E1"/>
			</linearGradient>
			<path style="fill:url(#SVGID_00000058550168360849890610000016984497903746525586_);" d="M276.3,592.2v7.6c0,0.6,0.4,1,0.8,1.2
				c0.1,0.1,0.3,0.1,0.4,0.1c0.7,0,1.3-0.6,1.3-1.3v-7.6c0-0.7,0.4-1.4,1-1.8l11.7-7.1c0.3-0.2,0.6-0.2,0.8,0c0.1,0,0.1,0.1,0.2,0.1
				c0,0,0,0,0.1,0c0.1,0.2,0.2,0.4,0.2,0.6v5.8c0,0.5,0.3,1,0.8,1.2c0.2,0.1,0.3,0.1,0.5,0.1c0.7,0,1.3-0.6,1.3-1.3V584
				c0-1.3-0.6-2.4-1.7-3c-0.3-0.2-0.5-0.3-0.8-0.3c-0.9-0.2-1.8-0.1-2.6,0.4l-11.7,7.1C277.2,589,276.3,590.5,276.3,592.2z"/>
			<polygon class="st101" points="288.1,615.9 288.1,619.9 289,620.4 289,616.4 			"/>
			<polygon class="st101" points="293.8,613.5 289,616.4 288.1,615.9 292.9,613 			"/>
			<polygon class="st93" points="289,620.4 293.8,617.5 293.8,613.5 289,616.4 			"/>
			
				<linearGradient id="SVGID_00000059304635356270900340000002841304967924831670_" gradientUnits="userSpaceOnUse" x1="276.3453" y1="590.7755" x2="292.8223" y2="590.7755">
				<stop  offset="2.082500e-02" style="stop-color:#6BBDF6"/>
				<stop  offset="1" style="stop-color:#3E33E1"/>
			</linearGradient>
			<path style="fill:url(#SVGID_00000059304635356270900340000002841304967924831670_);" d="M276.3,592.2v7.6c0,0.6,0.4,1,0.8,1.2
				v-7.7c0-2.8,1.1-3.8,1.1-3.8l14.5-8.8c-0.9-0.2-1.8-0.1-2.6,0.4l-11.7,7.1C277.2,589,276.3,590.5,276.3,592.2z"/>
			
				<linearGradient id="SVGID_00000077301237485608451170000009083999020861259682_" gradientUnits="userSpaceOnUse" x1="296.6272" y1="586.9913" x2="287.1185" y2="587.3903">
				<stop  offset="2.082500e-02" style="stop-color:#6BBDF6"/>
				<stop  offset="1" style="stop-color:#3E33E1"/>
			</linearGradient>
			<path style="fill:url(#SVGID_00000077301237485608451170000009083999020861259682_);" d="M292.6,583.4c0.1,0.2,0.2,0.4,0.2,0.6
				v5.8c0,0.5,0.3,1,0.8,1.2V585C293.6,584,292.8,583.5,292.6,583.4z"/>
		</g>
		<path class="st91" d="M285.7,572.8c0,0,0.7,2.3,1.4,3.6c0.7,1.3,2.2,2,2.8,4.3c0.6,2.3-0.2,4.2-0.7,5.6c-0.5,1.4-5.7,4.3-7,4.2
			c-1.3,0-1.1-0.8-1.1-0.8l1.2-0.7c0,0,0.7-2.7-0.4-3.3c0,0-1.9-1.2-1.6-4.9s-1.1-5.9-1.1-5.9"/>
		<path id="XMLID_30_" class="st91" d="M268.2,422.1c0,0,2.4,26.1-2.2,31c-4.1,4.4-12.2,5.4-12.2,5.4l-1.3-19.5L268.2,422.1z"/>
		<path class="st79" d="M268.9,545.1l-0.4-0.1c-0.7-0.1-1.3-0.2-1.8-0.5c-1.8-0.9-3-4.1-3.8-8.3c-1.7-9-1.4-22.2-1.4-24
			c0,0-0.2-21.2,1.3-28c2.6-12,8.6-14.9,8.6-14.9c0.3,0.3,1.7,1.4,1.9,1.6c5.4,5.8,8.7,12.7,8.5,22.1c0,0,0,0,0,0.1
			c0,0.1,0,0.2,0,0.2c-0.3,12.4-1.6,24.4-2,29.7C279.8,523.1,278.1,546.3,268.9,545.1z"/>
		<path class="st104" d="M228.2,430c0,0,3,11.9,1,17.4c-2,5.5-9,8.5-12.5,14.9c-3.5,6.4,2.5,11.6,2.7,18.8s3.6,18.3,18.8,17.6
			c15.2-0.7,11.3-13.3,11.7-20.6c0.4-7.4,3.1-9.4,6.6-13.7c3.5-4.3-1.4-11.2,4.2-18.5"/>
		<path class="st104" d="M263.1,442.1c-0.8,9.5-35.7,12.6-34.9-14c0.3-9.5,4.2-17.5,15.1-20.3c1.9-0.5,18.4-6.8,26.1,6.5
			c1.9,3.2,2.2,6.5,2.2,6.5s0,8-7.5,11C264.1,431.8,263.1,436,263.1,442.1z"/>
		<path class="st79" d="M263.6,539.3c0,0,10,32.4,13.5,38.1c0,0,8.1-0.4,9.9-3.6l-7.7-48"/>
		<path class="st91" d="M264.1,438.9c0,0-0.6-4.1-3.3-3.2c-4.1,1.4-2.2,10.6,0.5,10.6c2.7,0,2.5-3,2.5-3"/>
	</g>
	<g>
		<path class="st105" d="M721,103.2v37c0,1,0.5,1.9,1.3,2.5c0,0,0.1,0.1,0.1,0.1l12.1,7.4l25,15.4c0.4,0.3,0.9,0.2,1.3,0
			c0.3-0.2,0.6-0.6,0.6-1v-36c0-1.3-0.7-2.5-1.8-3.2l-37.1-22.9c-0.3-0.2-0.6-0.2-0.8-0.1c-0.1,0-0.1,0.1-0.2,0.1
			C721.1,102.6,721,102.8,721,103.2z"/>
		<path class="st105" d="M616.4,540.3V605c0,1.7,0.8,3.4,2.3,4.4c0.1,0,0.1,0.1,0.2,0.1l21.2,13l43.7,26.9c0.8,0.5,1.6,0.4,2.3,0
			c0.5-0.4,1-1,1-1.8v-63.1c0-2.3-1.2-4.4-3.1-5.6l-65-40.1c-0.5-0.3-1-0.3-1.4-0.1c-0.1,0-0.2,0.1-0.3,0.2
			C616.7,539.2,616.4,539.7,616.4,540.3z"/>
		<path class="st105" d="M793.6,194.2v64.8c0,1.7,0.8,3.4,2.3,4.4c0.1,0,0.1,0.1,0.2,0.1l21.2,13l43.7,26.9c0.8,0.5,1.6,0.4,2.3,0
			c0.5-0.4,1-1,1-1.8v-63.1c0-2.3-1.2-4.4-3.1-5.6l-65-40.1c-0.5-0.3-1-0.3-1.4-0.1c-0.1,0-0.2,0.1-0.3,0.2
			C793.9,193.1,793.6,193.6,793.6,194.2z"/>
		<path class="st105" d="M293.9,41.4v37c0,1,0.5,1.9,1.3,2.5c0,0,0.1,0.1,0.1,0.1l12.1,7.4l25,15.4c0.4,0.3,0.9,0.2,1.3,0
			c0.3-0.2,0.6-0.6,0.6-1v-36c0-1.3-0.7-2.5-1.8-3.2l-37.1-22.9c-0.3-0.2-0.6-0.2-0.8-0.1c-0.1,0-0.1,0.1-0.2,0.1
			C294.1,40.8,293.9,41.1,293.9,41.4z"/>
		<path class="st105" d="M159.8,156.8v37c0,1,0.5,1.9,1.3,2.5c0,0,0.1,0.1,0.1,0.1l12.1,7.4l25,15.4c0.4,0.3,0.9,0.2,1.3,0
			c0.3-0.2,0.6-0.6,0.6-1v-36c0-1.3-0.7-2.5-1.8-3.2L161.2,156c-0.3-0.2-0.6-0.2-0.8-0.1c-0.1,0-0.1,0.1-0.2,0.1
			C160,156.2,159.8,156.4,159.8,156.8z"/>
		<path class="st105" d="M520.8,651.9v37c0,1,0.5,1.9,1.3,2.5c0,0,0.1,0.1,0.1,0.1l12.1,7.4l25,15.4c0.4,0.3,0.9,0.2,1.3,0
			c0.3-0.2,0.6-0.6,0.6-1v-36c0-1.3-0.7-2.5-1.8-3.2l-37.1-22.9c-0.3-0.2-0.6-0.2-0.8-0.1c-0.1,0-0.1,0.1-0.2,0.1
			C521,651.3,520.8,651.5,520.8,651.9z"/>
	</g>
</g>
</svg>
