<?xml version="1.0" encoding="utf-8"?>
<!-- Generator: Adobe Illustrator 28.0.0, SVG Export Plug-In . SVG Version: 6.00 Build 0)  -->
<svg version="1.1" id="_x39_5c6c890-4df0-4047-9b20-53c1698e0703"
	 xmlns="http://www.w3.org/2000/svg" xmlns:xlink="http://www.w3.org/1999/xlink" x="0px" y="0px" viewBox="0 0 1139.7 810.4"
	 style="enable-background:new 0 0 1139.7 810.4;" xml:space="preserve">
<style type="text/css">
	.st0{fill:url(#SVGID_1_);}
	.st1{fill:url(#SVGID_00000175318930718246740100000008320716878965334192_);}
	.st2{fill:url(#SVGID_00000110434685310904507370000005938913209918146450_);}
	.st3{fill:#EBF0FF;}
	.st4{fill:#C2C8F2;}
	.st5{fill:#E3E5F9;}
	.st6{fill:url(#SVGID_00000095309606503243918010000005108345619797947071_);}
	.st7{fill:url(#SVGID_00000162349774630433004110000001720886077138763910_);}
	.st8{fill:url(#SVGID_00000069382233967846583400000004797850927363194294_);}
	.st9{fill:#D4D7F9;}
	.st10{opacity:0;fill:#A7B1F2;}
	.st11{opacity:4.761905e-02;fill:#A7B1F2;}
	.st12{opacity:9.523810e-02;fill:#A7B1F2;}
	.st13{opacity:0.1429;fill:#A7B1F2;}
	.st14{opacity:0.1905;fill:#A7B1F2;}
	.st15{opacity:0.2381;fill:#A7B1F2;}
	.st16{opacity:0.2857;fill:#A7B1F2;}
	.st17{opacity:0.3333;fill:#A7B1F2;}
	.st18{opacity:0.381;fill:#A7B1F2;}
	.st19{opacity:0.4286;fill:#A7B1F2;}
	.st20{opacity:0.4762;fill:#A7B1F2;}
	.st21{opacity:0.5238;fill:#A7B1F2;}
	.st22{opacity:0.5714;fill:#A7B1F2;}
	.st23{opacity:0.619;fill:#A7B1F2;}
	.st24{opacity:0.6667;fill:#A7B1F2;}
	.st25{opacity:0.7143;fill:#A7B1F2;}
	.st26{opacity:0.7619;fill:#A7B1F2;}
	.st27{opacity:0.8095;fill:#A7B1F2;}
	.st28{opacity:0.8571;fill:#A7B1F2;}
	.st29{opacity:0.9048;fill:#A7B1F2;}
	.st30{opacity:0.9524;fill:#A7B1F2;}
	.st31{fill:#A7B1F2;}
	.st32{fill:url(#SVGID_00000134233945142809340330000001265090551573715334_);}
	.st33{opacity:0.5;fill:url(#SVGID_00000162348931615369658030000017923611914412494977_);}
	.st34{fill:url(#SVGID_00000076596893659523837660000011644221029331427472_);}
	.st35{opacity:0.5;fill:url(#SVGID_00000022552017796445749690000012522109012708943507_);}
	.st36{opacity:0.5;fill:url(#SVGID_00000040545746640626660000000008778026032637297068_);}
	.st37{fill:url(#SVGID_00000116199931752277520130000002764484027691074960_);}
	.st38{fill:url(#SVGID_00000181795790702281838320000016019332944792856492_);}
	.st39{fill:url(#SVGID_00000038394354798697292880000001173761883140226458_);}
	.st40{clip-path:url(#SVGID_00000069399925044292417750000010011288863618823099_);}
	.st41{fill:#1F4AFF;}
	.st42{fill:url(#SVGID_00000008140151730338889540000000125472021759577269_);}
	.st43{fill:url(#SVGID_00000103243595185718502070000015958766168937656210_);}
	.st44{fill:url(#SVGID_00000067207980895134837920000010359050984514212282_);}
	.st45{fill:url(#SVGID_00000047742172893180462410000005199444481100104109_);}
	.st46{fill:url(#SVGID_00000127750435677745943230000002749817633908678542_);}
	.st47{fill:url(#SVGID_00000036224867213403342060000010997727890504148404_);}
	.st48{fill:#562FEA;}
	.st49{fill:url(#SVGID_00000177469922038605786150000007479869122673943717_);}
	.st50{fill:url(#SVGID_00000135664736512034288640000016219414650935395489_);}
	.st51{fill:#5D2CF0;}
	.st52{fill:#130F40;}
	.st53{fill:#3176FF;}
	.st54{fill:#F3ABC7;}
	.st55{fill:#FFFFFF;}
	.st56{fill:url(#SVGID_00000076593287820284736500000001174807190755526831_);}
	.st57{fill:url(#SVGID_00000016051241318132827390000002397036628579395496_);}
	.st58{fill:url(#SVGID_00000075145575330832700680000007353302165709819822_);}
	.st59{fill:url(#SVGID_00000048494268144563560620000016869264552197533870_);}
	.st60{fill:url(#SVGID_00000017497368788993370020000011604833623323246992_);}
	.st61{fill:url(#SVGID_00000158009455746481660450000000758719346803669684_);}
	.st62{fill:url(#SVGID_00000029014829957291939040000008543364958179324076_);}
	.st63{fill:url(#SVGID_00000118357914100069580360000007888117194630201501_);}
	.st64{fill:url(#SVGID_00000068663409522808688750000009578250329977319074_);}
	.st65{fill:url(#SVGID_00000123438462437362685280000004290938121153050511_);}
	.st66{fill:url(#SVGID_00000050643207278934478990000015349479387592978330_);}
	.st67{fill:url(#SVGID_00000057828449382519076670000014825532350511200694_);}
	.st68{fill:url(#SVGID_00000079471904785532559600000017724429443795530909_);}
	.st69{fill:url(#SVGID_00000042737877517675440510000007697714321986308788_);}
	.st70{fill:url(#SVGID_00000176765943196156685470000006308741206460529318_);}
	.st71{fill:url(#SVGID_00000006671761388470821630000014506718256001147014_);}
</style>
<g>
	<g>
		<linearGradient id="SVGID_1_" gradientUnits="userSpaceOnUse" x1="578.89" y1="756.9069" x2="578.89" y2="343.7601">
			<stop  offset="0" style="stop-color:#7023FF"/>
			<stop  offset="1" style="stop-color:#3377FF"/>
		</linearGradient>
		<path class="st0" d="M830.1,317.2L664,234.1c-15-7.5-39.3-7.5-54.3,0L327.6,375.7c-7.5,3.8-11.3,8.7-11.3,13.6v414.3
			c178.2-3.5,353.4-18.9,525-45.4V330.8C841.4,325.9,837.6,321,830.1,317.2z"/>
		
			<linearGradient id="SVGID_00000005258058368522518880000009421257348997532321_" gradientUnits="userSpaceOnUse" x1="316.3906" y1="360.0236" x2="841.3895" y2="360.0236">
			<stop  offset="0" style="stop-color:#E8EAFB"/>
			<stop  offset="1" style="stop-color:#FFFFFF"/>
		</linearGradient>
		<path style="fill:url(#SVGID_00000005258058368522518880000009421257348997532321_);" d="M830.1,344.4L548.1,485.9
			c-15,7.5-39.3,7.5-54.3,0l-166.1-83.1c-15-7.5-15-19.7,0-27.2l282.1-141.5c15-7.5,39.3-7.5,54.3,0l166.1,83.1
			C845.1,324.7,845.1,336.9,830.1,344.4z"/>
	</g>
	<g>
		
			<linearGradient id="SVGID_00000003823955638868551600000007132309281896500660_" gradientUnits="userSpaceOnUse" x1="578.8901" y1="588.0023" x2="578.8901" y2="221.8029">
			<stop  offset="0" style="stop-color:#FFFFFF"/>
			<stop  offset="1" style="stop-color:#19BFFE"/>
		</linearGradient>
		<path style="fill:url(#SVGID_00000003823955638868551600000007132309281896500660_);" d="M578.9,588
			c-97.1,0-188.5-18.9-257.2-53.3c-34.8-17.4-61.8-37.8-80.2-60.5c-17.9-22-26.9-45.4-26.9-69.3c0-24,9.1-47.3,26.9-69.3
			c18.4-22.7,45.4-43,80.2-60.5c68.7-34.4,160.1-53.3,257.2-53.3s188.5,18.9,257.2,53.3c34.8,17.4,61.8,37.8,80.2,60.5
			c17.9,22,26.9,45.4,26.9,69.3c0,24-9.1,47.3-26.9,69.3c-18.4,22.7-45.4,43-80.2,60.5C767.4,569.1,676,588,578.9,588z M578.9,225.4
			c-92.6,0-185.2,17.6-255.6,52.9C255.4,312.2,218,357.2,218,404.9c0,47.7,37.4,92.7,105.2,126.7c141,70.5,370.3,70.5,511.3,0
			c67.9-33.9,105.2-78.9,105.2-126.7c0-47.7-37.4-92.7-105.2-126.7C764,243,671.5,225.4,578.9,225.4z"/>
	</g>
	<g>
		<path class="st3" d="M327.6,402.8l117.9,58.9l24.7,12.3h55.5V338.6H401.5l-73.9,37.1C312.6,383.2,312.6,395.3,327.6,402.8z"/>
		<g>
			<path class="st4" d="M290.5,139.5L556.1,6.7c3-1.5,5.7-1.7,7.7-0.9c0,0,8.4,4.2,8.4,4.2l65.5,221.4L353.1,378.8
				c-3-1.4-4.4-4-5.7-8.4L278.9,157C277.1,148.8,284.1,142.7,290.5,139.5z"/>
			<path class="st5" d="M353.1,378.8l290.4-145.2L574.9,14c-1-5-8.1-7.6-14.5-4.4L296.3,141.7c-6.5,3.2-13.5,8.4-11.7,17.5
				L353.1,378.8z"/>
			
				<linearGradient id="SVGID_00000034067094810994965160000010884148712557662111_" gradientUnits="userSpaceOnUse" x1="298.7285" y1="190.582" x2="634.7923" y2="190.582">
				<stop  offset="0" style="stop-color:#651FE6"/>
				<stop  offset="1" style="stop-color:#1E69FF"/>
			</linearGradient>
			<polygon style="fill:url(#SVGID_00000034067094810994965160000010884148712557662111_);" points="632.1,227.9 563.5,19.5 
				296,153.3 364.6,361.7 			"/>
			
				<linearGradient id="SVGID_00000147193898914998681800000015522125566965459890_" gradientUnits="userSpaceOnUse" x1="808.2353" y1="359.5894" x2="353.9088" y2="359.5894">
				<stop  offset="0" style="stop-color:#E1E3F8"/>
				<stop  offset="0.5987" style="stop-color:#E1E3F8"/>
				<stop  offset="0.6243" style="stop-color:#C2C8F2"/>
			</linearGradient>
			<path style="fill:url(#SVGID_00000147193898914998681800000015522125566965459890_);" d="M806.4,338.2l-267,133.5
				c-6.4,3.2-16.9,3.2-23.4,0l-152.6-76.3c-6.3-3.1-10.2-9.5-10.2-16.5l290.4-133.8l167.7,76l0,11.3
				C811.2,334.5,809.6,336.6,806.4,338.2z"/>
			
				<linearGradient id="SVGID_00000141451451967530321500000011828228704044491154_" gradientUnits="userSpaceOnUse" x1="353.1319" y1="348.1624" x2="811.2009" y2="348.1624">
				<stop  offset="0" style="stop-color:#E8EAFB"/>
				<stop  offset="1" style="stop-color:#FFFFFF"/>
			</linearGradient>
			<path style="fill:url(#SVGID_00000141451451967530321500000011828228704044491154_);" d="M806.4,326.8l-267,133.5
				c-6.5,3.2-16.9,3.2-23.4,0l-162.9-81.4l290.4-145.2l162.9,81.4C812.8,318.3,812.8,323.5,806.4,326.8z"/>
			<polygon class="st9" points="391.5,371.3 493.8,422.5 737.5,300.6 635.2,249.5 			"/>
			<path class="st5" d="M396.7,370.3l6.9,3.5l13.8-6.9l-6.9-3.5L396.7,370.3z M438.2,356.4l-6.9-3.5l-13.8,6.9l6.9,3.5L438.2,356.4z
				 M459.1,346l-6.9-3.5l-13.8,6.9l6.9,3.5L459.1,346z M479.9,335.6l-6.9-3.5l-13.8,6.9l6.9,3.5L479.9,335.6z M500.7,325.2l-6.9-3.5
				l-13.8,6.9l6.9,3.5L500.7,325.2z M521.5,314.8l-6.9-3.5l-13.8,6.9l6.9,3.5L521.5,314.8z M542.3,304.3l-6.9-3.5l-13.8,6.9l6.9,3.5
				L542.3,304.3z M563.2,293.9l-6.9-3.5l-13.8,6.9l6.9,3.5L563.2,293.9z M457.3,386.8l-13.8,6.9l13.8,6.9l13.8-6.9L457.3,386.8z
				 M491.9,383.3l-13.8-6.9l-13.8,6.9l13.8,6.9L491.9,383.3z M512.7,372.9l-13.8-6.9l-13.8,6.9l13.8,6.9L512.7,372.9z M506,362.4
				l13.8,6.9l13.8-6.9l-13.8-6.9L506,362.4z M554.4,352l-13.8-6.9l-13.8,6.9l13.8,6.9L554.4,352z M575.2,341.6l-13.8-6.9l-13.8,6.9
				l13.8,6.9L575.2,341.6z M596,331.2l-13.8-6.9l-13.8,6.9l13.8,6.9L596,331.2z M497.4,386l-34.6,17.3l13.8,6.9l34.6-17.3L497.4,386
				z M532.1,382.5l-13.8-6.9l-13.8,6.9l13.8,6.9L532.1,382.5z M552.9,372.1l-13.8-6.9l-13.8,6.9l13.8,6.9L552.9,372.1z M573.7,361.7
				l-13.8-6.9l-13.8,6.9l13.8,6.9L573.7,361.7z M624.4,303.2l13.8,6.9l13.8-6.9l-13.8-6.9L624.4,303.2z M672.8,292.8l-13.8-6.9
				l-13.8,6.9l13.8,6.9L672.8,292.8z M679.9,289.3l13.8-6.9l-13.8-6.9l-13.8,6.9L679.9,289.3z M436.5,376.4l-13.8,6.9l13.8,6.9
				l13.8-6.9L436.5,376.4z M443.5,372.9l13.8,6.9l13.8-6.9l-13.8-6.9L443.5,372.9z M464.3,362.4l13.8,6.9l13.8-6.9l-13.8-6.9
				L464.3,362.4z M485.1,352l13.8,6.9l13.8-6.9l-13.8-6.9L485.1,352z M506,341.6l13.8,6.9l13.8-6.9l-13.8-6.9L506,341.6z
				 M526.8,331.2l13.8,6.9l13.8-6.9l-13.8-6.9L526.8,331.2z M547.6,320.8l13.8,6.9l13.8-6.9l-13.8-6.9L547.6,320.8z M596,310.4
				l-13.8-6.9l-13.8,6.9l13.8,6.9L596,310.4z M603.6,292.8l13.8,6.9l13.8-6.9l-13.8-6.9L603.6,292.8z M624.4,282.4l13.8,6.9
				l13.8-6.9l-13.8-6.9L624.4,282.4z M672.8,272l-13.8-6.9l-13.8,6.9l13.8,6.9L672.8,272z M598.3,276.4l-6.9-3.5l-13.8,6.9l6.9,3.5
				L598.3,276.4z M619.1,265.9l-6.9-3.5l-13.8,6.9l6.9,3.5L619.1,265.9z M640,255.5l-6.9-3.5l-13.8,6.9l6.9,3.5L640,255.5z
				 M671.3,312.9l-13.8-6.9l-13.8,6.9l13.8,6.9L671.3,312.9z M678.4,295.6l-13.8,6.9l13.8,6.9l13.8-6.9L678.4,295.6z M699.2,299
				L713,292l-13.8-6.9l-13.8,6.9L699.2,299z M690.7,322.5l-13.8-6.9l-13.8,6.9l13.8,6.9L690.7,322.5z M683.9,312.1l13.8,6.9
				l13.8-6.9l-13.8-6.9L683.9,312.1z M718.5,294.8l-13.8,6.9l13.8,6.9l13.8-6.9L718.5,294.8z M594.5,351.3l-13.8-6.9l-13.8,6.9
				l13.8,6.9L594.5,351.3z M636.2,330.5l-33.1-16.6l-13.8,6.9l19.3,9.7l-20.8,10.4l13.8,6.9L636.2,330.5z M482.1,413l13.8,6.9
				l13.8-6.9l-13.8-6.9L482.1,413z M503,402.6l13.8,6.9l13.8-6.9l-13.8-6.9L503,402.6z M600.1,354l-76.3,38.1l13.8,6.9l76.3-38.1
				L600.1,354z M634.7,350.5l-13.8-6.9l-13.8,6.9l13.8,6.9L634.7,350.5z M655.5,340.1l-13.8-6.9l-13.8,6.9l13.8,6.9L655.5,340.1z
				 M582.2,386.2l38.5,19.2l82.8-41.4l-38.5-19.2L582.2,386.2z"/>
		</g>
	</g>
	<g>
		<g>
			<g>
				<ellipse class="st10" cx="570.1" cy="369.5" rx="103.3" ry="51.6"/>
				<ellipse class="st11" cx="571.8" cy="368.3" rx="102.4" ry="51.2"/>
				<ellipse class="st12" cx="573.5" cy="367" rx="101.4" ry="50.7"/>
				<ellipse class="st13" cx="575.2" cy="365.7" rx="100.5" ry="50.3"/>
				<ellipse class="st14" cx="576.9" cy="364.5" rx="99.6" ry="49.8"/>
				<ellipse class="st15" cx="578.6" cy="363.2" rx="98.7" ry="49.4"/>
				<ellipse class="st16" cx="580.3" cy="362" rx="97.8" ry="48.9"/>
				<ellipse class="st17" cx="582" cy="360.7" rx="96.9" ry="48.4"/>
				<ellipse class="st18" cx="583.7" cy="359.4" rx="95.9" ry="48"/>
				<ellipse class="st19" cx="585.4" cy="358.2" rx="95" ry="47.5"/>
				<ellipse class="st20" cx="587.1" cy="356.9" rx="94.1" ry="47.1"/>
				<ellipse class="st21" cx="588.8" cy="355.7" rx="93.2" ry="46.6"/>
				<ellipse class="st22" cx="590.5" cy="354.4" rx="92.3" ry="46.1"/>
				<ellipse class="st23" cx="592.2" cy="353.2" rx="91.4" ry="45.7"/>
				<ellipse class="st24" cx="593.9" cy="351.9" rx="90.4" ry="45.2"/>
				<ellipse class="st25" cx="595.6" cy="350.6" rx="89.5" ry="44.8"/>
				<ellipse class="st26" cx="597.2" cy="349.4" rx="88.6" ry="44.3"/>
				<ellipse class="st27" cx="598.9" cy="348.1" rx="87.7" ry="43.9"/>
				<ellipse class="st28" cx="600.6" cy="346.9" rx="86.8" ry="43.4"/>
				<ellipse class="st29" cx="602.3" cy="345.6" rx="85.9" ry="42.9"/>
				<ellipse class="st30" cx="604" cy="344.4" rx="84.9" ry="42.5"/>
				<ellipse class="st31" cx="605.7" cy="343.1" rx="84" ry="42"/>
			</g>
		</g>
		
			<radialGradient id="SVGID_00000147189259563830856820000002532291748008455562_" cx="621.7103" cy="197.8052" r="180.4745" gradientUnits="userSpaceOnUse">
			<stop  offset="0" style="stop-color:#19BFFE"/>
			<stop  offset="0.571" style="stop-color:#19BFFE"/>
			<stop  offset="0.8368" style="stop-color:#3A7CFF"/>
			<stop  offset="1" style="stop-color:#19BFFE"/>
		</radialGradient>
		<circle style="fill:url(#SVGID_00000147189259563830856820000002532291748008455562_);" cx="607.5" cy="241.6" r="140.4"/>
		
			<linearGradient id="SVGID_00000116211289480765630320000008598314144398726024_" gradientUnits="userSpaceOnUse" x1="563.3113" y1="282.1268" x2="563.3113" y2="166.1141">
			<stop  offset="0" style="stop-color:#5C75E0"/>
			<stop  offset="1" style="stop-color:#FFFFFF"/>
		</linearGradient>
		
			<circle style="opacity:0.5;fill:url(#SVGID_00000116211289480765630320000008598314144398726024_);" cx="563.3" cy="246.8" r="82.3"/>
		
			<radialGradient id="SVGID_00000042703043954259308570000004674530276316141457_" cx="650.7079" cy="199.9267" r="209.3816" gradientUnits="userSpaceOnUse">
			<stop  offset="0" style="stop-color:#1E69FF"/>
			<stop  offset="0.8011" style="stop-color:#7023FF"/>
			<stop  offset="1" style="stop-color:#1E69FF"/>
		</radialGradient>
		<path style="fill:url(#SVGID_00000042703043954259308570000004674530276316141457_);" d="M580.3,282c-2.3-4-1.6-9.7-5.2-12.7
			c-2.2-1.8-5.3-2-8.1-1.4c-2.8,0.6-5.4,1.8-8.2,2.5c-12.1,2.8-19.6-6.6-30.6-7.5c-3.9-0.3-7.1,0.6-9.8,2.4
			c-1.5-3.3-1.8-7.2-0.6-10.7c-3.1,3.3-7.4,7-11.7,5.5c-2.5-0.9-4.1-3.3-5.5-5.6c-3.3-5.4-6.6-10.8-9.9-16.1c-1.2-2-2.5-4.4-1.7-6.6
			c1-2.7,4.5-3.5,7.5-3.2c7,0.6,13.6,5,16.9,11.2c1.1,1.9,1.9,4.1,3.6,5.5c1.7,1.4,4.7,1.6,5.8-0.3c-2.4-3.9-4.9-7.9-5.4-12.5
			c-0.5-4.5,1.5-9.7,5.8-11.3c3.7-1.4,7.6,0.2,11.4,1c7.5,1.7,15.5,0.5,22.2-3.1c1.7-0.9,3.6-2.4,3.4-4.4c-0.4-4.4-9.7-3.3-9.8-7.7
			c-0.1-2.6,3.5-3.8,6-2.9c2.5,0.9,4.4,2.9,6.9,3.6c3.5,1,7.5-1,8.9-4.4c2.1-5.2-2.2-10.6-6.1-14.7c-1.8-1.8-3.6-3.7-5.9-4.9
			c-2.3-1.2-5.2-1.6-7.4-0.3c-1.9,1-3.1,3-4.4,4.7c-3.1,3.9-7.7,6.9-12.7,7.2c-5,0.3-10.2-2.4-12.3-7c-2-4.6,0-10.7,4.6-12.7
			c2.9-1.2,6.2-0.7,9.3-0.2c3.1,0.5,6.4,1,9.3-0.2c2.9-1.2,5-4.9,3.5-7.6c-2.2,0.8-4.6-0.8-5.7-2.8c-1.1-2-1.2-4.4-1.7-6.7
			c-1.6-8.6-7.8-16.1-15.9-19.4c-4.3-1.7-9-2.3-13.5-1.7c-26.7,24.2-44.1,58.5-46.1,96.9c0.4,0.5,0.8,1,1.3,1.5
			c6,6.6,11.6,13.4,17.8,19.8c5.6,5.8,11.5,11.9,19.1,14.4c2.4,0.8,4.9,1.2,7.4,1.3c-2.4,3.7-4,8.2-5,12.4
			c-1.3,5.5-2.3,11.2-5.3,15.9c-1.9,2.9-4.5,5.8-4,9.2c0.5,3,3.4,5.1,6.4,6c3,0.9,6.1,0.9,9,1.9c7.4,2.5,11.7,10.2,14.1,17.6
			c2.4,7.4,3.8,15.4,8.3,21.7c7.5,10.4,21.3,13.5,33.9,15.9c-3.2-4.1-6.5-8.3-8.3-13.2c-1.9-4.9-2.2-10.6,0.3-15.2
			c2.9-5.3,9.3-8.4,11.2-14.2c2-6-1.7-13,1-18.7c1.6-3.5,5.2-5.6,8.2-8c3.1-2.4,6-5.9,5.3-9.7C587.3,288.3,582.4,285.9,580.3,282z
			 M555.5,158.6c1.4,2.9,2.9,5.9,5.6,7.8c3.9,2.8,9.8,2.7,12.7,6.5c0.8,1.1,1.3,2.5,2.1,3.6s2.2,2,3.6,1.6c1.7-0.5,2.2-2.8,1.7-4.5
			c-0.5-1.7-1.7-3.2-2.2-4.9c-0.8-3,0.5-6.1,1.8-9c1.2-2.9,2.3-6.2,0.9-9c-1.6-3.3-5.7-4.2-9.3-4.8c-5.7-0.9-20.6-7.1-20.6,3.7
			c0.1,1.5,0.8,2.9,1.5,4.3C553.9,155.4,554.7,157,555.5,158.6z M619,203.8c2,1.7,4.5,1.9,6.2-0.5c0.8-1.1,1.2-2.3,1.7-3.5
			c0.5-1.2,1.3-2.3,2.4-3c0.8-0.4,1.7-0.6,2.5-0.9c0.8-0.3,1.6-1,1.7-1.8c0.2-1.5-1.5-2.3-2.8-3c-5.2-2.5-5.5-14.3-9-13.7
			c-3,0.4-2.5,5.6-3.7,8.4c-0.7,1.6-1.4,3.3-1.1,5c0.4,2.1,2.4,3.9,1.9,6C618.3,199.8,615.8,201.1,619,203.8z M715.7,306.2
			c-1.9,2.1-3.7,4.2-4.9,6.7c-1,2.1-2.6,8.2,0.3,9.8c2.9,1.6,5.7-2.5,7.2-4.6c2.2-3,3.6-6.5,4.8-10c0.5-1.4,1.5-9.7,2.6-10.2
			C721.8,299.9,718.7,303,715.7,306.2z M701.7,137.3c-5-4.3-10.4-4.1-11.9-3.5c-3.6,1.2-0.8,8.1-0.8,11.9c0,14.2-9.2,17.7-13.4,14.1
			c-3.2-2.7-6.6-5.5-10.6-6.4c-2.7-0.6-5.1-0.1-7.7,0.4c-1.9,0.3-3.8,0.3-5.5,1.5c-1.4,1-2.5,2.4-3.5,3.7c-0.9,1.1-1.7,2.3-2.6,3.4
			c-0.8,1-1.6,2.1-2.6,2.9c-1.7,1.3-3.9,1.8-6,2.3c-2.1,0.5-4.2,1.2-5.7,2.8c-3.5,3.7-0.9,9.3,2.7,11.7c4.5,3,11.5,1.5,14.1-3.3
			c2.2,2,3.1,5.4,2.1,8.3c-0.4,1.2-1.1,2.4-1.6,3.5c-1.5,0.6-3,1.4-4.5,2.3c-5.8,3.7-8.9,10.3-14.5,13.7c-2.8,1.7-6.1,2.2-9.2,1.3
			c-0.9-0.2-8.3-3.8-7.2-5.4c-5,6.5-7,15.5-4.4,23.3c2.6,7.8,9.9,14,18.1,14.6c8.7,0.6,16.8-4.8,22.1-11.7c3.6-4.6,6.2-9.9,7.7-15.6
			c0.9,5,6.5,7.3,10.8,10c2.3,1.5,4.6,3.6,5,6.4c0.4,2.7-2,5.9-4.7,5.3c2.6,3.1,7.3,4.1,11,2.4c3.7-1.7,5.9-5.9,5.3-9.9
			c-0.4-2.6-1.9-4.9-2.8-7.4c-0.9-2.5-0.9-5.6,1-7.4c-0.2,4.1,2.2,8.3,5.8,10.4c2.9,1.6,6.3,2,9.5,2.7c3.2,0.7,6.6,2.2,8.2,5.1
			c0.5,1,0.7,2.2,0.5,3.3c-3.2,2.6-6.4,5.5-7.9,8.7c-7.6-0.7-17.1,4.5-23.9,4.2c-9.9-0.5-19-7-29.3-6.6c-6.6,0.2-12.8,3.6-17.6,8.1
			c-4.8,4.5-8.5,10.1-12,15.6c-1.7,2.8-3.5,5.8-3.3,9c0.3,4.3,3.7,7.5,7,10.3c6.6,5.7,13.7,10.8,21.9,13.9
			c30.3,11.6,24.5,32.3,16.9,43.2c-2.9,4.1-6.4,9.4-3.9,13.7c1.3,2.4,4.2,3.6,6.9,3.7c2.7,0.1,5.4-0.8,8-1.8
			c7.4-2.9,14.5-6.7,20.9-11.3c4.4-3.2,8.6-6.8,11.1-11.6c2.4-4.5,3.1-9.6,4.3-14.5c2.6-10.4,7.4-20.2,14.2-28.4
			c2.5-3.1,5.4-6.1,6.8-9.9c1.4-3.8,0.9-8.6-2.3-10.9c-3.3-2.4-8.1-1.4-11.4-3.7c-2.3-1.6-3.3-4.1-3.8-7c4.7,2.7,10,4.6,13.5,5.2
			c3.7,0.7,7.9-0.1,10.6-2.8c2.6-2.7,3-7.7,0.2-10.2c-2-1.7-4.8-2-7.3-2.7c-2.5-0.7-5.2-2.5-5.1-5.1c0.1-3,3.5-4.5,6.4-5.1
			c5.6-1.1,11.7-1.1,16.7,1.5c1.5,0.8,2.9,1.9,4.1,3.1c0-0.4,0-0.7,0-1.1C747.8,200.1,730,163,701.7,137.3z M660.5,186.9
			c0.1-2.9-0.4-5.9-0.2-8.9c0.1-3.3,1.2-6.9,4-8.8c-2.7,4.8-0.8,11.5,3.6,14.7C665.5,185.1,663.1,186.1,660.5,186.9z"/>
		
			<linearGradient id="SVGID_00000021817851482604954960000005648879209473066403_" gradientUnits="userSpaceOnUse" x1="685.0366" y1="210.7988" x2="536.5544" y2="359.281">
			<stop  offset="0" style="stop-color:#5C75E0"/>
			<stop  offset="1" style="stop-color:#FFFFFF"/>
		</linearGradient>
		<path style="opacity:0.5;fill:url(#SVGID_00000021817851482604954960000005648879209473066403_);" d="M705.9,279.2
			c-54.3,27.2-142.4,27.2-196.8,0c-6.2-3.1-12.5-7.4-18.3-11.8c-9-6.9-21.5,1.7-18.4,12.6c16.6,59,70.8,102.3,135.1,102.3
			c65.6,0,120.6-44.9,136-105.7c2.5-9.8-8.9-17.2-16.9-10.9C720.2,270.7,712.9,275.7,705.9,279.2z"/>
		
			<linearGradient id="SVGID_00000095314913945109131210000016171962408390733727_" gradientUnits="userSpaceOnUse" x1="607.4524" y1="344.6143" x2="607.4524" y2="262.3483">
			<stop  offset="0" style="stop-color:#5C75E0"/>
			<stop  offset="1" style="stop-color:#FFFFFF"/>
		</linearGradient>
		
			<ellipse style="opacity:0.5;fill:url(#SVGID_00000095314913945109131210000016171962408390733727_);" cx="607.5" cy="297.3" rx="98.6" ry="49.3"/>
		<g>
			<defs>
				
					<ellipse id="SVGID_00000049202886969244843280000012010425141192531088_" transform="matrix(0.7071 -0.7071 0.7071 0.7071 7.2938 500.2089)" cx="607.5" cy="241.3" rx="140.4" ry="140.4"/>
			</defs>
			<clipPath id="SVGID_00000141415020687576989920000001082137292403578291_">
				<use xlink:href="#SVGID_00000049202886969244843280000012010425141192531088_"  style="overflow:visible;"/>
			</clipPath>
			<g style="opacity:0.8;clip-path:url(#SVGID_00000141415020687576989920000001082137292403578291_);">
				<image style="overflow:visible;" width="150" height="151" xlink:href="B8E9064B.png"  transform="matrix(1 0 0 1 609 107.43)">
				</image>
			</g>
		</g>
		
			<linearGradient id="SVGID_00000008113971639053851020000009411089693440122556_" gradientUnits="userSpaceOnUse" x1="568.3949" y1="331.1933" x2="549.8412" y2="226.9558" gradientTransform="matrix(0.9926 0.1212 -0.1212 0.9926 172.1808 -121.9446)">
			<stop  offset="0" style="stop-color:#000000"/>
			<stop  offset="1" style="stop-color:#AFC4FF"/>
		</linearGradient>
		<path style="fill:url(#SVGID_00000008113971639053851020000009411089693440122556_);" d="M705.7,281.4l0.6-1.7l0.5-1.7l1-3.4
			c0.3-1.1,0.6-2.3,0.9-3.4c0.6-2.3,1.1-4.6,1.6-6.9c0.3-1.2,0.5-2.3,0.7-3.5l0.7-3.5c0.3-2.3,0.7-4.7,1-7.1c0.6-4.7,1-9.5,1.2-14.3
			c0.4-9.6,0-19.3-1.4-29.1c-0.7-4.9-1.6-9.7-2.8-14.6c-1.2-4.9-2.6-9.7-4.4-14.5l-0.2-0.4c-0.3-0.9-0.8-1.8-1.2-2.7
			c-4.9-8.5-15.8-11.5-24.3-6.6c-8.5,4.9-11.5,15.8-6.6,24.3c1.9,3.3,3.6,6.7,5.1,10.2c1.5,3.5,2.9,7.2,4.1,10.9
			c2.4,7.5,4.1,15.4,5.2,23.4c1.8,14.3,1.5,29.2-1.1,43.8l19.4,1L705.7,281.4z"/>
		
			<linearGradient id="SVGID_00000179604721186844430330000014227266542880695939_" gradientUnits="userSpaceOnUse" x1="607.8605" y1="158.1075" x2="607.8605" y2="107.0337">
			<stop  offset="0" style="stop-color:#000000"/>
			<stop  offset="1" style="stop-color:#AFC4FF"/>
		</linearGradient>
		
			<ellipse style="fill:url(#SVGID_00000179604721186844430330000014227266542880695939_);" cx="607.9" cy="133.5" rx="59" ry="29.5"/>
		
			<linearGradient id="SVGID_00000165236589329961177170000014746892570702396349_" gradientUnits="userSpaceOnUse" x1="607.5048" y1="378.7402" x2="607.5048" y2="341.4444">
			<stop  offset="0" style="stop-color:#395DCE"/>
			<stop  offset="1" style="stop-color:#000000"/>
		</linearGradient>
		<path style="fill:url(#SVGID_00000165236589329961177170000014746892570702396349_);" d="M506.4,339.3c25.5,26.5,61.4,43,101.1,43
			c39.7,0,75.6-16.5,101.2-43.1c-26.5,23.5-62,37.9-101.2,37.9C568.4,377.1,532.8,362.8,506.4,339.3z"/>
		<g>
			<defs>
				
					<ellipse id="SVGID_00000142167210453654212500000004541192515443474817_" transform="matrix(0.7071 -0.7071 0.7071 0.7071 7.073 500.3004)" cx="607.5" cy="241.6" rx="140.2" ry="140.2"/>
			</defs>
			<clipPath id="SVGID_00000026151304462344029060000005636479927399272367_">
				<use xlink:href="#SVGID_00000142167210453654212500000004541192515443474817_"  style="overflow:visible;"/>
			</clipPath>
			<g style="clip-path:url(#SVGID_00000026151304462344029060000005636479927399272367_);">
				<g>
					<path class="st41" d="M607.5,300.1c-36,0-72-6.9-99.4-20.6c-29.1-14.6-44.1-34.8-41-55.4c0-0.3,0.4-0.6,0.7-0.5
						c0.3,0,0.6,0.4,0.5,0.7c-3,20.1,11.7,39.8,40.3,54.2c54.5,27.3,143.2,27.3,197.7,0c27.8-13.9,42.6-33.1,40.5-52.7
						c0-0.3,0.2-0.6,0.5-0.7c0.3,0,0.6,0.2,0.7,0.5c2.1,20.1-12.9,39.7-41.2,53.9C679.4,293.3,643.4,300.1,607.5,300.1z"/>
				</g>
				<g>
					<path class="st41" d="M607.4,362.7c-31.7,0-63.5-6-87.7-18.1c-12.2-6.1-21.5-13.2-27.8-21.1c-0.2-0.3-0.2-0.6,0.1-0.8
						c0.3-0.2,0.6-0.2,0.8,0.1c6.2,7.8,15.4,14.8,27.4,20.8c48,24,126.2,24,174.3,0c13.1-6.6,22.9-14.3,29-23
						c0.2-0.3,0.6-0.3,0.8-0.1c0.3,0.2,0.3,0.6,0.1,0.8c-6.2,8.8-16.1,16.7-29.4,23.3C670.9,356.6,639.2,362.7,607.4,362.7z"/>
				</g>
				<g>
					<path class="st41" d="M607.5,199.9c-24.5,0-49.1-4.7-67.8-14c-18.2-9.1-28.3-21.3-28.3-34.3c0-13,10-25.2,28.3-34.3
						c0.3-0.1,0.7,0,0.8,0.3c0.1,0.3,0,0.7-0.3,0.8c-17.8,8.9-27.6,20.7-27.6,33.2c0,12.5,9.8,24.3,27.6,33.2
						c37.1,18.5,97.4,18.5,134.5,0c17.8-8.9,27.6-20.7,27.6-33.2c0-12.5-9.8-24.3-27.6-33.2c-0.3-0.1-0.4-0.5-0.3-0.8
						c0.1-0.3,0.5-0.4,0.8-0.3c18.2,9.1,28.3,21.3,28.3,34.3c0,13-10,25.2-28.3,34.3C656.5,195.2,632,199.9,607.5,199.9z"/>
				</g>
				<g>
					<path class="st41" d="M607.5,384.2c-0.3,0-0.6-0.3-0.6-0.6V124.1c0-0.3,0.3-0.6,0.6-0.6s0.6,0.3,0.6,0.6v259.5
						C608.1,383.9,607.8,384.2,607.5,384.2z"/>
				</g>
				<g>
					<path class="st41" d="M607.5,124.6c-5,0-10-1-13.9-2.9c-3.8-1.9-6-4.5-6-7.3c0-2.8,2.1-5.4,6-7.3c7.6-3.8,20.1-3.8,27.7,0
						c3.8,1.9,6,4.5,6,7.3c0,2.8-2.1,5.4-6,7.3C617.5,123.7,612.5,124.6,607.5,124.6z M607.5,105.4c-4.8,0-9.7,0.9-13.3,2.8
						c-3.4,1.7-5.3,3.9-5.3,6.3c0,2.3,1.9,4.6,5.3,6.3c7.4,3.7,19.3,3.7,26.7,0c3.4-1.7,5.3-3.9,5.3-6.3c0-2.3-1.9-4.6-5.3-6.3
						C617.1,106.3,612.3,105.4,607.5,105.4z"/>
				</g>
				<g>
					<path class="st41" d="M607.5,384.2c-51.9,0-94.1-61.4-94.1-136.9c0-31.6,7.6-62.3,21.3-86.7c13.6-24.1,32.5-40.8,53.3-47.2
						c0.3-0.1,0.7,0.1,0.7,0.4c0.1,0.3-0.1,0.7-0.4,0.7c-20.5,6.3-39.2,22.9-52.6,46.7c-13.6,24.2-21.1,54.8-21.1,86.1
						c0,74.8,41.7,135.7,92.9,135.7s92.9-60.9,92.9-135.7c0-31.3-7.5-61.9-21.1-86.1c-13.4-23.8-32.1-40.4-52.6-46.7
						c-0.3-0.1-0.5-0.4-0.4-0.7c0.1-0.3,0.4-0.5,0.7-0.4c20.8,6.4,39.7,23.2,53.3,47.2c13.7,24.4,21.3,55.1,21.3,86.7
						C701.6,322.8,659.3,384.2,607.5,384.2z"/>
				</g>
			</g>
		</g>
	</g>
	<g>
		
			<linearGradient id="SVGID_00000026145015633600524910000010083636257722794160_" gradientUnits="userSpaceOnUse" x1="696.0453" y1="394.7341" x2="584.4387" y2="417.1232" gradientTransform="matrix(1 0 0 1 -440.4898 0)">
			<stop  offset="0" style="stop-color:#8A6EFF"/>
			<stop  offset="0.3722" style="stop-color:#174DBA"/>
			<stop  offset="1" style="stop-color:#7023FF"/>
		</linearGradient>
		<path style="fill:url(#SVGID_00000026145015633600524910000010083636257722794160_);" d="M249.2,355.2l1.6-2.1l-10.5-5.3
			c-9.8-5-23.4-4.3-38.4,3.2c-29.9,14.9-54.1,51.3-54.1,81.1c0,15.1,6.2,25.7,16.3,30.5c0,0,10.5,5.3,10.5,5.3l0.3-2.5
			c8,0.6,17.2-1.3,27-6.3c29.9-14.9,54.1-51.3,54.1-81.1C256,368.5,253.5,360.8,249.2,355.2z"/>
		
			<linearGradient id="SVGID_00000099646480609425174240000001384557447839035836_" gradientUnits="userSpaceOnUse" x1="158.6532" y1="410.4687" x2="266.8154" y2="410.4687">
			<stop  offset="0" style="stop-color:#E8EAFB"/>
			<stop  offset="1" style="stop-color:#FFFFFF"/>
		</linearGradient>
		<path style="fill:url(#SVGID_00000099646480609425174240000001384557447839035836_);" d="M266.8,383.4c0,29.9-24.2,66.2-54.1,81.1
			c-29.9,14.9-54.1,2.8-54.1-27c0-29.9,24.2-66.2,54.1-81.1C242.6,341.5,266.8,353.6,266.8,383.4z"/>
		
			<linearGradient id="SVGID_00000096767102037540579120000000812341837128226486_" gradientUnits="userSpaceOnUse" x1="181.4946" y1="409.2741" x2="244.8411" y2="409.2741">
			<stop  offset="0" style="stop-color:#0088FF"/>
			<stop  offset="1" style="stop-color:#22D2FD"/>
		</linearGradient>
		<polygon style="fill:url(#SVGID_00000096767102037540579120000000812341837128226486_);" points="220.1,385.4 220.1,394.6 
			229.2,390 211.2,417.1 200.8,411.8 180.4,442.4 187,445.7 200.8,424.9 211.2,430.1 235.8,393.3 235.8,402.5 245,397.8 245,372.9 
					"/>
	</g>
	<g>
		<g>
			
				<linearGradient id="SVGID_00000073680750601284112950000011051665896968206257_" gradientUnits="userSpaceOnUse" x1="4.0738" y1="166.4996" x2="-107.5329" y2="188.8888" gradientTransform="matrix(1 0 0 1 891.8802 0)">
				<stop  offset="0" style="stop-color:#8A6EFF"/>
				<stop  offset="0.3722" style="stop-color:#174DBA"/>
				<stop  offset="1" style="stop-color:#7023FF"/>
			</linearGradient>
			<path style="fill:url(#SVGID_00000073680750601284112950000011051665896968206257_);" d="M889.6,126.9l1.6-2.1l-10.5-5.3
				c-9.8-5-23.4-4.3-38.4,3.2c-29.9,14.9-54.1,51.3-54.1,81.1c0,15.1,6.2,25.7,16.3,30.5c0,0,10.5,5.3,10.5,5.3l0.3-2.5
				c8,0.6,17.2-1.3,27-6.3c29.9-14.9,54.1-51.3,54.1-81.1C896.4,140.3,893.9,132.5,889.6,126.9z"/>
			
				<linearGradient id="SVGID_00000163048409360108042920000005221863782157661062_" gradientUnits="userSpaceOnUse" x1="799.0516" y1="182.2342" x2="907.2138" y2="182.2342">
				<stop  offset="0" style="stop-color:#E8EAFB"/>
				<stop  offset="1" style="stop-color:#FFFFFF"/>
			</linearGradient>
			<path style="fill:url(#SVGID_00000163048409360108042920000005221863782157661062_);" d="M907.2,155.2
				c0,29.9-24.2,66.2-54.1,81.1c-29.9,14.9-54.1,2.8-54.1-27s24.2-66.2,54.1-81.1C883,113.2,907.2,125.3,907.2,155.2z"/>
		</g>
		
			<linearGradient id="SVGID_00000105401927916884156950000006918025834491395980_" gradientUnits="userSpaceOnUse" x1="820.7475" y1="182.2343" x2="886.4168" y2="182.2343">
			<stop  offset="0" style="stop-color:#0088FF"/>
			<stop  offset="1" style="stop-color:#22D2FD"/>
		</linearGradient>
		<path style="fill:url(#SVGID_00000105401927916884156950000006918025834491395980_);" d="M886.6,169.1v-7.3l-8.4,3
			c-0.7-3.1-2-5.7-3.9-7.5l5.1-9.3l-5.1-2.6l-6.8,8.5c-2.8-0.5-6-0.2-9.5,0.8l-1.2-7.8l-7.3,3.6l-1.2,9c-3.5,2.4-6.7,5.4-9.5,8.7
			l-6.8-1.7l-5.1,7.7l5.1,4.2c-1.9,3.8-3.3,7.7-3.9,11.5l-8.4,5.4v7.3l8.4-3c0.7,3.1,2,5.7,3.9,7.5l-5.1,9.3l5.1,2.6l6.8-8.5
			c2.8,0.5,6,0.2,9.5-0.8l1.2,7.8l7.3-3.6l1.2-9c3.5-2.4,6.7-5.4,9.5-8.7l6.8,1.7l5.1-7.7l-5.1-4.2c1.9-3.8,3.3-7.7,3.9-11.5
			L886.6,169.1z M862.9,178.9c-0.6,4.5-4,9.6-8.2,12.3c-6.7,4.4-12.3,1.5-11.3-5.7c0.6-4.5,4-9.6,8.2-12.3
			C858.2,168.9,863.9,171.7,862.9,178.9z"/>
	</g>
	<g>
		<g>
			<path class="st48" d="M949.9,398.7c-1,0-1.7-0.8-1.7-1.7v-20.3c0-11.3-9.2-25.1-20.6-30.8c-5.6-2.8-10.8-3.1-14.4-0.9
				c-3,1.9-4.7,5.5-4.7,10.1v20.3c0,1-0.8,1.7-1.7,1.7c-1,0-1.7-0.8-1.7-1.7v-20.3c0-5.9,2.2-10.6,6.3-13.1
				c4.6-2.9,11.1-2.6,17.8,0.8c12.4,6.2,22.5,21.4,22.5,33.9v20.3C951.7,397.9,950.9,398.7,949.9,398.7z"/>
		</g>
		
			<linearGradient id="SVGID_00000124865560753511801410000016299911369622193313_" gradientUnits="userSpaceOnUse" x1="929.1885" y1="492.4867" x2="929.1885" y2="381.9567">
			<stop  offset="0" style="stop-color:#8A6EFF"/>
			<stop  offset="0.3722" style="stop-color:#174DBA"/>
			<stop  offset="1" style="stop-color:#7023FF"/>
		</linearGradient>
		<path style="fill:url(#SVGID_00000124865560753511801410000016299911369622193313_);" d="M981.4,480.3l-15.9-83.7l-70.6-35.3
			l-18,9l2.1,58.8c-1,4.2,2.6,10.4,7.4,12.8l73.7,36.9l1.1,16.5l18-9C981,485.4,981.9,483.3,981.4,480.3z"/>
		
			<linearGradient id="SVGID_00000106854915837596073470000016907477222618786691_" gradientUnits="userSpaceOnUse" x1="860.8043" y1="432.9223" x2="963.5233" y2="432.9223">
			<stop  offset="0" style="stop-color:#E8EAFB"/>
			<stop  offset="1" style="stop-color:#FFFFFF"/>
		</linearGradient>
		<path style="fill:url(#SVGID_00000106854915837596073470000016907477222618786691_);" d="M956,494.7l-87.6-43.8
			c-4.8-2.4-8.4-8.6-7.4-12.8l15.9-67.8l70.6,35.3l15.9,83.7C964.3,494.5,960.8,497.1,956,494.7z"/>
		<g>
			<path class="st51" d="M921.8,442.1c-3.2,0-6.8-0.9-10.4-2.7c-12.4-6.2-22.5-21.4-22.5-33.9v-9.8c0-1,0.8-1.7,1.7-1.7
				c1,0,1.7,0.8,1.7,1.7v9.8c0,11.3,9.2,25.1,20.6,30.8c5.6,2.8,10.8,3.1,14.4,0.9c3-1.9,4.7-5.5,4.7-10.1v-9.8c0-1,0.8-1.7,1.7-1.7
				c1,0,1.7,0.8,1.7,1.7v9.8c0,5.9-2.2,10.6-6.3,13.1C927,441.4,924.5,442.1,921.8,442.1z"/>
		</g>
	</g>
	<g>
		<g>
			<path class="st3" d="M430.5,366.2c-12.7-6.3-27.7-6.3-40.4,0c-0.1,0-0.1,0.1-0.2,0.1c-3.4,1.7-6.4,3.5-9.2,5.3
				c-3.5,2.3-3.5,7.5,0,9.8c2.8,1.9,5.9,3.6,9.2,5.3c0.1,0,0.1,0.1,0.2,0.1c12.7,6.3,27.7,6.3,40.4,0c0.1,0,0.1-0.1,0.2-0.1
				c3.4-1.7,6.4-3.5,9.2-5.3c3.5-2.3,3.5-7.5,0-9.8c-2.8-1.9-5.9-3.6-9.2-5.3C430.7,366.2,430.6,366.2,430.5,366.2z"/>
			<path class="st52" d="M405.4,383.1c2.7,2,8.4,5.5,11.1,6.3c2.8,0.9,4.2-1.3,2.5-3.4l-9.9-11.4l-3.5,3.8
				C404.4,379.9,403.7,381.8,405.4,383.1z"/>
			<path class="st52" d="M399.4,375.3c3-1,7.8-4,9.9-5.9c2.1-1.9,0.6-4.1-2-3.7l-11.5,1.4v5.6C395.7,374.5,397.3,376,399.4,375.3z"
				/>
			<path class="st53" d="M423.6,282.2c2.3,8,3.8,16.1,4.6,24.4c0.7,8.2,0.6,16.5-0.3,24.6c-0.9,8.1-2.5,16-4.6,23.7
				c-2.1,7.7-4.7,15.2-7.4,22.5c-0.9,2.3-3.5,3.5-5.9,2.6c-2.2-0.8-3.4-3.2-2.8-5.4c4-14.7,6.9-29.6,7.1-44.3
				c0.1-7.3-0.5-14.6-1.8-21.6c-1.3-7.1-3.4-14-6-20.7c-1.8-4.7,0.4-10,5.1-11.8c4.7-1.8,10,0.4,11.8,5.1
				C423.4,281.6,423.5,281.8,423.6,282.2L423.6,282.2z"/>
			<path class="st53" d="M409,277.4l-4.5,88.4c-0.1,2.5-2.3,4.4-4.8,4.3c-2.3-0.1-4.2-2-4.3-4.3l-4.5-88.4c-0.3-5,3.6-9.3,8.6-9.5
				c5-0.3,9.3,3.6,9.5,8.6C409,276.7,409,277,409,277.4z"/>
			<g>
				<path class="st54" d="M387.8,284.1l-0.8,5.6c-0.1,0.4-0.4,0.6-0.7,0.6c-0.4,0-0.7-0.3-0.7-0.7l-0.2-4.5L387.8,284.1z"/>
				<path class="st54" d="M384.9,287.7l0.3,3.8c0,0.5-0.1,0.9-0.4,1.3l-1.6,1.7l1-6.2L384.9,287.7z"/>
				<path class="st54" d="M383.9,289.9l-0.7,4.5c-0.1,0.4-0.4,0.6-0.8,0.6c-0.3,0-0.5-0.3-0.6-0.5l-0.8-4.9l0.9-6
					c0.2-1.4,1.6-2.5,3-2.3l0.5,0.1c1.4,0.2,2.3,1.4,2.2,2.7L383.9,289.9z"/>
			</g>
			<path class="st55" d="M399.2,249.3c-2.3,1.4-4.4,3.3-6.1,5.5c-1.7,2.2-3.1,4.7-4.1,7.5c-1,2.7-1.6,5.6-1.7,8.6
				c-0.1,3,0.2,6,0.9,8.9c0.5,2-0.7,4.1-2.7,4.6c-2,0.5-4.1-0.7-4.6-2.7c0-0.1,0-0.2-0.1-0.3c-0.6-3.5-1-7.1-1-10.6
				c0-3.6,0.4-7.2,1.2-10.8c0.9-3.6,2.2-7.1,4-10.3c1.8-3.3,4.1-6.4,6.9-9.1l0.2-0.2c2.2-2.2,5.9-2.2,8.1,0c2.2,2.2,2.2,5.9,0,8.1
				C399.9,248.8,399.5,249.1,399.2,249.3z"/>
			<path class="st53" d="M401.2,288.9l12.1,3.4c5.8,1.6,10.5-1.8,10.5-7.6c0-5.8-4.7-11.8-10.5-13.5l-12.1-3.4
				c-5.8-1.6-10.5,1.8-10.5,7.6C390.7,281.3,395.4,287.3,401.2,288.9z"/>
			<path class="st54" d="M413.6,233.4c-0.3,4.5-6.4,0.7-7,0.2c-2-1.8-5.4-7.8-0.8-10.4c1.5-0.8,4.9-0.9,6.2,0.2
				C413.8,225,413.8,230.6,413.6,233.4z"/>
			<polygon class="st54" points="411.9,235.5 403.5,227.3 403.1,243.8 410.7,243.5 409.5,235.9 			"/>
			<path class="st55" d="M392.3,270.4c4.2-7.6-1.1-22.6-0.1-28.8c0.2-1.3,1.2-2.3,2.5-2.5c6.1-1,19.2,2.8,23.8,9.6
				c2.3,7.6,1.8,21,4.4,31.4C409.8,284.3,392.3,275,392.3,270.4z"/>
			<path class="st54" d="M447.1,216c0.4,0.1,0.7,0.5,0.6,0.8l-0.3,2.4l1.1-1.8l2.3-2.1c0.3-0.3,0.7-0.2,1,0c0.3,0.3,0.3,0.7,0,1
				l-1.8,2l-0.2,0.5l2.2-0.8c0.4-0.2,0.8-0.1,1,0.3l1,1.9c0.1,0.3,0.1,0.6-0.1,0.8l-1.1,1.1l-0.9,1.4l-2,2.8c-0.6,0.8-1.7,1-2.6,0.4
				l-1.7-1.2l-0.4-0.3c-1.2-0.8-1.4-1.8-0.9-3.6l1.7-5.5C446.4,216.2,446.8,216,447.1,216z"/>
			<path class="st55" d="M414,244.2c3.2-0.2,6.4-0.6,9.5-1.3c3-0.7,6-1.7,8.6-3.2c1.3-0.7,2.5-1.5,3.6-2.4c0.6-0.5,1.1-1,1.6-1.5
				c0.5-0.6,1-1.1,1.4-1.7c1.7-2.3,3-5.1,3.8-8.1c0.5-2,2.6-3.3,4.6-2.7c2,0.5,3.3,2.6,2.7,4.6c0,0.1,0,0.2-0.1,0.3
				c-1.2,3.5-2.7,7.1-5,10.3c-2.2,3.3-5.1,6-8.3,8.2c-3.2,2.2-6.6,3.9-10.1,5.2c-3.5,1.4-6.9,2.4-10.4,3.4c-3,0.9-6.2-0.9-7.1-3.9
				c-0.9-3,0.9-6.2,3.9-7.1C413.1,244.3,413.5,244.2,414,244.2L414,244.2z"/>
			<path class="st52" d="M378.8,238.9c1.5-1.3,3.5-1.6,5.4-1.7c1.9-0.1,3.9,0.2,5.8-0.2c1.9-0.3,3.8-1.4,4.6-3.1
				c0.7-1.6,0.3-3.4,0.9-5c0.7-2,2.8-3.3,4.9-3.8c0.2,0,0.4-0.1,0.6-0.1c0.2-1.2,0.6-2.3,1.4-3.1c2.9-3.2,6.5-4.1,10.3-4.3
				c5.7-0.2,9.7,3.6-0.4,7.8l-2.2,0.4c2.7,5.4-5.4,4.1-5.6,7.2c-0.1,3.4,13.7,7.9,10.9,16.4c-2.8,8.5-20,9.3-25.1,8.1
				c-5.1-1.3-9.9-4.4-12.3-9c-0.8-1.5-1.3-3.2-1.2-5C376.8,241.8,377.5,240,378.8,238.9z"/>
		</g>
	</g>
	<g>
		<g>
			
				<linearGradient id="SVGID_00000050637475440327466340000004772675470696097701_" gradientUnits="userSpaceOnUse" x1="-4266.8198" y1="506.6392" x2="-4298.3906" y2="512.9725" gradientTransform="matrix(-1 0 0 1 -3944.7158 0)">
				<stop  offset="0" style="stop-color:#7023FF"/>
				<stop  offset="0.6278" style="stop-color:#174DBA"/>
				<stop  offset="1" style="stop-color:#8A6EFF"/>
			</linearGradient>
			<polygon style="fill:url(#SVGID_00000050637475440327466340000004772675470696097701_);" points="328,470.7 328,557.9 
				346.6,548.6 346.6,461.4 			"/>
			
				<linearGradient id="SVGID_00000016056827999976245700000006597341446668345230_" gradientUnits="userSpaceOnUse" x1="-4289.5278" y1="459.7245" x2="-4247.2637" y2="459.7245" gradientTransform="matrix(-1 0 0 1 -3944.7158 0)">
				<stop  offset="0" style="stop-color:#7023FF"/>
				<stop  offset="1" style="stop-color:#8A6EFF"/>
			</linearGradient>
			<polygon style="fill:url(#SVGID_00000016056827999976245700000006597341446668345230_);" points="328,470.7 302.5,458 
				321.1,448.7 346.6,461.4 			"/>
			
				<linearGradient id="SVGID_00000140012810008051938850000001765729155136617360_" gradientUnits="userSpaceOnUse" x1="-4281.9692" y1="465.2522" x2="-4281.9692" y2="557.8354" gradientTransform="matrix(-1 0 0 1 -3944.7158 0)">
				<stop  offset="0" style="stop-color:#7023FF"/>
				<stop  offset="1" style="stop-color:#174DBA"/>
			</linearGradient>
			<polygon style="fill:url(#SVGID_00000140012810008051938850000001765729155136617360_);" points="328,470.7 328,557.9 
				346.6,548.6 346.6,461.4 			"/>
			
				<linearGradient id="SVGID_00000140710219483589367030000012620182856826756226_" gradientUnits="userSpaceOnUse" x1="302.5085" y1="507.9675" x2="327.9521" y2="507.9675">
				<stop  offset="0" style="stop-color:#E8EAFB"/>
				<stop  offset="1" style="stop-color:#FFFFFF"/>
			</linearGradient>
			<polygon style="fill:url(#SVGID_00000140710219483589367030000012620182856826756226_);" points="302.5,458 302.5,545.2 
				328,557.9 328,470.7 			"/>
		</g>
		<g>
			
				<linearGradient id="SVGID_00000151510041021851777950000017526507331346326968_" gradientUnits="userSpaceOnUse" x1="-4307.8281" y1="542.1861" x2="-4333.5205" y2="547.3402" gradientTransform="matrix(-1 0 0 1 -3944.7158 0)">
				<stop  offset="0" style="stop-color:#7023FF"/>
				<stop  offset="0.6278" style="stop-color:#174DBA"/>
				<stop  offset="1" style="stop-color:#8A6EFF"/>
			</linearGradient>
			<polygon style="fill:url(#SVGID_00000151510041021851777950000017526507331346326968_);" points="384.7,512.3 366.1,521.6 
				366.1,577 384.7,567.7 			"/>
			
				<linearGradient id="SVGID_00000063616990217289530050000016797446951517289617_" gradientUnits="userSpaceOnUse" x1="-4327.7153" y1="510.5886" x2="-4285.4507" y2="510.5886" gradientTransform="matrix(-1 0 0 1 -3944.7158 0)">
				<stop  offset="0" style="stop-color:#7023FF"/>
				<stop  offset="1" style="stop-color:#8A6EFF"/>
			</linearGradient>
			<polygon style="fill:url(#SVGID_00000063616990217289530050000016797446951517289617_);" points="384.7,512.3 366.1,521.6 
				340.7,508.9 359.3,499.6 			"/>
			
				<linearGradient id="SVGID_00000097494545268551425530000014934317536168488070_" gradientUnits="userSpaceOnUse" x1="-4320.1567" y1="514.8597" x2="-4320.1567" y2="576.9615" gradientTransform="matrix(-1 0 0 1 -3944.7158 0)">
				<stop  offset="0" style="stop-color:#7023FF"/>
				<stop  offset="1" style="stop-color:#174DBA"/>
			</linearGradient>
			<polygon style="fill:url(#SVGID_00000097494545268551425530000014934317536168488070_);" points="384.7,512.3 366.1,521.6 
				366.1,577 384.7,567.7 			"/>
			
				<linearGradient id="SVGID_00000091000958216763550880000009173605308327900564_" gradientUnits="userSpaceOnUse" x1="340.6957" y1="542.9485" x2="366.1397" y2="542.9485">
				<stop  offset="0" style="stop-color:#E8EAFB"/>
				<stop  offset="1" style="stop-color:#FFFFFF"/>
			</linearGradient>
			<polygon style="fill:url(#SVGID_00000091000958216763550880000009173605308327900564_);" points="366.1,521.6 340.7,508.9 
				340.7,564.3 366.1,577 			"/>
		</g>
		<g>
			
				<linearGradient id="SVGID_00000088852041532240930630000012152718694039462541_" gradientUnits="userSpaceOnUse" x1="-4348.5801" y1="576.2376" x2="-4368.9287" y2="580.3196" gradientTransform="matrix(-1 0 0 1 -3944.7158 0)">
				<stop  offset="0" style="stop-color:#7023FF"/>
				<stop  offset="0.6278" style="stop-color:#174DBA"/>
				<stop  offset="1" style="stop-color:#8A6EFF"/>
			</linearGradient>
			<polygon style="fill:url(#SVGID_00000088852041532240930630000012152718694039462541_);" points="422.9,560.3 404.3,569.6 
				404.3,596.1 422.9,586.8 			"/>
			
				<linearGradient id="SVGID_00000144336925825904793280000015331322250618455741_" gradientUnits="userSpaceOnUse" x1="-4365.9028" y1="558.5649" x2="-4323.6382" y2="558.5649" gradientTransform="matrix(-1 0 0 1 -3944.7158 0)">
				<stop  offset="0" style="stop-color:#7023FF"/>
				<stop  offset="1" style="stop-color:#8A6EFF"/>
			</linearGradient>
			<polygon style="fill:url(#SVGID_00000144336925825904793280000015331322250618455741_);" points="422.9,560.3 404.3,569.6 
				378.9,556.9 397.5,547.6 			"/>
			
				<linearGradient id="SVGID_00000097483929880844227090000003854600573187735939_" gradientUnits="userSpaceOnUse" x1="-4358.3442" y1="561.6935" x2="-4358.3442" y2="596.0852" gradientTransform="matrix(-1 0 0 1 -3944.7158 0)">
				<stop  offset="0" style="stop-color:#7023FF"/>
				<stop  offset="1" style="stop-color:#174DBA"/>
			</linearGradient>
			<polygon style="fill:url(#SVGID_00000097483929880844227090000003854600573187735939_);" points="422.9,560.3 404.3,569.6 
				404.3,596.1 422.9,586.8 			"/>
			
				<linearGradient id="SVGID_00000145757752051717982720000017957183103612912539_" gradientUnits="userSpaceOnUse" x1="378.8833" y1="576.4857" x2="404.3272" y2="576.4857">
				<stop  offset="0" style="stop-color:#E8EAFB"/>
				<stop  offset="1" style="stop-color:#FFFFFF"/>
			</linearGradient>
			<polygon style="fill:url(#SVGID_00000145757752051717982720000017957183103612912539_);" points="404.3,569.6 378.9,556.9 
				378.9,583.4 404.3,596.1 			"/>
		</g>
	</g>
	<g>
		
			<linearGradient id="SVGID_00000049218481586733409180000018234464879967024263_" gradientUnits="userSpaceOnUse" x1="-3226.3103" y1="599.9312" x2="-3089.2622" y2="599.9312" gradientTransform="matrix(-1 0 0 1 -2499.0784 0)">
			<stop  offset="0" style="stop-color:#8A6EFF"/>
			<stop  offset="0.3722" style="stop-color:#174DBA"/>
			<stop  offset="1" style="stop-color:#7023FF"/>
		</linearGradient>
		<path style="fill:url(#SVGID_00000049218481586733409180000018234464879967024263_);" d="M726.9,575.9v13.8
			c0,8.8-6.7,17.6-20.1,24.3c-26.8,13.4-70.4,13.4-97.2,0c-13.4-6.7-20.1-15.5-20.1-24.3v-13.8H726.9z"/>
		
			<linearGradient id="SVGID_00000144311918087792267260000010639588765055601593_" gradientUnits="userSpaceOnUse" x1="589.3593" y1="575.8629" x2="726.8618" y2="575.8629">
			<stop  offset="0" style="stop-color:#E8EAFB"/>
			<stop  offset="1" style="stop-color:#FFFFFF"/>
		</linearGradient>
		
			<ellipse style="fill:url(#SVGID_00000144311918087792267260000010639588765055601593_);" cx="658.1" cy="575.9" rx="68.8" ry="34.4"/>
		<g>
			
				<linearGradient id="SVGID_00000090982153127375983960000014969468656346878389_" gradientUnits="userSpaceOnUse" x1="646.0798" y1="556.9695" x2="662.955" y2="573.8447">
				<stop  offset="0" style="stop-color:#E1E3F8"/>
				<stop  offset="1" style="stop-color:#C2C8F2"/>
			</linearGradient>
			<polygon style="fill:url(#SVGID_00000090982153127375983960000014969468656346878389_);" points="653.5,547.5 677.7,571.7 
				652.5,580.3 645,572.8 			"/>
			<polygon class="st52" points="645,572.8 652.5,580.3 641.1,584.1 			"/>
			
				<linearGradient id="SVGID_00000080180327304564087230000010889297093305493159_" gradientUnits="userSpaceOnUse" x1="709.6127" y1="538.7051" x2="686.0962" y2="515.1885">
				<stop  offset="0" style="stop-color:#8A6EFF"/>
				<stop  offset="0.3722" style="stop-color:#174DBA"/>
				<stop  offset="1" style="stop-color:#7023FF"/>
			</linearGradient>
			<path style="fill:url(#SVGID_00000080180327304564087230000010889297093305493159_);" d="M678.3,571l69.6-69.6l-24.2-24.2
				l-69.6,69.6c-3.3,3.3-0.6,11.4,6,18.1C666.9,571.7,675,574.4,678.3,571z"/>
			<path class="st55" d="M729.9,495.4c-6.7-6.7-9.4-14.8-6-18.1c3.3-3.3,11.4-0.6,18.1,6c6.7,6.7,9.4,14.8,6,18.1
				C744.7,504.7,736.5,502,729.9,495.4z"/>
		</g>
	</g>
</g>
</svg>
