<?xml version="1.0" encoding="UTF-8"?>
<svg xmlns="http://www.w3.org/2000/svg" xmlns:xlink="http://www.w3.org/1999/xlink" viewBox="0 0 833.74 798.26">
  <defs>
    <style>
      .cls-1 {
        fill: url(#linear-gradient-14);
        opacity: .4;
      }

      .cls-1, .cls-2, .cls-3, .cls-4, .cls-5, .cls-6, .cls-7, .cls-8, .cls-9, .cls-10, .cls-11, .cls-12, .cls-13, .cls-14, .cls-15, .cls-16, .cls-17, .cls-18, .cls-19, .cls-20, .cls-21, .cls-22 {
        stroke-width: 0px;
      }

      .cls-1, .cls-6, .cls-23, .cls-16, .cls-24 {
        mix-blend-mode: multiply;
      }

      .cls-2 {
        fill: url(#linear-gradient-12);
      }

      .cls-3 {
        fill: url(#linear-gradient-17);
      }

      .cls-4 {
        fill: url(#linear-gradient-19);
      }

      .cls-5 {
        fill: url(#linear-gradient-6);
      }

      .cls-6 {
        fill: url(#linear-gradient-11);
      }

      .cls-25 {
        isolation: isolate;
      }

      .cls-7 {
        fill: url(#linear-gradient-15);
      }

      .cls-8 {
        fill: url(#linear-gradient-5);
      }

      .cls-9 {
        fill: #5c81ef;
      }

      .cls-10 {
        fill: url(#linear-gradient-21);
      }

      .cls-10, .cls-26, .cls-18 {
        mix-blend-mode: screen;
      }

      .cls-10, .cls-18 {
        opacity: .6;
      }

      .cls-11 {
        fill: url(#linear-gradient-13);
      }

      .cls-12 {
        fill: url(#linear-gradient-20);
      }

      .cls-13 {
        fill: url(#linear-gradient-2);
      }

      .cls-14 {
        fill: url(#linear-gradient-7);
      }

      .cls-23 {
        opacity: .5;
      }

      .cls-15 {
        fill: url(#linear-gradient-3);
      }

      .cls-16 {
        fill: url(#linear-gradient);
      }

      .cls-17 {
        fill: url(#linear-gradient-9);
      }

      .cls-18 {
        fill: url(#linear-gradient-16);
      }

      .cls-19 {
        fill: url(#linear-gradient-8);
      }

      .cls-20 {
        fill: url(#linear-gradient-18);
      }

      .cls-21 {
        fill: url(#linear-gradient-10);
      }

      .cls-22 {
        fill: url(#linear-gradient-4);
      }
    </style>
    <linearGradient id="linear-gradient" x1="550.81" y1="573.83" x2="134.33" y2="573.83" gradientUnits="userSpaceOnUse">
      <stop offset="0" stop-color="#9fb8ff"/>
      <stop offset="1" stop-color="#fff"/>
    </linearGradient>
    <linearGradient id="linear-gradient-2" x1="572.09" y1="564.16" x2="572.09" y2="416.53" gradientUnits="userSpaceOnUse">
      <stop offset="0" stop-color="#bbcbf9"/>
      <stop offset="1" stop-color="#4973ed"/>
    </linearGradient>
    <linearGradient id="linear-gradient-3" x1="537.45" y1="535.22" x2="603.17" y2="469.5" gradientUnits="userSpaceOnUse">
      <stop offset="0" stop-color="#5c75e0"/>
      <stop offset="1" stop-color="#294bb0"/>
    </linearGradient>
    <linearGradient id="linear-gradient-4" x1="570.92" y1="467.07" x2="570.92" y2="426.01" gradientUnits="userSpaceOnUse">
      <stop offset="0" stop-color="#000"/>
      <stop offset="1" stop-color="#fff"/>
    </linearGradient>
    <linearGradient id="linear-gradient-5" x1="3833.16" y1="564.16" x2="3833.16" y2="416.53" gradientTransform="translate(4159.54) rotate(-180) scale(1 -1)" xlink:href="#linear-gradient-2"/>
    <linearGradient id="linear-gradient-6" x1="3798.52" y1="535.22" x2="3864.24" y2="469.5" gradientTransform="translate(4159.54) rotate(-180) scale(1 -1)" xlink:href="#linear-gradient-3"/>
    <linearGradient id="linear-gradient-7" x1="3831.98" y1="467.07" x2="3831.98" y2="426.01" gradientTransform="translate(4159.54) rotate(-180) scale(1 -1)" xlink:href="#linear-gradient-4"/>
    <linearGradient id="linear-gradient-8" x1="324.79" y1="369.73" x2="384.51" y2="310.02" xlink:href="#linear-gradient-3"/>
    <linearGradient id="linear-gradient-9" x1="529.98" y1="353.72" x2="557.66" y2="326.04" xlink:href="#linear-gradient-3"/>
    <linearGradient id="linear-gradient-10" x1="369.94" y1="318.29" x2="546.25" y2="318.29" gradientUnits="userSpaceOnUse">
      <stop offset="0" stop-color="#7994f2"/>
      <stop offset=".24" stop-color="#6985ec"/>
      <stop offset="1" stop-color="#b0c5ff"/>
    </linearGradient>
    <linearGradient id="linear-gradient-11" x1="422.52" y1="490.11" x2="422.52" y2="538.19" gradientUnits="userSpaceOnUse">
      <stop offset="0" stop-color="#314d9e"/>
      <stop offset=".45" stop-color="#9fb8ff"/>
      <stop offset="1" stop-color="#fff"/>
    </linearGradient>
    <linearGradient id="linear-gradient-12" x1="449.24" y1="536.46" x2="449.24" y2="476.68" gradientUnits="userSpaceOnUse">
      <stop offset="0" stop-color="#3653b3"/>
      <stop offset=".99" stop-color="#fff"/>
      <stop offset="1" stop-color="#f7f8fc"/>
    </linearGradient>
    <linearGradient id="linear-gradient-13" x1="373.1" y1="191.43" x2="525.37" y2="191.43" gradientUnits="userSpaceOnUse">
      <stop offset="0" stop-color="#3d5976"/>
      <stop offset=".24" stop-color="#0d1115"/>
      <stop offset="1" stop-color="#416386"/>
    </linearGradient>
    <linearGradient id="linear-gradient-14" x1="407.39" y1="233.82" x2="407.39" y2="501.65" gradientUnits="userSpaceOnUse">
      <stop offset="0" stop-color="#3958bf"/>
      <stop offset="1" stop-color="#fff"/>
    </linearGradient>
    <linearGradient id="linear-gradient-15" x1="449.24" y1="282.75" x2="449.24" y2="238.02" gradientUnits="userSpaceOnUse">
      <stop offset="0" stop-color="#fff"/>
      <stop offset="1" stop-color="#000"/>
    </linearGradient>
    <linearGradient id="linear-gradient-16" x1="494.45" y1="458.91" x2="494.45" y2="188.92" gradientUnits="userSpaceOnUse">
      <stop offset="0" stop-color="#010103"/>
      <stop offset=".76" stop-color="#a8bdf5"/>
      <stop offset="1" stop-color="#fff"/>
    </linearGradient>
    <linearGradient id="linear-gradient-17" x1="449.24" y1="639.44" x2="449.24" y2="482.21" gradientTransform="translate(-115.21 1013.68) rotate(-90)" gradientUnits="userSpaceOnUse">
      <stop offset="0" stop-color="#4973ed"/>
      <stop offset=".63" stop-color="#2d4fb4"/>
      <stop offset=".71" stop-color="#4973ed"/>
      <stop offset="1" stop-color="#bbcbf9"/>
    </linearGradient>
    <linearGradient id="linear-gradient-18" x1="424.18" y1="369.77" x2="474.29" y2="319.65" xlink:href="#linear-gradient-3"/>
    <linearGradient id="linear-gradient-19" x1="449.24" y1="381.02" x2="449.24" y2="308.39" xlink:href="#linear-gradient-15"/>
    <linearGradient id="linear-gradient-20" x1="430.22" y1="363.73" x2="468.25" y2="325.69" gradientTransform="translate(294.47 -199.98) rotate(36.64)" gradientUnits="userSpaceOnUse">
      <stop offset="0" stop-color="#40556b"/>
      <stop offset="1" stop-color="#000"/>
    </linearGradient>
    <linearGradient id="linear-gradient-21" x1="449.24" y1="364.24" x2="449.24" y2="324.96" gradientTransform="translate(732.02 -145.87) rotate(82.46)" xlink:href="#linear-gradient-16"/>
  </defs>
  <g class="cls-25">
    <g id="_95c6c890-4df0-4047-9b20-53c1698e0703" data-name="95c6c890-4df0-4047-9b20-53c1698e0703">
      <g>
        <path class="cls-16" d="m554.44,520.65c-28.83-14.42-66.46-21.75-104.25-22.01,0-.02-177.49-.02-177.49-.02-38.19.12-76.31,7.46-105.46,22.03-58.74,29.37-58.74,77,0,106.37,29.57,14.79,68.39,22.12,107.15,22.02h172.9c.67,0,1.33,0,2,0h.9c37.79-.27,75.41-7.6,104.25-22.02,58.74-29.37,58.74-77,0-106.37Z"/>
        <g>
          <path class="cls-13" d="m545.69,531.84l52.8,32.33v-93.3c0-13.67-7.11-26.37-18.77-33.51l-34.03-20.84v115.31Z"/>
          <path class="cls-15" d="m598.5,574.39v-93.3c0-13.67-7.11-26.37-18.77-33.51l-34.03-20.84v94.83c0,29.16,23.64,52.8,52.8,52.8Z"/>
          <g class="cls-26">
            <path class="cls-22" d="m594.97,467.07c-3.04-7.74-8.61-14.39-15.7-18.73l-34.03-20.84.91-1.49,34.03,20.84c7.41,4.54,13.24,11.49,16.42,19.59l-1.63.64Z"/>
          </g>
        </g>
        <g>
          <path class="cls-8" d="m352.78,531.84l-52.8,32.33v-93.3c0-13.67,7.11-26.37,18.77-33.51l34.03-20.84v115.31Z"/>
          <path class="cls-5" d="m299.97,574.39s0-93.3,0-93.3c0-13.67,7.11-26.37,18.77-33.51l34.03-20.84v94.83c0,29.16-23.64,52.8-52.8,52.8Z"/>
          <g class="cls-26">
            <path class="cls-14" d="m303.5,467.07l-1.63-.64c3.18-8.09,9.01-15.05,16.42-19.59l34.03-20.84.91,1.49-34.03,20.84c-7.09,4.34-12.67,10.99-15.7,18.73Z"/>
          </g>
        </g>
        <g>
          <path class="cls-19" d="m370.67,351.54l-42.52,21.55c0-14.92,5.03-29.4,14.27-41.1l28.26-35.81v55.36Z"/>
          <path class="cls-17" d="m527.8,351.54l42.52,21.55c0-14.92-5.03-29.4-14.27-41.1l-28.26-35.81v55.36Z"/>
        </g>
        <path class="cls-21" d="m462.59,107.6c-6.76-8.82-19.95-8.82-26.72,0-80.63,105.17-88.9,240.79-88.9,369.08,0,32.53,45.78,58.9,102.26,58.9s102.26-26.37,102.26-58.9c0-128.3-8.27-263.91-88.9-369.08Z"/>
        <path class="cls-6" d="m448.3,535.58l-4.18-55.73-47.39,47.39c15.1,5.21,32.72,8.25,51.57,8.34Z"/>
        <g class="cls-24">
          <path class="cls-2" d="m449.24,536.46c-27.46,0-53.3-6.17-72.74-17.37-19.6-11.29-30.39-26.35-30.39-42.41h1.75c0,32,45.48,58.03,101.38,58.03s101.38-26.03,101.38-58.03h1.75c0,16.06-10.79,31.12-30.39,42.41-19.44,11.2-45.28,17.37-72.74,17.37Z"/>
        </g>
        <path class="cls-11" d="m524.45,231.18c-13.21-43.97-32.85-85.76-61.86-123.6-6.75-8.81-19.94-8.81-26.69,0-29.02,37.84-48.66,79.63-61.92,123.6-.55,2.23-.87,4.51-.87,6.83,0,24.22,34.09,43.86,76.14,43.86s76.14-19.64,76.14-43.86c0-2.33-.32-4.61-.93-6.83Z"/>
        <path class="cls-1" d="m438.97,107.6c-61.95,105.17-68.3,240.79-68.3,369.08,0,27.72,25.55,50.96,59.95,57.23-8.33-11.13-13.78-29.5-13.78-50.3,0-132.3,2.57-272.02,27.27-381.22-1.94,1.09-3.72,2.82-5.13,5.21Z"/>
        <g class="cls-26">
          <path class="cls-7" d="m449.24,282.75c-20.49,0-39.76-4.6-54.27-12.96-14.66-8.45-22.74-19.73-22.74-31.77h1.75c0,23.7,33.76,42.98,75.26,42.98s75.26-19.28,75.26-42.98h1.75c0,12.04-8.08,23.32-22.74,31.77-14.51,8.36-33.79,12.96-54.27,12.96Z"/>
        </g>
        <g class="cls-23">
          <path class="cls-9" d="m450.07,291.02c0-.48.38-.88.86-.88h0c.48,0,.88.38.88.86h0c0,.48-.38.88-.86.88h-.01c-.48,0-.87-.38-.87-.86Zm-2.63.86h0c-.48,0-.87-.4-.86-.88h0c0-.48.4-.87.89-.86h0c.48,0,.87.4.86.88h0c0,.48-.4.86-.87.86h-.01Zm6.12-.93c-.02-.48.36-.89.84-.91h0c.48-.02.89.36.91.84h0c.02.48-.36.89-.84.91h0s-.02,0-.03,0h0c-.47,0-.85-.37-.87-.84Zm-9.63.84c-.48-.02-.86-.43-.84-.91h0c.02-.48.42-.86.91-.84h0c.48.02.86.43.84.91h0c-.02.47-.41.84-.87.84h-.03Zm13.11-1c-.03-.48.33-.9.81-.93h0c.48-.03.9.33.93.81h0c.03.48-.34.9-.81.93h0s-.04,0-.06,0h0c-.46,0-.84-.36-.87-.82Zm-16.62.81c-.48-.03-.85-.45-.81-.93h0c.03-.48.45-.85.93-.81h0c.48.03.85.45.81.93h0c-.03.46-.41.82-.87.82h0s-.04,0-.06,0Zm20.1-1.06c-.04-.48.31-.91.79-.95h0c.48-.05.91.31.95.79h0c.05.48-.31.91-.79.95h0s-.05,0-.08,0h0c-.45,0-.83-.34-.87-.79Zm-23.6.78c-.48-.04-.83-.47-.79-.95h0c.04-.48.47-.83.95-.79h0c.48.04.83.47.79.95h0c-.04.45-.42.79-.87.79h0s-.06,0-.08,0Zm27.08-1.13c-.06-.48.28-.91.76-.97h0c.48-.06.92.29.97.77h0c.06.48-.28.91-.76.97h0s-.07,0-.11,0h0c-.44,0-.81-.33-.87-.77Zm-30.57.76c-.48-.06-.82-.49-.76-.97h0c.06-.48.49-.82.97-.77h0c.48.06.82.49.76.98h0c-.05.44-.43.77-.86.77h0s-.07,0-.11,0Zm34.03-1.2c-.07-.48.26-.92.74-.99h0c.48-.07.92.26.99.74h0c.07.48-.26.92-.74.99h0s-.09.01-.13.01h0c-.43,0-.8-.31-.86-.75Zm-37.52.73c-.48-.07-.81-.51-.74-.99h0c.07-.48.52-.81,1-.73h0c.48.07.8.51.73.99h0c-.06.43-.44.74-.86.74h0s-.09,0-.13-.01Zm40.96-1.27c-.08-.48.23-.93.71-1.01h0c.48-.08.93.23,1.01.71h0c.08.47-.23.93-.71,1.01h0s-.1.01-.15.01h0c-.42,0-.78-.3-.86-.72Zm-44.43.7c-.48-.09-.79-.54-.71-1.01h0c.08-.48.54-.79,1.01-.71h0c.47.09.79.54.71,1.02h0c-.08.42-.44.72-.86.72h0c-.05,0-.1,0-.15-.01Zm47.86-1.34c-.1-.47.2-.94.68-1.03h0c.47-.1.93.21,1.03.68h0c.1.47-.2.93-.67,1.03h0c-.06.01-.12.02-.18.02h0c-.41,0-.77-.28-.85-.7Zm-51.32.66c-.47-.1-.77-.56-.67-1.03h0c.1-.47.56-.78,1.03-.67h0c.47.1.78.56.67,1.03h0c-.08.41-.45.7-.85.7h0c-.06,0-.12,0-.18-.02Zm54.73-1.4c-.12-.47.17-.94.64-1.06h0c.47-.12.94.17,1.06.64h0c.11.47-.18.94-.65,1.06h0c-.07.02-.14.02-.21.02h0c-.4,0-.75-.27-.85-.67Zm-58.16.63c-.47-.12-.76-.59-.64-1.06h0c.11-.47.58-.76,1.06-.64h0c.47.11.76.58.64,1.05h0c-.1.4-.45.67-.85.67h0c-.07,0-.14,0-.21-.02Zm61.54-1.48c-.13-.47.15-.95.61-1.07h0c.47-.13.95.14,1.07.61h0c.13.47-.14.95-.61,1.08h0c-.08.02-.16.03-.23.03h0c-.38,0-.73-.26-.84-.64Zm-64.95.59c-.46-.13-.74-.61-.61-1.07h0c.13-.47.61-.74,1.08-.61h0c.47.13.74.61.61,1.08h0c-.1.38-.46.64-.84.64h0c-.08,0-.16-.01-.23-.03Zm68.31-1.55c-.14-.46.11-.95.57-1.09h0c.46-.14.95.12,1.09.58h0c.14.46-.12.95-.57,1.09h0c-.09.03-.17.04-.26.04h0c-.37,0-.72-.24-.83-.62Zm-71.69.56c-.46-.14-.72-.63-.57-1.09h0c.14-.46.63-.72,1.09-.57h0c.46.14.72.63.57,1.09h0c-.12.37-.46.61-.83.61h0c-.09,0-.17-.01-.26-.04Zm75.01-1.62c-.16-.45.08-.95.54-1.11h0c.45-.16.95.08,1.11.53h0c.16.46-.08.95-.53,1.12h0c-.09.03-.19.05-.29.05h0c-.36,0-.7-.23-.83-.59Zm-78.35.52c-.45-.16-.7-.66-.54-1.11h0c.16-.46.66-.7,1.11-.54h0c.45.16.7.66.54,1.12h0c-.13.36-.47.58-.83.58h0c-.1,0-.2-.01-.29-.05Zm81.64-1.7c-.17-.45.05-.95.5-1.13h0c.45-.18.95.05,1.13.49h0c.17.45-.05.96-.5,1.13h0c-.1.04-.21.06-.32.06h0c-.35,0-.68-.21-.81-.56Zm-84.94.48h0c-.45-.17-.67-.68-.5-1.13h0c.17-.45.68-.67,1.13-.49h0c.45.17.67.68.49,1.13h0c-.13.35-.46.56-.81.56h0c-.1,0-.21-.02-.32-.06Zm88.18-1.78c-.19-.44.01-.96.45-1.15h0c.44-.19.96.01,1.15.45h0c.2.44,0,.96-.45,1.15h0c-.11.05-.23.07-.35.07h0c-.34,0-.66-.2-.8-.52Zm-91.43.43c-.44-.19-.64-.71-.45-1.15h0c.19-.44.71-.65,1.15-.45h0c.44.19.65.71.45,1.15h0c-.14.33-.47.52-.8.52h0c-.12,0-.23-.02-.35-.07Zm94.62-1.86c-.21-.43-.03-.96.41-1.17h0c.43-.21.95-.03,1.17.41h0c.21.43.03.95-.41,1.17h0c-.12.06-.25.09-.38.09h0c-.33,0-.64-.18-.79-.49Zm-97.82.38c-.43-.21-.61-.73-.4-1.17h0c.21-.43.73-.62,1.17-.4h0c.44.21.62.73.41,1.17h0c-.15.31-.47.49-.79.49h0c-.13,0-.26-.03-.38-.09Zm100.94-1.94c-.23-.42-.07-.95.35-1.19h0c.43-.23.96-.07,1.19.35h0c.23.43.07.96-.35,1.19h0c-.13.07-.28.11-.42.11h0c-.31,0-.61-.17-.77-.46Zm-104.08.32h0c-.42-.23-.58-.76-.35-1.19h0c.23-.42.76-.58,1.19-.35h0c.42.23.58.76.35,1.19h0c-.16.29-.46.46-.77.46h0c-.14,0-.28-.03-.42-.11Zm107.12-2.02c-.25-.41-.12-.95.29-1.2h0c.41-.25.95-.12,1.2.29h0c.25.42.12.95-.29,1.2h0c-.14.08-.3.13-.45.13h0c-.3,0-.58-.15-.75-.42Zm-110.19.26c-.41-.25-.54-.79-.29-1.2h0c.25-.41.79-.55,1.2-.29h0c.41.25.54.79.29,1.2h0c-.16.27-.45.42-.75.42h0c-.15,0-.31-.04-.45-.13Zm113.15-2.11c-.27-.4-.17-.94.23-1.21h0c.4-.27.94-.17,1.22.23h0c.27.4.17.94-.23,1.21h0c-.15.1-.32.15-.49.15h0c-.28,0-.56-.14-.72-.38Zm-116.12.2h0c-.4-.27-.5-.82-.23-1.22h0c.27-.4.82-.5,1.22-.23h0c.4.27.5.81.23,1.21h0c-.17.25-.44.38-.72.38h0c-.17,0-.34-.05-.49-.15Zm118.98-2.2c-.3-.38-.22-.93.16-1.22h0c.38-.3.93-.22,1.23.16h0c.29.38.22.93-.16,1.23h0c-.16.12-.35.18-.53.18h0c-.26,0-.52-.12-.69-.34Zm-121.84.12h0c-.38-.29-.45-.84-.16-1.22h0c.29-.38.84-.45,1.22-.16h0c.38.29.45.84.16,1.22h0c-.17.22-.43.34-.69.34h0c-.19,0-.37-.06-.53-.18Zm124.57-2.29c-.32-.36-.28-.92.08-1.23h0c.36-.32.92-.28,1.23.08h0c.32.36.28.92-.08,1.23h0c-.17.15-.37.22-.58.22h0c-.24,0-.49-.1-.66-.3Zm-127.31.04c-.36-.32-.4-.87-.08-1.23h0c.32-.36.87-.4,1.23-.08h0c.36.32.4.87.08,1.23h0c-.17.2-.42.3-.66.3h0c-.21,0-.41-.07-.58-.22Zm129.89-2.39c-.34-.34-.35-.89,0-1.23h0c.34-.34.89-.35,1.23,0h0c.35.34.35.89.01,1.23h0c-.17.17-.4.26-.62.26h0c-.22,0-.44-.08-.62-.25Zm-132.48-.05c-.34-.34-.34-.9.01-1.24h0c.34-.34.89-.33,1.23.01h0c.34.34.34.9,0,1.23h0c-.17.17-.39.25-.62.25h0c-.22,0-.45-.08-.62-.26Zm134.88-2.48c-.37-.31-.42-.86-.1-1.23h0c.31-.37.86-.42,1.23-.1h0c.37.31.42.86.11,1.23h0c-.17.21-.42.31-.67.31h0c-.2,0-.4-.07-.56-.2Zm-137.27-.16c-.31-.37-.26-.92.11-1.23h0c.37-.31.92-.26,1.23.11h0c.31.37.26.92-.11,1.23h0c-.16.14-.36.21-.56.21h0c-.25,0-.5-.11-.67-.31Zm139.46-2.56c-.4-.28-.49-.82-.22-1.22h0c.28-.39.82-.49,1.22-.22h0c.4.28.49.82.22,1.22h0c-.17.24-.44.37-.72.37h0c-.17,0-.35-.05-.5-.16Zm-141.63-.27c-.27-.4-.17-.94.22-1.22h0c.4-.28.94-.18,1.22.22h0c.28.39.18.94-.22,1.21h0c-.15.11-.33.16-.5.16h0c-.28,0-.55-.13-.72-.37Zm143.55-2.64c-.42-.23-.57-.77-.34-1.19h0c.23-.42.77-.58,1.19-.34h0c.42.23.57.77.34,1.19h0c-.16.29-.46.45-.77.45h0c-.14,0-.29-.03-.42-.11Zm-145.44-.39c-.23-.42-.08-.95.34-1.19h0c.42-.23.95-.08,1.19.34h0c.23.42.08.95-.34,1.19h0c-.13.07-.28.11-.42.11h0c-.31,0-.6-.16-.77-.45Zm147.05-2.7c-.45-.19-.66-.7-.47-1.14h0c.19-.44.7-.66,1.14-.47h0c.44.19.66.7.47,1.14h0c-.14.34-.47.54-.81.54h0c-.11,0-.23-.02-.34-.07Zm-148.6-.53c-.18-.45.03-.96.48-1.14h0c.45-.19.96.03,1.14.48h0c.18.44-.03.96-.48,1.14h0c-.11.05-.22.07-.33.07h0c-.35,0-.67-.2-.81-.54Zm149.84-2.73c-.47-.13-.74-.61-.61-1.08h0c.13-.47.61-.74,1.07-.61h0c.47.13.74.61.61,1.08h0c-.11.39-.46.64-.84.64h0c-.08,0-.16-.01-.23-.03Zm-151-.67h0c-.13-.47.15-.95.62-1.07h0c.46-.13.94.15,1.07.61h0c.13.46-.15.95-.61,1.07h0c-.08.02-.16.03-.23.03h0c-.38,0-.73-.26-.84-.64Zm151.82-2.71c-.48-.07-.81-.51-.74-.99h0c.07-.48.51-.81.99-.75h0c.48.07.81.51.74.99h0c-.06.44-.43.76-.86.76h0s-.08,0-.12,0Zm-152.54-.81c-.07-.48.27-.92.74-.98h0c.48-.07.92.27.99.74h0c.07.48-.27.92-.75.99h0s-.08,0-.12,0h0c-.43,0-.8-.32-.86-.76Z"/>
        </g>
        <g class="cls-23">
          <path class="cls-9" d="m448.32,525.93c0-.48.39-.87.87-.87h0c.48,0,.87.39.87.87h0c0,.48-.39.87-.87.87h0c-.48,0-.87-.4-.87-.88Zm4.39.84c-.48,0-.88-.37-.89-.86h0c-.01-.48.37-.88.86-.89h0c.48-.01.88.37.89.86h0c0,.48-.38.88-.86.89h0Zm-7.03,0c-.48,0-.86-.41-.86-.89h0c.01-.48.41-.86.89-.86h0c.48.01.87.41.86.89h0c-.01.48-.4.86-.87.86h-.02Zm9.63-.94c-.02-.48.36-.89.84-.91h0c.48-.02.89.35.91.84h0c.02.48-.36.89-.84.91h-.03c-.47,0-.85-.37-.87-.84Zm-13.14.84c-.48-.02-.86-.43-.84-.91h0c.02-.48.43-.86.91-.84h0c.48.02.86.42.84.91h0c-.02.47-.41.84-.87.84h-.03Zm16.63-.99c-.03-.48.34-.89.82-.92h0c.48-.03.9.34.92.82h0c.03.48-.34.9-.82.92h0s-.04,0-.06,0h0c-.46,0-.84-.36-.87-.83Zm-20.14.82c-.48-.03-.85-.44-.82-.93h0c.03-.48.44-.85.92-.82h0c.48.03.85.44.82.92h0c-.03.47-.41.82-.87.82h-.05Zm23.63-1.04c-.04-.48.32-.9.8-.94h0c.48-.04.9.32.94.8h0c.04.48-.32.9-.8.94h0s-.05,0-.07,0h0c-.45,0-.84-.35-.87-.8Zm-27.13.79c-.48-.04-.84-.46-.8-.94h0c.04-.48.46-.84.94-.8h0c.48.04.84.46.8.94h0c-.03.46-.42.8-.87.8h0s-.05,0-.07,0Zm30.61-1.09c-.05-.48.3-.91.78-.96h0c.48-.05.91.3.95.78h0c.05.48-.3.91-.78.96h0s-.06,0-.09,0h0c-.44,0-.83-.34-.87-.79Zm-34.11.78c-.48-.05-.83-.48-.78-.96h0c.05-.48.48-.83.96-.78h0c.48.05.83.48.78.96h0c-.05.45-.43.79-.87.79h0s-.06,0-.09,0Zm37.59-1.15c-.06-.48.28-.91.76-.97h0c.48-.06.92.28.97.76h0c.06.48-.28.91-.76.97h0s-.07,0-.11,0h0c-.43,0-.81-.33-.87-.77Zm-41.08.76c-.48-.06-.82-.5-.76-.98h0c.06-.48.49-.82.97-.76h0c.48.06.82.5.76.98h0c-.06.44-.43.77-.87.77h0s-.07,0-.11,0Zm44.55-1.2c-.07-.48.26-.92.74-.99h0c.48-.07.92.26.99.74h0c.07.48-.26.92-.74.99h0s-.08.01-.13.01h0c-.43,0-.8-.31-.86-.75Zm-48.03.73c-.48-.07-.81-.51-.74-.99h0c.07-.48.51-.81.99-.74h0c.48.07.81.51.74.99h0c-.06.43-.44.75-.86.75h0s-.08,0-.13-.01Zm51.49-1.25c-.08-.48.24-.93.72-1h0c.48-.08.93.24,1.01.72h0c.08.48-.24.93-.72,1.01h0s-.1.01-.15.01h0c-.42,0-.79-.3-.86-.73Zm-54.96.71h0c-.48-.08-.8-.53-.72-1.01h0c.08-.48.53-.8,1.01-.72h0c.48.08.8.53.72,1.01h0c-.07.43-.44.73-.86.73h0s-.1,0-.15-.01Zm58.4-1.3c-.09-.48.22-.93.7-1.02h0c.48-.09.93.22,1.02.7h0c.09.48-.22.93-.7,1.02h0c-.06,0-.11.01-.16.01h0c-.41,0-.78-.29-.86-.71Zm-61.87.68h0c-.48-.09-.79-.55-.7-1.02h0c.09-.48.55-.78,1.02-.7h0c.48.09.79.55.7,1.02h0c-.08.42-.44.71-.86.71h0c-.06,0-.11,0-.16-.02Zm65.3-1.35c-.1-.47.2-.94.67-1.04h0c.47-.1.93.2,1.03.67h0c.1.47-.2.94-.67,1.04h0c-.06.01-.12.02-.18.02h0c-.41,0-.77-.28-.86-.69Zm-68.74.65c-.47-.1-.77-.57-.67-1.03h0c.1-.48.57-.78,1.04-.67h0c.47.1.77.57.67,1.04h0c-.09.41-.45.69-.85.69h0c-.06,0-.12,0-.19-.02Zm72.16-1.41c-.11-.47.18-.94.65-1.05h0c.47-.11.94.18,1.05.65h0c.11.47-.18.94-.65,1.06h0c-.07.01-.14.02-.2.02h0c-.4,0-.76-.27-.85-.67Zm-75.59.63h0c-.47-.11-.76-.58-.65-1.06h0c.11-.47.58-.76,1.05-.65h0c.47.11.76.58.65,1.06h0c-.1.4-.45.67-.85.67h0c-.07,0-.14,0-.21-.02Zm78.98-1.46c-.12-.47.16-.94.62-1.07h0c.47-.13.95.15,1.07.62h0c.12.47-.16.94-.62,1.07h0c-.08.02-.15.03-.22.03h0c-.39,0-.74-.26-.85-.65Zm-82.39.6c-.47-.13-.74-.6-.62-1.07h0c.12-.47.6-.74,1.07-.62h0c.46.12.74.6.62,1.07h0c-.1.39-.46.65-.84.65h0c-.07,0-.15-.01-.22-.03Zm85.77-1.52c-.14-.46.13-.95.59-1.08h0c.46-.14.95.13,1.08.59h0c.13.47-.13.95-.6,1.08h0c-.08.02-.16.04-.24.04h0c-.38,0-.73-.25-.84-.63Zm-89.16.58c-.46-.14-.73-.62-.59-1.08h0c.14-.47.62-.73,1.08-.59h0c.46.13.73.62.59,1.08h0c-.11.38-.46.63-.84.63h0c-.08,0-.16-.01-.24-.03Zm92.51-1.57c-.15-.46.11-.95.57-1.1h0c.46-.15.95.11,1.1.57h0c.14.46-.11.95-.57,1.1h0c-.09.03-.17.04-.27.04h0c-.37,0-.71-.24-.83-.61Zm-95.87.55c-.46-.15-.71-.64-.57-1.1h0c.14-.46.64-.72,1.1-.57h0c.46.15.71.64.57,1.1h0c-.12.37-.46.61-.83.61h0c-.09,0-.18-.01-.27-.04Zm99.2-1.63c-.16-.45.08-.95.54-1.11h0c.45-.16.95.08,1.11.54h0c.16.46-.08.95-.54,1.12h0c-.09.03-.19.05-.29.05h0c-.36,0-.7-.22-.82-.59Zm-102.53.51c-.45-.16-.7-.65-.54-1.11h0c.16-.45.66-.7,1.12-.54h0c.45.16.7.66.53,1.12h0c-.13.36-.46.58-.82.58h0c-.09,0-.19-.01-.29-.05Zm105.83-1.68c-.17-.45.06-.96.51-1.13h0c.45-.17.96.06,1.13.51h0c.17.45-.06.95-.51,1.13h0c-.1.04-.21.06-.31.06h0c-.35,0-.69-.21-.82-.56Zm-109.14.48c-.45-.17-.68-.67-.51-1.13h0c.17-.45.67-.68,1.13-.51h0c.45.17.68.67.51,1.13h0c-.13.35-.47.57-.81.57h0c-.1,0-.21-.02-.31-.06Zm112.4-1.74c-.19-.45.03-.96.47-1.14h0c.44-.18.95.03,1.14.48h0c.18.45-.03.96-.48,1.14h0c-.11.05-.22.07-.33.07h0c-.34,0-.67-.21-.81-.54Zm-115.67.44c-.45-.18-.66-.69-.48-1.14h0c.19-.45.7-.66,1.14-.48h0c.44.19.66.7.47,1.14h0c-.14.34-.46.54-.81.54h0c-.11,0-.22-.02-.33-.07Zm118.89-1.8c-.2-.44,0-.96.44-1.15h0c.44-.2.96,0,1.16.44h0c.2.44,0,.96-.44,1.16h0c-.12.05-.24.08-.36.08h0c-.33,0-.65-.19-.8-.52Zm-122.13.41c-.44-.2-.64-.72-.44-1.16h0c.2-.44.71-.64,1.15-.44h0c.44.2.64.71.44,1.15h0c-.15.33-.46.52-.8.52h0c-.12,0-.24-.02-.36-.08Zm125.3-1.86c-.21-.43-.03-.96.4-1.17h0c.44-.21.96-.03,1.17.4h0c.21.43.03.96-.4,1.17h0c-.13.06-.26.09-.38.09h0c-.32,0-.63-.18-.79-.49Zm-128.49.37c-.43-.21-.62-.74-.4-1.17h0c.21-.43.73-.61,1.17-.4h0c.43.21.61.73.4,1.17h0c-.15.31-.46.49-.79.49h0c-.13,0-.26-.03-.38-.09Zm131.62-1.93c-.22-.43-.06-.96.36-1.18h0c.43-.23.96-.06,1.18.36h0c.23.43.06.95-.36,1.18h0c-.13.07-.27.1-.41.1h0c-.31,0-.62-.17-.78-.46Zm-134.76.33c-.43-.22-.59-.75-.36-1.18h0c.23-.42.76-.59,1.19-.36h0c.42.22.59.75.36,1.18h0c-.16.29-.46.46-.77.46h0c-.14,0-.28-.04-.41-.11Zm137.84-1.99c-.24-.42-.1-.95.32-1.19h0c.42-.24.95-.1,1.19.32h0c.24.42.1.95-.32,1.19h0c-.14.08-.29.12-.43.12h0c-.3,0-.6-.16-.76-.44Zm-140.92.28h0c-.42-.24-.56-.78-.32-1.19h0c.24-.42.78-.56,1.2-.32h0c.42.24.56.78.32,1.2h0c-.16.28-.45.44-.76.44h0c-.15,0-.3-.04-.43-.12Zm143.94-2.06c-.26-.41-.14-.95.27-1.2h0c.41-.26.95-.14,1.21.27h0c.26.41.13.95-.28,1.21h0c-.14.09-.3.13-.47.13h0c-.29,0-.57-.14-.74-.41Zm-146.96.23c-.41-.26-.53-.8-.27-1.21h0c.26-.41.8-.53,1.21-.27h0c.41.26.53.8.27,1.21h0c-.17.26-.45.41-.74.41h0c-.16,0-.32-.05-.46-.14Zm149.9-2.12c-.28-.4-.17-.94.22-1.21h0c.4-.28.94-.17,1.22.22h0c.27.4.17.94-.23,1.22h0c-.15.1-.32.15-.49.15h0c-.28,0-.55-.13-.72-.38Zm-152.85.18c-.4-.27-.5-.82-.22-1.21h0c.27-.4.82-.5,1.22-.23h0c.4.28.5.82.22,1.22h0c-.17.25-.44.38-.72.38h0c-.17,0-.34-.05-.5-.15Zm155.71-2.19c-.29-.38-.21-.94.17-1.22h0c.38-.29.93-.21,1.22.17h0c.29.38.21.93-.17,1.22h0c-.16.12-.34.17-.52.17h0c-.27,0-.53-.12-.7-.35Zm-158.58.13h0c-.39-.29-.46-.84-.17-1.22h0c.29-.39.84-.47,1.23-.17h0c.38.29.46.84.17,1.22h0c-.17.23-.43.35-.7.35h0c-.19,0-.37-.06-.52-.17Zm161.34-2.26c-.31-.37-.26-.92.12-1.23h0c.37-.31.92-.26,1.23.12h0c.31.37.26.92-.12,1.23h0c-.16.13-.36.2-.56.2h0c-.25,0-.5-.1-.67-.31Zm-164.11.07c-.37-.31-.42-.86-.12-1.23h0c.31-.37.86-.42,1.23-.11h0c.37.31.42.86.11,1.23h0c-.17.21-.42.31-.67.31h0c-.2,0-.4-.07-.56-.2Zm166.77-2.33c-.33-.36-.3-.91.05-1.23h0c.36-.33.91-.3,1.24.05h0c.32.36.3.91-.05,1.23h0c-.17.16-.38.23-.59.23h0c-.23,0-.47-.1-.64-.28Zm-169.44,0c-.35-.33-.37-.88-.05-1.23h0c.33-.35.88-.38,1.24-.05h0c.35.33.37.88.05,1.23h0c-.17.19-.41.28-.64.28h0c-.21,0-.43-.08-.59-.23Zm171.97-2.4c-.35-.34-.35-.89-.02-1.24h0c.34-.35.89-.35,1.24-.02h0c.35.34.35.89.02,1.23h0c-.17.18-.4.27-.63.27h0c-.22,0-.44-.08-.61-.24Zm-174.51-.08c-.34-.35-.33-.9.02-1.23h0c.35-.34.9-.33,1.24.02h0c.34.35.33.9-.02,1.23h0c-.17.16-.39.24-.61.24h0c-.23,0-.46-.09-.63-.27Zm176.9-2.47c-.37-.31-.41-.87-.09-1.23h0c.31-.36.87-.41,1.23-.09h0c.36.31.41.87.09,1.23h0c-.17.2-.42.3-.66.3h0c-.2,0-.41-.07-.57-.21Zm-179.29-.15c-.31-.37-.27-.92.1-1.23h0c.37-.31.92-.27,1.23.1h0c.31.37.27.92-.1,1.23h0c-.16.14-.37.21-.57.21h0c-.25,0-.49-.1-.67-.3Zm181.52-2.53c-.39-.29-.47-.84-.18-1.22h0c.29-.38.84-.46,1.22-.18h0c.38.29.47.84.18,1.22h0c-.17.23-.44.35-.7.35h0c-.18,0-.36-.06-.52-.17Zm-183.73-.24c-.29-.39-.21-.93.18-1.22h0c.39-.29.93-.21,1.22.18h0c.29.38.21.93-.18,1.22h0c-.15.12-.34.17-.52.17h0c-.27,0-.53-.12-.7-.35Zm185.77-2.59c-.41-.26-.53-.8-.27-1.21h0c.26-.41.8-.53,1.21-.27h0c.41.26.52.8.27,1.21h0c-.16.26-.45.41-.74.41h0c-.16,0-.32-.04-.47-.14Zm-187.79-.34c-.26-.41-.14-.95.27-1.21h0c.41-.26.95-.14,1.21.27h0c.26.41.14.95-.27,1.21h0c-.15.09-.31.14-.47.14h0c-.29,0-.57-.14-.74-.41Zm189.61-2.64c-.43-.23-.59-.76-.36-1.18h0c.23-.43.75-.59,1.18-.36h0c.43.22.59.76.36,1.18h0c-.16.29-.46.46-.77.46h0c-.14,0-.28-.03-.41-.1Zm-191.4-.44c-.22-.43-.06-.95.37-1.18h0c.43-.22.95-.06,1.18.37h0c.23.43.06.96-.36,1.18h0c-.13.07-.27.1-.41.1h0c-.31,0-.62-.17-.78-.47Zm192.97-2.68c-.45-.19-.65-.7-.47-1.15h0c.19-.44.7-.65,1.14-.47h0c.45.19.65.7.47,1.15h0c-.14.33-.47.53-.8.53h0c-.12,0-.23-.02-.34-.07Zm-194.49-.54c-.19-.45.02-.96.46-1.15h0c.45-.19.96.02,1.15.47h0c.19.44-.02.95-.47,1.14h0c-.11.05-.22.07-.34.07h0c-.34,0-.66-.2-.8-.53Zm195.77-2.71c-.46-.15-.71-.64-.57-1.1h0c.15-.46.64-.72,1.1-.57h0c.46.15.71.64.57,1.1h0c-.12.37-.46.61-.83.61h0c-.09,0-.18-.01-.27-.04Zm-197-.65c-.14-.46.11-.95.57-1.1h0c.46-.14.95.11,1.09.57h0c.14.46-.11.95-.57,1.09h0c-.09.03-.18.04-.26.04h0c-.37,0-.72-.24-.84-.61Zm197.98-2.71c-.47-.1-.77-.56-.67-1.03h0c.1-.47.56-.78,1.03-.67h0c.47.1.77.56.67,1.03h0c-.09.41-.45.7-.86.69h0c-.06,0-.12,0-.18-.02Zm-198.88-.75c-.1-.48.2-.94.68-1.03h0c.47-.1.93.2,1.03.67h0c.1.48-.2.94-.67,1.03h0c-.06.01-.12.02-.18.02h0c-.4,0-.77-.29-.85-.7Zm199.51-2.68c-.48-.05-.83-.48-.78-.96h0c.05-.48.48-.83.96-.78h0c.48.05.83.48.78.96h0c-.05.45-.43.78-.87.78h0s-.06,0-.09,0Zm-200.06-.86h0c-.05-.48.3-.91.78-.96h0c.48-.05.91.3.96.78h0c.05.48-.3.91-.78.96h0s-.06,0-.09,0h0c-.44,0-.82-.34-.87-.79Z"/>
        </g>
        <path class="cls-18" d="m461.39,137.51c18.18,103.15,20.24,227.6,20.24,346.1,0,20.8-5.45,39.18-13.78,50.3,34.4-6.27,59.95-29.5,59.95-57.23,0-118-5.37-242.19-54.44-343.2-4.28-8.81-14.09-7.99-11.97,4.02Z"/>
        <rect class="cls-3" x="364.64" y="559.33" width="169.19" height="10.23" transform="translate(1013.68 115.21) rotate(90)"/>
        <circle class="cls-20" cx="449.24" cy="344.71" r="35.44"/>
        <g class="cls-26">
          <path class="cls-4" d="m449.24,381.02c-20.02,0-36.31-16.29-36.31-36.31s16.29-36.31,36.31-36.31,36.31,16.29,36.31,36.31-16.29,36.31-36.31,36.31Zm0-70.88c-19.06,0-34.56,15.51-34.56,34.56s15.51,34.56,34.56,34.56,34.56-15.51,34.56-34.56-15.51-34.56-34.56-34.56Z"/>
        </g>
        <circle class="cls-12" cx="449.24" cy="344.71" r="26.9" transform="translate(-116.95 336.2) rotate(-36.64)"/>
        <circle class="cls-10" cx="449.24" cy="344.71" r="21.17" transform="translate(48.57 744.84) rotate(-82.46)"/>
      </g>
    </g>
  </g>
</svg>