<?xml version="1.0" encoding="UTF-8"?>
<svg xmlns="http://www.w3.org/2000/svg" xmlns:xlink="http://www.w3.org/1999/xlink" viewBox="0 0 833.74 798.26">
  <defs>
    <style>
      .cls-1 {
        fill: #c7d6ff;
      }

      .cls-1, .cls-2, .cls-3, .cls-4, .cls-5, .cls-6, .cls-7, .cls-8, .cls-9, .cls-10, .cls-11, .cls-12, .cls-13, .cls-14, .cls-15, .cls-16, .cls-17 {
        stroke-width: 0px;
      }

      .cls-2 {
        fill: url(#linear-gradient-6);
      }

      .cls-18 {
        isolation: isolate;
      }

      .cls-4 {
        fill: url(#linear-gradient-15);
      }

      .cls-5 {
        fill: url(#linear-gradient-11);
      }

      .cls-6 {
        fill: url(#linear-gradient-14);
      }

      .cls-6, .cls-19 {
        mix-blend-mode: screen;
      }

      .cls-7 {
        fill: url(#linear-gradient-5);
      }

      .cls-8 {
        fill: url(#linear-gradient-12);
      }

      .cls-8, .cls-10 {
        opacity: .3;
      }

      .cls-8, .cls-10, .cls-13, .cls-15 {
        mix-blend-mode: multiply;
      }

      .cls-9 {
        fill: url(#linear-gradient-13);
      }

      .cls-10 {
        fill: url(#linear-gradient-3);
      }

      .cls-11 {
        fill: url(#linear-gradient-2);
      }

      .cls-12 {
        fill: url(#linear-gradient-7);
      }

      .cls-13 {
        fill: url(#linear-gradient);
      }

      .cls-14 {
        fill: url(#linear-gradient-9);
      }

      .cls-15 {
        fill: url(#linear-gradient-10);
      }

      .cls-16 {
        fill: url(#linear-gradient-8);
      }

      .cls-17 {
        fill: url(#linear-gradient-4);
      }
    </style>
    <linearGradient id="linear-gradient" x1="575.69" y1="556.64" x2="228.64" y2="556.64" gradientUnits="userSpaceOnUse">
      <stop offset="0" stop-color="#9fb8ff"/>
      <stop offset="1" stop-color="#fff"/>
    </linearGradient>
    <linearGradient id="linear-gradient-2" x1="656.27" y1="508.14" x2="390.76" y2="119.59" gradientUnits="userSpaceOnUse">
      <stop offset="0" stop-color="#b3c6ff"/>
      <stop offset=".11" stop-color="#7a9dff"/>
      <stop offset=".45" stop-color="#b3c7ff"/>
      <stop offset=".72" stop-color="#e3eaff"/>
      <stop offset="1" stop-color="#c2d2ff"/>
    </linearGradient>
    <linearGradient id="linear-gradient-3" x1="549.15" y1="499.96" x2="671.01" y2="378.11" gradientUnits="userSpaceOnUse">
      <stop offset="0" stop-color="#7e9fff"/>
      <stop offset="1" stop-color="#5c75e0"/>
    </linearGradient>
    <linearGradient id="linear-gradient-4" x1="346.75" y1="468.47" x2="553.57" y2="261.65" gradientTransform="translate(319.99 -199.71) rotate(37.98)" gradientUnits="userSpaceOnUse">
      <stop offset="0" stop-color="#5c75e0"/>
      <stop offset="1" stop-color="#9ab5ff"/>
    </linearGradient>
    <linearGradient id="linear-gradient-5" x1="346.75" y1="468.47" x2="553.57" y2="261.65" gradientUnits="userSpaceOnUse">
      <stop offset="0" stop-color="#000"/>
      <stop offset="1" stop-color="#40556b"/>
    </linearGradient>
    <linearGradient id="linear-gradient-6" x1="433.23" y1="381.99" x2="467.09" y2="348.13" gradientUnits="userSpaceOnUse">
      <stop offset="0" stop-color="#99b4ff"/>
      <stop offset="1" stop-color="#e0e9ff"/>
    </linearGradient>
    <linearGradient id="linear-gradient-7" x1="450.16" y1="399.85" x2="450.16" y2="330.27" gradientUnits="userSpaceOnUse">
      <stop offset="0" stop-color="#000"/>
      <stop offset="1" stop-color="#fff"/>
    </linearGradient>
    <linearGradient id="linear-gradient-8" x1="450.16" y1="572.85" x2="450.16" y2="157.27" xlink:href="#linear-gradient-7"/>
    <linearGradient id="linear-gradient-9" x1="450.16" y1="486.36" x2="450.16" y2="243.76" xlink:href="#linear-gradient-7"/>
    <linearGradient id="linear-gradient-10" x1="437.14" y1="379.44" x2="303.59" y2="379.44" xlink:href="#linear-gradient"/>
    <linearGradient id="linear-gradient-11" x1="450.16" y1="572.85" x2="450.16" y2="157.27" xlink:href="#linear-gradient-7"/>
    <linearGradient id="linear-gradient-12" x1="483.34" y1="359.89" x2="368.15" y2="475.08" gradientUnits="userSpaceOnUse">
      <stop offset="0" stop-color="#5c75e0"/>
      <stop offset="1" stop-color="#fff"/>
    </linearGradient>
    <linearGradient id="linear-gradient-13" x1="133.06" y1="573.12" x2="252.35" y2="453.83" gradientUnits="userSpaceOnUse">
      <stop offset="0" stop-color="#5073d9"/>
      <stop offset="1" stop-color="#99b4ff"/>
    </linearGradient>
    <linearGradient id="linear-gradient-14" x1="152.71" y1="586.46" x2="507.46" y2="231.7" xlink:href="#linear-gradient-7"/>
    <linearGradient id="linear-gradient-15" x1="152.75" y1="516.71" x2="236.29" y2="433.17" xlink:href="#linear-gradient-13"/>
  </defs>
  <g class="cls-18">
    <g id="_95c6c890-4df0-4047-9b20-53c1698e0703" data-name="95c6c890-4df0-4047-9b20-53c1698e0703">
      <g>
        <ellipse class="cls-13" cx="417.4" cy="556.64" rx="198.03" ry="99.04"/>
        <g>
          <path class="cls-11" d="m669.23,440.5c0-102.15-82.81-226.37-184.96-277.46-50.67-25.34-96.57-27.91-129.97-11.62,0-.02-.6.28-.6.28-.14.07-.29.14-.43.21l-34.42,17.21,261.12,392.6,34.93-17.47c.1-.05.19-.1.29-.15l.23-.11c33.25-16.82,53.8-52.62,53.8-103.5Z"/>
          <path class="cls-10" d="m665.02,399.07l-103.15,51.58v62.03l106.32-53.17c.67-6.08,1.03-12.42,1.03-19.01,0-13.5-1.46-27.38-4.2-41.43Zm-10.05-37l-93.1,46.56v23.24l99.27-49.64c-1.78-6.71-3.84-13.44-6.17-20.16Z"/>
          <ellipse class="cls-17" cx="450.16" cy="365.06" rx="144.4" ry="236.9" transform="translate(-129.32 354.34) rotate(-37.98)"/>
          <path class="cls-7" d="m450.16,180.1c-102.15-51.09-184.96-9.69-184.96,92.46s82.81,226.37,184.96,277.46c102.15,51.09,184.96,9.69,184.96-92.46s-82.81-226.37-184.96-277.46Zm0,331.24c-80.79-40.4-146.29-138.65-146.29-219.45s65.5-113.53,146.29-73.13c80.79,40.4,146.29,138.65,146.29,219.45s-65.5,113.53-146.29,73.13Zm0-253.91c-59.44-29.72-107.62-5.64-107.62,53.8s48.18,131.72,107.62,161.44c59.44,29.72,107.62,5.64,107.62-53.8s-48.18-131.72-107.62-161.44Zm0,176.57c-38.08-19.04-68.95-65.35-68.95-103.43s30.87-53.51,68.95-34.47c38.08,19.04,68.95,65.35,68.95,103.43s-30.87,53.51-68.95,34.47Z"/>
          <path class="cls-2" d="m450.16,334.78c-16.72-8.36-30.28-1.59-30.28,15.14s13.56,37.06,30.28,45.42c16.72,8.36,30.28,1.59,30.28-15.14s-13.56-37.06-30.28-45.42Z"/>
          <g class="cls-19">
            <path class="cls-12" d="m463.7,399.85c-4.31,0-9.09-1.23-13.97-3.67-16.98-8.49-30.8-29.25-30.8-46.27,0-7.8,2.89-13.88,8.15-17.13,6.03-3.72,14.59-3.31,23.5,1.15,16.98,8.49,30.8,29.25,30.8,46.27,0,7.8-2.89,13.88-8.15,17.13-2.72,1.68-5.97,2.52-9.53,2.52Zm-27.09-67.7c-3.21,0-6.11.74-8.54,2.24-4.68,2.89-7.25,8.4-7.25,15.52,0,16.37,13.35,36.37,29.76,44.58,8.31,4.16,16.2,4.6,21.66,1.23,4.68-2.89,7.25-8.4,7.25-15.52,0-16.37-13.35-36.37-29.76-44.58-4.62-2.31-9.11-3.47-13.12-3.47Z"/>
          </g>
          <g class="cls-19">
            <path class="cls-16" d="m532.89,572.85c-1.97,0-3.96-.04-5.97-.13-24.31-1.05-50.27-8.4-77.18-21.86-25.05-12.53-49.34-29.58-72.21-50.69-22.08-20.38-41.91-43.67-58.94-69.21-17.03-25.55-30.4-52.07-39.74-78.83-9.68-27.73-14.59-54.5-14.59-79.57,0-45.9,16.87-81.6,47.5-100.53,17.35-10.72,38.09-15.65,61.64-14.63,24.31,1.05,50.27,8.4,77.18,21.86,25.05,12.53,49.34,29.58,72.21,50.69,22.08,20.38,41.91,43.67,58.94,69.21,17.03,25.55,30.4,52.07,39.74,78.83,9.68,27.73,14.59,54.5,14.59,79.57,0,45.9-16.87,81.6-47.5,100.53-15.87,9.81-34.57,14.76-55.67,14.76Zm-165.47-413.62c-20.5,0-39.1,4.78-54.68,14.41-30.05,18.57-46.6,53.7-46.6,98.92,0,101.66,82.74,225.75,184.44,276.61,52.27,26.14,102.2,28.8,136.99,7.31,30.05-18.57,46.6-53.7,46.6-98.92,0-101.66-82.74-225.75-184.43-276.61-28.87-14.44-57.02-21.71-82.31-21.71Z"/>
          </g>
          <g class="cls-19">
            <path class="cls-14" d="m498.3,486.36c-1.15,0-2.32-.03-3.49-.08-14.2-.61-29.36-4.9-45.07-12.76-28.89-14.45-56.05-39.27-76.46-69.9-20.43-30.65-31.68-63.46-31.68-92.39,0-26.85,9.88-47.74,27.83-58.83,10.17-6.28,22.31-9.17,36.09-8.57,14.2.61,29.36,4.9,45.07,12.76,28.89,14.45,56.05,39.27,76.46,69.9,20.43,30.65,31.68,63.46,31.68,92.39,0,26.85-9.88,47.74-27.83,58.83-9.3,5.75-20.25,8.65-32.6,8.65Zm-96.28-240.67c-11.85,0-22.61,2.76-31.61,8.32-17.37,10.73-26.93,31.05-26.93,57.22,0,59.02,48.04,131.06,107.1,160.59,30.29,15.15,59.2,16.7,79.32,4.27,17.37-10.73,26.93-31.05,26.93-57.22,0-59.02-48.04-131.06-107.1-160.59-16.74-8.37-33.06-12.59-47.71-12.59Z"/>
          </g>
          <path class="cls-15" d="m446.65,361.61l-146.63,26.69,5.06,9.05,143.33-26.09c2.33-.42,4.03-2.46,4.03-4.83,0-3.06-2.77-5.37-5.78-4.83Z"/>
          <g class="cls-19">
            <path class="cls-5" d="m532.89,572.85c-1.97,0-3.96-.04-5.97-.13-24.31-1.05-50.27-8.4-77.18-21.86l.85-1.69c52.27,26.14,102.2,28.8,136.99,7.31,30.05-18.57,46.6-53.7,46.6-98.92,0-101.66-82.74-225.75-184.43-276.61-52.27-26.14-102.2-28.8-136.99-7.31-30.05,18.57-46.6,53.7-46.6,98.92h-1.89c0-45.9,16.87-81.6,47.5-100.53,17.35-10.72,38.09-15.65,61.64-14.63,24.31,1.05,50.27,8.4,77.18,21.86,25.05,12.53,49.34,29.58,72.21,50.69,22.08,20.38,41.91,43.67,58.94,69.21,17.03,25.55,30.4,52.07,39.74,78.83,9.68,27.73,14.59,54.5,14.59,79.57,0,45.9-16.87,81.6-47.5,100.53-15.87,9.81-34.57,14.76-55.66,14.76Z"/>
          </g>
          <path class="cls-8" d="m265.2,272.56c0,102.15,82.81,226.37,184.96,277.46,78.37,39.19,145.35,23.95,172.29-31.4-262.27,15.41-178.62-321.06-357.25-246.06Z"/>
        </g>
        <g>
          <polygon class="cls-9" points="260.18 461.66 149.06 517.24 125.23 565.28 236.35 509.71 260.18 461.66"/>
          <g>
            <path class="cls-1" d="m146.8,546.83c-.14,0-.28-.03-.42-.1-.47-.23-.66-.8-.43-1.27l18.15-36.59c.23-.47.8-.66,1.27-.43.47.23.66.8.43,1.27l-18.15,36.59c-.16.33-.5.53-.85.53Z"/>
            <path class="cls-1" d="m162.7,538.87c-.14,0-.28-.03-.42-.1-.47-.23-.66-.8-.43-1.27l18.15-36.59c.23-.47.8-.66,1.27-.43.47.23.66.8.43,1.27l-18.15,36.59c-.16.33-.5.53-.85.53Z"/>
            <path class="cls-1" d="m178.61,530.92c-.14,0-.28-.03-.42-.1-.47-.23-.66-.8-.43-1.27l18.15-36.59c.23-.47.8-.66,1.27-.43.47.23.66.8.43,1.27l-18.15,36.59c-.16.33-.5.53-.85.53Z"/>
            <path class="cls-1" d="m194.52,522.96c-.14,0-.28-.03-.42-.1-.47-.23-.66-.8-.43-1.27l18.15-36.59c.23-.47.8-.66,1.27-.43.47.23.66.8.43,1.27l-18.15,36.59c-.16.33-.5.53-.85.53Z"/>
            <path class="cls-1" d="m210.43,515c-.14,0-.28-.03-.42-.1-.47-.23-.66-.8-.43-1.27l18.15-36.59c.23-.47.8-.66,1.27-.43.47.23.66.8.43,1.27l-18.15,36.59c-.16.33-.5.53-.85.53Z"/>
            <path class="cls-1" d="m226.33,507.05c-.14,0-.28-.03-.42-.1-.47-.23-.66-.8-.43-1.27l18.15-36.59c.23-.47.8-.66,1.27-.43.47.23.66.8.43,1.27l-18.15,36.59c-.16.33-.5.53-.85.53Z"/>
          </g>
          <g>
            <path class="cls-3" d="m149.06,522.91c-2.08,0-4.09-1.15-5.08-3.14-1.4-2.8-.27-6.21,2.54-7.62l301.1-150.58c2.8-1.4,6.21-.27,7.62,2.54,1.4,2.8.27,6.21-2.54,7.62l-301.1,150.58c-.81.41-1.68.6-2.53.6Z"/>
            <path class="cls-6" d="m147.87,518.13c-.8,0-1.52-.44-1.87-1.16-.52-1.03-.1-2.29.94-2.81l301.1-150.58c.3-.15.61-.22.93-.22.8,0,1.52.44,1.87,1.16.25.5.29,1.07.11,1.6-.18.53-.55.96-1.05,1.21l-301.1,150.58c-.3.15-.61.22-.93.22Z"/>
          </g>
          <polygon class="cls-4" points="262 459.26 150.87 514.83 127.04 490.62 238.17 435.05 262 459.26"/>
          <g>
            <path class="cls-1" d="m162.96,508.22c-.24,0-.49-.09-.67-.28l-16.16-16.42c-.37-.37-.36-.97.01-1.34.37-.37.97-.36,1.34.01l16.16,16.42c.37.37.36.97-.01,1.34-.18.18-.42.27-.66.27Z"/>
            <path class="cls-1" d="m178.86,500.26c-.24,0-.49-.09-.67-.28l-16.16-16.42c-.37-.37-.36-.97.01-1.34.37-.37.97-.36,1.34.01l16.16,16.42c.37.37.36.97-.01,1.34-.18.18-.42.27-.66.27Z"/>
            <path class="cls-1" d="m194.77,492.3c-.24,0-.49-.09-.67-.28l-16.16-16.42c-.37-.37-.36-.97.01-1.34.37-.37.97-.36,1.34.01l16.16,16.42c.37.37.36.97-.01,1.34-.18.18-.42.27-.66.27Z"/>
            <path class="cls-1" d="m210.68,484.35c-.24,0-.49-.09-.67-.28l-16.16-16.42c-.37-.37-.36-.97.01-1.34.37-.37.97-.36,1.34.01l16.16,16.42c.37.37.36.97-.01,1.34-.18.18-.42.27-.66.27Z"/>
            <path class="cls-1" d="m226.59,476.39c-.24,0-.49-.09-.67-.28l-16.16-16.42c-.37-.37-.36-.97.01-1.34.37-.37.97-.36,1.34.01l16.16,16.42c.37.37.36.97-.01,1.34-.18.18-.42.27-.66.27Z"/>
            <path class="cls-1" d="m242.49,468.44c-.24,0-.49-.09-.67-.28l-16.16-16.42c-.37-.37-.36-.97.01-1.34.37-.37.97-.36,1.34.01l16.16,16.42c.37.37.36.97-.01,1.34-.18.18-.42.27-.66.27Z"/>
          </g>
        </g>
      </g>
    </g>
  </g>
</svg>