<?xml version="1.0" encoding="UTF-8"?>
<svg xmlns="http://www.w3.org/2000/svg" xmlns:xlink="http://www.w3.org/1999/xlink" viewBox="0 0 833.74 798.26">
  <defs>
    <style>
      .cls-1 {
        fill: url(#linear-gradient-19);
      }

      .cls-1, .cls-2, .cls-3, .cls-4, .cls-5, .cls-6, .cls-7, .cls-8, .cls-9, .cls-10, .cls-11, .cls-12, .cls-13, .cls-14, .cls-15, .cls-16, .cls-17, .cls-18, .cls-19, .cls-20, .cls-21, .cls-22, .cls-23, .cls-24, .cls-25, .cls-26, .cls-27, .cls-28, .cls-29, .cls-30, .cls-31, .cls-32 {
        stroke-width: 0px;
      }

      .cls-1, .cls-3, .cls-7, .cls-9, .cls-14, .cls-19, .cls-26, .cls-32, .cls-33 {
        mix-blend-mode: multiply;
      }

      .cls-2 {
        fill: url(#linear-gradient-12);
      }

      .cls-3 {
        fill: url(#linear-gradient-23);
      }

      .cls-4 {
        fill: url(#linear-gradient-21);
      }

      .cls-34 {
        isolation: isolate;
      }

      .cls-5 {
        fill: url(#linear-gradient-15);
      }

      .cls-6 {
        fill: url(#linear-gradient-11);
      }

      .cls-7 {
        fill: url(#linear-gradient-5);
      }

      .cls-8 {
        fill: #5c81ef;
      }

      .cls-9 {
        fill: url(#linear-gradient-4);
      }

      .cls-10 {
        fill: url(#linear-gradient-13);
      }

      .cls-11 {
        fill: url(#linear-gradient-25);
      }

      .cls-12 {
        fill: url(#linear-gradient-22);
      }

      .cls-12, .cls-35, .cls-28, .cls-31 {
        mix-blend-mode: screen;
      }

      .cls-13 {
        fill: url(#linear-gradient-16);
      }

      .cls-14 {
        fill: url(#linear-gradient-30);
      }

      .cls-15 {
        fill: url(#linear-gradient-14);
      }

      .cls-16 {
        fill: url(#linear-gradient-2);
      }

      .cls-17 {
        fill: url(#linear-gradient-7);
      }

      .cls-18 {
        fill: url(#linear-gradient-3);
      }

      .cls-19 {
        fill: url(#linear-gradient);
      }

      .cls-20 {
        fill: url(#linear-gradient-9);
      }

      .cls-21 {
        fill: url(#linear-gradient-27);
      }

      .cls-22 {
        fill: url(#radial-gradient);
      }

      .cls-23 {
        fill: url(#linear-gradient-8);
      }

      .cls-24 {
        fill: url(#linear-gradient-24);
      }

      .cls-25 {
        fill: url(#linear-gradient-18);
      }

      .cls-26 {
        fill: url(#linear-gradient-20);
        opacity: .3;
      }

      .cls-27 {
        fill: url(#linear-gradient-29);
      }

      .cls-28 {
        fill: url(#linear-gradient-26);
        opacity: .6;
      }

      .cls-29 {
        fill: url(#linear-gradient-28);
      }

      .cls-30 {
        fill: url(#linear-gradient-10);
      }

      .cls-31 {
        fill: url(#linear-gradient-17);
      }

      .cls-32 {
        fill: url(#linear-gradient-6);
      }
    </style>
    <linearGradient id="linear-gradient" x1="385.4" y1="688.12" x2="62.18" y2="688.12" gradientUnits="userSpaceOnUse">
      <stop offset="0" stop-color="#9fb8ff"/>
      <stop offset="1" stop-color="#fff"/>
    </linearGradient>
    <linearGradient id="linear-gradient-2" x1="232.91" y1="677.42" x2="606.15" y2="677.42" gradientUnits="userSpaceOnUse">
      <stop offset="0" stop-color="#5c75e0"/>
      <stop offset=".24" stop-color="#355acc"/>
      <stop offset="1" stop-color="#7e9fff"/>
    </linearGradient>
    <linearGradient id="linear-gradient-3" x1="419.53" y1="712.96" x2="419.53" y2="526.3" gradientUnits="userSpaceOnUse">
      <stop offset="0" stop-color="#829ff3"/>
      <stop offset="1" stop-color="#4973ed"/>
    </linearGradient>
    <linearGradient id="linear-gradient-4" x1="584.89" y1="618.6" x2="562.79" y2="618.6" xlink:href="#linear-gradient"/>
    <linearGradient id="linear-gradient-5" x1="418.37" y1="639.95" x2="180.79" y2="639.95" gradientUnits="userSpaceOnUse">
      <stop offset="0" stop-color="#314d9e"/>
      <stop offset=".45" stop-color="#9fb8ff"/>
      <stop offset="1" stop-color="#fff"/>
    </linearGradient>
    <linearGradient id="linear-gradient-6" x1="255.95" y1="618.6" x2="233.85" y2="618.6" xlink:href="#linear-gradient"/>
    <linearGradient id="linear-gradient-7" x1="419.53" y1="692.51" x2="419.53" y2="216.04" gradientUnits="userSpaceOnUse">
      <stop offset="0" stop-color="#d4dfff"/>
      <stop offset="1" stop-color="#b0c4ff"/>
    </linearGradient>
    <linearGradient id="linear-gradient-8" x1="520.08" y1="621.05" x2="520.08" y2="216.04" gradientUnits="userSpaceOnUse">
      <stop offset="0" stop-color="#3653b3"/>
      <stop offset=".99" stop-color="#fff"/>
      <stop offset="1" stop-color="#f7f8fc"/>
    </linearGradient>
    <linearGradient id="linear-gradient-9" x1="318.98" x2="318.98" xlink:href="#linear-gradient-8"/>
    <linearGradient id="linear-gradient-10" x1="419.53" y1="693.8" x2="419.53" y2="621.05" xlink:href="#linear-gradient-8"/>
    <linearGradient id="linear-gradient-11" x1="419.53" y1="676.28" x2="419.53" y2="392.44" xlink:href="#linear-gradient-7"/>
    <linearGradient id="linear-gradient-12" x1="419.53" y1="444.65" x2="419.53" y2="232.27" xlink:href="#linear-gradient-7"/>
    <radialGradient id="radial-gradient" cx="435.59" cy="560.07" fx="435.59" fy="560.07" r="146.44" gradientUnits="userSpaceOnUse">
      <stop offset="0" stop-color="#6786ab"/>
      <stop offset=".46" stop-color="#40556b"/>
      <stop offset="1" stop-color="#000"/>
    </radialGradient>
    <linearGradient id="linear-gradient-13" x1="422.41" y1="677.63" x2="422.41" y2="630.13" gradientUnits="userSpaceOnUse">
      <stop offset="0" stop-color="#fff"/>
      <stop offset="1" stop-color="#000"/>
    </linearGradient>
    <linearGradient id="linear-gradient-14" x1="374.93" y1="409.74" x2="464.13" y2="320.53" gradientUnits="userSpaceOnUse">
      <stop offset="0" stop-color="#40556b"/>
      <stop offset="1" stop-color="#000"/>
    </linearGradient>
    <linearGradient id="linear-gradient-15" x1="419.53" y1="394.05" x2="419.53" y2="306.49" gradientUnits="userSpaceOnUse">
      <stop offset="0" stop-color="#7793b8"/>
      <stop offset="1" stop-color="#446990"/>
    </linearGradient>
    <linearGradient id="linear-gradient-16" x1="356.12" y1="445.79" x2="356.12" y2="232.19" xlink:href="#linear-gradient-13"/>
    <linearGradient id="linear-gradient-17" x1="402.62" y1="446.76" x2="549.29" y2="446.76" gradientUnits="userSpaceOnUse">
      <stop offset="0" stop-color="#294bb0"/>
      <stop offset="1" stop-color="#afc4ff"/>
    </linearGradient>
    <linearGradient id="linear-gradient-18" x1="477.13" y1="627.85" x2="477.13" y2="454.17" gradientUnits="userSpaceOnUse">
      <stop offset="0" stop-color="#000"/>
      <stop offset="1" stop-color="#fff"/>
    </linearGradient>
    <linearGradient id="linear-gradient-19" x1="355.28" y1="258.16" x2="355.28" y2="455.37" xlink:href="#linear-gradient-5"/>
    <linearGradient id="linear-gradient-20" x1="339.8" y1="462.06" x2="339.8" y2="643.05" gradientUnits="userSpaceOnUse">
      <stop offset="0" stop-color="#5c75e0"/>
      <stop offset="1" stop-color="#fff"/>
    </linearGradient>
    <linearGradient id="linear-gradient-21" x1="422.41" y1="237.35" x2="422.41" y2="595.46" gradientUnits="userSpaceOnUse">
      <stop offset="0" stop-color="#000"/>
      <stop offset="1" stop-color="#40556b"/>
    </linearGradient>
    <linearGradient id="linear-gradient-22" x1="568.78" y1="695.01" x2="248.07" y2="95.24" xlink:href="#linear-gradient-18"/>
    <linearGradient id="linear-gradient-23" x1="533.75" y1="258.14" x2="283.32" y2="258.14" xlink:href="#linear-gradient"/>
    <linearGradient id="linear-gradient-24" x1="232.91" y1="216.04" x2="606.15" y2="216.04" xlink:href="#linear-gradient-2"/>
    <linearGradient id="linear-gradient-25" x1="419.53" y1="251.58" x2="419.53" y2="64.92" gradientUnits="userSpaceOnUse">
      <stop offset="0" stop-color="#bbcbf9"/>
      <stop offset="1" stop-color="#4973ed"/>
    </linearGradient>
    <linearGradient id="linear-gradient-26" x1="412.62" y1="37.09" x2="412.62" y2="234.23" xlink:href="#linear-gradient-17"/>
    <linearGradient id="linear-gradient-27" x1="419.53" y1="252.92" x2="419.53" y2="223.04" xlink:href="#linear-gradient-13"/>
    <linearGradient id="linear-gradient-28" x1="419.53" y1="275.28" x2="419.53" y2="245.41" xlink:href="#linear-gradient-8"/>
    <linearGradient id="linear-gradient-29" x1="419.53" y1="714.3" x2="419.53" y2="684.42" xlink:href="#linear-gradient-13"/>
    <linearGradient id="linear-gradient-30" x1="533.75" y1="608.56" x2="283.32" y2="608.56" xlink:href="#linear-gradient"/>
  </defs>
  <g class="cls-34">
    <g id="_95c6c890-4df0-4047-9b20-53c1698e0703" data-name="95c6c890-4df0-4047-9b20-53c1698e0703">
      <g>
        <rect class="cls-19" x="53.54" y="641.56" width="368.87" height="93.12"/>
        <path class="cls-16" d="m232.91,620.04v21.44c0,23.88,18.22,47.77,54.66,65.99,72.88,36.45,191.04,36.45,263.91,0,36.44-18.22,54.66-42.11,54.66-65.99v-21.44H232.91Z"/>
        <ellipse class="cls-18" cx="419.53" cy="619.63" rx="186.62" ry="93.33"/>
        <rect class="cls-9" x="562.2" y="614.05" width="25.22" height="9.1"/>
        <path class="cls-7" d="m287.57,685.62c4.94,2.47,10.1,4.76,15.42,6.89h119.41v-105.13h-178.04c-24.3,33.09-9.91,71.67,43.2,98.24Z"/>
        <rect class="cls-32" x="233.26" y="614.05" width="25.22" height="9.1"/>
        <path class="cls-17" d="m562.43,216.04h-285.79c0,79.14,32.17,150.75,84.15,202.5-51.97,51.75-84.15,123.37-84.15,202.5,0,18.29,13.95,36.58,41.85,50.53,55.8,27.91,146.28,27.91,202.09,0,27.9-13.95,41.85-32.24,41.85-50.53,0-79.14-32.17-150.75-84.14-202.5,51.97-51.75,84.14-123.37,84.14-202.5Z"/>
        <g>
          <g class="cls-33">
            <path class="cls-23" d="m563.77,621.05h-2.68c0-76.2-29.74-147.78-83.75-201.55l-.95-.95.95-.95c54.01-53.78,83.75-125.36,83.75-201.55h2.68c0,38.87-7.63,76.56-22.69,112.05-14.37,33.86-34.85,64.28-60.9,90.46,26.05,26.17,46.53,56.6,60.9,90.46,15.06,35.48,22.69,73.18,22.69,112.05Z"/>
          </g>
          <g class="cls-33">
            <path class="cls-20" d="m277.97,621.05h-2.68c0-38.87,7.63-76.56,22.69-112.05,14.37-33.86,34.85-64.28,60.9-90.46-26.05-26.17-46.53-56.6-60.9-90.46-15.06-35.48-22.69-73.18-22.69-112.05h2.68c0,76.2,29.74,147.78,83.75,201.55l.95.95-.95.95c-54.01,53.78-83.75,125.36-83.75,201.55Z"/>
          </g>
        </g>
        <g class="cls-33">
          <path class="cls-30" d="m419.53,693.8c-36.81,0-73.62-7.01-101.64-21.02-27.47-13.74-42.6-32.11-42.6-51.73h2.68c0,18.55,14.6,36.07,41.11,49.33,55.38,27.7,145.5,27.7,200.89,0,26.51-13.26,41.11-30.78,41.11-49.33h2.68c0,19.62-15.13,38-42.59,51.73-28.02,14.01-64.83,21.02-101.64,21.02Z"/>
        </g>
        <path class="cls-6" d="m419.53,676.28c-35.7,0-69-6.83-93.79-19.22-20.9-10.45-32.88-23.58-32.88-36.02,0-48.16,12.85-95.42,37.17-136.67,22.01-37.34,52.83-68.96,89.5-91.94,36.67,22.98,67.49,54.6,89.5,91.94,24.32,41.25,37.17,88.51,37.17,136.67,0,12.44-11.98,25.57-32.88,36.02-24.78,12.39-58.09,19.22-93.79,19.22Z"/>
        <path class="cls-2" d="m419.53,444.65c-36.67-22.98-67.49-54.6-89.5-91.94-21.58-36.6-34.13-77.94-36.68-120.45h252.37c-2.55,42.5-15.1,83.84-36.68,120.45-22.01,37.34-52.83,68.96-89.5,91.94Z"/>
        <path class="cls-22" d="m509.7,576.13c-24.11-12.06-55.7-33.96-87.3-33.96s-63.19,21.9-87.29,33.96c-29.43,14.72-40.86,35.02-34.36,54.09,4.33,9.14,14.69,18.19,29.9,25.8,24.25,12.13,56.83,18.8,91.76,18.8s67.51-6.68,91.76-18.8c15.2-7.6,25.57-16.65,29.9-25.8,6.5-19.07-4.93-39.37-34.36-54.09Z"/>
        <g class="cls-35">
          <path class="cls-10" d="m422.41,677.63c-35.9,0-69.42-6.88-94.39-19.36-15.77-7.88-26.55-17.22-31.17-26.99l2.42-1.15c4.3,9.09,14.94,18.23,29.95,25.74,24.6,12.3,57.69,19.08,93.19,19.08s68.59-6.78,93.19-19.08c15.01-7.5,25.64-16.64,29.95-25.74l2.42,1.15c-4.62,9.77-15.4,19.11-31.17,26.99-24.96,12.48-58.48,19.36-94.39,19.36Z"/>
        </g>
        <g>
          <path class="cls-8" d="m419.53,432.87c-.09,0-.18-.01-.26-.03-.09-.02-.17-.04-.25-.08-.08-.04-.16-.07-.23-.12-.07-.05-.14-.11-.2-.17-.06-.06-.12-.13-.17-.2-.05-.07-.09-.16-.12-.24-.03-.08-.06-.16-.08-.25-.02-.09-.03-.18-.03-.26,0-.35.14-.7.39-.95.06-.06.13-.12.2-.17.08-.05.15-.09.23-.12.08-.03.17-.06.25-.07.17-.04.35-.04.53,0,.09.02.17.04.25.07.08.03.16.08.23.12.07.05.14.1.2.17.25.25.39.6.39.95,0,.09-.01.17-.03.26-.02.09-.04.17-.07.25-.03.08-.08.16-.12.24-.05.07-.11.14-.17.2-.06.06-.13.11-.2.17-.07.05-.15.09-.23.12-.08.03-.17.06-.25.08-.09.02-.18.03-.26.03Z"/>
          <path class="cls-8" d="m418.19,542.99c0-.74.6-1.34,1.34-1.34s1.34.6,1.34,1.34-.6,1.35-1.34,1.35-1.34-.6-1.34-1.35Zm0-5.3c0-.74.6-1.34,1.34-1.34s1.34.6,1.34,1.34-.6,1.34-1.34,1.34-1.34-.6-1.34-1.34Zm0-5.31c0-.74.6-1.34,1.34-1.34s1.34.6,1.34,1.34-.6,1.34-1.34,1.34-1.34-.6-1.34-1.34Zm0-5.3c0-.74.6-1.34,1.34-1.34s1.34.6,1.34,1.34-.6,1.34-1.34,1.34-1.34-.6-1.34-1.34Zm0-5.31c0-.74.6-1.34,1.34-1.34s1.34.6,1.34,1.34-.6,1.34-1.34,1.34-1.34-.6-1.34-1.34Zm0-5.3c0-.74.6-1.34,1.34-1.34s1.34.6,1.34,1.34-.6,1.34-1.34,1.34-1.34-.6-1.34-1.34Zm0-5.31c0-.74.6-1.34,1.34-1.34s1.34.6,1.34,1.34-.6,1.34-1.34,1.34-1.34-.6-1.34-1.34Zm0-5.3c0-.74.6-1.34,1.34-1.34s1.34.6,1.34,1.34-.6,1.34-1.34,1.34-1.34-.6-1.34-1.34Zm0-5.31c0-.74.6-1.34,1.34-1.34s1.34.6,1.34,1.34-.6,1.34-1.34,1.34-1.34-.6-1.34-1.34Zm0-5.31c0-.74.6-1.34,1.34-1.34s1.34.6,1.34,1.34-.6,1.35-1.34,1.35-1.34-.61-1.34-1.35Zm0-5.3c0-.74.6-1.34,1.34-1.34s1.34.6,1.34,1.34-.6,1.34-1.34,1.34-1.34-.6-1.34-1.34Zm0-5.31c0-.74.6-1.34,1.34-1.34s1.34.6,1.34,1.34-.6,1.34-1.34,1.34-1.34-.6-1.34-1.34Zm0-5.31c0-.74.6-1.34,1.34-1.34s1.34.6,1.34,1.34-.6,1.34-1.34,1.34-1.34-.6-1.34-1.34Zm0-5.31c0-.74.6-1.34,1.34-1.34s1.34.6,1.34,1.34-.6,1.34-1.34,1.34-1.34-.6-1.34-1.34Zm0-5.31c0-.74.6-1.34,1.34-1.34s1.34.6,1.34,1.34-.6,1.35-1.34,1.35-1.34-.6-1.34-1.35Zm0-5.3c0-.74.6-1.34,1.34-1.34s1.34.6,1.34,1.34-.6,1.34-1.34,1.34-1.34-.6-1.34-1.34Zm0-5.31c0-.74.6-1.34,1.34-1.34s1.34.6,1.34,1.34-.6,1.34-1.34,1.34-1.34-.6-1.34-1.34Zm0-5.3c0-.74.6-1.34,1.34-1.34s1.34.6,1.34,1.34-.6,1.34-1.34,1.34-1.34-.6-1.34-1.34Zm0-5.31c0-.75.6-1.35,1.34-1.35s1.34.6,1.34,1.35-.6,1.34-1.34,1.34-1.34-.6-1.34-1.34Zm0-5.31c0-.74.6-1.34,1.34-1.34s1.34.6,1.34,1.34-.6,1.34-1.34,1.34-1.34-.6-1.34-1.34Zm0-5.31c0-.74.6-1.34,1.34-1.34s1.34.6,1.34,1.34-.6,1.34-1.34,1.34-1.34-.6-1.34-1.34Z"/>
          <path class="cls-8" d="m419.53,549.64c-.09,0-.18-.01-.26-.03-.09-.02-.17-.04-.25-.07-.08-.03-.16-.07-.23-.12-.07-.05-.14-.11-.2-.17-.06-.06-.12-.13-.17-.2-.05-.07-.09-.15-.12-.23-.03-.08-.06-.17-.08-.25-.02-.09-.03-.18-.03-.26s.01-.18.03-.26c.02-.09.04-.17.08-.25.03-.08.08-.16.12-.23.05-.07.11-.14.17-.2.06-.06.13-.12.2-.17.08-.05.15-.09.23-.12.08-.03.17-.06.25-.07.17-.03.35-.03.53,0,.09.02.17.04.25.07.08.03.16.07.23.12.07.05.14.11.2.17.06.06.12.13.17.2.05.08.09.15.12.23.03.08.06.17.07.25.02.09.03.18.03.26s-.01.18-.03.26c-.02.09-.04.17-.07.25-.03.08-.08.16-.12.23-.05.07-.11.14-.17.2-.06.06-.13.12-.2.17-.07.05-.15.09-.23.12s-.17.06-.25.07c-.09.02-.18.03-.26.03Z"/>
        </g>
        <path class="cls-15" d="m419.53,444.65c34.06-21.34,63.07-50.15,84.66-84.07h-169.32c21.59,33.91,50.6,62.72,84.66,84.07Z"/>
        <ellipse class="cls-5" cx="419.53" cy="350.27" rx="87.54" ry="43.78"/>
        <g class="cls-35">
          <path class="cls-13" d="m418.82,445.79c-5.78-3.62-11.5-7.51-16.99-11.57-29.71-21.91-54.26-49.11-72.95-80.83-21.56-36.57-34.3-78.42-36.86-121.05l2.68-.16c2.53,42.2,15.16,83.64,36.5,119.85,18.51,31.41,42.82,58.33,72.24,80.03,5.44,4.01,11.1,7.87,16.82,11.45l-1.42,2.27Z"/>
        </g>
        <path class="cls-31" d="m509.03,484.37c-14.59-24.74-33.06-46.96-54.53-65.83,21.47-18.87,39.94-41.09,54.53-65.83,21.58-36.6,34.13-77.94,36.68-120.45h-47.13c-4.17,31.7-10.61,62.21-19.23,90.52-9.75,32.03-45.47,97.43-59.82,121.86-66.32,106.24,83.8,157.34,84.58,216.59,3.18-1.31,6.25-2.7,9.2-4.18,20.9-10.45,32.88-23.58,32.88-36.02,0-48.16-12.85-95.42-37.17-136.67Z"/>
        <g class="cls-35">
          <path class="cls-25" d="m496.66,627.85c-.74,0-1.34-.6-1.34-1.34,0-48.01-8.18-95.1-23.64-136.2-4.49-11.93-9.63-23.42-15.27-34.17-.34-.66-.09-1.47.56-1.81.66-.34,1.47-.09,1.81.56,5.7,10.85,10.88,22.44,15.41,34.47,15.58,41.4,23.82,88.82,23.82,137.14,0,.74-.6,1.34-1.34,1.34Z"/>
        </g>
        <path class="cls-1" d="m419.53,444.65c-106.81-94.38-83.45-190.26,14.4-228.61h-157.3c0,79.14,32.17,150.75,84.15,202.5,19.39,13.96,39.29,22.82,58.75,26.11Z"/>
        <path class="cls-26" d="m330.03,484.37c-24.32,41.25-37.17,88.51-37.17,136.67,0,12.44,11.99,25.57,32.88,36.02,2.95,1.47,6.02,2.86,9.2,4.18-17.54-115.94,13.36-215.14,51.8-227.63l-12.1-5.85c-17.26,16.76-32.33,35.78-44.61,56.61Z"/>
        <path class="cls-4" d="m597.26,185.22c.01-1.34-1-2.68-3.04-3.69-4.05-2.03-10.63-2.03-14.68,0-2.04,1.02-3.05,2.36-3.04,3.69,0,0,0,432.74,0,432.74,0,1.33,1.01,2.66,3.04,3.67,4.05,2.03,10.63,2.03,14.68,0,2.03-1.01,3.04-2.34,3.04-3.67V185.22h0Zm-331.98-19.92c-4.05-2.03-10.63-2.03-14.68,0-2.04,1.02-3.05,2.36-3.04,3.69,0,0,0,448.97,0,448.97,0,1.33,1.01,2.66,3.04,3.67,4.05,2.03,10.63,2.03,14.68,0,2.03-1.01,3.04-2.34,3.04-3.67V168.99c0-1.34-1-2.67-3.04-3.69Z"/>
        <path class="cls-12" d="m590.52,614.05c-1.26,0-2.31-.17-3.1-.39V245.3s.04-1.01.04-2.1c0-1.68,1.33-3.11,3.01-3.12,1.78,0,3.12,1.45,3.1,3.14l-.02,2.08c.07,0,.07,368.36.07,368.36-.79.22-1.84.39-3.1.39Zm-328.94,0c-1.25,0-2.31-.17-3.1-.39v-314.25s.04-1,.04-2.1c0-1.68,1.33-3.11,3.01-3.12,1.78,0,3.11,1.45,3.1,3.14l-.02,2.07c.07,0,.07,314.25.07,314.25-.78.22-1.84.39-3.1.39Z"/>
        <path class="cls-3" d="m562.43,216.34v-.29h-285.79c0,25.13,3.28,49.49,9.38,72.7,95.08,24.69,193.57,9.58,270.43-45.4,3.86-8.38,5.98-17.56,5.99-27.01Z"/>
        <path class="cls-24" d="m232.91,158.66v21.44c0,23.88,18.22,47.77,54.66,65.99,72.88,36.45,191.04,36.45,263.91,0,36.44-18.22,54.66-42.11,54.66-65.99v-21.44H232.91Z"/>
        <ellipse class="cls-11" cx="419.53" cy="158.25" rx="186.62" ry="93.33"/>
        <path class="cls-28" d="m551.49,224.24c18.11-9.06,31.71-19.51,40.82-30.67-85.24,35.87-185.63,35.63-199.86,4.19-15.39-33.99,89.5-82.29,33.08-104.3-44.07-17.19-123.81-.71-163.33,14.57-46.19,36.11-37.74,84.65,25.37,116.21,72.88,36.45,191.04,36.45,263.91,0Z"/>
        <g class="cls-35">
          <path class="cls-21" d="m419.53,252.92c-50.05,0-97.13-9.76-132.56-27.48l1.2-2.4c72.43,36.22,190.28,36.22,262.72,0l1.2,2.4c-35.43,17.72-82.51,27.48-132.56,27.48Z"/>
        </g>
        <g class="cls-33">
          <path class="cls-29" d="m419.53,275.28c-50.05,0-97.13-9.76-132.56-27.48l1.2-2.4c72.43,36.22,190.28,36.22,262.72,0l1.2,2.4c-35.43,17.72-82.51,27.48-132.56,27.48Z"/>
        </g>
        <g class="cls-35">
          <path class="cls-27" d="m419.53,714.3c-50.05,0-97.13-9.76-132.56-27.48l1.2-2.4c72.43,36.22,190.28,36.22,262.72,0l1.2,2.4c-35.43,17.72-82.51,27.48-132.56,27.48Z"/>
        </g>
        <path class="cls-14" d="m438.84,630c-85.03-32.6-104.25-153.08-152.02-84.74-6.62,24.14-10.18,49.54-10.18,75.79,0,18.29,13.95,36.58,41.85,50.53,55.8,27.91,146.28,27.91,202.09,0,27.9-13.95,41.85-32.24,41.85-50.53,0-7.87-.33-15.67-.96-23.38-15.27,46.08-68.89,52.94-122.63,32.33Z"/>
      </g>
    </g>
  </g>
</svg>