<?xml version="1.0" encoding="UTF-8"?>
<svg xmlns="http://www.w3.org/2000/svg" xmlns:xlink="http://www.w3.org/1999/xlink" viewBox="0 0 901.22 798.26">
  <defs>
    <style>
      .cls-1 {
        fill: url(#linear-gradient-12);
      }

      .cls-1, .cls-2, .cls-3, .cls-4, .cls-5, .cls-6, .cls-7, .cls-8, .cls-9, .cls-10, .cls-11, .cls-12, .cls-13, .cls-14, .cls-15, .cls-16, .cls-17, .cls-18, .cls-19 {
        stroke-width: 0px;
      }

      .cls-2 {
        fill: url(#linear-gradient-17);
      }

      .cls-3 {
        fill: url(#linear-gradient-6);
      }

      .cls-20 {
        isolation: isolate;
      }

      .cls-4 {
        fill: url(#linear-gradient-15);
      }

      .cls-5 {
        fill: url(#linear-gradient-11);
      }

      .cls-6 {
        fill: url(#linear-gradient-3);
        opacity: .5;
      }

      .cls-6, .cls-12, .cls-21 {
        mix-blend-mode: multiply;
      }

      .cls-7 {
        fill: url(#linear-gradient-13);
      }

      .cls-8 {
        fill: url(#linear-gradient-16);
      }

      .cls-9 {
        fill: url(#linear-gradient-14);
      }

      .cls-10 {
        fill: url(#linear-gradient-2);
      }

      .cls-22, .cls-14 {
        mix-blend-mode: screen;
      }

      .cls-11 {
        fill: url(#linear-gradient-7);
      }

      .cls-12 {
        fill: url(#linear-gradient);
      }

      .cls-13 {
        fill: url(#linear-gradient-9);
      }

      .cls-14 {
        fill: url(#linear-gradient-5);
      }

      .cls-15 {
        fill: url(#linear-gradient-8);
      }

      .cls-16 {
        fill: url(#linear-gradient-18);
      }

      .cls-17 {
        fill: #adc3ff;
      }

      .cls-18 {
        fill: url(#linear-gradient-10);
      }

      .cls-19 {
        fill: url(#linear-gradient-4);
      }
    </style>
    <linearGradient id="linear-gradient" x1="246.22" y1="664.61" x2="9.17" y2="664.61" gradientUnits="userSpaceOnUse">
      <stop offset="0" stop-color="#9fb8ff"/>
      <stop offset="1" stop-color="#fff"/>
    </linearGradient>
    <linearGradient id="linear-gradient-2" x1="505.51" y1="732.91" x2="505.51" y2="36.39" gradientUnits="userSpaceOnUse">
      <stop offset="0" stop-color="#bdceff"/>
      <stop offset="1" stop-color="#f0f4ff"/>
    </linearGradient>
    <linearGradient id="linear-gradient-3" x1="350.74" y1="600.46" x2="742.56" y2="208.64" gradientUnits="userSpaceOnUse">
      <stop offset="0" stop-color="#7e9fff"/>
      <stop offset="1" stop-color="#5c75e0"/>
    </linearGradient>
    <linearGradient id="linear-gradient-4" x1="371.2" y1="350.37" x2="753.69" y2="350.37" gradientUnits="userSpaceOnUse">
      <stop offset="0" stop-color="#000"/>
      <stop offset="1" stop-color="#3b3b3b"/>
    </linearGradient>
    <linearGradient id="linear-gradient-5" x1="604.44" y1="421.84" x2="505.53" y2="236.88" gradientUnits="userSpaceOnUse">
      <stop offset="0" stop-color="#000"/>
      <stop offset="1" stop-color="#fff"/>
    </linearGradient>
    <linearGradient id="linear-gradient-6" x1="360.07" y1="542.32" x2="387.64" y2="483.2" gradientUnits="userSpaceOnUse">
      <stop offset="0" stop-color="#5c75e0"/>
      <stop offset=".24" stop-color="#355acc"/>
      <stop offset="1" stop-color="#7e9fff"/>
    </linearGradient>
    <linearGradient id="linear-gradient-7" x1="366.6" y1="521.2" x2="417.09" y2="521.2" gradientTransform="translate(561.28 -107.89) rotate(52.02)" gradientUnits="userSpaceOnUse">
      <stop offset="0" stop-color="#99b4ff"/>
      <stop offset="1" stop-color="#bdceff"/>
    </linearGradient>
    <linearGradient id="linear-gradient-8" x1="387.41" y1="548.45" x2="387.41" y2="491.85" xlink:href="#linear-gradient-5"/>
    <linearGradient id="linear-gradient-9" x1="466.73" y1="390.56" x2="494.3" y2="331.44" xlink:href="#linear-gradient-6"/>
    <linearGradient id="linear-gradient-10" x1="473.26" y1="369.44" x2="523.75" y2="369.44" gradientTransform="translate(482.68 -250.33) rotate(52.02)" xlink:href="#linear-gradient-7"/>
    <linearGradient id="linear-gradient-11" x1="494.07" y1="396.68" x2="494.07" y2="340.09" xlink:href="#linear-gradient-5"/>
    <linearGradient id="linear-gradient-12" x1="565.15" y1="439.76" x2="592.72" y2="380.64" xlink:href="#linear-gradient-6"/>
    <linearGradient id="linear-gradient-13" x1="571.68" y1="418.64" x2="622.17" y2="418.64" gradientTransform="translate(559.31 -308.98) rotate(52.02)" xlink:href="#linear-gradient-7"/>
    <linearGradient id="linear-gradient-14" x1="592.49" y1="445.88" x2="592.49" y2="389.29" xlink:href="#linear-gradient-5"/>
    <linearGradient id="linear-gradient-15" x1="718.52" y1="209.68" x2="746.09" y2="150.56" xlink:href="#linear-gradient-6"/>
    <linearGradient id="linear-gradient-16" x1="725.06" y1="188.56" x2="775.54" y2="188.56" gradientTransform="translate(436.95 -518.37) rotate(52.02)" xlink:href="#linear-gradient-7"/>
    <linearGradient id="linear-gradient-17" x1="745.87" y1="215.81" x2="745.87" y2="159.21" xlink:href="#linear-gradient-5"/>
    <linearGradient id="linear-gradient-18" x1="505.51" y1="734.25" x2="505.51" y2="267.26" gradientUnits="userSpaceOnUse">
      <stop offset="0" stop-color="#365bcd"/>
      <stop offset="1" stop-color="#b1c5ff"/>
    </linearGradient>
  </defs>
  <g class="cls-20">
    <g id="_95c6c890-4df0-4047-9b20-53c1698e0703" data-name="95c6c890-4df0-4047-9b20-53c1698e0703">
      <g>
        <rect class="cls-12" x="2.83" y="596.32" width="270.52" height="136.59"/>
        <polygon class="cls-10" points="737.67 36.39 737.67 500.7 273.36 732.91 273.36 268.6 737.67 36.39"/>
        <g>
          <path class="cls-17" d="m339.69,701.07c-.74,0-1.34-.6-1.34-1.34V235.43c0-.74.6-1.34,1.34-1.34s1.34.6,1.34,1.34v464.31c0,.74-.6,1.34-1.34,1.34Z"/>
          <path class="cls-17" d="m406.02,667.9c-.74,0-1.34-.6-1.34-1.34V202.25c0-.74.6-1.34,1.34-1.34s1.34.6,1.34,1.34v464.31c0,.74-.6,1.34-1.34,1.34Z"/>
          <path class="cls-17" d="m472.35,634.73c-.74,0-1.34-.6-1.34-1.34V169.08c0-.74.6-1.34,1.34-1.34s1.34.6,1.34,1.34v464.31c0,.74-.6,1.34-1.34,1.34Z"/>
          <path class="cls-17" d="m538.68,601.56c-.74,0-1.34-.6-1.34-1.34V135.91c0-.74.6-1.34,1.34-1.34s1.34.6,1.34,1.34v464.31c0,.74-.6,1.34-1.34,1.34Z"/>
          <path class="cls-17" d="m605.01,568.38c-.74,0-1.34-.6-1.34-1.34V102.74c0-.74.6-1.34,1.34-1.34s1.34.6,1.34,1.34v464.31c0,.74-.6,1.34-1.34,1.34Z"/>
          <path class="cls-17" d="m671.34,535.21c-.74,0-1.34-.6-1.34-1.34V69.57c0-.74.6-1.34,1.34-1.34s1.34.6,1.34,1.34v464.31c0,.74-.6,1.34-1.34,1.34Z"/>
          <path class="cls-17" d="m737.67,502.04c-.74,0-1.34-.6-1.34-1.34V36.39c0-.74.6-1.34,1.34-1.34s1.34.6,1.34,1.34v464.31c0,.74-.6,1.34-1.34,1.34Z"/>
          <path class="cls-17" d="m273.36,269.93c-.49,0-.96-.27-1.2-.74-.33-.66-.06-1.46.6-1.79L737.07,35.2c.66-.33,1.46-.06,1.79.6.33.66.06,1.46-.6,1.79l-464.31,232.21c-.19.1-.4.14-.6.14Z"/>
          <path class="cls-17" d="m273.36,336.26c-.49,0-.96-.27-1.2-.74-.33-.66-.06-1.46.6-1.79l464.31-232.21c.66-.33,1.46-.06,1.79.6.33.66.06,1.46-.6,1.79l-464.31,232.21c-.19.1-.4.14-.6.14Z"/>
          <path class="cls-17" d="m273.36,402.59c-.49,0-.96-.27-1.2-.74-.33-.66-.06-1.46.6-1.79l464.31-232.21c.66-.33,1.46-.06,1.79.6.33.66.06,1.46-.6,1.79l-464.31,232.21c-.19.1-.4.14-.6.14Z"/>
          <path class="cls-17" d="m273.36,468.93c-.49,0-.96-.27-1.2-.74-.33-.66-.06-1.46.6-1.79l464.31-232.21c.66-.33,1.46-.06,1.79.6.33.66.06,1.46-.6,1.79l-464.31,232.21c-.19.1-.4.14-.6.14Z"/>
          <path class="cls-17" d="m273.36,535.26c-.49,0-.96-.27-1.2-.74-.33-.66-.06-1.46.6-1.79l464.31-232.21c.66-.33,1.46-.06,1.79.6.33.66.06,1.46-.6,1.79l-464.31,232.21c-.19.1-.4.14-.6.14Z"/>
          <path class="cls-17" d="m273.36,601.59c-.49,0-.96-.27-1.2-.74-.33-.66-.06-1.46.6-1.79l464.31-232.21c.66-.33,1.46-.06,1.79.6.33.66.06,1.46-.6,1.79l-464.31,232.21c-.19.1-.4.14-.6.14Z"/>
          <path class="cls-17" d="m273.36,667.92c-.49,0-.96-.27-1.2-.74-.33-.66-.06-1.46.6-1.79l464.31-232.21c.66-.33,1.46-.06,1.79.6.33.66.06,1.46-.6,1.79l-464.31,232.21c-.19.1-.4.14-.6.14Z"/>
        </g>
        <path class="cls-6" d="m737.65,203.73c-4.94-2.44-9.7-4.78-9.7-4.78-.27-.14-.54-.28-.81-.4l-.06-.03c-4.6-2.03-10.8-1.61-17.63,1.77-14.16,7.01-25.64,24.04-25.64,38.06,0,7.11,2.96,12.06,7.71,14.31,0,0,.59.29,1.57.77l-117.12,173.83-1.38-.68c-.27-.14-.54-.28-.81-.4l-.06-.03c-4.6-2.03-10.8-1.61-17.63,1.77-3.68,1.82-7.17,4.32-10.34,7.27l-44.02-21.77c1.39-3.82,2.17-7.66,2.17-11.3,0-6.85-2.75-11.7-7.21-14.06.04-.03-20.52-10.15-20.52-10.15-.27-.14-.54-.28-.82-.4l-.06-.03c-4.6-2.03-10.8-1.61-17.63,1.77-14.16,7.01-25.64,24.04-25.64,38.06,0,5.82,1.99,10.19,5.32,12.83l-66.44,98.61-1.38-.68c-.27-.14-.54-.28-.81-.4l-.06-.03c-4.6-2.03-10.8-1.61-17.63,1.77-14.16,7.01-25.64,24.04-25.64,38.06,0,7.11,2.96,12.06,7.71,14.31,0,0,14.14,6.96,19.45,9.58.62.38,1.28.7,1.97.97,4.55,1.77,10.54,1.26,17.1-1.99,14.16-7.01,25.64-24.05,25.64-38.06,0-5.82-2-10.18-5.33-12.81l66.47-98.66c.28.14.55.27.8.39.62.38,1.28.7,1.97.97,4.55,1.78,10.54,1.26,17.1-1.99,3.68-1.82,7.17-4.32,10.34-7.26l44.02,21.77c-1.39,3.82-2.17,7.66-2.17,11.3,0,7.11,2.96,12.06,7.71,14.31,0,0,14.14,6.96,19.45,9.58.62.38,1.28.7,1.97.97,4.55,1.78,10.54,1.26,17.1-1.99,14.16-7.01,25.64-24.05,25.64-38.06,0-5.82-2-10.18-5.33-12.81l117.44-174.3c4.33,1.15,9.73.45,15.62-2.46,2.65-1.31,5.21-2.97,7.61-4.9v-52.58Z"/>
        <g>
          <path class="cls-19" d="m382.94,528.83c-2.24,0-4.5-.64-6.51-1.97-5.4-3.6-6.86-10.89-3.26-16.29l102.54-153.82c3.27-4.9,9.65-6.62,14.94-4.04l93.84,45.94,147.67-221.52c3.6-5.4,10.89-6.86,16.29-3.26,5.4,3.6,6.86,10.89,3.26,16.29l-153.37,230.08c-3.27,4.9-9.65,6.62-14.94,4.03l-93.84-45.94-96.84,145.26c-2.26,3.4-5.99,5.23-9.79,5.23Z"/>
          <path class="cls-14" d="m382.94,512.39c-.46,0-.9-.13-1.29-.4-.67-.45-.91-1.06-1-1.49-.09-.44-.1-1.1.35-1.76l102.54-153.82c.44-.66,1.17-1.05,1.96-1.05.35,0,.7.08,1.03.24l101.22,49.56,152.23-228.37c.63-.95,1.58-1.05,1.97-1.05.46,0,.9.13,1.29.4,1.08.72,1.37,2.18.65,3.26l-153.37,230.08c-.44.66-1.17,1.05-1.96,1.05-.35,0-.7-.08-1.03-.24l-101.22-49.56-101.4,152.11c-.63.95-1.58,1.05-1.97,1.05Z"/>
          <g>
            <path class="cls-3" d="m395.75,503.34l13.92-9.2-20.56-10.23c-.27-.14-.54-.28-.81-.41l-.06-.03c-4.6-2.05-10.8-1.63-17.63,1.79-14.16,7.08-25.64,24.3-25.64,38.47,0,7.18,2.96,12.19,7.71,14.47,0,0,21.44,10.67,21.44,10.67l-.93-13.74c11.28-6.77,20.4-19.76,22.57-31.78Z"/>
            <ellipse class="cls-11" cx="391.19" cy="521.2" rx="32.84" ry="20.02" transform="translate(-260.37 508.8) rotate(-52.02)"/>
            <g class="cls-22">
              <path class="cls-15" d="m371.77,548.45c-4.44-2.72-6.89-7.84-6.89-14.42,0-14.37,11.67-31.89,26.01-39.06,7.21-3.61,13.97-4.1,19.05-1.38l-.63,1.18c-4.68-2.5-11.01-2.01-17.82,1.4-13.94,6.97-25.27,23.96-25.27,37.87,0,6.1,2.22,10.81,6.25,13.28l-.7,1.14Z"/>
            </g>
          </g>
          <g>
            <path class="cls-13" d="m502.41,351.58l13.92-9.2-20.56-10.23c-.27-.14-.54-.28-.81-.41l-.06-.03c-4.6-2.05-10.8-1.63-17.63,1.79-14.16,7.08-25.64,24.3-25.64,38.47,0,7.18,2.96,12.19,7.71,14.47,0,0,21.44,10.67,21.44,10.67l-.93-13.74c11.28-6.77,20.4-19.76,22.56-31.78Z"/>
            <ellipse class="cls-18" cx="497.85" cy="369.44" rx="32.84" ry="20.02" transform="translate(-99.72 534.51) rotate(-52.02)"/>
            <g class="cls-22">
              <path class="cls-5" d="m478.43,396.68c-4.44-2.72-6.89-7.84-6.89-14.42,0-14.37,11.67-31.89,26.01-39.06,7.21-3.61,13.97-4.1,19.05-1.38l-.63,1.18c-4.68-2.5-11.01-2.01-17.82,1.4-13.94,6.97-25.27,23.96-25.27,37.87,0,6.1,2.22,10.81,6.25,13.28l-.7,1.14Z"/>
            </g>
          </g>
          <g>
            <path class="cls-1" d="m600.83,400.78l13.92-9.2-20.56-10.23c-.27-.14-.54-.28-.81-.41l-.06-.03c-4.6-2.05-10.8-1.63-17.63,1.79-14.16,7.08-25.64,24.3-25.64,38.47,0,7.18,2.96,12.19,7.71,14.47,0,0,21.44,10.67,21.44,10.67l-.93-13.74c11.28-6.77,20.4-19.76,22.57-31.78Z"/>
            <ellipse class="cls-7" cx="596.27" cy="418.64" rx="32.84" ry="20.02" transform="translate(-100.65 631.01) rotate(-52.02)"/>
            <g class="cls-22">
              <path class="cls-9" d="m576.85,445.88c-4.44-2.72-6.89-7.84-6.89-14.42,0-14.37,11.67-31.89,26.01-39.06,7.21-3.6,13.97-4.1,19.05-1.38l-.63,1.18c-4.68-2.5-11.01-2.01-17.82,1.4-13.94,6.97-25.27,23.96-25.27,37.87,0,6.1,2.22,10.81,6.25,13.28l-.7,1.14Z"/>
            </g>
          </g>
          <g>
            <path class="cls-4" d="m754.2,170.7l13.92-9.2-20.56-10.23c-.27-.14-.54-.28-.82-.41l-.06-.03c-4.6-2.05-10.8-1.63-17.63,1.79-14.16,7.08-25.64,24.3-25.64,38.47,0,7.18,2.96,12.19,7.71,14.47,0,0,21.44,10.67,21.44,10.67l-.93-13.74c11.28-6.77,20.4-19.76,22.57-31.78Z"/>
            <ellipse class="cls-8" cx="749.65" cy="188.56" rx="32.84" ry="20.02" transform="translate(139.69 663.41) rotate(-52.02)"/>
            <g class="cls-22">
              <path class="cls-2" d="m730.23,215.81c-4.44-2.72-6.89-7.84-6.89-14.42,0-14.37,11.67-31.89,26.01-39.06,7.21-3.6,13.97-4.1,19.05-1.38l-.63,1.18c-4.68-2.5-11.01-2.01-17.82,1.4-13.94,6.97-25.27,23.96-25.27,37.87,0,6.1,2.22,10.81,6.25,13.28l-.7,1.14Z"/>
            </g>
          </g>
        </g>
        <g class="cls-21">
          <path class="cls-16" d="m273.36,734.25c-.24,0-.49-.07-.7-.2-.39-.24-.63-.67-.63-1.14v-464.31c0-.74.6-1.34,1.34-1.34s1.34.6,1.34,1.34v462.15l462.38-231.24c.66-.33,1.46-.06,1.79.6.33.66.06,1.46-.6,1.79l-464.31,232.21c-.19.09-.39.14-.6.14Z"/>
        </g>
      </g>
    </g>
  </g>
</svg>