<?xml version="1.0" encoding="UTF-8"?>
<svg id="_95c6c890-4df0-4047-9b20-53c1698e0703" data-name="95c6c890-4df0-4047-9b20-53c1698e0703" xmlns="http://www.w3.org/2000/svg" viewBox="0 0 941.44 798.26">
  <defs>
    <style>
      .cls-1 {
        fill: #ccdcff;
      }

      .cls-1, .cls-2, .cls-3, .cls-4, .cls-5, .cls-6, .cls-7, .cls-8, .cls-9, .cls-10, .cls-11, .cls-12 {
        stroke-width: 0px;
      }

      .cls-3 {
        fill: #ed637f;
      }

      .cls-4 {
        fill: #fff;
      }

      .cls-5 {
        fill: #6b92ff;
      }

      .cls-6 {
        fill: #de506d;
      }

      .cls-7 {
        fill: #ccdaff;
      }

      .cls-8 {
        fill: #99b4ff;
      }

      .cls-9 {
        fill: #ffb3b3;
      }

      .cls-10 {
        fill: #130f40;
      }

      .cls-11 {
        fill: #d9edff;
      }

      .cls-12 {
        fill: #b3c7ff;
      }
    </style>
  </defs>
  <path class="cls-11" d="m941.44,661.77c-.37-100.56-82-181.97-182.64-181.97-.73,0-1.46,0-2.18.02-76.14,1.54-148.34-34.82-189.86-98.66-53.57-82.36-146.42-136.83-251.99-136.83-165.89,0-300.37,134.49-300.37,300.38,0,83.35,33.95,158.77,88.77,213.19h810.81c17.49-27.99,27.59-60.94,27.46-96.13h0Z"/>
  <g>
    <g>
      <rect class="cls-4" x="368.86" y="315.59" width="246.58" height="442.3"/>
      <path class="cls-10" d="m615.45,758.12h-246.58c-.13,0-.23-.1-.23-.23v-442.3c0-.13.1-.23.23-.23h246.58c.13,0,.23.1.23.23v442.3c0,.13-.1.23-.23.23Zm-246.36-.45h246.13v-441.85h-246.13v441.85Z"/>
    </g>
    <g>
      <rect class="cls-7" x="404.09" y="327.2" width="176.13" height="430.69"/>
      <path class="cls-8" d="m580.22,758.12h-176.13c-.13,0-.23-.1-.23-.23v-430.69c0-.13.1-.23.23-.23h176.13c.13,0,.23.1.23.23v430.69c0,.13-.1.23-.23.23Zm-175.9-.45h175.68v-430.24h-175.68v430.24Z"/>
    </g>
    <g>
      <path class="cls-8" d="m404.09,758.34c-.25,0-.45-.2-.45-.45v-430.69c0-.25.2-.45.45-.45s.45.2.45.45v430.69c0,.25-.2.45-.45.45Z"/>
      <path class="cls-8" d="m439.32,758.34c-.25,0-.45-.2-.45-.45v-430.69c0-.25.2-.45.45-.45s.45.2.45.45v430.69c0,.25-.2.45-.45.45Z"/>
      <path class="cls-8" d="m474.54,758.34c-.25,0-.45-.2-.45-.45v-430.69c0-.25.2-.45.45-.45s.45.2.45.45v430.69c0,.25-.2.45-.45.45Z"/>
      <path class="cls-8" d="m509.77,758.34c-.25,0-.45-.2-.45-.45v-430.69c0-.25.2-.45.45-.45s.45.2.45.45v430.69c0,.25-.2.45-.45.45Z"/>
      <path class="cls-8" d="m544.99,758.34c-.25,0-.45-.2-.45-.45v-430.69c0-.25.2-.45.45-.45s.45.2.45.45v430.69c0,.25-.2.45-.45.45Z"/>
      <path class="cls-8" d="m580.22,758.34c-.25,0-.45-.2-.45-.45v-430.69c0-.25.2-.45.45-.45s.45.2.45.45v430.69c0,.25-.2.45-.45.45Z"/>
    </g>
    <g>
      <path class="cls-8" d="m580.22,574.24h-176.13c-.25,0-.45-.2-.45-.45s.2-.45.45-.45h176.13c.25,0,.45.2.45.45s-.2.45-.45.45Z"/>
      <path class="cls-8" d="m580.22,609.46h-176.13c-.25,0-.45-.2-.45-.45s.2-.45.45-.45h176.13c.25,0,.45.2.45.45s-.2.45-.45.45Z"/>
      <path class="cls-8" d="m580.22,644.69h-176.13c-.25,0-.45-.2-.45-.45s.2-.45.45-.45h176.13c.25,0,.45.2.45.45s-.2.45-.45.45Z"/>
    </g>
    <g>
      <path class="cls-8" d="m580.22,362.88h-176.13c-.25,0-.45-.2-.45-.45s.2-.45.45-.45h176.13c.25,0,.45.2.45.45s-.2.45-.45.45Z"/>
      <path class="cls-8" d="m580.22,398.11h-176.13c-.25,0-.45-.2-.45-.45s.2-.45.45-.45h176.13c.25,0,.45.2.45.45s-.2.45-.45.45Z"/>
      <path class="cls-8" d="m580.22,433.33h-176.13c-.25,0-.45-.2-.45-.45s.2-.45.45-.45h176.13c.25,0,.45.2.45.45s-.2.45-.45.45Z"/>
      <path class="cls-8" d="m580.22,468.56h-176.13c-.25,0-.45-.2-.45-.45s.2-.45.45-.45h176.13c.25,0,.45.2.45.45s-.2.45-.45.45Z"/>
      <path class="cls-8" d="m580.22,503.78h-176.13c-.25,0-.45-.2-.45-.45s.2-.45.45-.45h176.13c.25,0,.45.2.45.45s-.2.45-.45.45Z"/>
      <path class="cls-8" d="m580.22,539.01h-176.13c-.25,0-.45-.2-.45-.45s.2-.45.45-.45h176.13c.25,0,.45.2.45.45s-.2.45-.45.45Z"/>
      <path class="cls-8" d="m580.22,574.24h-176.13c-.25,0-.45-.2-.45-.45s.2-.45.45-.45h176.13c.25,0,.45.2.45.45s-.2.45-.45.45Z"/>
    </g>
    <g>
      <rect class="cls-4" x="392.37" y="270.64" width="199.57" height="35.34"/>
      <path class="cls-10" d="m591.94,306.2h-199.57c-.13,0-.23-.1-.23-.23v-35.34c0-.13.1-.23.23-.23h199.57c.13,0,.23.1.23.23v35.34c0,.13-.1.23-.23.23Zm-199.34-.45h199.12v-34.89h-199.12v34.89Z"/>
    </g>
    <g>
      <rect class="cls-4" x="389.99" y="261.03" width="204.33" height="4.81"/>
      <path class="cls-10" d="m594.32,266.06h-204.33c-.13,0-.23-.1-.23-.23v-4.81c0-.13.1-.23.23-.23h204.33c.13,0,.23.1.23.23v4.81c0,.13-.1.23-.23.23Zm-204.1-.45h203.88v-4.36h-203.88v4.36Z"/>
    </g>
    <g>
      <polygon class="cls-7" points="594.32 265.84 389.99 265.84 392.37 270.64 591.94 270.64 594.32 265.84"/>
      <path class="cls-10" d="m591.94,270.86h-199.57c-.09,0-.16-.05-.2-.13l-2.38-4.81c-.04-.07-.03-.15,0-.22s.11-.11.19-.11h204.33c.08,0,.15.04.19.11.04.07.05.15,0,.22l-2.38,4.81c-.04.08-.12.13-.2.13h0Zm-199.43-.45h199.29l2.16-4.36h-203.6l2.16,4.36h0Z"/>
    </g>
    <g>
      <rect class="cls-10" x="368.86" y="315.59" width="246.58" height="11.61"/>
      <path class="cls-10" d="m615.67,327.43h-247.03v-12.06h247.03v12.06Zm-246.58-.45h246.13v-11.16h-246.13v11.16Z"/>
    </g>
    <g>
      <rect class="cls-10" x="392.42" y="270.64" width="199.48" height="11.61"/>
      <path class="cls-10" d="m592.12,282.48h-199.93v-12.06h199.93v12.06Zm-199.48-.45h199.03v-11.16h-199.03v11.16Z"/>
    </g>
    <g>
      <polygon class="cls-7" points="617.8 310.78 366.48 310.78 368.86 315.59 615.45 315.59 617.8 310.78"/>
      <path class="cls-10" d="m615.45,315.82h-246.58c-.09,0-.16-.05-.2-.13l-2.38-4.81c-.04-.07-.03-.15,0-.22.04-.07.11-.11.19-.11h251.33c.08,0,.15.04.19.11.04.07.05.15,0,.22l-2.36,4.81c-.04.08-.12.13-.2.13h0Zm-246.44-.45h246.3l2.14-4.36h-250.6l2.16,4.36h0Z"/>
    </g>
    <g>
      <rect class="cls-4" x="366.48" y="305.98" width="251.33" height="4.81"/>
      <path class="cls-10" d="m617.8,311.01h-251.33c-.13,0-.23-.1-.23-.23v-4.81c0-.13.1-.23.23-.23h251.33c.13,0,.23.1.23.23v4.81c0,.13-.1.23-.23.23Zm-251.1-.45h250.87v-4.36h-250.87v4.36Z"/>
    </g>
    <path class="cls-8" d="m439.31,397.66h-35.23v35.23h35.23v-35.23Zm70.45-35.23h35.23v-35.23h-35.23v35.23Zm0,70.45h-35.23v35.23h35.23v-35.23Zm-35.23,70.45h-35.23v35.23h35.23v-35.23Zm35.23,105.68h35.23v-35.23h-35.23v35.23Zm0,70.45h35.23v-35.23h-35.23v35.23Zm35.23-140.9v35.23h35.23v-35.23h-35.23Zm-105.68,219.33h35.23v-113.65h-35.23v113.65Z"/>
  </g>
  <g>
    <g>
      <path class="cls-9" d="m452.69,94.41l-3.13-8.34,4.59-11.14,4.17,1.58c-1.63,5.25.28,9.34,2.96,12.33l-8.59,5.57Z"/>
      <path class="cls-6" d="m452.58,94.75l-3.26-8.68,4.72-11.42,4.57,1.73-.06.2c-1.36,4.37-.38,8.45,2.91,12.11l.18.19-9.04,5.87h0Zm-2.78-8.68l3.01,7.99,8.13-5.28c-3.21-3.68-4.18-7.76-2.89-12.15l-3.77-1.43-4.48,10.85h0Z"/>
    </g>
    <g>
      <path class="cls-1" d="m443.52,63.69h13.22c1.3,0,1.98,1.06,1.51,2.36l-8.68,24.12c-.47,1.3-1.91,2.36-3.21,2.36h-13.22c-1.3,0-1.98-1.06-1.51-2.36l8.68-24.12c.47-1.3,1.91-2.36,3.21-2.36Z"/>
      <path class="cls-10" d="m446.35,92.75h-13.22c-.68,0-1.24-.26-1.57-.74-.36-.51-.41-1.21-.15-1.93l8.68-24.12c.5-1.38,2.03-2.51,3.42-2.51h13.22c.68,0,1.24.26,1.57.74.36.51.41,1.21.15,1.93l-8.68,24.12c-.5,1.38-2.03,2.51-3.42,2.51Zm-2.83-28.84c-1.21,0-2.56.99-2.99,2.21l-8.68,24.12c-.21.59-.18,1.12.09,1.51.25.35.67.55,1.2.55h13.22c1.21,0,2.56-.99,2.99-2.21l8.68-24.12c.21-.59.18-1.12-.09-1.51-.25-.35-.67-.55-1.2-.55,0,0-13.22,0-13.22,0Z"/>
    </g>
    <g>
      <path class="cls-5" d="m454.84,106.2l-4.96,28.32,26.18,9.42c11.07,3.27,20.1-9.78,6.86-19.09-10.26-7.8-20.69-16.59-28.07-18.65h0Z"/>
      <path class="cls-10" d="m479.53,144.68c-1.12,0-2.31-.16-3.53-.53l-26.19-9.42c-.1-.04-.17-.14-.14-.25l4.96-28.32c0-.06.05-.12.1-.15s.12-.05.18-.03c6.21,1.74,14.41,8.08,23.08,14.79,1.68,1.3,3.38,2.62,5.07,3.9,7.03,4.95,7.6,10.72,5.79,14.47-1.47,3.05-4.94,5.54-9.32,5.54h0Zm-29.39-10.31l26,9.35c5.74,1.7,10.53-1.12,12.3-4.78,1.73-3.58,1.16-9.12-5.65-13.91-1.7-1.29-3.39-2.6-5.08-3.91-8.53-6.6-16.59-12.83-22.69-14.64l-4.88,27.89h0Z"/>
    </g>
    <g>
      <path class="cls-5" d="m487.58,127.48l-26.29-38.64-8.59,5.57,16.9,41.49c9.03,16.29,25.67,4.29,17.98-8.42Z"/>
      <path class="cls-10" d="m480.39,144.01h-.05c-2.44-.01-7.1-1.07-10.95-8.01l-16.91-41.51c-.04-.1,0-.22.09-.28l8.59-5.57c.1-.07.24-.04.31.06l26.29,38.64c2.43,4.02,2.68,8.33.69,11.85-1.69,2.97-4.77,4.82-8.05,4.82Zm-27.42-49.52l16.83,41.31c2.76,4.97,6.51,7.73,10.55,7.75h.04c3.12,0,6.06-1.75,7.66-4.59,1.91-3.37,1.66-7.51-.67-11.38l-26.17-38.45-8.24,5.35h0Z"/>
    </g>
    <g>
      <path class="cls-5" d="m578,380.4h-15.69c-10.53,0-18.73-5.11-21.51-7.9l-1.43,7.9h-6.53v-19.78h26.36c2.42,5.73,8.73,9.49,14.54,12.59,2.65,1.41,4.27,4.19,4.27,7.19h0Z"/>
      <path class="cls-10" d="m578,380.62h-15.69c-9.75,0-17.96-4.48-21.37-7.67l-1.35,7.49c-.02.11-.11.18-.22.18h-6.53c-.13,0-.23-.1-.23-.23v-19.78c0-.13.1-.23.23-.23h26.36c.09,0,.17.05.21.14,2.4,5.69,8.71,9.42,14.43,12.48,2.71,1.44,4.39,4.27,4.39,7.39,0,.13-.1.23-.23.23h0Zm-37.21-8.35c.06,0,.12.02.16.07,3.15,3.15,11.44,7.83,21.36,7.83h15.47c-.08-2.86-1.65-5.44-4.15-6.77-5.74-3.07-12.08-6.81-14.58-12.56h-25.99v19.33h6.12l1.4-7.72c.01-.08.08-.15.15-.18.02,0,.05,0,.07,0h0Z"/>
    </g>
    <g>
      <path class="cls-5" d="m628.06,352.73l-14.52,5.84s-.03.01-.05.02c-9.77,3.93-19.28,2.25-22.91.7l1.62,7.86-6.06,2.44-7.38-18.35,24.46-9.84c4.38,4.41,11.64,5.55,18.19,6.25,2.98.32,5.53,2.3,6.65,5.08h0Z"/>
      <path class="cls-10" d="m586.15,369.82s-.06,0-.09-.02c-.05-.02-.1-.07-.12-.12l-7.39-18.35c-.02-.05-.02-.12,0-.17s.07-.1.12-.12l24.46-9.84c.09-.04.18-.01.24.05,4.36,4.38,11.6,5.49,18.05,6.19,3.05.33,5.67,2.33,6.83,5.22.02.05.02.12,0,.17s-.07.1-.12.12l-14.56,5.86c-9.05,3.64-18.33,2.55-22.69.86l1.54,7.45c.02.11-.04.21-.14.25l-6.06,2.44s-.05.02-.09.02h0Zm-7.09-18.45l7.21,17.93,5.68-2.29-1.58-7.68c-.02-.08.01-.17.08-.22s.15-.06.23-.03c4.1,1.75,13.53,3,22.74-.7l14.35-5.77c-1.14-2.62-3.56-4.43-6.38-4.73-6.48-.7-13.74-1.81-18.21-6.21l-24.11,9.7Z"/>
    </g>
    <g>
      <polygon class="cls-10" points="523.3 264.79 578.77 351.24 603.23 341.4 541.94 220.38 523.3 264.79"/>
      <path class="cls-10" d="m578.68,351.52l-.1-.16-55.53-86.55,18.88-44.97.22.43,61.4,121.24-24.86,10h0Zm-55.13-86.75l55.3,86.2,24.06-9.68-60.95-120.37-18.41,43.85Z"/>
    </g>
    <g>
      <path class="cls-10" d="m543.38,225.77c-.94-9.94-11.57-20.76-23.19-20.76h-137.82c-5.16,33.49,9.71,56.02,42.03,56.02h86.17l22.25,99.47h26.36l-15.81-134.73h0Z"/>
      <path class="cls-10" d="m559.44,360.73h-26.79l-.04-.18-22.21-99.29h-85.99c-14.44,0-26.02-4.59-33.48-13.29-8.54-9.96-11.58-24.83-8.78-43l.03-.19h138.02c12.06,0,22.49,11.27,23.41,20.96l15.84,134.98h0Zm-26.43-.45h25.93l-15.78-134.49c-.9-9.51-11.13-20.56-22.96-20.56h-137.63c-2.73,17.95.28,32.62,8.7,42.44,7.37,8.59,18.83,13.13,33.13,13.13h86.35l.04.18,22.21,99.29h0Z"/>
    </g>
    <g>
      <path class="cls-5" d="m389.63,106.2l-7.25,98.81-25.68,76.6h29.68c18.95,0,35.47-12.88,40.1-31.25l14.36-45.35h14.01v-98.81c-17.71-5.14-40.2-9.35-65.22,0h0Z"/>
      <path class="cls-10" d="m386.38,281.83h-29.68c-.07,0-.14-.04-.18-.09-.04-.06-.05-.14-.03-.2l25.67-76.57,7.25-98.78c0-.09.06-.16.14-.19,25.32-9.46,48.23-4.97,65.36,0,.09.03.16.12.16.22v98.81c0,.13-.1.23-.23.23h-13.84l-14.31,45.19c-4.65,18.49-21.23,31.41-40.31,31.41h0Zm-29.37-.45h29.37c18.87,0,35.27-12.78,39.88-31.08l14.37-45.36c.03-.09.12-.16.22-.16h13.78v-98.41c-17.01-4.92-39.71-9.33-64.78,0l-7.24,98.66s0,.04-.01.05l-25.58,76.31h0Z"/>
    </g>
    <g>
      <path class="cls-4" d="m437.76,160.43l.94-58.08c-9.29-1.65-19.46-2.35-30.28-.88l29.34,58.96Z"/>
      <path class="cls-10" d="m437.76,160.65c-.09,0-.16-.05-.2-.13l-29.34-58.96c-.03-.06-.03-.14,0-.21.04-.06.09-.11.17-.12,9.69-1.32,19.62-1.03,30.35.88.11.02.19.11.18.23l-.94,58.08c0,.1-.08.19-.18.22-.02,0-.03,0-.05,0h0Zm-28.99-59.01l28.79,57.85.92-56.96c-10.5-1.85-20.22-2.14-29.71-.89h0Z"/>
    </g>
    <path class="cls-2" d="m386.38,281.83h-30l.1-.3,25.67-76.57,7.26-98.92.14-.05c25.32-9.46,48.23-4.97,65.36,0l-.13.43c-17.03-4.94-39.8-9.41-64.94-.05l-7.24,98.69v.03s-25.59,76.31-25.59,76.31h29.37c18.87,0,35.27-12.78,39.88-31.08l14.42-45.52h13.95v-76.14h.45v76.59h-14.07l-14.31,45.19c-4.65,18.49-21.23,31.41-40.31,31.41h0Z"/>
    <g>
      <g>
        <path class="cls-10" d="m431.98,45.11c-15.02-9.33-28.01.86-28.01,20.43,0,3.19.85,6.38,2.13,9.38-3.17,1.84-5.29,5.26-5.29,9.18,0,5.86,4.75,10.61,10.61,10.61,4.67,0,8.64-3.02,10.05-7.21,3.02-2.74,6.98-4.3,11.14-4.3,5.5,0,10.41-2.9,13.74-7.28,15.17-19.97.62-41.66-14.37-30.81h0Z"/>
        <path class="cls-10" d="m411.42,94.93c-5.97,0-10.84-4.86-10.84-10.84,0-3.78,2-7.32,5.24-9.28-1.38-3.28-2.07-6.4-2.07-9.28,0-10.44,3.8-18.79,10.15-22.33,5.23-2.9,11.64-2.33,18.08,1.63,5.67-4.04,11.9-3.75,16.3.75,3.04,3.11,4.76,7.86,4.72,13.03-.03,4.11-1.18,10.48-6.46,17.44-3.56,4.69-8.63,7.37-13.92,7.37-4.05,0-7.94,1.49-10.95,4.2-1.51,4.37-5.62,7.31-10.25,7.31h0Zm9.59-53.1c-2.45,0-4.78.59-6.9,1.77-6.21,3.45-9.92,11.65-9.92,21.93,0,2.88.71,6.01,2.11,9.29l.08.18-.17.1c-3.2,1.86-5.18,5.3-5.18,8.99,0,5.73,4.66,10.39,10.39,10.39,4.46,0,8.41-2.84,9.84-7.06l.02-.05.05-.04c3.1-2.81,7.11-4.36,11.29-4.36,5.14,0,10.08-2.62,13.55-7.19,8.8-11.59,7.49-24.04,1.78-29.88-4.26-4.36-10.33-4.59-15.84-.61l-.12.09-.13-.08c-3.71-2.3-7.4-3.46-10.85-3.46h0Z"/>
      </g>
      <g>
        <polygon class="cls-9" points="434.33 109.36 418.12 100.2 418.12 75.79 431.4 75.79 434.33 109.36"/>
        <path class="cls-6" d="m434.6,109.77l-16.7-9.43v-24.77h13.72l2.99,34.2Zm-16.25-9.69l15.73,8.88-2.87-32.94h-12.85v24.06h0Z"/>
      </g>
      <g>
        <path class="cls-9" d="m418.12,78.98h-.35c-2.09,0-3.91-1.69-4.08-3.78l-.1-1.31c-.15-1.86,1.08-3.41,2.83-3.72.21-.04.42-.06.65-.06.65,0,1.19.5,1.24,1.15l.28,3.53c1.57-.64,2.68-2.18,2.68-3.98v-3.06c.59-8.09,11.65-4.65,14.55-13.28,4.19,1.92,7.1,6.15,7.1,11.06v3.81c0,3.42-.32,6.83-.96,10.19-1.07,5.62-5.99,9.69-11.72,9.69l-12.13-10.25h0Z"/>
        <path class="cls-6" d="m430.24,89.46v-.45c5.61,0,10.44-4,11.49-9.51.64-3.34.96-6.75.96-10.15v-3.81c0-4.57-2.64-8.76-6.75-10.75-1.51,4.18-5,5.51-8.08,6.7-3.26,1.25-6.09,2.34-6.38,6.29v3.04c0,1.85-1.1,3.49-2.82,4.19l-.28.12-.31-3.84c-.04-.53-.49-.94-1.02-.94-.21,0-.41.02-.6.05-1.67.3-2.78,1.76-2.65,3.48l.1,1.31c.16,1.97,1.89,3.57,3.86,3.57h.35v.45h-.35c-2.2,0-4.13-1.79-4.31-3.99l-.1-1.31c-.16-1.96,1.11-3.62,3.01-3.96.22-.04.45-.06.69-.06.76,0,1.41.6,1.47,1.36l.26,3.21c1.38-.69,2.25-2.09,2.25-3.64v-3.06c.31-4.25,3.4-5.44,6.66-6.69,3.2-1.23,6.5-2.5,7.9-6.66l.08-.24.23.1c4.4,2.02,7.24,6.43,7.24,11.26v3.81c0,3.43-.32,6.87-.96,10.23-1.09,5.72-6.11,9.88-11.94,9.88h0Z"/>
      </g>
      <g>
        <path class="cls-6" d="m433.72,78.33c-.26,0-.53-.02-.79-.05-.12-.02-.21-.13-.19-.25s.13-.21.25-.19c.89.11,1.79.02,2.69-.28-.87-1.53-1.32-3.43-1.36-5.79,0-.13.09-.23.22-.23.13,0,.23.1.23.22.05,2.39.51,4.29,1.43,5.8.04.06.04.13.02.19-.02.06-.07.11-.13.14-.79.3-1.58.46-2.38.46h0Z"/>
        <path class="cls-10" d="m439.33,73.48c-.5,0-.91-.41-.91-.91v-1.63c0-.51.41-.91.91-.91s.91.41.91.91v1.63c0,.51-.41.91-.91.91Z"/>
        <path class="cls-10" d="m427.88,70.94v1.63c0,.51-.41.91-.91.91s-.91-.41-.91-.91v-1.63c0-.51.41-.91.91-.91s.91.41.91.91Z"/>
        <path class="cls-6" d="m440.86,67.04s-.04,0-.06,0l-3.07-.85c-.12-.03-.19-.16-.16-.28s.16-.19.28-.16l3.07.85c.12.03.19.16.16.28-.03.1-.12.17-.22.17h0Z"/>
        <path class="cls-6" d="m425.44,67.04c-.1,0-.19-.07-.22-.17-.03-.12.04-.24.16-.28l3.07-.85c.12-.03.24.04.28.16.03.12-.04.24-.16.28l-3.07.85s-.04,0-.06,0h0Z"/>
        <path class="cls-4" d="m429.6,80.27c1.76,3.48,6.09,3.71,7.26.58-2.33.16-4.75-.07-7.26-.58Z"/>
      </g>
    </g>
    <g>
      <polygon class="cls-4" points="418.12 94.39 413.83 100.9 420.43 116.6 429.55 107.74 437.03 115.71 437.03 102.19 433.09 95.19 429.75 100 418.12 94.39"/>
      <path class="cls-10" d="m420.43,116.83s-.03,0-.05,0c-.07-.01-.14-.06-.16-.14l-6.6-15.7c-.03-.07-.02-.15.02-.21l4.29-6.51c.06-.09.18-.13.29-.08l11.46,5.53,3.23-4.66c.05-.06.12-.1.19-.09.08,0,.15.05.18.11l3.94,7s.03.07.03.11v13.53c0,.09-.05.18-.14.21-.09.04-.18.01-.25-.05l-7.31-7.81-8.96,8.7s-.1.06-.16.06h0Zm-6.35-15.9l6.43,15.29,8.89-8.64s.11-.06.16-.06c.06,0,.12.03.16.07l7.08,7.56v-12.9l-3.73-6.63-3.13,4.52c-.06.09-.18.12-.28.08l-11.46-5.53-4.11,6.25h0Z"/>
    </g>
    <g>
      <path class="cls-5" d="m389.63,106.2c-13.78,8.11-12.62,22.04-7.7,35.29l15.77,50.55c2.93,7.54,10.18,12.51,18.27,12.51l47.57-2.77v-10.24l-43.14-4.01-13.23-60.37-17.53-20.96h0Z"/>
      <path class="cls-10" d="m415.98,204.78c-8.13,0-15.56-5.08-18.49-12.65l-15.77-50.57c-6.35-17.09-3.81-28.73,7.8-35.56.11-.06.24-.03.31.08.06.11.03.24-.08.31-11.39,6.7-13.87,18.15-7.6,35.02l15.77,50.56c2.86,7.38,10.12,12.35,18.05,12.35l47.34-2.76v-9.82l-42.94-4c-.1,0-.18-.08-.2-.18l-13.23-60.37c-.03-.12.05-.24.17-.27.13-.03.24.05.27.17l13.2,60.21,42.98,4c.12,0,.2.11.2.23v10.24c0,.12-.09.22-.21.23l-47.57,2.77h0Z"/>
    </g>
    <g>
      <g>
        <path class="cls-9" d="m463.53,191.55l15.05-1.82c4.08-.49,8.13,1.04,10.86,4.1l7.08,7.95h-13.37c-1.45,0-2.81-.69-3.66-1.86l-1.1-1.5-8.75,3.35h-6.12v-10.24h0Z"/>
        <path class="cls-6" d="m497.03,202.01h-13.87c-1.52,0-2.95-.73-3.84-1.95l-.99-1.36-8.67,3.31h-6.34v-10.66l15.25-1.85c4.14-.5,8.28,1.06,11.06,4.18l7.41,8.33h0Zm-18.55-3.85l1.19,1.64c.81,1.1,2.11,1.77,3.48,1.77h12.87l-6.75-7.58c-2.68-3.01-6.66-4.52-10.66-4.03l-14.85,1.8v9.81h5.85l8.87-3.4h0Z"/>
      </g>
      <path class="cls-6" d="m484.88,201.98c-.07,0-.14-.04-.19-.1l-4.03-6.18c-.07-.1-.04-.24.07-.31.1-.07.24-.04.31.07l4.03,6.18c.07.1.04.24-.07.31-.04.02-.08.04-.12.04h0Z"/>
      <path class="cls-6" d="m488.51,201.98c-.07,0-.14-.03-.18-.09l-4.31-6.18c-.07-.1-.05-.24.05-.32s.24-.05.32.05l4.31,6.18c.07.1.05.24-.05.32-.04.03-.09.04-.13.04h0Z"/>
      <path class="cls-6" d="m492.42,201.98c-.07,0-.13-.03-.18-.09l-4.87-6.18c-.08-.1-.06-.24.04-.32.1-.08.24-.06.32.04l4.87,6.18c.08.1.06.24-.04.32-.04.03-.09.05-.14.05h0Z"/>
    </g>
    <g>
      <path class="cls-1" d="m573.98,145.83h-67.55c-2.05,0-4.09,1.66-4.56,3.71l-11.99,51.76c-.04.16-.06.32-.08.48h-42.78c-.89,0-1.61.72-1.61,1.61s.72,1.61,1.61,1.61h113.26c2.05,0,4.09-1.66,4.56-3.71l11.99-51.76c.47-2.05-.8-3.71-2.85-3.71h0Z"/>
      <path class="cls-10" d="m560.28,205.23h-113.26c-1.01,0-1.84-.83-1.84-1.84s.83-1.84,1.84-1.84h42.58c.01-.11.04-.21.06-.31l11.99-51.76c.5-2.14,2.64-3.88,4.78-3.88h67.55c1.04,0,1.93.4,2.52,1.14.6.76.8,1.77.55,2.85l-11.99,51.76c-.5,2.14-2.64,3.88-4.78,3.88h0Zm-113.26-3.22c-.77,0-1.38.62-1.38,1.38s.62,1.38,1.38,1.38h113.26c1.94,0,3.9-1.58,4.35-3.53l11.99-51.76c.22-.94.05-1.82-.46-2.46-.5-.62-1.26-.96-2.16-.96h-67.55c-1.94,0-3.9,1.58-4.35,3.53l-11.99,51.76c-.03.14-.05.28-.07.46-.01.12-.11.2-.23.2h-42.78,0Z"/>
    </g>
    <g>
      <path class="cls-9" d="m459.93,69.98c1.14,1.1.92,4.18.57,5.33l-2,6.44c-.58,1.87-7.47,4.31-7.47,4.31l5.01-13.92s3.89-2.16,3.89-2.16Z"/>
      <path class="cls-6" d="m450.65,86.44l5.2-14.45,4.1-2.29.12.12c1.27,1.22.96,4.47.63,5.56l-2,6.44c-.6,1.93-6.89,4.2-7.61,4.46l-.45.16h0Zm5.57-14.14l-4.82,13.39c2.13-.79,6.46-2.66,6.88-4l2-6.44c.32-1.02.54-3.86-.4-4.98l-3.66,2.04h0Z"/>
    </g>
    <g>
      <path class="cls-9" d="m455.4,81.65h-3.2c-.74,0-1.26-.6-1.16-1.34.1-.74.78-1.34,1.52-1.34h3.2l-.36,2.68Z"/>
      <path class="cls-6" d="m455.4,81.88h-3.2c-.42,0-.8-.17-1.06-.46-.27-.3-.38-.7-.32-1.13.11-.85.89-1.54,1.75-1.54h3.2v.45h-3.2c-.63,0-1.21.51-1.29,1.15-.04.29.04.57.22.78.18.2.43.31.72.31h3.2v.45h0Z"/>
    </g>
    <g>
      <path class="cls-9" d="m457.26,78.97h-3.75c-.87,0-1.47-.7-1.36-1.57.12-.87.91-1.57,1.78-1.57h3.75l-.42,3.13h0Z"/>
      <path class="cls-6" d="m457.26,79.19h-3.75c-.48,0-.91-.19-1.21-.53-.3-.35-.43-.81-.37-1.29.13-.97,1.03-1.76,2-1.76h3.75v.45h-3.75c-.75,0-1.45.62-1.56,1.37-.05.36.05.69.26.93.21.24.52.38.87.38h3.75v.45h0Z"/>
    </g>
    <g>
      <path class="cls-9" d="m458.68,75.83h-3.07c-.92,0-1.56-.74-1.44-1.66s.96-1.66,1.88-1.66h2.08l.54,3.32h0Z"/>
      <path class="cls-6" d="m458.68,76.06h-3.07c-.51,0-.96-.2-1.28-.56-.32-.37-.46-.85-.39-1.36.14-1.02,1.08-1.86,2.11-1.86h2.08v.45h-2.08c-.81,0-1.55.66-1.66,1.47-.05.38.05.74.28,1,.23.26.56.41.93.41h3.07v.45h0Z"/>
    </g>
    <g>
      <path class="cls-9" d="m458.18,72.51h-1.26c-.92,0-1.56-.74-1.44-1.66s.96-1.66,1.88-1.66h1.26c.92,0,1.56.74,1.44,1.66l-1.88,1.66Z"/>
      <path class="cls-6" d="m458.18,72.74h-1.26c-.51,0-.96-.2-1.28-.56-.32-.37-.46-.85-.39-1.36.14-1.02,1.08-1.86,2.11-1.86h1.26c.51,0,.96.2,1.28.56.32.37.46.85.39,1.36l-.45-.06c.05-.38-.05-.74-.28-1-.23-.26-.56-.41-.93-.41h-1.26c-.81,0-1.55.66-1.66,1.47-.05.38.05.74.28,1,.23.26.56.41.93.41h1.26s0,.45,0,.45Z"/>
    </g>
  </g>
  <g>
    <g>
      <polygon class="cls-7" points="297.29 615.9 4.21 615.9 44.06 567.13 257.44 567.13 297.29 615.9"/>
      <path class="cls-8" d="m297.29,616.13H4.21c-.09,0-.17-.05-.2-.13-.04-.08-.03-.17.03-.24l39.85-48.77c.05-.05.11-.08.18-.08h213.38c.07,0,.13.03.18.08l39.85,48.77c.05.07.07.16.03.24-.04.08-.12.13-.2.13h0Zm-292.61-.45h292.13l-39.48-48.32H44.17l-39.48,48.32h0Z"/>
    </g>
    <g>
      <path class="cls-12" d="m162.38,586.16c-3.45,0-6.26-2.81-6.26-6.26,0-.25.2-.45.45-.45s.45.2.45.45c0,2.95,2.4,5.36,5.36,5.36s5.36-2.4,5.36-5.36v-5.81c0-.25.2-.45.45-.45s.45.2.45.45v5.81c0,3.45-2.81,6.26-6.26,6.26Z"/>
      <path class="cls-12" d="m150.77,586.16c-3.45,0-6.26-2.81-6.26-6.26,0-.25.2-.45.45-.45s.45.2.45.45c0,2.95,2.4,5.36,5.36,5.36s5.36-2.4,5.36-5.36v-5.81c0-.25.2-.45.45-.45s.45.2.45.45v5.81c0,3.45-2.81,6.26-6.26,6.26Z"/>
      <path class="cls-12" d="m139.16,586.16c-3.45,0-6.26-2.81-6.26-6.26,0-.25.2-.45.45-.45s.45.2.45.45c0,2.95,2.4,5.36,5.36,5.36s5.36-2.4,5.36-5.36v-5.81c0-.25.2-.45.45-.45s.45.2.45.45v5.81c0,3.45-2.81,6.26-6.26,6.26Z"/>
      <path class="cls-12" d="m127.55,586.16c-3.45,0-6.26-2.81-6.26-6.26,0-.25.2-.45.45-.45s.45.2.45.45c0,2.95,2.4,5.36,5.36,5.36s5.36-2.4,5.36-5.36v-5.81c0-.25.2-.45.45-.45s.45.2.45.45v5.81c0,3.45-2.81,6.26-6.26,6.26Z"/>
      <path class="cls-12" d="m115.93,586.16c-3.45,0-6.26-2.81-6.26-6.26,0-.25.2-.45.45-.45s.45.2.45.45c0,2.95,2.4,5.36,5.36,5.36s5.36-2.4,5.36-5.36v-5.81c0-.25.2-.45.45-.45s.45.2.45.45v5.81c0,3.45-2.81,6.26-6.26,6.26Z"/>
      <path class="cls-12" d="m104.32,586.16c-3.45,0-6.26-2.81-6.26-6.26,0-.25.2-.45.45-.45s.45.2.45.45c0,2.95,2.4,5.36,5.36,5.36s5.36-2.4,5.36-5.36v-5.81c0-.25.2-.45.45-.45s.45.2.45.45v5.81c0,3.45-2.81,6.26-6.26,6.26Z"/>
      <path class="cls-12" d="m92.73,586.16c-3.45,0-6.26-2.81-6.26-6.26,0-.25.2-.45.45-.45s.45.2.45.45c0,2.95,2.4,5.36,5.36,5.36s5.36-2.4,5.36-5.36v-5.81c0-.25.2-.45.45-.45s.45.2.45.45v5.81c0,3.45-2.81,6.26-6.26,6.26Z"/>
      <path class="cls-12" d="m81.15,586.16c-3.45,0-6.26-2.81-6.26-6.26,0-.25.2-.45.45-.45s.45.2.45.45c0,2.95,2.4,5.36,5.36,5.36s5.36-2.4,5.36-5.36v-5.81c0-.25.2-.45.45-.45s.45.2.45.45v5.81c0,3.45-2.81,6.26-6.26,6.26Z"/>
      <path class="cls-12" d="m69.56,586.16c-3.45,0-6.26-2.81-6.26-6.26,0-.25.2-.45.45-.45s.45.2.45.45c0,2.95,2.4,5.36,5.36,5.36s5.36-2.4,5.36-5.36v-5.81c0-.25.2-.45.45-.45s.45.2.45.45v5.81c0,3.45-2.81,6.26-6.26,6.26Z"/>
      <path class="cls-12" d="m57.98,586.16c-3.45,0-6.26-2.81-6.26-6.26,0-.25.2-.45.45-.45s.45.2.45.45c0,2.95,2.4,5.36,5.36,5.36s5.36-2.4,5.36-5.36v-5.81c0-.25.2-.45.45-.45s.45.2.45.45v5.81c0,3.45-2.81,6.26-6.26,6.26Z"/>
      <path class="cls-12" d="m46.39,586.16c-3.45,0-6.26-2.81-6.26-6.26v-5.81c0-.25.2-.45.45-.45s.45.2.45.45v5.81c0,2.95,2.4,5.36,5.36,5.36s5.36-2.4,5.36-5.36v-5.81c0-.25.2-.45.45-.45s.45.2.45.45v5.81c0,3.45-2.81,6.26-6.26,6.26Z"/>
      <path class="cls-12" d="m162.38,609.39c-3.45,0-6.26-2.81-6.26-6.26,0-.25.2-.45.45-.45s.45.2.45.45c0,2.95,2.4,5.36,5.36,5.36s5.36-2.4,5.36-5.36v-5.81c0-.25.2-.45.45-.45s.45.2.45.45v5.81c0,3.45-2.81,6.26-6.26,6.26Z"/>
      <path class="cls-12" d="m173.97,609.39c-3.45,0-6.26-2.81-6.26-6.26,0-.25.2-.45.45-.45s.45.2.45.45c0,2.95,2.4,5.36,5.36,5.36s5.36-2.4,5.36-5.36v-5.81c0-.25.2-.45.45-.45s.45.2.45.45v5.81c0,3.45-2.81,6.26-6.26,6.26Z"/>
      <path class="cls-12" d="m150.77,609.39c-3.45,0-6.26-2.81-6.26-6.26,0-.25.2-.45.45-.45s.45.2.45.45c0,2.95,2.4,5.36,5.36,5.36s5.36-2.4,5.36-5.36v-5.81c0-.25.2-.45.45-.45s.45.2.45.45v5.81c0,3.45-2.81,6.26-6.26,6.26Z"/>
      <path class="cls-12" d="m139.16,609.39c-3.45,0-6.26-2.81-6.26-6.26,0-.25.2-.45.45-.45s.45.2.45.45c0,2.95,2.4,5.36,5.36,5.36s5.36-2.4,5.36-5.36v-5.81c0-.25.2-.45.45-.45s.45.2.45.45v5.81c0,3.45-2.81,6.26-6.26,6.26Z"/>
      <path class="cls-12" d="m127.55,609.39c-3.45,0-6.26-2.81-6.26-6.26,0-.25.2-.45.45-.45s.45.2.45.45c0,2.95,2.4,5.36,5.36,5.36s5.36-2.4,5.36-5.36v-5.81c0-.25.2-.45.45-.45s.45.2.45.45v5.81c0,3.45-2.81,6.26-6.26,6.26Z"/>
      <path class="cls-12" d="m115.93,609.39c-3.45,0-6.26-2.81-6.26-6.26,0-.25.2-.45.45-.45s.45.2.45.45c0,2.95,2.4,5.36,5.36,5.36s5.36-2.4,5.36-5.36v-5.81c0-.25.2-.45.45-.45s.45.2.45.45v5.81c0,3.45-2.81,6.26-6.26,6.26Z"/>
      <path class="cls-12" d="m104.32,609.39c-3.45,0-6.26-2.81-6.26-6.26,0-.25.2-.45.45-.45s.45.2.45.45c0,2.95,2.4,5.36,5.36,5.36s5.36-2.4,5.36-5.36v-5.81c0-.25.2-.45.45-.45s.45.2.45.45v5.81c0,3.45-2.81,6.26-6.26,6.26Z"/>
      <path class="cls-12" d="m92.73,609.39c-3.45,0-6.26-2.81-6.26-6.26,0-.25.2-.45.45-.45s.45.2.45.45c0,2.95,2.4,5.36,5.36,5.36s5.36-2.4,5.36-5.36v-5.81c0-.25.2-.45.45-.45s.45.2.45.45v5.81c0,3.45-2.81,6.26-6.26,6.26Z"/>
      <path class="cls-12" d="m81.15,609.39c-3.45,0-6.26-2.81-6.26-6.26,0-.25.2-.45.45-.45s.45.2.45.45c0,2.95,2.4,5.36,5.36,5.36s5.36-2.4,5.36-5.36v-5.81c0-.25.2-.45.45-.45s.45.2.45.45v5.81c0,3.45-2.81,6.26-6.26,6.26Z"/>
      <path class="cls-12" d="m69.56,609.39c-3.45,0-6.26-2.81-6.26-6.26,0-.25.2-.45.45-.45s.45.2.45.45c0,2.95,2.4,5.36,5.36,5.36s5.36-2.4,5.36-5.36v-5.81c0-.25.2-.45.45-.45s.45.2.45.45v5.81c0,3.45-2.81,6.26-6.26,6.26Z"/>
      <path class="cls-12" d="m57.98,609.39c-3.45,0-6.26-2.81-6.26-6.26,0-.25.2-.45.45-.45s.45.2.45.45c0,2.95,2.4,5.36,5.36,5.36s5.36-2.4,5.36-5.36v-5.81c0-.25.2-.45.45-.45s.45.2.45.45v5.81c0,3.45-2.81,6.26-6.26,6.26Z"/>
      <path class="cls-12" d="m46.39,609.39c-3.45,0-6.26-2.81-6.26-6.26v-5.81c0-.25.2-.45.45-.45s.45.2.45.45v5.81c0,2.95,2.4,5.36,5.36,5.36s5.36-2.4,5.36-5.36v-5.81c0-.25.2-.45.45-.45s.45.2.45.45v5.81c0,3.45-2.81,6.26-6.26,6.26Z"/>
      <path class="cls-12" d="m34.78,609.39c-3.45,0-6.26-2.81-6.26-6.26v-5.81c0-.25.2-.45.45-.45s.45.2.45.45v5.81c0,2.95,2.4,5.36,5.36,5.36s5.36-2.4,5.36-5.36c0-.25.2-.45.45-.45s.45.2.45.45c0,3.45-2.81,6.26-6.26,6.26Z"/>
      <path class="cls-12" d="m168.16,597.77c-3.45,0-6.26-2.81-6.26-6.26,0-.25.2-.45.45-.45s.45.2.45.45c0,2.95,2.4,5.36,5.36,5.36s5.36-2.4,5.36-5.36v-5.81c0-.25.2-.45.45-.45s.45.2.45.45v5.81c0,3.45-2.81,6.26-6.26,6.26Z"/>
      <path class="cls-12" d="m156.55,597.77c-3.45,0-6.26-2.81-6.26-6.26,0-.25.2-.45.45-.45s.45.2.45.45c0,2.95,2.4,5.36,5.36,5.36s5.36-2.4,5.36-5.36v-5.81c0-.25.2-.45.45-.45s.45.2.45.45v5.81c0,3.45-2.81,6.26-6.26,6.26Z"/>
      <path class="cls-12" d="m144.94,597.77c-3.45,0-6.26-2.81-6.26-6.26,0-.25.2-.45.45-.45s.45.2.45.45c0,2.95,2.4,5.36,5.36,5.36s5.36-2.4,5.36-5.36v-5.81c0-.25.2-.45.45-.45s.45.2.45.45v5.81c0,3.45-2.81,6.26-6.26,6.26Z"/>
      <path class="cls-12" d="m133.32,597.77c-3.45,0-6.26-2.81-6.26-6.26,0-.25.2-.45.45-.45s.45.2.45.45c0,2.95,2.4,5.36,5.36,5.36s5.36-2.4,5.36-5.36v-5.81c0-.25.2-.45.45-.45s.45.2.45.45v5.81c0,3.45-2.81,6.26-6.26,6.26Z"/>
      <path class="cls-12" d="m121.71,597.77c-3.45,0-6.26-2.81-6.26-6.26,0-.25.2-.45.45-.45s.45.2.45.45c0,2.95,2.4,5.36,5.36,5.36s5.36-2.4,5.36-5.36v-5.81c0-.25.2-.45.45-.45s.45.2.45.45v5.81c0,3.45-2.81,6.26-6.26,6.26Z"/>
      <path class="cls-12" d="m110.09,597.77c-3.45,0-6.26-2.81-6.26-6.26,0-.25.2-.45.45-.45s.45.2.45.45c0,2.95,2.4,5.36,5.36,5.36s5.36-2.4,5.36-5.36v-5.81c0-.25.2-.45.45-.45s.45.2.45.45v5.81c0,3.45-2.81,6.26-6.26,6.26Z"/>
      <path class="cls-12" d="m98.51,597.77c-3.45,0-6.26-2.81-6.26-6.26,0-.25.2-.45.45-.45s.45.2.45.45c0,2.95,2.4,5.36,5.36,5.36s5.36-2.4,5.36-5.36v-5.81c0-.25.2-.45.45-.45s.45.2.45.45v5.81c0,3.45-2.81,6.26-6.26,6.26Z"/>
      <path class="cls-12" d="m86.93,597.77c-3.45,0-6.26-2.81-6.26-6.26,0-.25.2-.45.45-.45s.45.2.45.45c0,2.95,2.4,5.36,5.36,5.36s5.36-2.4,5.36-5.36v-5.81c0-.25.2-.45.45-.45s.45.2.45.45v5.81c0,3.45-2.81,6.26-6.26,6.26Z"/>
      <path class="cls-12" d="m255.14,586.16c-3.45,0-6.26-2.81-6.26-6.26,0-.25.2-.45.45-.45s.45.2.45.45c0,2.95,2.4,5.36,5.36,5.36s5.36-2.4,5.36-5.36v-5.81c0-.25.2-.45.45-.45s.45.2.45.45v5.81c0,3.45-2.81,6.26-6.26,6.26Z"/>
      <path class="cls-12" d="m243.52,586.16c-3.45,0-6.26-2.81-6.26-6.26,0-.25.2-.45.45-.45s.45.2.45.45c0,2.95,2.4,5.36,5.36,5.36s5.36-2.4,5.36-5.36v-5.81c0-.25.2-.45.45-.45s.45.2.45.45v5.81c0,3.45-2.81,6.26-6.26,6.26Z"/>
      <path class="cls-12" d="m231.91,586.16c-3.45,0-6.26-2.81-6.26-6.26,0-.25.2-.45.45-.45s.45.2.45.45c0,2.95,2.4,5.36,5.36,5.36s5.36-2.4,5.36-5.36v-5.81c0-.25.2-.45.45-.45s.45.2.45.45v5.81c0,3.45-2.81,6.26-6.26,6.26Z"/>
      <path class="cls-12" d="m220.3,586.16c-3.45,0-6.26-2.81-6.26-6.26,0-.25.2-.45.45-.45s.45.2.45.45c0,2.95,2.4,5.36,5.36,5.36s5.36-2.4,5.36-5.36v-5.81c0-.25.2-.45.45-.45s.45.2.45.45v5.81c0,3.45-2.81,6.26-6.26,6.26Z"/>
      <path class="cls-12" d="m208.69,586.16c-3.45,0-6.26-2.81-6.26-6.26,0-.25.2-.45.45-.45s.45.2.45.45c0,2.95,2.4,5.36,5.36,5.36s5.36-2.4,5.36-5.36v-5.81c0-.25.2-.45.45-.45s.45.2.45.45v5.81c0,3.45-2.81,6.26-6.26,6.26Z"/>
      <path class="cls-12" d="m197.07,586.16c-3.45,0-6.26-2.81-6.26-6.26,0-.25.2-.45.45-.45s.45.2.45.45c0,2.95,2.4,5.36,5.36,5.36s5.36-2.4,5.36-5.36v-5.81c0-.25.2-.45.45-.45s.45.2.45.45v5.81c0,3.45-2.81,6.26-6.26,6.26Z"/>
      <path class="cls-12" d="m185.49,586.16c-3.45,0-6.26-2.81-6.26-6.26,0-.25.2-.45.45-.45s.45.2.45.45c0,2.95,2.4,5.36,5.36,5.36s5.36-2.4,5.36-5.36v-5.81c0-.25.2-.45.45-.45s.45.2.45.45v5.81c0,3.45-2.81,6.26-6.26,6.26Z"/>
      <path class="cls-12" d="m173.9,586.16c-3.45,0-6.26-2.81-6.26-6.26,0-.25.2-.45.45-.45s.45.2.45.45c0,2.95,2.4,5.36,5.36,5.36s5.36-2.4,5.36-5.36v-5.81c0-.25.2-.45.45-.45s.45.2.45.45v5.81c0,3.45-2.81,6.26-6.26,6.26Z"/>
      <path class="cls-12" d="m255.14,609.39c-3.45,0-6.26-2.81-6.26-6.26,0-.25.2-.45.45-.45s.45.2.45.45c0,2.95,2.4,5.36,5.36,5.36s5.36-2.4,5.36-5.36v-5.81c0-.25.2-.45.45-.45s.45.2.45.45v5.81c0,3.45-2.81,6.26-6.26,6.26Z"/>
      <path class="cls-12" d="m266.72,609.39c-3.45,0-6.26-2.81-6.26-6.26,0-.25.2-.45.45-.45s.45.2.45.45c0,2.95,2.4,5.36,5.36,5.36s5.36-2.4,5.36-5.36v-5.81c0-.25.2-.45.45-.45s.45.2.45.45v5.81c0,3.45-2.81,6.26-6.26,6.26Z"/>
      <path class="cls-12" d="m243.52,609.39c-3.45,0-6.26-2.81-6.26-6.26,0-.25.2-.45.45-.45s.45.2.45.45c0,2.95,2.4,5.36,5.36,5.36s5.36-2.4,5.36-5.36v-5.81c0-.25.2-.45.45-.45s.45.2.45.45v5.81c0,3.45-2.81,6.26-6.26,6.26Z"/>
      <path class="cls-12" d="m231.91,609.39c-3.45,0-6.26-2.81-6.26-6.26,0-.25.2-.45.45-.45s.45.2.45.45c0,2.95,2.4,5.36,5.36,5.36s5.36-2.4,5.36-5.36v-5.81c0-.25.2-.45.45-.45s.45.2.45.45v5.81c0,3.45-2.81,6.26-6.26,6.26Z"/>
      <path class="cls-12" d="m220.3,609.39c-3.45,0-6.26-2.81-6.26-6.26,0-.25.2-.45.45-.45s.45.2.45.45c0,2.95,2.4,5.36,5.36,5.36s5.36-2.4,5.36-5.36v-5.81c0-.25.2-.45.45-.45s.45.2.45.45v5.81c0,3.45-2.81,6.26-6.26,6.26Z"/>
      <path class="cls-12" d="m208.69,609.39c-3.45,0-6.26-2.81-6.26-6.26,0-.25.2-.45.45-.45s.45.2.45.45c0,2.95,2.4,5.36,5.36,5.36s5.36-2.4,5.36-5.36v-5.81c0-.25.2-.45.45-.45s.45.2.45.45v5.81c0,3.45-2.81,6.26-6.26,6.26Z"/>
      <path class="cls-12" d="m197.07,609.39c-3.45,0-6.26-2.81-6.26-6.26,0-.25.2-.45.45-.45s.45.2.45.45c0,2.95,2.4,5.36,5.36,5.36s5.36-2.4,5.36-5.36v-5.81c0-.25.2-.45.45-.45s.45.2.45.45v5.81c0,3.45-2.81,6.26-6.26,6.26Z"/>
      <path class="cls-12" d="m185.49,609.39c-3.45,0-6.26-2.81-6.26-6.26,0-.25.2-.45.45-.45s.45.2.45.45c0,2.95,2.4,5.36,5.36,5.36s5.36-2.4,5.36-5.36v-5.81c0-.25.2-.45.45-.45s.45.2.45.45v5.81c0,3.45-2.81,6.26-6.26,6.26Z"/>
      <path class="cls-12" d="m260.92,597.77c-3.45,0-6.26-2.81-6.26-6.26,0-.25.2-.45.45-.45s.45.2.45.45c0,2.95,2.4,5.36,5.36,5.36s5.36-2.4,5.36-5.36v-5.81c0-.25.2-.45.45-.45s.45.2.45.45v5.81c0,3.45-2.81,6.26-6.26,6.26Z"/>
      <path class="cls-12" d="m249.31,597.77c-3.45,0-6.26-2.81-6.26-6.26,0-.25.2-.45.45-.45s.45.2.45.45c0,2.95,2.4,5.36,5.36,5.36s5.36-2.4,5.36-5.36v-5.81c0-.25.2-.45.45-.45s.45.2.45.45v5.81c0,3.45-2.81,6.26-6.26,6.26Z"/>
      <path class="cls-12" d="m237.69,597.77c-3.45,0-6.26-2.81-6.26-6.26,0-.25.2-.45.45-.45s.45.2.45.45c0,2.95,2.4,5.36,5.36,5.36s5.36-2.4,5.36-5.36v-5.81c0-.25.2-.45.45-.45s.45.2.45.45v5.81c0,3.45-2.81,6.26-6.26,6.26Z"/>
      <path class="cls-12" d="m226.08,597.77c-3.45,0-6.26-2.81-6.26-6.26,0-.25.2-.45.45-.45s.45.2.45.45c0,2.95,2.4,5.36,5.36,5.36s5.36-2.4,5.36-5.36v-5.81c0-.25.2-.45.45-.45s.45.2.45.45v5.81c0,3.45-2.81,6.26-6.26,6.26Z"/>
      <path class="cls-12" d="m214.47,597.77c-3.45,0-6.26-2.81-6.26-6.26,0-.25.2-.45.45-.45s.45.2.45.45c0,2.95,2.4,5.36,5.36,5.36s5.36-2.4,5.36-5.36v-5.81c0-.25.2-.45.45-.45s.45.2.45.45v5.81c0,3.45-2.81,6.26-6.26,6.26Z"/>
      <path class="cls-12" d="m202.85,597.77c-3.45,0-6.26-2.81-6.26-6.26,0-.25.2-.45.45-.45s.45.2.45.45c0,2.95,2.4,5.36,5.36,5.36s5.36-2.4,5.36-5.36v-5.81c0-.25.2-.45.45-.45s.45.2.45.45v5.81c0,3.45-2.81,6.26-6.26,6.26Z"/>
      <path class="cls-12" d="m191.27,597.77c-3.45,0-6.26-2.81-6.26-6.26,0-.25.2-.45.45-.45s.45.2.45.45c0,2.95,2.4,5.36,5.36,5.36s5.36-2.4,5.36-5.36v-5.81c0-.25.2-.45.45-.45s.45.2.45.45v5.81c0,3.45-2.81,6.26-6.26,6.26Z"/>
      <path class="cls-12" d="m179.68,597.77c-3.45,0-6.26-2.81-6.26-6.26,0-.25.2-.45.45-.45s.45.2.45.45c0,2.95,2.4,5.36,5.36,5.36s5.36-2.4,5.36-5.36v-5.81c0-.25.2-.45.45-.45s.45.2.45.45v5.81c0,3.45-2.81,6.26-6.26,6.26Z"/>
      <path class="cls-12" d="m75.34,597.77c-3.45,0-6.26-2.81-6.26-6.26,0-.25.2-.45.45-.45s.45.2.45.45c0,2.95,2.4,5.36,5.36,5.36s5.36-2.4,5.36-5.36v-5.81c0-.25.2-.45.45-.45s.45.2.45.45v5.81c0,3.45-2.81,6.26-6.26,6.26Z"/>
      <path class="cls-12" d="m63.76,597.77c-3.45,0-6.26-2.81-6.26-6.26,0-.25.2-.45.45-.45s.45.2.45.45c0,2.95,2.4,5.36,5.36,5.36s5.36-2.4,5.36-5.36v-5.81c0-.25.2-.45.45-.45s.45.2.45.45v5.81c0,3.45-2.81,6.26-6.26,6.26h0Z"/>
      <path class="cls-12" d="m52.17,597.77c-3.45,0-6.26-2.81-6.26-6.26,0-.25.2-.45.45-.45s.45.2.45.45c0,2.95,2.4,5.36,5.36,5.36s5.36-2.4,5.36-5.36v-5.81c0-.25.2-.45.45-.45s.45.2.45.45v5.81c0,3.45-2.81,6.26-6.26,6.26Z"/>
      <path class="cls-12" d="m40.56,597.77c-3.45,0-6.26-2.81-6.26-6.26v-5.81c0-.25.2-.45.45-.45s.45.2.45.45v5.81c0,2.95,2.4,5.36,5.36,5.36s5.36-2.4,5.36-5.36v-5.81c0-.25.2-.45.45-.45s.45.2.45.45v5.81c0,3.45-2.81,6.26-6.26,6.26Z"/>
    </g>
    <g>
      <polygon class="cls-4" points="42.16 562.78 259.34 562.78 257.56 567.13 43.94 567.13 42.16 562.78"/>
      <path class="cls-10" d="m257.56,567.35H43.94c-.09,0-.18-.05-.21-.14l-1.79-4.35c-.03-.07-.02-.15.02-.21.04-.06.11-.1.19-.1h217.19c.08,0,.14.04.19.1.04.06.05.14.02.21l-1.79,4.35c-.04.09-.12.14-.21.14h0Zm-213.47-.45h213.31l1.6-3.9H42.5l1.6,3.9h0Z"/>
    </g>
    <g>
      <rect class="cls-4" x="4.21" y="620.63" width="293.08" height="136.93"/>
      <path class="cls-10" d="m297.29,757.79H4.21c-.13,0-.23-.1-.23-.23v-136.93c0-.13.1-.23.23-.23h293.08c.13,0,.23.1.23.23v136.93c0,.13-.1.23-.23.23h0Zm-292.86-.45h292.63v-136.48H4.44v136.48h0Z"/>
    </g>
    <g>
      <rect class="cls-10" x="4.21" y="625.35" width="293.08" height="8.51"/>
      <path class="cls-10" d="m297.52,634.09H3.99v-8.96h293.53v8.96h0Zm-293.08-.45h292.63v-8.06H4.44v8.06h0Z"/>
    </g>
    <g>
      <g>
        <rect class="cls-4" x=".23" y="615.9" width="301.05" height="4.73"/>
        <path class="cls-10" d="m301.28,620.85H.23c-.13,0-.23-.1-.23-.23v-4.73c0-.13.1-.23.23-.23h301.05c.13,0,.23.1.23.23v4.73c0,.13-.1.23-.23.23Zm-300.83-.45h300.6v-4.27H.45v4.27Z"/>
      </g>
      <g>
        <polygon class="cls-7" points=".23 620.63 301.28 620.63 297.29 625.35 4.21 625.35 .23 620.63"/>
        <path class="cls-10" d="m297.29,625.58H4.21c-.07,0-.13-.03-.17-.08l-3.99-4.73c-.06-.07-.07-.16-.03-.24.04-.08.12-.13.2-.13h301.05c.09,0,.17.05.2.13s.02.17-.03.24l-3.99,4.73s-.1.08-.17.08Zm-292.98-.45h292.87l3.6-4.27H.71s3.6,4.27,3.6,4.27Z"/>
      </g>
    </g>
    <g>
      <g>
        <rect class="cls-10" x=".23" y="753.16" width="301.05" height="4.73"/>
        <path class="cls-10" d="m301.5,758.12H0v-5.18h301.5v5.18Zm-301.05-.45h300.6v-4.27H.45v4.27Z"/>
      </g>
      <g>
        <polygon class="cls-7" points=".23 753.17 301.28 753.17 297.29 748.44 4.21 748.44 .23 753.17"/>
        <path class="cls-8" d="m301.28,753.39H.23c-.09,0-.17-.05-.2-.13-.04-.08-.02-.17.03-.24l3.99-4.73s.1-.08.17-.08h293.08c.07,0,.13.03.17.08l3.99,4.73c.06.07.07.16.03.24-.04.08-.12.13-.2.13h0Zm-300.57-.45h300.08l-3.6-4.27H4.32l-3.6,4.27h0Z"/>
      </g>
    </g>
    <g>
      <rect class="cls-7" x="86.64" y="670.04" width="127.43" height="78.41"/>
      <path class="cls-8" d="m214.08,748.67h-127.44c-.13,0-.23-.1-.23-.23v-78.41c0-.13.1-.23.23-.23h127.43c.13,0,.23.1.23.23v78.41c0,.13-.1.23-.23.23h0Zm-127.21-.45h126.98v-77.96h-126.99v77.96h0Z"/>
    </g>
    <rect class="cls-8" x="127.88" y="662.6" width="44.97" height="85.85"/>
    <g>
      <path class="cls-4" d="m134.34,723.98c0,1.27,1.03,2.3,2.3,2.3s2.3-1.03,2.3-2.3-1.03-2.3-2.3-2.3-2.3,1.03-2.3,2.3Z"/>
      <path class="cls-10" d="m136.64,726.51c-1.39,0-2.53-1.13-2.53-2.53s1.13-2.53,2.53-2.53,2.53,1.13,2.53,2.53-1.13,2.53-2.53,2.53Zm0-4.6c-1.15,0-2.07.93-2.07,2.07s.93,2.07,2.07,2.07,2.07-.93,2.07-2.07-.93-2.07-2.07-2.07Z"/>
    </g>
    <g>
      <rect class="cls-7" x="134.29" y="667.28" width="32.14" height="49.48"/>
      <path class="cls-8" d="m166.43,716.99h-32.14c-.13,0-.23-.1-.23-.23v-49.48c0-.13.1-.23.23-.23h32.14c.13,0,.23.1.23.23v49.48c0,.13-.1.23-.23.23Zm-31.92-.45h31.69v-49.03h-31.69v49.03Z"/>
    </g>
    <g>
      <g>
        <path class="cls-4" d="m195.31,641.59v29.21c0,3.52,2.85,6.37,6.37,6.37s6.37-2.85,6.37-6.37v-29.21h-12.73Zm-25.46,29.21c0,3.52,2.85,6.37,6.37,6.37s6.37-2.85,6.37-6.37v-29.21h-12.73v29.21h0Zm-25.46,0c0,3.52,2.85,6.37,6.37,6.37s6.37-2.85,6.37-6.37v-29.21h-12.73v29.21h0Zm-25.46,0c0,3.52,2.85,6.37,6.37,6.37s6.37-2.85,6.37-6.37v-29.21h-12.73v29.21h0Zm-25.46,0c0,3.52,2.85,6.37,6.37,6.37s6.37-2.85,6.37-6.37v-29.21h-12.73v29.21h0Z"/>
        <path class="cls-10" d="m201.68,677.39c-3.63,0-6.59-2.96-6.59-6.59v-29.21c0-.13.1-.23.23-.23h12.73c.13,0,.23.1.23.23v29.21c0,3.63-2.96,6.59-6.59,6.59h0Zm-6.14-35.57v28.98c0,3.39,2.76,6.14,6.14,6.14s6.14-2.76,6.14-6.14v-28.98h-12.28Zm-19.32,35.57c-3.63,0-6.59-2.96-6.59-6.59v-29.21c0-.13.1-.23.23-.23h12.73c.13,0,.23.1.23.23v29.21c0,3.63-2.96,6.59-6.59,6.59h0Zm-6.14-35.57v28.98c0,3.39,2.76,6.14,6.14,6.14s6.14-2.76,6.14-6.14v-28.98h-12.28Zm-19.32,35.57c-3.63,0-6.59-2.96-6.59-6.59v-29.21c0-.13.1-.23.23-.23h12.73c.13,0,.23.1.23.23v29.21c0,3.63-2.96,6.59-6.59,6.59h0Zm-6.14-35.57v28.98c0,3.39,2.76,6.14,6.14,6.14s6.14-2.76,6.14-6.14v-28.98h-12.28Zm-19.32,35.57c-3.63,0-6.59-2.96-6.59-6.59v-29.21c0-.13.1-.23.23-.23h12.73c.13,0,.23.1.23.23v29.21c0,3.63-2.96,6.59-6.59,6.59h0Zm-6.14-35.57v28.98c0,3.39,2.76,6.14,6.14,6.14s6.14-2.76,6.14-6.14v-28.98h-12.28Zm-19.32,35.57c-3.63,0-6.59-2.96-6.59-6.59v-29.21c0-.13.1-.23.23-.23h12.73c.13,0,.23.1.23.23v29.21c0,3.63-2.96,6.59-6.59,6.59h0Zm-6.14-35.57v28.98c0,3.39,2.76,6.14,6.14,6.14s6.14-2.76,6.14-6.14v-28.98h-12.28Z"/>
      </g>
      <g>
        <path class="cls-4" d="m208.04,641.59v29.21c0,3.66,3.08,6.59,6.79,6.35,3.38-.22,5.94-3.18,5.94-6.57v-16.26c0-7.03-5.7-12.73-12.73-12.73h0Zm-25.46,29.21c0,3.52,2.85,6.37,6.37,6.37s6.37-2.85,6.37-6.37v-29.21h-12.73v29.21h0Zm-25.46,0c0,3.52,2.85,6.37,6.37,6.37s6.37-2.85,6.37-6.37v-29.21h-12.73v29.21h0Zm-25.46,0c0,3.52,2.85,6.37,6.37,6.37s6.37-2.85,6.37-6.37v-29.21h-12.73v29.21h0Zm-25.46,0c0,3.52,2.85,6.37,6.37,6.37s6.37-2.85,6.37-6.37v-29.21h-12.73v29.21h0Zm-25.46-16.48v16.48c0,3.66,3.08,6.59,6.79,6.35,3.38-.22,5.94-3.18,5.94-6.57v-28.99c-7.03,0-12.73,5.7-12.73,12.73h0Z"/>
        <path class="cls-10" d="m214.4,677.39c-1.68,0-3.26-.62-4.5-1.78-1.33-1.24-2.08-2.99-2.08-4.81v-29.21c0-.13.1-.23.23-.23,7.14,0,12.96,5.81,12.96,12.96v16.26c0,3.58-2.7,6.57-6.15,6.8-.15,0-.3.01-.44.01h0Zm-6.13-35.57v28.98c0,1.71.69,3.31,1.94,4.48,1.25,1.17,2.89,1.76,4.61,1.65,3.22-.21,5.73-2.99,5.73-6.34v-16.26c0-6.82-5.49-12.38-12.28-12.5h0Zm-121.18,35.57c-1.68,0-3.26-.62-4.5-1.78-1.33-1.24-2.08-2.99-2.08-4.81v-16.48c0-7.14,5.81-12.96,12.96-12.96.13,0,.23.1.23.23v28.99c0,3.58-2.7,6.57-6.15,6.8-.15,0-.3.01-.44.01h0Zm6.15-35.57c-6.79.12-12.28,5.68-12.28,12.5v16.48c0,1.71.69,3.31,1.94,4.48,1.25,1.17,2.89,1.76,4.61,1.65,3.22-.21,5.73-2.99,5.73-6.34v-28.76h0Zm95.71,35.57c-3.63,0-6.59-2.96-6.59-6.59v-29.21c0-.13.1-.23.23-.23h12.73c.13,0,.23.1.23.23v29.21c0,3.63-2.96,6.59-6.59,6.59h0Zm-6.14-35.57v28.98c0,3.39,2.76,6.14,6.14,6.14s6.14-2.76,6.14-6.14v-28.98h-12.28Zm-19.32,35.57c-3.63,0-6.59-2.96-6.59-6.59v-29.21c0-.13.1-.23.23-.23h12.73c.13,0,.23.1.23.23v29.21c0,3.63-2.96,6.59-6.59,6.59h0Zm-6.14-35.57v28.98c0,3.39,2.76,6.14,6.14,6.14s6.14-2.76,6.14-6.14v-28.98h-12.28Zm-19.32,35.57c-3.63,0-6.59-2.96-6.59-6.59v-29.21c0-.13.1-.23.23-.23h12.73c.13,0,.23.1.23.23v29.21c0,3.63-2.96,6.59-6.59,6.59h0Zm-6.14-35.57v28.98c0,3.39,2.76,6.14,6.14,6.14s6.14-2.76,6.14-6.14v-28.98h-12.28Zm-19.32,35.57c-3.63,0-6.59-2.96-6.59-6.59v-29.21c0-.13.1-.23.23-.23h12.73c.13,0,.23.1.23.23v29.21c0,3.63-2.96,6.59-6.59,6.59h0Zm-6.14-35.57v28.98c0,3.39,2.76,6.14,6.14,6.14s6.14-2.76,6.14-6.14v-28.98h-12.28Z"/>
      </g>
    </g>
    <g>
      <g>
        <g>
          <g>
            <rect class="cls-4" x="30.6" y="652.74" width="34.22" height="4.08"/>
            <path class="cls-10" d="m64.82,657.04H30.6c-.13,0-.23-.1-.23-.23v-4.08c0-.13.1-.23.23-.23h34.22c.13,0,.23.1.23.23v4.08c0,.13-.1.23-.23.23Zm-33.99-.45h33.77v-3.63H30.83v3.63Z"/>
          </g>
          <g>
            <polygon class="cls-4" points="64.82 656.82 30.6 656.82 32.62 660.9 62.8 660.9 64.82 656.82"/>
            <path class="cls-10" d="m62.8,661.13h-30.17c-.09,0-.16-.05-.2-.13l-2.02-4.08c-.04-.07-.03-.15,0-.22s.11-.11.19-.11h34.22c.08,0,.15.04.19.11s.05.15,0,.22l-2.02,4.08c-.04.08-.12.13-.2.13h.01Zm-30.03-.45h29.89l1.8-3.63H30.97s1.8,3.63,1.8,3.63Z"/>
          </g>
        </g>
        <g>
          <rect class="cls-7" x="32.62" y="660.9" width="30.17" height="58.59"/>
          <path class="cls-8" d="m62.8,719.71h-30.17c-.13,0-.23-.1-.23-.23v-58.59c0-.13.1-.23.23-.23h30.17c.13,0,.23.1.23.23v58.59c0,.13-.1.23-.23.23Zm-29.95-.45h29.72v-58.14h-29.72v58.14Z"/>
        </g>
        <path class="cls-8" d="m48.21,666.45v11.12h9.03v-11.12h-9.03Zm0,35.36h9.03v-11.11h-9.03v11.11Zm-1.01-23.22h-9.03v11.11h9.03v-11.11Zm0,12.12h-9.03v11.11h9.03v-11.11Zm1.01,23.24h-1.01v-11.12h-9.03v11.12h19.08v-11.12h-9.03v11.12h0Zm-1.01-47.49h-9.03v11.12h9.03v-11.12Zm1.01,23.24h9.03v-11.11h-9.03v11.11Z"/>
      </g>
      <g>
        <g>
          <g>
            <rect class="cls-4" x="236.69" y="652.74" width="34.22" height="4.08"/>
            <path class="cls-10" d="m270.9,657.04h-34.22c-.13,0-.23-.1-.23-.23v-4.08c0-.13.1-.23.23-.23h34.22c.13,0,.23.1.23.23v4.08c0,.13-.1.23-.23.23Zm-34-.45h33.77v-3.63h-33.77v3.63Z"/>
          </g>
          <g>
            <polygon class="cls-4" points="270.9 656.82 236.69 656.82 238.71 660.9 268.88 660.9 270.9 656.82"/>
            <path class="cls-10" d="m268.88,661.13h-30.17c-.09,0-.16-.05-.2-.13l-2.02-4.08c-.04-.07-.03-.15,0-.22s.11-.11.19-.11h34.22c.08,0,.15.04.19.11.04.07.05.15,0,.22l-2.02,4.08c-.04.08-.12.13-.2.13h0Zm-30.03-.45h29.89l1.8-3.63h-33.49l1.8,3.63h0Z"/>
          </g>
        </g>
        <g>
          <rect class="cls-7" x="238.71" y="660.9" width="30.17" height="58.59"/>
          <path class="cls-8" d="m268.88,719.71h-30.17c-.13,0-.23-.1-.23-.23v-58.59c0-.13.1-.23.23-.23h30.17c.13,0,.23.1.23.23v58.59c0,.13-.1.23-.23.23h0Zm-29.95-.45h29.72v-58.14h-29.72v58.14Z"/>
        </g>
        <path class="cls-8" d="m254.3,666.45v11.12h9.03v-11.12h-9.03Zm0,35.36h9.03v-11.11h-9.03v11.11Zm-1.01-23.22h-9.03v11.11h9.03v-11.11Zm0,12.12h-9.03v11.11h9.03v-11.11Zm1.01,23.24h-1.01v-11.12h-9.03v11.12h19.08v-11.12h-9.03v11.12h0Zm-1.01-47.49h-9.03v11.12h9.03v-11.12Zm1.01,23.24h9.03v-11.11h-9.03v11.11Z"/>
      </g>
    </g>
  </g>
  <g>
    <g>
      <path class="cls-12" d="m408.3,657.67c10.51,0,19.02-8.54,18.99-19.05-.04-10.49-8.7-18.92-19.19-18.92h-2.15v-7.41c0-6.64-5.38-12.02-12.02-12.02-2.64,0-4.78-2.14-4.78-4.78v-6.88c0-8.8-7.07-16.07-15.87-16.1-7.09-.02-13.1,4.58-15.19,10.97-.97,2.98-3.67,5.05-6.8,5.15-10.89,0-19.71,8.82-19.71,19.71v11.35h-1.95c-10.49,0-19.16,8.43-19.19,18.92-.04,10.52,8.48,19.05,18.99,19.05h78.88,0Z"/>
      <path class="cls-8" d="m408.3,657.9h-78.88c-5.15,0-9.98-2.01-13.61-5.65-3.63-3.64-5.62-8.48-5.61-13.63.04-10.56,8.75-19.14,19.42-19.14h1.73v-11.13c0-10.99,8.94-19.94,19.94-19.94,2.99-.09,5.64-2.1,6.58-4.99,2.18-6.66,8.34-11.12,15.35-11.12h.06c8.87.03,16.09,7.35,16.09,16.32v6.88c0,2.51,2.04,4.55,4.55,4.55,6.75,0,12.25,5.5,12.25,12.25v7.18h1.93c10.67,0,19.38,8.59,19.42,19.14.02,5.15-1.97,9.98-5.61,13.63-3.63,3.64-8.46,5.65-13.61,5.65h0Zm-78.67-37.97c-10.42,0-18.93,8.39-18.97,18.7-.02,5.02,1.93,9.75,5.47,13.31,3.54,3.56,8.27,5.52,13.29,5.52h78.88c5.02,0,9.74-1.96,13.29-5.52,3.54-3.56,5.49-8.28,5.47-13.31-.04-10.31-8.55-18.7-18.97-18.7h-2.38v-7.63c0-6.51-5.29-11.8-11.8-11.8-2.76,0-5.01-2.25-5.01-5.01v-6.88c0-8.72-7.02-15.84-15.64-15.87h-.05c-6.81,0-12.81,4.34-14.92,10.81-1.01,3.07-3.82,5.2-7,5.3-10.75,0-19.49,8.74-19.49,19.48v11.58h-2.18,0Z"/>
    </g>
    <path class="cls-7" d="m368.86,758.34c-.25,0-.45-.2-.45-.45v-155.38c0-.25.2-.45.45-.45s.45.2.45.45v155.38c0,.25-.2.45-.45.45Z"/>
    <path class="cls-7" d="m368.86,618.43c-.12,0-.23-.05-.32-.13l-17.51-17.51c-.18-.18-.18-.46,0-.64s.46-.18.64,0l17.51,17.51c.18.18.18.46,0,.64-.09.09-.2.13-.32.13h0Z"/>
    <path class="cls-7" d="m368.86,647.38c-.12,0-.23-.05-.32-.13l-25.06-25.06c-.18-.18-.18-.46,0-.64s.46-.18.64,0l25.06,25.06c.18.18.18.46,0,.64-.09.09-.2.13-.32.13h0Z"/>
    <path class="cls-7" d="m327.05,645.48c-.12,0-.23-.05-.32-.13-.18-.18-.18-.46,0-.64l7.68-7.68c.09-.09.2-.13.32-.13h24.55c.25,0,.45.2.45.45s-.2.45-.45.45h-24.37l-7.55,7.55c-.09.09-.2.13-.32.13h0Z"/>
    <path class="cls-7" d="m334.73,637.8c-.12,0-.23-.05-.32-.13l-7.68-7.68c-.18-.18-.18-.46,0-.64s.46-.18.64,0l7.68,7.68c.18.18.18.46,0,.64-.09.09-.2.13-.32.13h0Z"/>
    <path class="cls-7" d="m368.86,633.01c-.12,0-.23-.05-.32-.13-.18-.18-.18-.46,0-.64l17.51-17.51c.18-.18.46-.18.64,0,.18.18.18.46,0,.64l-17.51,17.51c-.09.09-.2.13-.32.13h0Z"/>
    <path class="cls-7" d="m368.86,647.38c-.12,0-.23-.05-.32-.13-.18-.18-.18-.46,0-.64l25.06-25.06c.18-.18.46-.18.64,0s.18.46,0,.64l-25.06,25.06c-.09.09-.2.13-.32.13h0Z"/>
  </g>
  <g>
    <path class="cls-12" d="m304.12,757.89c-22.96,0-32.58-15.95-26.01-26.44,2.49-3.98,7.79-5.46,12.4-4.54,4.6.92,8.6,3.68,12.45,6.36-4.59-3.89-5.83-11.18-2.79-16.37s10.01-7.67,15.65-5.57c2.42.9,4.47,2.6,5.93,4.71l.78.27c.33-1.85,1.01-3.64,2.04-5.23,2.8-4.32,8.06-6.91,13.19-6.51,4.76.37,9.09,3.13,12.32,6.64s5.54,7.77,7.81,11.97c2.02,3.75,5.37,8.13,9.49,7.01,4.92-1.33,5.36-9.29,10.24-10.79,4.12-1.27,7.77,3.12,9.19,7.2s2.32,8.91,6.04,11.09c4.22,2.48,9.46.09,14.3-.67,7.12-1.14,14.42,1.49,20.31,5.64s10.61,9.72,15.25,15.22h-138.58Z"/>
    <path class="cls-8" d="m443.19,758.12h-139.06c-12.19,0-22.01-4.6-26.28-12.3-2.68-4.84-2.66-10.12.08-14.49,2.34-3.75,7.54-5.66,12.63-4.64,3.94.79,7.47,2.93,10.66,5.1-3.29-4.14-3.92-10.42-1.24-15,3.08-5.25,10.22-7.79,15.92-5.67,2.37.88,4.44,2.52,6,4.73l.47.16c.36-1.84,1.04-3.54,2.02-5.05,2.83-4.36,8.22-7.02,13.4-6.61,4.37.34,8.8,2.73,12.47,6.71,3.28,3.56,5.6,7.86,7.84,12.02,2.02,3.74,5.26,7.98,9.23,6.9,2.39-.65,3.68-2.9,5.03-5.28,1.33-2.33,2.69-4.73,5.19-5.5,4.07-1.25,7.91,2.85,9.46,7.34.24.69.47,1.42.69,2.13,1.1,3.48,2.23,7.08,5.24,8.84,3.1,1.82,6.86.93,10.5.07,1.2-.28,2.44-.58,3.64-.77,6.52-1.04,13.79.97,20.48,5.67,5.96,4.19,10.71,9.82,15.3,15.26l.31.37h0Zm-155.38-31.25c-3.97,0-7.66,1.75-9.5,4.7-2.64,4.22-2.66,9.34-.06,14.03,4.19,7.56,13.86,12.07,25.88,12.07h138.09c-4.48-5.31-9.13-10.75-14.9-14.81-6.58-4.63-13.74-6.62-20.14-5.6-1.18.19-2.42.48-3.61.76-3.72.88-7.58,1.79-10.84-.12-3.17-1.85-4.32-5.54-5.45-9.1-.22-.7-.45-1.43-.69-2.11-1.48-4.29-5.11-8.22-8.91-7.05-2.33.72-3.66,3.04-4.94,5.29-1.34,2.36-2.73,4.8-5.31,5.5-4.26,1.15-7.65-3.24-9.74-7.12-2.23-4.14-4.54-8.41-7.77-11.93-3.59-3.9-7.92-6.24-12.18-6.57-5.03-.4-10.24,2.18-12.98,6.4-1,1.53-1.67,3.26-2,5.14l-.05.26-1.1-.38-.04-.06c-1.51-2.17-3.52-3.77-5.83-4.63-5.51-2.05-12.4.41-15.37,5.47-2.97,5.07-1.74,12.29,2.74,16.08l-.28.36c-3.62-2.53-7.73-5.4-12.36-6.33-.89-.18-1.78-.26-2.66-.26h0Z"/>
  </g>
  <g>
    <path class="cls-12" d="m816.02,757.89c1.61-5.05,9.85-21.77,13.82-25.28,1.7-1.5,3.62-2.83,5.83-3.33s4.73-.04,6.28,1.62c2.38,2.56,1.61,6.67.27,9.89,1.4-5.29,5.52-9.79,10.67-11.64.75-.27,1.53-.49,2.33-.45,2.43.13,4.11,2.76,4.1,5.19,0,2.44-1.23,4.68-2.41,6.8,2.57-7.06,7.81-13.1,14.43-16.65,6.62-3.54,14.56-4.55,21.86-2.78,5.02,1.22,10.07,4.11,11.9,8.94.17.44.3.89.4,1.34h1.13c3.58-1.94,7.5-3.23,11.53-3.72,5.42-.66,11.99.76,14.06,5.81,1.49,3.63-.02,7.94-2.69,10.82-2.67,2.88-6.3,4.64-9.85,6.32,4.64-1.52,9.83-1.29,14.33.63,1.37.59,2.75,1.4,3.4,2.74.65,1.34.2,3.28-1.22,3.75h-120.17,0Z"/>
    <path class="cls-8" d="m936.22,758.12h-120.52l.09-.29c1.54-4.82,9.82-21.78,13.89-25.38,2.11-1.87,4-2.94,5.93-3.38,2.46-.56,5.01.1,6.49,1.68,1.57,1.69,1.79,3.96,1.48,6.06,2.02-3.59,5.31-6.46,9.21-7.87.7-.25,1.54-.51,2.42-.46,2.59.14,4.32,2.91,4.32,5.42,0,.35-.03.69-.07,1.03,2.88-4.62,6.97-8.51,11.76-11.07,6.66-3.56,14.68-4.59,22.02-2.8,6.03,1.47,10.43,4.78,12.05,9.08.14.39.27.79.37,1.2h.89c3.67-1.98,7.56-3.23,11.57-3.72,5.62-.69,12.22.89,14.3,5.95,1.6,3.88-.22,8.35-2.73,11.06-2.18,2.35-5.05,3.99-7.82,5.36,4.07-.82,8.42-.4,12.23,1.23,1.15.49,2.78,1.33,3.52,2.85.4.82.42,1.85.06,2.7-.28.67-.78,1.16-1.41,1.36h-.04s0,.01,0,.01Zm-119.89-.45h119.82c.48-.17.87-.56,1.1-1.1.31-.73.29-1.62-.05-2.33-.67-1.38-2.2-2.16-3.29-2.63-4.43-1.89-9.59-2.12-14.17-.63l-.17-.42c3.33-1.59,7.1-3.38,9.78-6.27,2.41-2.6,4.16-6.88,2.64-10.58-1.99-4.84-8.38-6.33-13.83-5.67-3.97.48-7.82,1.73-11.46,3.69l-.05.03h-1.37l-.04-.17c-.1-.45-.23-.89-.4-1.31-2.23-5.91-8.95-8.12-11.74-8.8-7.23-1.76-15.14-.75-21.7,2.76-5.11,2.74-9.41,7-12.27,12.05-.46,1.62-1.31,3.12-2.08,4.5l-.41-.18c.56-1.55,1.26-3.05,2.07-4.49.21-.73.33-1.47.33-2.24,0-2.3-1.56-4.84-3.89-4.96-.79-.05-1.58.19-2.24.43-4.35,1.57-7.92,5-9.74,9.22-.23.86-.53,1.65-.79,2.3l-.43-.14c.21-.79.48-1.56.8-2.3.65-2.39.87-5.36-1.01-7.38-1.37-1.47-3.75-2.08-6.06-1.55-1.85.42-3.68,1.47-5.73,3.28-3.94,3.49-11.91,19.74-13.66,24.89h0Z"/>
  </g>
  <g>
    <g>
      <polygon class="cls-7" points="871.2 562.78 639.48 562.78 679.33 514.01 831.35 514.01 871.2 562.78"/>
      <path class="cls-8" d="m871.2,563.01h-231.72c-.09,0-.17-.05-.2-.13-.04-.08-.03-.17.03-.24l39.85-48.77c.04-.05.11-.08.18-.08h152.02c.07,0,.13.03.18.08l39.85,48.77c.05.07.07.16.03.24-.04.08-.12.13-.2.13h0Zm-231.25-.45h230.77l-39.48-48.32h-151.81l-39.48,48.32h0Z"/>
    </g>
    <g>
      <path class="cls-12" d="m795.99,534.45c-3.45,0-6.26-2.81-6.26-6.26,0-.25.2-.45.45-.45s.45.2.45.45c0,2.95,2.4,5.36,5.36,5.36s5.36-2.4,5.36-5.36v-5.81c0-.25.2-.45.45-.45s.45.2.45.45v5.81c0,3.45-2.81,6.26-6.26,6.26Z"/>
      <path class="cls-12" d="m784.38,534.45c-3.45,0-6.26-2.81-6.26-6.26,0-.25.2-.45.45-.45s.45.2.45.45c0,2.95,2.4,5.36,5.36,5.36s5.36-2.4,5.36-5.36v-5.81c0-.25.2-.45.45-.45s.45.2.45.45v5.81c0,3.45-2.81,6.26-6.26,6.26Z"/>
      <path class="cls-12" d="m772.77,534.45c-3.45,0-6.26-2.81-6.26-6.26,0-.25.2-.45.45-.45s.45.2.45.45c0,2.95,2.4,5.36,5.36,5.36s5.36-2.4,5.36-5.36v-5.81c0-.25.2-.45.45-.45s.45.2.45.45v5.81c0,3.45-2.81,6.26-6.26,6.26Z"/>
      <path class="cls-12" d="m761.15,534.45c-3.45,0-6.26-2.81-6.26-6.26,0-.25.2-.45.45-.45s.45.2.45.45c0,2.95,2.4,5.36,5.36,5.36s5.36-2.4,5.36-5.36v-5.81c0-.25.2-.45.45-.45s.45.2.45.45v5.81c0,3.45-2.81,6.26-6.26,6.26Z"/>
      <path class="cls-12" d="m749.54,534.45c-3.45,0-6.26-2.81-6.26-6.26,0-.25.2-.45.45-.45s.45.2.45.45c0,2.95,2.4,5.36,5.36,5.36s5.36-2.4,5.36-5.36v-5.81c0-.25.2-.45.45-.45s.45.2.45.45v5.81c0,3.45-2.81,6.26-6.26,6.26Z"/>
      <path class="cls-12" d="m737.92,534.45c-3.45,0-6.26-2.81-6.26-6.26,0-.25.2-.45.45-.45s.45.2.45.45c0,2.95,2.4,5.36,5.36,5.36s5.36-2.4,5.36-5.36v-5.81c0-.25.2-.45.45-.45s.45.2.45.45v5.81c0,3.45-2.81,6.26-6.26,6.26Z"/>
      <path class="cls-12" d="m726.34,534.45c-3.45,0-6.26-2.81-6.26-6.26,0-.25.2-.45.45-.45s.45.2.45.45c0,2.95,2.4,5.36,5.36,5.36s5.36-2.4,5.36-5.36v-5.81c0-.25.2-.45.45-.45s.45.2.45.45v5.81c0,3.45-2.81,6.26-6.26,6.26Z"/>
      <path class="cls-12" d="m714.75,534.45c-3.45,0-6.26-2.81-6.26-6.26,0-.25.2-.45.45-.45s.45.2.45.45c0,2.95,2.4,5.36,5.36,5.36s5.36-2.4,5.36-5.36v-5.81c0-.25.2-.45.45-.45s.45.2.45.45v5.81c0,3.45-2.81,6.26-6.26,6.26Z"/>
      <path class="cls-12" d="m703.17,534.45c-3.45,0-6.26-2.81-6.26-6.26,0-.25.2-.45.45-.45s.45.2.45.45c0,2.95,2.4,5.36,5.36,5.36s5.36-2.4,5.36-5.36v-5.81c0-.25.2-.45.45-.45s.45.2.45.45v5.81c0,3.45-2.81,6.26-6.26,6.26Z"/>
      <path class="cls-12" d="m691.59,534.45c-3.45,0-6.26-2.81-6.26-6.26,0-.25.2-.45.45-.45s.45.2.45.45c0,2.95,2.4,5.36,5.36,5.36s5.36-2.4,5.36-5.36v-5.81c0-.25.2-.45.45-.45s.45.2.45.45v5.81c0,3.45-2.81,6.26-6.26,6.26Z"/>
      <path class="cls-12" d="m680,534.45c-3.45,0-6.26-2.81-6.26-6.26v-5.81c0-.25.2-.45.45-.45s.45.2.45.45v5.81c0,2.95,2.4,5.36,5.36,5.36s5.36-2.4,5.36-5.36v-5.81c0-.25.2-.45.45-.45s.45.2.45.45v5.81c0,3.45-2.81,6.26-6.26,6.26Z"/>
      <path class="cls-12" d="m795.99,557.68c-3.45,0-6.26-2.81-6.26-6.26,0-.25.2-.45.45-.45s.45.2.45.45c0,2.95,2.4,5.36,5.36,5.36s5.36-2.4,5.36-5.36v-5.81c0-.25.2-.45.45-.45s.45.2.45.45v5.81c0,3.45-2.81,6.26-6.26,6.26Z"/>
      <path class="cls-12" d="m807.58,557.68c-3.45,0-6.26-2.81-6.26-6.26,0-.25.2-.45.45-.45s.45.2.45.45c0,2.95,2.4,5.36,5.36,5.36s5.36-2.4,5.36-5.36v-5.81c0-.25.2-.45.45-.45s.45.2.45.45v5.81c0,3.45-2.81,6.26-6.26,6.26Z"/>
      <path class="cls-12" d="m784.38,557.68c-3.45,0-6.26-2.81-6.26-6.26,0-.25.2-.45.45-.45s.45.2.45.45c0,2.95,2.4,5.36,5.36,5.36s5.36-2.4,5.36-5.36v-5.81c0-.25.2-.45.45-.45s.45.2.45.45v5.81c0,3.45-2.81,6.26-6.26,6.26Z"/>
      <path class="cls-12" d="m772.77,557.68c-3.45,0-6.26-2.81-6.26-6.26,0-.25.2-.45.45-.45s.45.2.45.45c0,2.95,2.4,5.36,5.36,5.36s5.36-2.4,5.36-5.36v-5.81c0-.25.2-.45.45-.45s.45.2.45.45v5.81c0,3.45-2.81,6.26-6.26,6.26Z"/>
      <path class="cls-12" d="m761.15,557.68c-3.45,0-6.26-2.81-6.26-6.26,0-.25.2-.45.45-.45s.45.2.45.45c0,2.95,2.4,5.36,5.36,5.36s5.36-2.4,5.36-5.36v-5.81c0-.25.2-.45.45-.45s.45.2.45.45v5.81c0,3.45-2.81,6.26-6.26,6.26Z"/>
      <path class="cls-12" d="m749.54,557.68c-3.45,0-6.26-2.81-6.26-6.26,0-.25.2-.45.45-.45s.45.2.45.45c0,2.95,2.4,5.36,5.36,5.36s5.36-2.4,5.36-5.36v-5.81c0-.25.2-.45.45-.45s.45.2.45.45v5.81c0,3.45-2.81,6.26-6.26,6.26Z"/>
      <path class="cls-12" d="m737.92,557.68c-3.45,0-6.26-2.81-6.26-6.26,0-.25.2-.45.45-.45s.45.2.45.45c0,2.95,2.4,5.36,5.36,5.36s5.36-2.4,5.36-5.36v-5.81c0-.25.2-.45.45-.45s.45.2.45.45v5.81c0,3.45-2.81,6.26-6.26,6.26Z"/>
      <path class="cls-12" d="m726.34,557.68c-3.45,0-6.26-2.81-6.26-6.26,0-.25.2-.45.45-.45s.45.2.45.45c0,2.95,2.4,5.36,5.36,5.36s5.36-2.4,5.36-5.36v-5.81c0-.25.2-.45.45-.45s.45.2.45.45v5.81c0,3.45-2.81,6.26-6.26,6.26Z"/>
      <path class="cls-12" d="m714.75,557.68c-3.45,0-6.26-2.81-6.26-6.26,0-.25.2-.45.45-.45s.45.2.45.45c0,2.95,2.4,5.36,5.36,5.36s5.36-2.4,5.36-5.36v-5.81c0-.25.2-.45.45-.45s.45.2.45.45v5.81c0,3.45-2.81,6.26-6.26,6.26Z"/>
      <path class="cls-12" d="m703.17,557.68c-3.45,0-6.26-2.81-6.26-6.26,0-.25.2-.45.45-.45s.45.2.45.45c0,2.95,2.4,5.36,5.36,5.36s5.36-2.4,5.36-5.36v-5.81c0-.25.2-.45.45-.45s.45.2.45.45v5.81c0,3.45-2.81,6.26-6.26,6.26Z"/>
      <path class="cls-12" d="m691.59,557.68c-3.45,0-6.26-2.81-6.26-6.26,0-.25.2-.45.45-.45s.45.2.45.45c0,2.95,2.4,5.36,5.36,5.36s5.36-2.4,5.36-5.36v-5.81c0-.25.2-.45.45-.45s.45.2.45.45v5.81c0,3.45-2.81,6.26-6.26,6.26Z"/>
      <path class="cls-12" d="m680,557.68c-3.45,0-6.26-2.81-6.26-6.26v-5.81c0-.25.2-.45.45-.45s.45.2.45.45v5.81c0,2.95,2.4,5.36,5.36,5.36s5.36-2.4,5.36-5.36v-5.81c0-.25.2-.45.45-.45s.45.2.45.45v5.81c0,3.45-2.81,6.26-6.26,6.26Z"/>
      <path class="cls-12" d="m668.38,557.68c-3.45,0-6.26-2.81-6.26-6.26v-5.81c0-.25.2-.45.45-.45s.45.2.45.45v5.81c0,2.95,2.4,5.36,5.36,5.36s5.36-2.4,5.36-5.36c0-.25.2-.45.45-.45s.45.2.45.45c0,3.45-2.81,6.26-6.26,6.26Z"/>
      <path class="cls-12" d="m801.77,546.07c-3.45,0-6.26-2.81-6.26-6.26,0-.25.2-.45.45-.45s.45.2.45.45c0,2.95,2.4,5.36,5.36,5.36s5.36-2.4,5.36-5.36v-5.81c0-.25.2-.45.45-.45s.45.2.45.45v5.81c0,3.45-2.81,6.26-6.26,6.26Z"/>
      <path class="cls-12" d="m790.16,546.07c-3.45,0-6.26-2.81-6.26-6.26,0-.25.2-.45.45-.45s.45.2.45.45c0,2.95,2.4,5.36,5.36,5.36s5.36-2.4,5.36-5.36v-5.81c0-.25.2-.45.45-.45s.45.2.45.45v5.81c0,3.45-2.81,6.26-6.26,6.26Z"/>
      <path class="cls-12" d="m778.54,546.07c-3.45,0-6.26-2.81-6.26-6.26,0-.25.2-.45.45-.45s.45.2.45.45c0,2.95,2.4,5.36,5.36,5.36s5.36-2.4,5.36-5.36v-5.81c0-.25.2-.45.45-.45s.45.2.45.45v5.81c0,3.45-2.81,6.26-6.26,6.26Z"/>
      <path class="cls-12" d="m766.93,546.07c-3.45,0-6.26-2.81-6.26-6.26,0-.25.2-.45.45-.45s.45.2.45.45c0,2.95,2.4,5.36,5.36,5.36s5.36-2.4,5.36-5.36v-5.81c0-.25.2-.45.45-.45s.45.2.45.45v5.81c0,3.45-2.81,6.26-6.26,6.26Z"/>
      <path class="cls-12" d="m755.31,546.07c-3.45,0-6.26-2.81-6.26-6.26,0-.25.2-.45.45-.45s.45.2.45.45c0,2.95,2.4,5.36,5.36,5.36s5.36-2.4,5.36-5.36v-5.81c0-.25.2-.45.45-.45s.45.2.45.45v5.81c0,3.45-2.81,6.26-6.26,6.26Z"/>
      <path class="cls-12" d="m743.7,546.07c-3.45,0-6.26-2.81-6.26-6.26,0-.25.2-.45.45-.45s.45.2.45.45c0,2.95,2.4,5.36,5.36,5.36s5.36-2.4,5.36-5.36v-5.81c0-.25.2-.45.45-.45s.45.2.45.45v5.81c0,3.45-2.81,6.26-6.26,6.26Z"/>
      <path class="cls-12" d="m732.12,546.07c-3.45,0-6.26-2.81-6.26-6.26,0-.25.2-.45.45-.45s.45.2.45.45c0,2.95,2.4,5.36,5.36,5.36s5.36-2.4,5.36-5.36v-5.81c0-.25.2-.45.45-.45s.45.2.45.45v5.81c0,3.45-2.81,6.26-6.26,6.26Z"/>
      <path class="cls-12" d="m720.53,546.07c-3.45,0-6.26-2.81-6.26-6.26,0-.25.2-.45.45-.45s.45.2.45.45c0,2.95,2.4,5.36,5.36,5.36s5.36-2.4,5.36-5.36v-5.81c0-.25.2-.45.45-.45s.45.2.45.45v5.81c0,3.45-2.81,6.26-6.26,6.26Z"/>
      <path class="cls-12" d="m830.68,534.45c-3.45,0-6.26-2.81-6.26-6.26,0-.25.2-.45.45-.45s.45.2.45.45c0,2.95,2.4,5.36,5.36,5.36s5.36-2.4,5.36-5.36v-5.81c0-.25.2-.45.45-.45s.45.2.45.45v5.81c0,3.45-2.81,6.26-6.26,6.26Z"/>
      <path class="cls-12" d="m819.09,534.45c-3.45,0-6.26-2.81-6.26-6.26,0-.25.2-.45.45-.45s.45.2.45.45c0,2.95,2.4,5.36,5.36,5.36s5.36-2.4,5.36-5.36v-5.81c0-.25.2-.45.45-.45s.45.2.45.45v5.81c0,3.45-2.81,6.26-6.26,6.26Z"/>
      <path class="cls-12" d="m807.51,534.45c-3.45,0-6.26-2.81-6.26-6.26,0-.25.2-.45.45-.45s.45.2.45.45c0,2.95,2.4,5.36,5.36,5.36s5.36-2.4,5.36-5.36v-5.81c0-.25.2-.45.45-.45s.45.2.45.45v5.81c0,3.45-2.81,6.26-6.26,6.26Z"/>
      <path class="cls-12" d="m842.29,557.68c-3.45,0-6.26-2.81-6.26-6.26,0-.25.2-.45.45-.45s.45.2.45.45c0,2.95,2.4,5.36,5.36,5.36s5.36-2.4,5.36-5.36v-5.81c0-.25.2-.45.45-.45s.45.2.45.45v5.81c0,3.45-2.81,6.26-6.26,6.26Z"/>
      <path class="cls-12" d="m830.68,557.68c-3.45,0-6.26-2.81-6.26-6.26,0-.25.2-.45.45-.45s.45.2.45.45c0,2.95,2.4,5.36,5.36,5.36s5.36-2.4,5.36-5.36v-5.81c0-.25.2-.45.45-.45s.45.2.45.45v5.81c0,3.45-2.81,6.26-6.26,6.26Z"/>
      <path class="cls-12" d="m819.09,557.68c-3.45,0-6.26-2.81-6.26-6.26,0-.25.2-.45.45-.45s.45.2.45.45c0,2.95,2.4,5.36,5.36,5.36s5.36-2.4,5.36-5.36v-5.81c0-.25.2-.45.45-.45s.45.2.45.45v5.81c0,3.45-2.81,6.26-6.26,6.26Z"/>
      <path class="cls-12" d="m836.45,546.07c-3.45,0-6.26-2.81-6.26-6.26,0-.25.2-.45.45-.45s.45.2.45.45c0,2.95,2.4,5.36,5.36,5.36s5.36-2.4,5.36-5.36v-5.81c0-.25.2-.45.45-.45s.45.2.45.45v5.81c0,3.45-2.81,6.26-6.26,6.26Z"/>
      <path class="cls-12" d="m824.87,546.07c-3.45,0-6.26-2.81-6.26-6.26,0-.25.2-.45.45-.45s.45.2.45.45c0,2.95,2.4,5.36,5.36,5.36s5.36-2.4,5.36-5.36v-5.81c0-.25.2-.45.45-.45s.45.2.45.45v5.81c0,3.45-2.81,6.26-6.26,6.26Z"/>
      <path class="cls-12" d="m813.29,546.07c-3.45,0-6.26-2.81-6.26-6.26,0-.25.2-.45.45-.45s.45.2.45.45c0,2.95,2.4,5.36,5.36,5.36s5.36-2.4,5.36-5.36v-5.81c0-.25.2-.45.45-.45s.45.2.45.45v5.81c0,3.45-2.81,6.26-6.26,6.26Z"/>
      <path class="cls-12" d="m708.95,546.07c-3.45,0-6.26-2.81-6.26-6.26,0-.25.2-.45.45-.45s.45.2.45.45c0,2.95,2.4,5.36,5.36,5.36s5.36-2.4,5.36-5.36v-5.81c0-.25.2-.45.45-.45s.45.2.45.45v5.81c0,3.45-2.81,6.26-6.26,6.26Z"/>
      <path class="cls-12" d="m697.36,546.07c-3.45,0-6.26-2.81-6.26-6.26,0-.25.2-.45.45-.45s.45.2.45.45c0,2.95,2.4,5.36,5.36,5.36s5.36-2.4,5.36-5.36v-5.81c0-.25.2-.45.45-.45s.45.2.45.45v5.81c0,3.45-2.81,6.26-6.26,6.26Z"/>
      <path class="cls-12" d="m685.78,546.07c-3.45,0-6.26-2.81-6.26-6.26,0-.25.2-.45.45-.45s.45.2.45.45c0,2.95,2.4,5.36,5.36,5.36s5.36-2.4,5.36-5.36v-5.81c0-.25.2-.45.45-.45s.45.2.45.45v5.81c0,3.45-2.81,6.26-6.26,6.26Z"/>
      <path class="cls-12" d="m674.16,546.07c-3.45,0-6.26-2.81-6.26-6.26v-5.81c0-.25.2-.45.45-.45s.45.2.45.45v5.81c0,2.95,2.4,5.36,5.36,5.36s5.36-2.4,5.36-5.36v-5.81c0-.25.2-.45.45-.45s.45.2.45.45v5.81c0,3.45-2.81,6.26-6.26,6.26Z"/>
    </g>
    <g>
      <polygon class="cls-4" points="677.43 509.66 833.25 509.66 831.47 514.01 679.21 514.01 677.43 509.66"/>
      <path class="cls-10" d="m831.47,514.24h-152.26c-.09,0-.18-.05-.21-.14l-1.79-4.35c-.03-.07-.02-.15.02-.21.04-.06.11-.1.18-.1h155.82c.08,0,.14.04.18.1.04.06.05.14.02.21l-1.79,4.35c-.04.09-.12.14-.21.14h0Zm-152.11-.45h151.95l1.6-3.9h-155.15l1.6,3.9h0Z"/>
    </g>
    <g>
      <rect class="cls-4" x="637.03" y="575.76" width="236.61" height="181.67"/>
      <path class="cls-10" d="m873.64,757.66h-236.61c-.13,0-.23-.1-.23-.23v-181.67c0-.13.1-.23.23-.23h236.61c.13,0,.23.1.23.23v181.67c0,.13-.1.23-.23.23h0Zm-236.38-.45h236.16v-181.22h-236.16v181.22Z"/>
    </g>
    <g>
      <rect class="cls-10" x="637.03" y="575.76" width="236.61" height="11.7"/>
      <path class="cls-10" d="m873.87,587.69h-237.06v-12.15h237.06v12.15h0Zm-236.61-.45h236.16v-11.25h-236.16v11.25Z"/>
    </g>
    <g>
      <g>
        <rect class="cls-4" x="728.79" y="639.93" width="123.64" height="82.49"/>
        <path class="cls-10" d="m852.43,722.64h-123.64c-.13,0-.23-.1-.23-.23v-82.49c0-.13.1-.23.23-.23h123.64c.13,0,.23.1.23.23v82.49c0,.13-.1.23-.23.23h0Zm-123.41-.45h123.18v-82.04h-123.18v82.04Z"/>
      </g>
      <rect class="cls-8" x="735.23" y="646.36" width="110.77" height="69.62"/>
    </g>
    <g>
      <g>
        <rect class="cls-4" x="633.82" y="562.78" width="243.04" height="6.49"/>
        <path class="cls-10" d="m876.86,569.5h-243.04c-.13,0-.23-.1-.23-.23v-6.49c0-.13.1-.23.23-.23h243.04c.13,0,.23.1.23.23v6.49c0,.13-.1.23-.23.23Zm-242.82-.45h242.59v-6.04h-242.59v6.04Z"/>
      </g>
      <g>
        <polygon class="cls-7" points="633.82 569.27 876.86 569.27 873.64 575.76 637.04 575.76 633.82 569.27"/>
        <path class="cls-10" d="m873.64,575.99h-236.61c-.09,0-.16-.05-.2-.13l-3.22-6.49c-.04-.07-.03-.15,0-.22s.11-.11.19-.11h243.04c.08,0,.15.04.19.11.04.07.05.15,0,.22l-3.22,6.49c-.04.08-.12.13-.2.13h0Zm-236.47-.45h236.33l2.99-6.04h-242.32l2.99,6.04h0Z"/>
      </g>
    </g>
    <g>
      <g>
        <rect class="cls-10" x="633.82" y="751.4" width="243.04" height="6.49"/>
        <path class="cls-10" d="m877.08,758.12h-243.49v-6.94h243.49v6.94Zm-243.04-.45h242.59v-6.04h-242.59v6.04Z"/>
      </g>
      <g>
        <polygon class="cls-7" points="633.82 751.4 876.86 751.4 873.64 744.91 637.04 744.91 633.82 751.4"/>
        <path class="cls-8" d="m876.86,751.63h-243.04c-.08,0-.15-.04-.19-.11s-.05-.15,0-.22l3.22-6.49c.04-.08.12-.13.2-.13h236.61c.09,0,.16.05.2.13l3.22,6.49c.04.07.03.15,0,.22s-.11.11-.19.11h0Zm-242.68-.45h242.32l-2.99-6.04h-236.33l-2.99,6.04h0Z"/>
      </g>
    </g>
    <g>
      <g>
        <rect class="cls-4" x="667" y="639.93" width="61.79" height="117.97"/>
        <path class="cls-10" d="m728.79,758.12h-61.79c-.13,0-.23-.1-.23-.23v-117.97c0-.13.1-.23.23-.23h61.79c.13,0,.23.1.23.23v117.97c0,.13-.1.23-.23.23Zm-61.57-.45h61.34v-117.52h-61.34v117.52Z"/>
      </g>
      <g>
        <rect class="cls-4" x="663.78" y="626.94" width="191.86" height="6.49"/>
        <path class="cls-10" d="m855.65,633.66h-191.86c-.13,0-.23-.1-.23-.23v-6.49c0-.13.1-.23.23-.23h191.86c.13,0,.23.1.23.23v6.49c0,.13-.1.23-.23.23Zm-191.64-.45h191.41v-6.04h-191.41v6.04Z"/>
      </g>
      <polygon class="cls-8" points="732.01 633.43 725.57 633.43 663.78 633.43 667 639.92 728.79 639.92 852.43 639.92 855.65 633.43 732.01 633.43"/>
      <g>
        <g>
          <path class="cls-4" d="m679.04,737.24c1.32,0,2.39-1.07,2.39-2.39v-8.17c0-1.32-1.07-2.39-2.39-2.39s-2.39,1.07-2.39,2.39v8.17c0,1.32,1.07,2.39,2.39,2.39Z"/>
          <path class="cls-10" d="m679.04,737.47c-1.44,0-2.62-1.17-2.62-2.62v-8.17c0-1.44,1.17-2.62,2.62-2.62s2.62,1.17,2.62,2.62v8.17c0,1.44-1.17,2.62-2.62,2.62Zm0-12.95c-1.19,0-2.16.97-2.16,2.16v8.17c0,1.19.97,2.16,2.16,2.16s2.16-.97,2.16-2.16v-8.17c0-1.19-.97-2.16-2.16-2.16Z"/>
        </g>
        <g>
          <path class="cls-4" d="m675.88,730.77c0,1.75,1.42,3.16,3.16,3.16s3.16-1.42,3.16-3.16-1.42-3.16-3.16-3.16-3.16,1.42-3.16,3.16Z"/>
          <path class="cls-10" d="m679.04,734.15c-1.87,0-3.39-1.52-3.39-3.38s1.52-3.39,3.39-3.39,3.38,1.52,3.38,3.39-1.52,3.38-3.38,3.38Zm0-6.32c-1.62,0-2.94,1.32-2.94,2.94s1.32,2.93,2.94,2.93,2.93-1.32,2.93-2.93-1.32-2.94-2.93-2.94Z"/>
        </g>
      </g>
      <g>
        <g>
          <rect class="cls-4" x="675.81" y="646.36" width="44.17" height="68"/>
          <path class="cls-10" d="m719.98,714.59h-44.17c-.13,0-.23-.1-.23-.23v-68c0-.13.1-.23.23-.23h44.17c.13,0,.23.1.23.23v68c0,.13-.1.23-.23.23Zm-43.94-.45h43.72v-67.55h-43.72v67.55Z"/>
        </g>
        <path class="cls-8" d="m683.93,654.48v16.28h13.22v-16.28h-13.22Zm13.22,35.5h-13.22v16.26h13.22v-16.26Zm14.7-17.74h-13.22v16.26h13.22v-16.26Zm0,17.74h-13.22v16.26h13.22v-16.26Zm0-35.5h-13.22v16.28h13.22v-16.28Zm-14.7,17.76h-13.22v16.26h13.22v-16.26Z"/>
      </g>
    </g>
    <g>
      <path class="cls-4" d="m852.43,639.92h-11.24v21.72c0,3.1,2.52,5.62,5.62,5.62s5.62-2.52,5.62-5.62v-21.72h0Zm-22.48,0h-11.24v21.72c0,3.1,2.52,5.62,5.62,5.62s5.62-2.52,5.62-5.62v-21.72h0Zm-22.48,0h-11.24v21.72c0,3.1,2.52,5.62,5.62,5.62s5.62-2.52,5.62-5.62v-21.72h0Zm-22.48,0h-11.24v21.72c0,3.1,2.52,5.62,5.62,5.62s5.62-2.52,5.62-5.62v-21.72h0Zm-22.48,0h-11.24v21.72c0,3.1,2.52,5.62,5.62,5.62s5.62-2.52,5.62-5.62v-21.72h0Zm-33.72,0v21.72c0,3.1,2.52,5.62,5.62,5.62s5.62-2.52,5.62-5.62v-21.72h-11.24,0Z"/>
      <path class="cls-10" d="m846.81,667.49c-3.22,0-5.84-2.62-5.84-5.84v-21.72c0-.13.1-.23.23-.23h11.24c.13,0,.23.1.23.23v21.72c0,3.22-2.62,5.84-5.84,5.84h0Zm-5.39-27.34v21.5c0,2.98,2.42,5.39,5.39,5.39s5.39-2.42,5.39-5.39v-21.5h-10.79,0Zm-17.09,27.34c-3.22,0-5.84-2.62-5.84-5.84v-21.72c0-.13.1-.23.23-.23h11.24c.13,0,.23.1.23.23v21.72c0,3.22-2.62,5.84-5.84,5.84h0Zm-5.39-27.34v21.5c0,2.98,2.42,5.39,5.39,5.39s5.39-2.42,5.39-5.39v-21.5h-10.79,0Zm-17.09,27.34c-3.22,0-5.84-2.62-5.84-5.84v-21.72c0-.13.1-.23.23-.23h11.24c.13,0,.23.1.23.23v21.72c0,3.22-2.62,5.84-5.84,5.84h0Zm-5.39-27.34v21.5c0,2.98,2.42,5.39,5.39,5.39s5.39-2.42,5.39-5.39v-21.5h-10.79,0Zm-17.09,27.34c-3.22,0-5.84-2.62-5.84-5.84v-21.72c0-.13.1-.23.23-.23h11.24c.13,0,.23.1.23.23v21.72c0,3.22-2.62,5.84-5.84,5.84h0Zm-5.39-27.34v21.5c0,2.98,2.42,5.39,5.39,5.39s5.39-2.42,5.39-5.39v-21.5h-10.79,0Zm-17.09,27.34c-3.22,0-5.84-2.62-5.84-5.84v-21.72c0-.13.1-.23.23-.23h11.24c.13,0,.23.1.23.23v21.72c0,3.22-2.62,5.84-5.84,5.84h0Zm-5.39-27.34v21.5c0,2.98,2.42,5.39,5.39,5.39s5.39-2.42,5.39-5.39v-21.5h-10.79,0Zm-17.09,27.34c-3.22,0-5.84-2.62-5.84-5.84v-21.72c0-.13.1-.23.23-.23h11.24c.13,0,.23.1.23.23v21.72c0,3.22-2.62,5.84-5.84,5.84h0Zm-5.39-27.34v21.5c0,2.98,2.42,5.39,5.39,5.39s5.39-2.42,5.39-5.39v-21.5h-10.79,0Z"/>
    </g>
    <g>
      <path class="cls-4" d="m841.19,639.92h-11.24v21.72c0,3.1,2.52,5.62,5.62,5.62s5.62-2.52,5.62-5.62v-21.72h0Zm-22.48,0h-11.24v21.72c0,3.1,2.52,5.62,5.62,5.62s5.62-2.52,5.62-5.62v-21.72h0Zm-22.48,0h-11.24v21.72c0,3.1,2.52,5.62,5.62,5.62s5.62-2.52,5.62-5.62v-21.72h0Zm-22.48,0h-11.24v21.72c0,3.1,2.52,5.62,5.62,5.62s5.62-2.52,5.62-5.62v-21.72h0Zm-33.72,0v21.72c0,3.1,2.52,5.62,5.62,5.62s5.62-2.52,5.62-5.62v-21.72h-11.24,0Z"/>
      <path class="cls-10" d="m835.57,667.49c-3.22,0-5.84-2.62-5.84-5.84v-21.72c0-.13.1-.23.23-.23h11.24c.13,0,.23.1.23.23v21.72c0,3.22-2.62,5.84-5.84,5.84h0Zm-5.39-27.34v21.5c0,2.98,2.42,5.39,5.39,5.39s5.39-2.42,5.39-5.39v-21.5h-10.79,0Zm-17.09,27.34c-3.22,0-5.84-2.62-5.84-5.84v-21.72c0-.13.1-.23.23-.23h11.24c.13,0,.23.1.23.23v21.72c0,3.22-2.62,5.84-5.84,5.84h0Zm-5.39-27.34v21.5c0,2.98,2.42,5.39,5.39,5.39s5.39-2.42,5.39-5.39v-21.5h-10.79,0Zm-17.09,27.34c-3.22,0-5.84-2.62-5.84-5.84v-21.72c0-.13.1-.23.23-.23h11.24c.13,0,.23.1.23.23v21.72c0,3.22-2.62,5.84-5.84,5.84h0Zm-5.39-27.34v21.5c0,2.98,2.42,5.39,5.39,5.39s5.39-2.42,5.39-5.39v-21.5h-10.79,0Zm-17.09,27.34c-3.22,0-5.84-2.62-5.84-5.84v-21.72c0-.13.1-.23.23-.23h11.24c.13,0,.23.1.23.23v21.72c0,3.22-2.62,5.84-5.84,5.84h0Zm-5.39-27.34v21.5c0,2.98,2.42,5.39,5.39,5.39s5.39-2.42,5.39-5.39v-21.5h-10.79,0Zm-17.09,27.34c-3.22,0-5.84-2.62-5.84-5.84v-21.72c0-.13.1-.23.23-.23h11.24c.13,0,.23.1.23.23v21.72c0,3.22-2.62,5.84-5.84,5.84h0Zm-5.39-27.34v21.5c0,2.98,2.42,5.39,5.39,5.39s5.39-2.42,5.39-5.39v-21.5h-10.79,0Z"/>
    </g>
  </g>
  <g>
    <g>
      <path class="cls-5" d="m748.26,253.03h-31.94c-5.91,0-11.35-3.19-14.25-8.33l-17.46-31.05,9.6-7.21,22.46,28.71,34.08-4.72-2.48,22.61h0Z"/>
      <path class="cls-10" d="m748.26,253.26h-31.94c-5.98,0-11.52-3.24-14.45-8.45l-17.46-31.05c-.05-.1-.03-.22.06-.29l9.6-7.21c.1-.07.24-.05.31.04l22.38,28.61,33.95-4.7c.12-.02.24.07.25.19.02.12-.07.24-.19.25l-34.08,4.72c-.08.01-.16-.02-.21-.09l-22.33-28.54-9.27,6.97,17.37,30.88c2.85,5.07,8.24,8.22,14.06,8.22h31.94c.13,0,.23.1.23.23s-.1.23-.23.23h.01Z"/>
    </g>
    <g>
      <g>
        <polygon class="cls-11" points="704.69 148.51 652.5 130.33 621.05 220.64 685.34 243.03 712.58 164.81 704.69 148.51"/>
        <path class="cls-10" d="m685.34,243.25s-.05,0-.07-.01l-64.29-22.39c-.06-.02-.1-.06-.13-.11-.03-.05-.03-.12,0-.17l31.45-90.31c.04-.12.17-.18.29-.14l52.2,18.18c.06.02.1.06.13.11l7.88,16.31c.03.05.03.12,0,.17l-27.24,78.21c-.02.05-.06.1-.11.13-.03.01-.06.02-.1.02h0Zm-64-22.75l63.87,22.24,27.13-77.91-7.8-16.14-51.89-18.07-31.3,89.88Z"/>
      </g>
      <g>
        <polygon class="cls-4" points="700.48 160.6 712.58 164.81 704.69 148.51 700.48 160.6"/>
        <path class="cls-10" d="m712.58,165.04s-.05,0-.07-.01l-12.09-4.21c-.12-.04-.18-.17-.14-.29l4.21-12.09c.03-.09.11-.14.2-.15.09,0,.18.05.22.13l7.88,16.31c.04.08.03.18-.04.25-.05.05-.1.08-.17.08h0Zm-11.81-4.58l11.37,3.96-7.41-15.33-3.96,11.37h0Z"/>
      </g>
      <g>
        <path class="cls-5" d="m703.98,170.65s-.1,0-.15-.03l-30.01-10.45c-.23-.08-.36-.34-.28-.57s.34-.36.57-.28l30.01,10.45c.23.08.36.34.28.57-.06.18-.24.3-.42.3h0Z"/>
        <path class="cls-5" d="m701.28,178.4s-.1,0-.15-.03l-30.01-10.45c-.23-.08-.36-.34-.28-.57s.34-.36.57-.28l30.01,10.45c.23.08.36.34.28.57-.06.18-.24.3-.42.3h0Z"/>
        <path class="cls-5" d="m698.58,186.15s-.1,0-.15-.03l-30.01-10.45c-.23-.08-.36-.34-.28-.57s.34-.36.57-.28l30.01,10.45c.23.08.36.34.28.57-.06.18-.24.3-.42.3h0Z"/>
        <path class="cls-5" d="m695.88,193.9s-.1,0-.15-.03l-52.3-18.21c-.23-.08-.36-.34-.28-.57s.34-.36.57-.28l52.3,18.21c.23.08.36.34.28.57-.06.18-.24.3-.42.3h0Z"/>
        <path class="cls-5" d="m693.19,201.65s-.1,0-.15-.03l-52.3-18.21c-.23-.08-.36-.34-.28-.57s.34-.36.57-.28l52.3,18.21c.23.08.36.34.28.57-.06.18-.24.3-.42.3h0Z"/>
        <path class="cls-5" d="m690.48,209.39s-.1,0-.15-.03l-52.3-18.21c-.23-.08-.36-.34-.28-.57s.34-.36.57-.28l52.3,18.21c.23.08.36.34.28.57-.06.18-.24.3-.42.3h0Z"/>
        <path class="cls-5" d="m669.19,210.67s-.1,0-.15-.03l-33.7-11.74c-.23-.08-.36-.34-.28-.57s.34-.36.57-.28l33.7,11.74c.23.08.36.34.28.57-.06.18-.24.3-.42.3h0Z"/>
      </g>
      <g>
        <rect class="cls-4" x="648.53" y="154.22" width="16.41" height="16.41" transform="translate(287.37 729.22) rotate(-70.8)"/>
        <path class="cls-10" d="m661.78,173.11s-.05,0-.07-.01l-15.5-5.4c-.06-.02-.1-.06-.13-.11-.03-.05-.03-.12,0-.17l5.4-15.49c.04-.12.17-.18.29-.14l15.49,5.4c.12.04.18.17.14.29l-5.4,15.5c-.02.05-.06.1-.11.13-.03.01-.06.02-.1.02h0Zm-15.21-5.76l15.07,5.25,5.25-15.07-15.07-5.25-5.25,15.07Z"/>
      </g>
    </g>
    <g>
      <path class="cls-9" d="m750.91,204.13c.35-1.8.16-3.67-.53-5.38l-.7-1.7c-1.51-3.69-5.19-6.1-9.25-6.06-5.2.05-10.96,4.06-11.53,9.11-.13,1.13-.22,2.21-.28,3.24-.33,1.63-.82,3.01-1.55,3.98-.42.56-.21,1.38.41,1.7l1.22.64c-.72,5.78.7,8.38,5.87,9.02,1.77.22,3.22,1.46,3.25,3.21l.15,8.93,12.79-1.09-1.59-14.34c-.1-.93-.06-1.87.12-2.79l1.64-8.47h0Z"/>
      <path class="cls-6" d="m737.74,231.07l-.15-9.17c-.03-1.54-1.28-2.77-3.05-2.99-2.68-.33-4.36-1.19-5.3-2.69-.88-1.41-1.13-3.45-.78-6.43l-1.08-.57c-.37-.19-.63-.54-.72-.94-.09-.39,0-.78.23-1.1.66-.87,1.15-2.14,1.5-3.88.06-1.03.16-2.12.28-3.23.61-5.43,6.69-9.27,11.75-9.31h.1c4.15,0,7.81,2.43,9.36,6.2l.7,1.7c.72,1.75.9,3.65.55,5.5l-1.64,8.47c-.18.9-.21,1.82-.12,2.72l1.62,14.57-13.26,1.13h0Zm-9.07-27.72l.17.04c-.37,1.81-.89,3.14-1.59,4.08-.16.21-.21.46-.15.73.06.28.24.51.49.64l1.35.72-.02.15c-.37,2.95-.15,4.95.69,6.29.87,1.38,2.44,2.16,4.98,2.48,2,.25,3.42,1.65,3.45,3.43l.14,8.69,12.31-1.05-1.57-14.11c-.1-.96-.06-1.92.12-2.86l1.64-8.47.22.04-.22-.04c.34-1.76.16-3.58-.52-5.24l-.7-1.7c-1.49-3.63-5.03-5.97-9.04-5.92-4.87.05-10.74,3.87-11.31,8.91-.13,1.11-.22,2.2-.28,3.23h-.17v-.02Z"/>
    </g>
    <path class="cls-4" d="m729.83,211.57l.89,1.83c1.04.08,2.6-.85,2.47-1.88l-3.36.05h0Z"/>
    <path class="cls-6" d="m735.46,201.43s-.05,0-.07-.01l-3.7-1.24c-.12-.04-.18-.17-.14-.28.04-.12.17-.18.28-.14l3.7,1.24c.12.04.18.17.14.28-.03.09-.12.15-.21.15h0Z"/>
    <g>
      <path class="cls-5" d="m731.62,497.41h-17.87l-6.5,4.78c-.51.34-1.06.61-1.65.78l-4.66,1.35c-2.42.7-4.13,2.92-4.11,5.34h34.77v-12.25h0Z"/>
      <path class="cls-10" d="m731.62,509.88h-34.77c-.12,0-.23-.1-.23-.23-.02-2.54,1.74-4.83,4.27-5.56l4.66-1.35c.56-.16,1.09-.41,1.58-.75l6.49-4.77s.09-.05.14-.05h17.87c.13,0,.23.1.23.23v12.25c0,.13-.1.23-.23.23h0Zm-34.54-.45h34.32v-11.8h-17.57l-6.44,4.73c-.53.37-1.11.64-1.71.81l-4.66,1.35c-2.27.66-3.86,2.66-3.94,4.9h0Z"/>
    </g>
    <g>
      <path class="cls-5" d="m826.11,485.11l-16.3,7.31-3.97,7.02c-.32.52-.72.99-1.18,1.38l-3.7,3.14c-1.92,1.63-2.57,4.36-1.56,6.56l31.73-14.23-5.01-11.18h0Z"/>
      <path class="cls-10" d="m799.39,510.74c-.09,0-.17-.05-.2-.13-1.06-2.31-.39-5.11,1.62-6.82l3.7-3.14c.45-.38.83-.83,1.14-1.33l3.97-7.01s.06-.08.1-.09l16.3-7.31c.11-.05.25,0,.3.11l5.01,11.18c.02.05.03.12,0,.17s-.06.1-.12.13l-31.73,14.23s-.06.02-.09.02h0Zm10.57-18.15l-3.94,6.95c-.34.55-.75,1.03-1.23,1.44l-3.7,3.14c-1.8,1.53-2.44,4-1.59,6.09l31.31-14.04-4.83-10.76-16.03,7.19h0Z"/>
    </g>
    <g>
      <path class="cls-10" d="m763.36,285.51c19.21,31.44,20.83,68.97,27.16,103.87,16.62,26.76,24.1,53.88,35.62,95.71l-16.34,7.33-52.08-93.15-36.39-113.76h42.02Z"/>
      <path class="cls-10" d="m809.71,492.71l-.1-.18-52.08-93.15-36.5-114.1h42.46l.07.11c15.08,24.68,19.37,53.32,23.52,81.02,1.13,7.54,2.3,15.35,3.67,22.88,16.66,26.85,24.21,54.26,35.62,95.74l.05.18-16.7,7.49h0Zm-88.06-206.98l36.29,113.47,51.96,92.93,15.97-7.17c-11.38-41.35-18.93-68.71-35.54-95.47l-.03-.08c-1.37-7.55-2.54-15.38-3.68-22.94-4.14-27.61-8.41-56.17-23.39-80.75h-41.59,0Z"/>
    </g>
    <g>
      <path class="cls-10" d="m762.48,285.51h-44.8l-11.74,109.43,7.83,102.47h17.87c11.83-45.79,9.11-73.27,14.48-102.47,3.81-20.71,13.19-42.73,17.95-63.87l-1.58-45.56h0Z"/>
      <path class="cls-10" d="m731.8,497.64h-18.25l-.02-.21-7.83-102.47,11.76-109.67h45v.45h-44.6l-11.72,109.23,7.81,102.22h17.48c7.32-28.37,9.05-49.83,10.59-68.78.93-11.54,1.82-22.45,3.85-33.51,2.07-11.25,5.85-23.1,9.51-34.55,3.08-9.67,6.28-19.67,8.45-29.33l.44.1c-2.18,9.68-5.37,19.69-8.46,29.36-3.65,11.44-7.43,23.27-9.49,34.5-2.03,11.03-2.91,21.93-3.85,33.46-1.54,19-3.28,40.54-10.64,69.02l-.05.17h0Z"/>
    </g>
    <g>
      <path class="cls-5" d="m722.92,230.43c-3.72,10.85-4.8,28.83-5.24,55.08h45.68c1.92-11.02,4.6-22.36,6.4-32.59,1.96-11.15-6.03-21.7-17.52-23.04-10.06-1.18-21.37-.77-29.31.55h0Z"/>
      <path class="cls-10" d="m763.36,285.73h-45.69c-.06,0-.12-.02-.16-.07-.04-.05-.07-.1-.06-.16.44-25.84,1.47-44.08,5.26-55.14.03-.08.09-.14.18-.15,8.69-1.44,19.95-1.66,29.38-.55,5.61.65,10.74,3.6,14.08,8.09,3.3,4.43,4.59,9.83,3.64,15.22-.87,4.95-1.93,10.05-3.04,15.46-1.16,5.63-2.37,11.44-3.35,17.14-.02.11-.11.18-.22.18h0Zm-45.46-.45h45.27c.98-5.64,2.17-11.39,3.33-16.96,1.12-5.4,2.17-10.5,3.04-15.44.92-5.26-.34-10.54-3.56-14.87-3.26-4.38-8.28-7.26-13.77-7.9-9.34-1.09-20.49-.89-29.12.53-3.72,10.98-4.75,29.07-5.19,54.65h0Z"/>
    </g>
    <g>
      <g>
        <path class="cls-9" d="m663.73,199.93l-4.29-5.56c-1.22.94-1.43,2.72-.47,3.97l1.97,2.55-.55,1.5s-2.21-3.71-2.21-3.7l-4.6-7.44c-.41-.69-1.3-.92-1.98-.5-.65.41-.81,1.29-.41,1.97l-1.03-1.62c-.41-.69-1.3-.92-1.98-.5-.65.41-.81,1.29-.41,1.97l.18.3c-.41-.69-1.3-.92-1.98-.5-.65.41-.81,1.29-.41,1.97l1.31,2.11c-.44-.6-1.27-.79-1.9-.39-.65.41-.81,1.29-.41,1.97l5.68,9.24c1.33,2.24,6.53,6.4,6.53,6.4l9.6-7.21s-1.56-5.1-2.65-6.51h0Z"/>
        <path class="cls-6" d="m656.77,213.94l-.14-.11c-.21-.17-5.24-4.21-6.58-6.47l-5.68-9.24c-.47-.79-.25-1.81.48-2.27.39-.25.86-.3,1.28-.19l-.76-1.23c-.47-.79-.26-1.81.48-2.27.37-.23.81-.3,1.24-.2.09.02.17.05.26.08-.1-.64.16-1.3.71-1.65.37-.23.81-.3,1.24-.2.44.11.81.38,1.05.78l.41.66c.08-.44.32-.83.71-1.08.37-.23.81-.3,1.24-.2.44.11.81.38,1.05.78l4.6,7.44-.03.02c.17.21.47.72,1.14,1.84l.86,1.45.35-.94-1.89-2.45c-.51-.66-.74-1.48-.63-2.3.1-.8.51-1.5,1.14-1.99l.18-.14,4.43,5.74c1.1,1.42,2.62,6.37,2.69,6.58l.05.15-9.87,7.42h0Zm-11.07-17.88c-.21,0-.42.06-.61.18-.53.33-.68,1.08-.34,1.66l5.68,9.24c1.18,1.98,5.52,5.56,6.34,6.24l9.33-7.02c-.27-.85-1.62-5.06-2.57-6.29l-4.15-5.38c-.44.4-.72.94-.79,1.54-.09.7.1,1.4.54,1.97l2.05,2.65-.76,2.06-.24-.41c-.55-.92-1.92-3.23-2.16-3.63l-.04-.07-4.6-7.44c-.17-.29-.45-.49-.77-.57-.31-.08-.63-.02-.9.14-.53.33-.68,1.08-.33,1.66l-.38.23-1.03-1.62c-.18-.29-.45-.5-.77-.57-.31-.08-.63-.02-.9.14-.53.33-.68,1.08-.34,1.66l.18.3-.39.23c-.17-.29-.44-.49-.77-.57-.31-.08-.63-.02-.9.14-.53.33-.68,1.08-.34,1.66l1.31,2.11-.37.25c-.24-.33-.61-.51-.98-.51h0Z"/>
      </g>
      <path class="cls-6" d="m653.32,201.74c-.08,0-.15-.04-.19-.11l-5.38-8.66c-.07-.1-.03-.24.07-.31.1-.06.24-.03.31.07l5.38,8.66c.07.1.03.24-.07.31-.04.02-.08.04-.12.04h0Z"/>
      <path class="cls-6" d="m655.75,200.33c-.08,0-.15-.04-.19-.11l-4.57-7.39c-.06-.1-.03-.24.07-.31.11-.07.24-.03.31.07l4.57,7.39c.06.1.03.24-.07.31-.04.02-.08.03-.12.03h0Z"/>
      <path class="cls-6" d="m650.91,203.16c-.08,0-.15-.04-.19-.11l-4.03-6.5c-.07-.1-.03-.24.07-.31.1-.06.24-.03.31.07l4.03,6.5c.07.1.03.24-.07.31-.04.02-.08.04-.12.04h0Z"/>
    </g>
    <g>
      <path class="cls-5" d="m720.44,253.03h-31.94c-5.91,0-11.35-3.19-14.25-8.33l-17.46-31.05,9.6-7.21,22.46,28.71,34.08-4.72-2.48,22.61h0Z"/>
      <path class="cls-10" d="m720.44,253.26h-31.94c-5.98,0-11.52-3.24-14.45-8.45l-17.46-31.05c-.05-.1-.03-.22.06-.29l9.6-7.21c.09-.07.24-.05.31.04l22.38,28.61,33.95-4.7c.12-.02.24.07.25.19.02.12-.07.24-.19.25l-34.08,4.72c-.08.01-.16-.02-.21-.09l-22.33-28.54-9.27,6.97,17.37,30.88c2.85,5.07,8.24,8.22,14.06,8.22h31.94c.13,0,.23.1.23.23s-.1.23-.23.23h.01Z"/>
    </g>
    <g>
      <path class="cls-10" d="m776.6,197.89c-6.62-4.42-13.14-5.89-20.68-4.89-2.95-14.84-29.2-6.68-30.95-9.28-.57,5.1.88,13.08,9.35,13.99l6.42,1.08c-2.73,22.06,3.54,47.88,20.8,61.72,19.71,15.8,50.51,22.11,69.48,12.08-33.76-7.12-28.07-57.07-54.42-74.69h0Z"/>
      <path class="cls-10" d="m809.19,277.65c-4.07,0-8.32-.4-12.68-1.19-12.91-2.37-25.38-7.97-35.12-15.77-8.13-6.52-14.35-16.16-17.97-27.89-3.26-10.54-4.3-22.55-2.94-33.82l-6.21-1.04c-2.98-.32-5.34-1.53-7-3.6-3.03-3.77-2.71-9.1-2.53-10.64,0-.09.08-.17.17-.19s.19.01.24.09c.45.67,3.32.48,6.65.26,8.26-.55,22.05-1.48,24.3,8.91,7.58-.96,14.14.62,20.63,4.95,11.73,7.85,17.18,22.17,22.45,36.02,6.79,17.84,13.2,34.69,31.89,38.63.09.02.16.09.18.19s-.04.18-.12.23c-6.09,3.22-13.63,4.87-21.94,4.87h0Zm-84.04-93.49c-.16,1.88-.22,6.53,2.48,9.89,1.58,1.97,3.84,3.13,6.71,3.44l6.43,1.08c.12.02.2.13.18.25-2.34,18.84,1.69,46.27,20.71,61.52,9.68,7.76,22.08,13.33,34.92,15.68,12.88,2.36,24.84,1.17,33.77-3.34-18.45-4.22-24.85-21.01-31.61-38.78-5.24-13.78-10.67-28.04-22.28-35.81-6.45-4.31-12.97-5.85-20.52-4.86-.12.01-.23-.06-.25-.18-2.03-10.21-15.17-9.33-23.87-8.75-3.34.23-5.7.38-6.68-.14h0Z"/>
    </g>
    <path class="cls-10" d="m733.2,205.48c.49,0,.89-.4.89-.89v-1.6c0-.49-.4-.89-.89-.89s-.89.4-.89.89v1.6c0,.49.4.89.89.89Z"/>
  </g>
  <g>
    <g>
      <path class="cls-5" d="m196.4,549.52l5.52,5.08c.4.37.85.64,1.33.83l3.85,1.44c2,.75,3.25,3.11,3,5.69h-37.38l1.52-13.04h22.15,0Z"/>
      <path class="cls-10" d="m210.1,562.79h-37.38c-.06,0-.13-.03-.17-.08-.05-.05-.06-.11-.05-.18l1.52-13.04c.01-.11.11-.2.23-.2h22.15c.06,0,.11.02.15.06l5.52,5.08c.38.35.8.61,1.26.78l3.85,1.44c2.11.79,3.4,3.22,3.15,5.92,0,.12-.11.2-.23.2h0Zm-37.12-.45h36.92c.15-2.41-1.01-4.55-2.88-5.25l-3.85-1.44c-.51-.19-.98-.48-1.4-.87l-5.46-5.02h-21.87l-1.47,12.59h0Z"/>
    </g>
    <g>
      <path class="cls-5" d="m74.63,501.27l-2.36,7.12c-.17.51-.24,1.04-.21,1.55l.27,4.1c.14,2.13-1.5,4.24-3.95,5.08l-15.39-34.07,12.51-3.98,9.12,20.19h0Z"/>
      <path class="cls-10" d="m68.38,519.35c-.09,0-.17-.05-.21-.13l-15.39-34.07c-.03-.06-.03-.13,0-.18.03-.06.08-.1.14-.12l12.51-3.98c.11-.04.23.02.28.12l9.12,20.19s.03.11,0,.16l-2.36,7.12c-.16.49-.23.98-.19,1.47l.27,4.1c.15,2.25-1.54,4.43-4.1,5.31-.02,0-.05.01-.07.01Zm-15.07-34.15l15.2,33.64c2.26-.85,3.74-2.8,3.6-4.78l-.27-4.1c-.04-.55.04-1.1.22-1.64l2.33-7.04-9-19.93-12.08,3.84h0Z"/>
    </g>
    <g>
      <path class="cls-10" d="m218.7,327.7l-40.52-.03c-1.25,30.91-1.75,67.83-1.65,103.48-4.03,49.6-4.3,93.41-2.29,118.36h22.15l13.37-118.07c4.05-37.92,7.59-68.98,8.93-103.75h0Z"/>
      <path class="cls-10" d="m196.6,549.75h-22.56l-.02-.21c-1.76-21.87-2.09-64.45,2.29-118.4-.11-37.66.47-74.41,1.65-103.47v-.22s40.98.03,40.98.03v.23c-1.24,32.02-4.36,61.13-7.98,94.84l-.96,8.93-13.4,118.27h0Zm-22.15-.45h21.74l13.35-117.87.96-8.93c3.61-33.62,6.72-62.67,7.96-94.57l-40.07-.03c-1.17,29.02-1.75,65.68-1.64,103.26-4.36,53.77-4.06,96.23-2.31,118.14h0Z"/>
    </g>
    <g>
      <path class="cls-10" d="m193.19,377.57l-19.38,57.11c-3.85,11.34-12.22,21.05-23.02,26.71l-76.16,39.88-9.12-20.19c20.3-14.6,44.03-30.29,70.61-47.75,9.46-40.6,19.41-79.8,26.97-105.63h47.01l-16.92,49.87h0Z"/>
      <path class="cls-10" d="m74.53,501.58l-9.29-20.58.15-.11c20.08-14.44,43.83-30.15,70.54-47.71,9.8-42.04,19.62-80.51,26.96-105.55l.05-.16h47.18v.45h-46.84c-7.33,25.05-17.14,63.47-26.92,105.45l-.02.09-.08.05c-26.67,17.53-50.39,33.22-70.45,47.64l8.94,19.8,75.95-39.76c10.74-5.62,19.09-15.31,22.92-26.58l19.38-57.11.43.14-19.38,57.11c-3.86,11.38-12.29,21.16-23.13,26.83l-76.37,39.99h0Z"/>
    </g>
    <g>
      <path class="cls-5" d="m246.81,280.58c-5.49-13.42-15.01-21.18-25.28-24.86-5.41,14.72-1.68,32.51-1.68,32.51l19.23,28.22c2.54,3.61,7.12,5.16,11.33,3.83,5.55-1.75,8.49-7.81,6.42-13.25l-10.02-26.45h0Z"/>
      <path class="cls-10" d="m247.34,320.98c-3.3,0-6.47-1.58-8.45-4.4l-19.23-28.22s-.03-.05-.04-.08c-.04-.18-3.68-18.01,1.69-32.63.05-.12.17-.18.29-.14,8.12,2.91,19.12,9.61,25.41,24.99,0,0,10.03,26.46,10.03,26.46,1.02,2.69.89,5.6-.37,8.18-1.25,2.59-3.46,4.49-6.2,5.36-1.04.33-2.09.49-3.13.49Zm-27.28-32.84l19.21,28.18c2.49,3.54,6.94,5.05,11.07,3.74,2.62-.83,4.73-2.65,5.93-5.12,1.2-2.48,1.33-5.26.35-7.83l-10.02-26.45c-6.17-15.09-16.92-21.73-24.93-24.65-5.09,14.1-1.8,31.15-1.6,32.13h0Z"/>
    </g>
    <g>
      <path class="cls-5" d="m221.53,255.72c-17.47-6.72-43.25-7.73-62.36,0-.64,16.47,3.92,71.98,3.92,71.98h55.61l1.36-46.6,1.47-25.38h0Z"/>
      <path class="cls-10" d="m218.7,327.92h-55.61c-.12,0-.22-.09-.23-.21-.05-.55-4.55-55.71-3.92-72,0-.09.06-.17.14-.2,17.94-7.26,43.65-7.26,62.52,0,.12.05.18.18.13.29-.05.12-.18.18-.29.13-18.73-7.21-44.22-7.22-62.06-.05-.58,15.94,3.61,67.87,3.91,71.6h55.18l1.35-46.38c0-.13.12-.22.23-.22.13,0,.22.11.22.23l-1.36,46.6c0,.12-.1.22-.23.22h0Z"/>
    </g>
    <g>
      <g>
        <path class="cls-9" d="m183.55,250.3l-3.16-15.61s-9.98-18.3,7.02-21.74l8.12-.96c2.86-.34,5.57,1.44,6.34,4.22,2.25,8.06,3.2,15.31,3.18,20.36,0,2.71-2.47,5.35-6.98,5.17l3.15,15.54-17.67-6.97Z"/>
        <path class="cls-6" d="m201.52,257.63l-18.17-7.17-3.18-15.7c-.37-.68-4.92-9.4-1.91-15.88,1.47-3.17,4.54-5.24,9.09-6.16l8.13-.96c2.96-.35,5.79,1.53,6.59,4.38,2.05,7.33,3.21,14.77,3.19,20.42,0,1.33-.56,2.6-1.57,3.57-1.27,1.22-3.17,1.87-5.35,1.84l3.17,15.67h0Zm-17.78-7.5l17.17,6.77-3.12-15.41h.29c2.19.09,4.07-.51,5.3-1.7.92-.88,1.43-2.03,1.43-3.25.02-5.61-1.14-13-3.17-20.3-.74-2.64-3.35-4.38-6.1-4.05l-8.12.96c-4.39.89-7.34,2.88-8.75,5.91-2.98,6.39,1.86,15.41,1.91,15.5l.02.06,3.13,15.49h0Z"/>
      </g>
      <g>
        <path class="cls-10" d="m186.32,204.36c-4.56.92-11.38,4.69-9.3,10.28-5.07,1.03-3.87,13.73,3.37,20.05l1.07,5.29,2.2-8.09c-.17-.33-.34-.67-.55-.98-1.04-1.62-1.14-3.37-.24-3.94.89-.57,2.44.25,3.46,1.84l-.35-11.55,2.2,3.28,17.02-3.38c-.89-4.39-3.19-15.99-18.88-12.81h0Z"/>
        <path class="cls-10" d="m181.46,240.21c-.11,0-.2-.08-.22-.18l-1.06-5.22c-5.18-4.58-7.37-12.51-6.16-17.08.47-1.77,1.4-2.88,2.7-3.25-.53-1.61-.39-3.17.43-4.65,1.66-2.99,5.78-5.01,9.12-5.69,15.87-3.21,18.24,8.52,19.14,12.94.01.06,0,.14-.03.19-.03.05-.08.1-.14.12l-17.02,3.38c-.09.02-.18-.02-.23-.09l-1.76-2.63.32,10.76c0,.1-.06.19-.16.22-.1.03-.2,0-.26-.09-.93-1.46-2.37-2.26-3.14-1.77-.78.51-.64,2.13.31,3.63.19.29.37.61.56,1.01.02.05.03.1.01.16l-2.2,8.09c-.03.1-.12.17-.22.17h0Zm4.91-35.63c-3.13.64-7.23,2.62-8.82,5.47-.79,1.42-.9,2.94-.32,4.51.02.06.02.13-.01.19s-.09.1-.15.11c-1.58.32-2.29,1.8-2.6,2.99-1.18,4.46.98,12.22,6.07,16.68.04.03.06.08.07.13l.88,4.36,1.93-7.08c-.17-.34-.33-.63-.5-.88-1.11-1.74-1.19-3.6-.18-4.25.88-.57,2.26,0,3.33,1.3l-.32-10.81c0-.1.06-.19.16-.22.09-.03.2,0,.26.09l2.11,3.15,16.65-3.3c-.92-4.49-3.4-15.48-18.57-12.41h0Z"/>
      </g>
      <g>
        <path class="cls-6" d="m200.52,233.75c-.1,0-.2-.07-.22-.18-.03-.12.05-.24.18-.27l1.01-.22c.21-.05.38-.18.48-.37.09-.19.09-.41,0-.61l-2.52-4.89c-.06-.11-.01-.25.09-.3.11-.06.25-.01.3.1l2.52,4.89c.16.32.17.69.02,1.01-.15.32-.44.55-.79.62l-1.01.22s-.03,0-.05,0h0Z"/>
        <path class="cls-10" d="m195,225.28c-.42.07-.7.46-.63.88l.19,1.16c.07.42.46.7.88.63.42-.07.7-.46.63-.88l-.19-1.16c-.07-.42-.46-.7-.88-.63Zm6.93-1.15c-.42.07-.7.46-.63.88l.19,1.16c.07.42.46.7.88.63.42-.07.7-.46.63-.88l-.19-1.16c-.07-.42-.46-.7-.88-.63Z"/>
        <path class="cls-6" d="m191.73,224.98c-.08,0-.16-.05-.2-.12-.06-.11-.01-.25.1-.3l3.93-2.02c.11-.06.25-.01.3.1.06.11.01.25-.1.3l-3.93,2.02s-.07.03-.1.03h0Z"/>
        <path class="cls-6" d="m202.57,222.46h-.03l-2.08-.31c-.12-.02-.21-.13-.19-.26.02-.12.14-.21.26-.19l2.08.31c.12.02.21.13.19.26-.02.11-.11.19-.22.19h0Z"/>
        <path class="cls-4" d="m201.96,234.29c.66,1.21.35,2.48-.98,2.7-1.32.22-3.03-.53-3.98-1.69l4.96-1h0Z"/>
      </g>
      <path class="cls-6" d="m198.07,241.96c-3.04-.27-5.61-1.31-7.88-3.18-.09-.08-.11-.22-.03-.32.08-.09.22-.11.32-.03,2.2,1.82,4.69,2.83,7.62,3.08.13,0,.22.12.2.24,0,.12-.11.21-.23.21h0Z"/>
    </g>
    <g>
      <g>
        <path class="cls-9" d="m162.72,334.02c3.46-1.16,8.54.27,11.44,1.7l4.57,3.04c-.91,1.37-2.76,1.74-4.13.83l-1.27-.84-1.67.58,6.01,2.95c.74.36,1.04,1.25.68,1.99-.36.74-1.25,1.04-1.99.68,0,0-.16.66-.53,1.4-.36.74-1.25,1.04-1.99.68,0,0-.16.66-.53,1.4-.36.74-1.25,1.04-1.99.68,0,0-.16.66-.53,1.4-.36.74-1.22.97-1.99.68-4.5-1.68-8.91-2.89-12.23-5.68l-4.91-3.91,7.59-10.35,3.46,2.76h0Z"/>
        <path class="cls-6" d="m169.46,351.54c-.24,0-.49-.05-.73-.14-.82-.31-1.63-.6-2.44-.88-3.66-1.3-7.12-2.53-9.87-4.84l-5.07-4.04,7.86-10.71,3.55,2.82c3.32-1.04,8.27.17,11.5,1.75l4.78,3.17-.13.19c-.47.71-1.19,1.2-2.03,1.37-.84.17-1.69,0-2.41-.47l-1.17-.78-1.06.37,5.53,2.71c.41.2.72.55.87.98.15.43.12.9-.08,1.31-.37.77-1.25,1.13-2.05.88-.08.27-.23.71-.47,1.2-.2.41-.55.72-.98.87-.35.12-.72.12-1.06.02-.08.27-.23.71-.47,1.2-.38.77-1.25,1.13-2.05.88-.08.27-.23.71-.47,1.2-.29.59-.88.93-1.55.93h0Zm-17.48-9.97l4.74,3.77c2.69,2.26,6.11,3.47,9.73,4.76.81.29,1.62.58,2.44.88.7.26,1.42.02,1.71-.57.35-.71.51-1.35.51-1.36l.07-.27.25.12c.63.31,1.38.05,1.69-.58.35-.71.51-1.35.51-1.36l.07-.27.25.12c.3.15.64.17.96.06.32-.11.58-.34.73-.64.35-.71.51-1.35.51-1.36l.07-.27.25.12c.63.31,1.38.05,1.69-.58.15-.3.17-.64.06-.96s-.34-.58-.64-.73l-6.5-3.19,2.29-.8,1.36.91c.61.41,1.35.55,2.07.41.64-.13,1.21-.48,1.62-.99l-4.37-2.91c-3.16-1.55-8.05-2.75-11.25-1.67l-.12.04-3.37-2.68-7.33,9.98h0Z"/>
      </g>
      <g>
        <path class="cls-5" d="m159.17,255.72c-8.93,3.76-15.71,9.42-19.77,17.64l-13.76,27.81c-3.88,7.86-1.96,17.34,4.67,23.07l23.97,20.67,9.1-11.77-16.06-18.9,17.06-26.06-5.22-32.45h0Z"/>
        <path class="cls-10" d="m154.29,345.13c-.05,0-.11-.02-.15-.05l-23.97-20.67c-6.71-5.79-8.66-15.39-4.73-23.34l13.76-27.81c3.94-7.96,10.44-13.77,19.89-17.74.12-.05.25,0,.3.12.05.11,0,.25-.12.29-9.34,3.93-15.77,9.67-19.66,17.53l-13.76,27.81c-3.84,7.76-1.94,17.14,4.62,22.79l23.79,20.51,8.84-11.44-15.94-18.76c-.06-.08-.07-.18-.02-.27l17.06-26.06c.07-.1.21-.13.31-.06.1.07.14.21.06.31l-16.97,25.92,15.94,18.77c.07.08.07.2,0,.28l-9.1,11.77s-.09.08-.16.09h-.02,0Z"/>
      </g>
    </g>
    <g>
      <path class="cls-5" d="m243.14,292.89l8.38-28.59c1.13-3.86,5.03-6.2,8.96-5.39,3.93.81,6.58,4.5,6.11,8.48l-4.52,37.56c-.56,4.66-5.84,14.88-13.11,15.68l-5.82-27.74h0Z"/>
      <path class="cls-10" d="m248.96,320.85c-.11,0-.21-.09-.23-.2-.01-.12.08-.23.2-.25,7.39-.82,12.4-11.22,12.91-15.48l4.52-37.56c.46-3.84-2.14-7.45-5.93-8.23-3.79-.78-7.61,1.52-8.7,5.23l-8.38,28.59c-.04.12-.16.19-.28.15-.12-.04-.19-.16-.15-.28l8.38-28.59c1.15-3.94,5.21-6.37,9.22-5.55,4.01.83,6.77,4.66,6.28,8.73l-4.52,37.56c-.53,4.36-5.69,15.03-13.31,15.88h-.03,0Z"/>
    </g>
    <g>
      <path class="cls-9" d="m266.59,259.53l8.69-5.29-4.02-11.99-19.07,7.41,1.01,9.86c.44,4.3,4.47,7.29,8.71,6.47,3.02-.58,5.06-3.42,4.65-6.46h0Z"/>
      <path class="cls-6" d="m260.55,266.35c-1.62,0-3.21-.52-4.53-1.49-1.7-1.26-2.8-3.2-3.02-5.31l-1.03-10.03,19.44-7.56,4.15,12.38-8.73,5.31c.33,3.1-1.77,5.97-4.85,6.57-.47.09-.96.14-1.43.14h0Zm-8.1-16.54l1,9.69c.2,1.98,1.24,3.81,2.84,5,1.6,1.19,3.64,1.65,5.61,1.28,2.89-.56,4.86-3.29,4.47-6.21l-.02-.14,8.67-5.28-3.88-11.59-18.68,7.26h0Z"/>
    </g>
    <g>
      <g>
        <path class="cls-8" d="m344.63,258.78l-64.12,25.16c-3.36,1.32-7.15-.34-8.47-3.7l-37.77-96.27c-1.32-3.36.34-7.15,3.7-8.47l64.12-25.16c3.36-1.32,7.15.34,8.47,3.7l37.77,96.27c1.32,3.36-.34,7.15-3.7,8.47h0Z"/>
        <path class="cls-10" d="m278.13,284.62c-2.7,0-5.26-1.63-6.3-4.29l-37.77-96.27c-1.36-3.47.35-7.4,3.82-8.76l64.13-25.16c3.47-1.36,7.4.35,8.76,3.82l37.77,96.27c1.36,3.47-.36,7.4-3.82,8.76l-64.12,25.16c-.81.32-1.64.47-2.46.47h0Zm26.33-134.5c-.77,0-1.54.14-2.3.44l-64.12,25.16c-3.24,1.27-4.84,4.94-3.57,8.18l37.77,96.27c1.27,3.24,4.94,4.84,8.18,3.57l64.12-25.16.08.21-.08-.21c3.24-1.27,4.84-4.94,3.57-8.18l-37.77-96.27c-.97-2.48-3.36-4-5.88-4h0Z"/>
      </g>
      <g>
        <path class="cls-11" d="m276.5,277.51l-37.1-94.55c-.46-1.19.12-2.52,1.3-2.99l62.41-24.49c1.19-.46,2.52.12,2.99,1.3l37.1,94.55c.46,1.19-.12,2.52-1.3,2.99l-62.41,24.49c-1.19.46-2.52-.12-2.99-1.3h0Z"/>
        <path class="cls-10" d="m278.64,279.2c-.34,0-.69-.07-1.01-.21-.62-.27-1.1-.77-1.34-1.39l-37.1-94.55c-.25-.63-.23-1.32.04-1.93.27-.62.77-1.1,1.39-1.34l62.41-24.49c.63-.25,1.32-.23,1.93.04s1.1.77,1.34,1.39l37.1,94.55c.25.63.23,1.32-.04,1.93-.27.62-.77,1.1-1.39,1.34l-62.41,24.49c-.3.12-.61.18-.92.18Zm-1.93-1.77c.2.52.6.92,1.1,1.15s1.07.23,1.59.03l62.41-24.49c.52-.2.92-.6,1.15-1.1s.23-1.07.03-1.59l-37.1-94.55c-.2-.52-.6-.92-1.1-1.15-.51-.22-1.07-.23-1.59-.03l-62.41,24.49c-.52.2-.92.6-1.15,1.1s-.23,1.07-.03,1.59l37.1,94.55Z"/>
      </g>
      <g>
        <path class="cls-4" d="m306.01,156.57c-.38-.96-1.71-1.55-2.9-1.08l-62.41,24.49c-1.19.46-1.77,1.8-1.3,2.99l37.08,94.49,60.98-40.74-31.44-80.13h0Z"/>
        <path class="cls-10" d="m276.47,277.67s-.05,0-.07,0c-.06-.02-.12-.07-.14-.13l-37.08-94.49c-.25-.63-.23-1.32.04-1.93.27-.62.77-1.1,1.39-1.34l62.41-24.49c.61-.24,1.29-.24,1.92,0,.6.24,1.07.68,1.28,1.2l31.44,80.13c.04.1,0,.21-.09.27l-60.98,40.74s-.08.04-.13.04h0Zm27.5-122.12c-.27,0-.53.05-.78.15l-62.41,24.49c-.52.2-.92.6-1.15,1.1s-.23,1.07-.03,1.59l36.97,94.23,60.6-40.48-31.38-79.97c-.16-.41-.53-.76-1.02-.95-.26-.1-.53-.15-.8-.15h0Z"/>
      </g>
      <g>
        <path class="cls-4" d="m337.54,236.92l-17.52-7.54c-10.78,16.73-23.37,32.21-43.54,48.05l61.06-40.52h0Z"/>
        <path class="cls-10" d="m276.47,277.67c-.07,0-.14-.03-.18-.09-.07-.1-.05-.23.05-.31,17.84-14.02,30.85-28.37,43.49-48,.06-.09.18-.13.28-.09l17.52,7.54c.08.03.13.1.14.18,0,.08-.03.16-.1.21l-61.06,40.52s-.08.04-.13.04h0Zm43.63-48c-11.71,18.14-23.73,31.79-39.62,44.84l56.58-37.54-16.96-7.3Z"/>
      </g>
      <g>
        <g>
          <rect class="cls-3" x="253.51" y="192.19" width="7.62" height="7.62" transform="translate(-53.81 107.51) rotate(-21.42)"/>
          <path class="cls-10" d="m255.17,201.15c-.09,0-.18-.05-.21-.14l-2.78-7.09c-.05-.12.01-.25.13-.29l7.09-2.78c.11-.05.25.01.29.13l2.78,7.09c.05.12-.01.25-.13.29l-7.09,2.78s-.05.01-.08.01h0Zm-2.49-7.19l2.62,6.67,6.67-2.62-2.62-6.67-6.67,2.62Z"/>
        </g>
        <g>
          <rect class="cls-3" x="261.42" y="212.34" width="7.62" height="7.62" transform="translate(-60.62 111.79) rotate(-21.42)"/>
          <path class="cls-10" d="m263.08,221.3s-.06,0-.09-.02c-.05-.02-.1-.07-.12-.13l-2.78-7.09c-.05-.12.01-.25.13-.29l7.09-2.78c.05-.02.12-.02.17,0s.1.07.12.13l2.78,7.09c.05.12-.01.25-.13.29l-7.09,2.78s-.05.01-.08.01h0Zm-2.49-7.19l2.62,6.67,6.67-2.62-2.62-6.67-6.67,2.62Z"/>
        </g>
        <g>
          <rect class="cls-3" x="269.33" y="232.5" width="7.62" height="7.62" transform="translate(-67.44 116.07) rotate(-21.42)"/>
          <path class="cls-10" d="m270.99,241.46s-.06,0-.09-.02c-.05-.02-.1-.07-.12-.13l-2.78-7.09c-.02-.05-.02-.12,0-.17s.07-.1.13-.12l7.09-2.78c.11-.05.25.01.29.13l2.78,7.09c.05.12-.01.25-.13.29l-7.09,2.78s-.05.01-.08.01h0Zm-2.49-7.19l2.62,6.67,6.67-2.62-2.62-6.67-6.67,2.62Z"/>
        </g>
        <g>
          <path class="cls-5" d="m263.48,189.93c-.18,0-.35-.11-.42-.29-.09-.23.02-.49.26-.59l40.49-15.89c.23-.09.49.02.59.26.09.23-.02.49-.26.59l-40.49,15.89c-.05.02-.11.03-.17.03Z"/>
          <path class="cls-5" d="m265.33,194.65c-.18,0-.35-.11-.42-.29-.09-.23.02-.49.26-.59l40.49-15.89c.23-.09.49.02.59.26.09.23-.02.49-.26.59l-40.49,15.89c-.05.02-.11.03-.17.03Z"/>
          <path class="cls-5" d="m267.18,199.36c-.18,0-.35-.11-.42-.29-.09-.23.02-.49.26-.59l26.17-10.27c.23-.09.49.02.59.26.09.23-.02.49-.26.59l-26.17,10.27c-.05.02-.11.03-.17.03Z"/>
        </g>
        <g>
          <path class="cls-5" d="m271.39,210.08c-.18,0-.35-.11-.42-.29-.09-.23.02-.49.26-.59l40.49-15.89c.23-.09.49.02.59.26.09.23-.02.49-.26.59l-40.49,15.89c-.05.02-.11.03-.17.03Z"/>
          <path class="cls-5" d="m273.24,214.8c-.18,0-.35-.11-.42-.29-.09-.23.02-.49.26-.59l40.49-15.89c.23-.09.49.02.59.26.09.23-.02.49-.26.59l-40.49,15.89c-.05.02-.11.03-.17.03Z"/>
          <path class="cls-5" d="m275.09,219.52c-.18,0-.35-.11-.42-.29-.09-.23.02-.49.26-.59l26.17-10.27c.23-.09.49.02.59.26.09.23-.02.49-.26.59l-26.17,10.27c-.05.02-.11.03-.17.03Z"/>
        </g>
        <g>
          <path class="cls-5" d="m279.3,230.24c-.18,0-.35-.11-.42-.29-.09-.23.02-.49.26-.59l40.49-15.89c.23-.09.49.02.59.26.09.23-.02.49-.26.59l-40.49,15.89c-.05.02-.11.03-.17.03Z"/>
          <path class="cls-5" d="m281.15,234.96c-.18,0-.35-.11-.42-.29-.09-.23.02-.49.26-.59l40.49-15.89c.23-.09.49.02.59.26.09.23-.02.49-.26.59l-40.49,15.89c-.05.02-.11.03-.17.03Z"/>
          <path class="cls-5" d="m283,239.68c-.18,0-.35-.11-.42-.29-.09-.23.02-.49.26-.59l26.17-10.27c.23-.09.49.02.59.26.09.23-.02.49-.26.59l-26.17,10.27c-.05.02-.11.03-.17.03Z"/>
        </g>
      </g>
      <g>
        <g>
          <path class="cls-10" d="m289.75,160.72l-4.07,1.6-5.33-7.6c-.55-.79-1.58-1.1-2.48-.75l-19.67,7.72c-.9.35-1.44,1.28-1.31,2.24l1.26,9.2-4.07,1.6c-.42.17-.63.64-.46,1.06.17.42.64.63,1.06.46l35.69-14.01c.42-.17.63-.64.46-1.06-.17-.42-.64-.63-1.06-.46h0Z"/>
          <path class="cls-10" d="m254.36,176.54c-.14,0-.28-.03-.42-.09-.26-.11-.46-.32-.55-.58-.21-.54.05-1.15.59-1.36l3.91-1.53-1.24-9.03c-.14-1.06.45-2.08,1.45-2.48l19.67-7.72c1-.39,2.13-.05,2.75.83l5.24,7.46,3.91-1.53c.54-.21,1.15.05,1.36.59.1.26.09.55-.01.8-.11.26-.32.46-.58.55l-35.69,14.01c-.12.05-.25.07-.38.07h0Zm24.27-22.49c-.23,0-.46.04-.69.13l-19.67,7.72c-.81.32-1.29,1.14-1.17,2l1.29,9.38-4.24,1.66c-.31.12-.46.46-.34.77.06.15.17.27.32.33s.31.07.46,0l35.69-14.01c.15-.06.27-.17.33-.32.06-.14.07-.31,0-.46-.06-.15-.17-.27-.32-.33s-.31-.07-.46,0l-4.24,1.66-5.44-7.75c-.36-.51-.93-.8-1.53-.8h0Z"/>
        </g>
        <g>
          <path class="cls-10" d="m264.73,162.17l-1.85-4.72c-1.02-2.61.26-5.55,2.87-6.57,2.61-1.02,5.55.26,6.57,2.87l1.85,4.72-9.45,3.71h0Z"/>
          <path class="cls-10" d="m264.6,162.47l-1.93-4.93c-.52-1.32-.49-2.76.08-4.05.56-1.3,1.61-2.3,2.92-2.81,1.32-.52,2.76-.49,4.05.08,1.3.57,2.3,1.61,2.81,2.92l1.93,4.93-9.87,3.87h0Zm3-11.72c-.6,0-1.2.11-1.77.34-1.2.47-2.16,1.39-2.67,2.57-.52,1.19-.54,2.5-.07,3.71l1.77,4.51,9.03-3.54-1.77-4.51c-.47-1.2-1.39-2.16-2.57-2.67-.62-.27-1.28-.41-1.94-.41h0Z"/>
        </g>
        <g>
          <path class="cls-4" d="m270.66,154.39c.66,1.69-.17,3.6-1.86,4.27s-3.6-.17-4.27-1.86.17-3.6,1.86-4.27,3.6.17,4.27,1.86h0Z"/>
          <path class="cls-10" d="m267.59,159.12c-.48,0-.96-.1-1.41-.29-.86-.37-1.52-1.06-1.87-1.94-.71-1.8.18-3.85,1.99-4.55.87-.34,1.83-.32,2.69.05s1.52,1.06,1.87,1.94c.71,1.8-.18,3.85-1.99,4.55-.41.16-.85.24-1.29.24h0Zm0-6.58c-.38,0-.76.07-1.12.21-1.57.62-2.35,2.4-1.73,3.97.3.76.87,1.36,1.63,1.69.75.33,1.58.34,2.34.05,1.57-.62,2.35-2.4,1.73-3.97-.3-.76-.87-1.36-1.63-1.69-.39-.17-.81-.26-1.23-.26h0Z"/>
        </g>
      </g>
    </g>
    <g>
      <path class="cls-9" d="m252.21,249.66c-.2-3.52-.27-5.51,2.68-7.28l6.16-3.73c.78,1.52.45,3.54-1.08,4.47l-.78.5,1.85,8.61-8.83-2.57h0Z"/>
      <path class="cls-6" d="m260.82,252.28l-1.88-8.76.91-.58c1.42-.86,1.66-2.63,1.1-3.96l-5.94,3.6c-2.76,1.65-2.78,3.46-2.57,7.08l-.45.03c-.2-3.39-.32-5.62,2.79-7.49l6.37-3.86.11.22c.78,1.52.55,3.72-1.17,4.77l-.64.41,1.82,8.45-.44.09h0Z"/>
    </g>
  </g>
</svg>