<?xml version="1.0" encoding="UTF-8"?>
<svg xmlns="http://www.w3.org/2000/svg" xmlns:xlink="http://www.w3.org/1999/xlink" viewBox="0 0 1009.79 798.26">
  <defs>
    <style>
      .cls-1 {
        fill: url(#linear-gradient-12);
      }

      .cls-1, .cls-2, .cls-3, .cls-4, .cls-5, .cls-6, .cls-7, .cls-8, .cls-9, .cls-10, .cls-11, .cls-12, .cls-13, .cls-14, .cls-15, .cls-16, .cls-17, .cls-18, .cls-19, .cls-20 {
        stroke-width: 0px;
      }

      .cls-21 {
        isolation: isolate;
      }

      .cls-2 {
        fill: url(#linear-gradient-9);
      }

      .cls-2, .cls-22, .cls-11, .cls-14, .cls-20 {
        mix-blend-mode: screen;
      }

      .cls-2, .cls-14, .cls-20 {
        opacity: .6;
      }

      .cls-3 {
        fill: url(#linear-gradient-5);
      }

      .cls-4 {
        fill: url(#linear-gradient-13);
      }

      .cls-5 {
        fill: url(#linear-gradient-16);
      }

      .cls-6 {
        fill: url(#linear-gradient-14);
      }

      .cls-7 {
        fill: url(#linear-gradient-2);
      }

      .cls-8 {
        fill: url(#linear-gradient-7);
      }

      .cls-9 {
        fill: url(#linear-gradient-3);
      }

      .cls-10 {
        fill: url(#linear-gradient);
      }

      .cls-10, .cls-13, .cls-15, .cls-18, .cls-19, .cls-23 {
        mix-blend-mode: multiply;
      }

      .cls-11 {
        fill: url(#linear-gradient-19);
      }

      .cls-12 {
        fill: url(#linear-gradient-18);
      }

      .cls-13 {
        fill: url(#linear-gradient-11);
      }

      .cls-13, .cls-15, .cls-19 {
        opacity: .3;
      }

      .cls-14 {
        fill: url(#linear-gradient-17);
      }

      .cls-15 {
        fill: url(#linear-gradient-15);
      }

      .cls-16 {
        fill: url(#linear-gradient-10);
      }

      .cls-17 {
        fill: url(#linear-gradient-4);
      }

      .cls-18 {
        fill: url(#linear-gradient-6);
      }

      .cls-19 {
        fill: url(#linear-gradient-8);
      }

      .cls-20 {
        fill: url(#linear-gradient-20);
      }
    </style>
    <linearGradient id="linear-gradient" x1="496.52" y1="644.36" x2="12.92" y2="644.36" gradientUnits="userSpaceOnUse">
      <stop offset="0" stop-color="#9fb8ff"/>
      <stop offset="1" stop-color="#fff"/>
    </linearGradient>
    <linearGradient id="linear-gradient-2" x1="818.13" y1="600.35" x2="274.41" y2="600.35" gradientUnits="userSpaceOnUse">
      <stop offset="0" stop-color="#bbcbf9"/>
      <stop offset="1" stop-color="#4973ed"/>
    </linearGradient>
    <linearGradient id="linear-gradient-3" x1="551.89" y1="722.05" x2="551.89" y2="368.44" gradientUnits="userSpaceOnUse">
      <stop offset="0" stop-color="#d4dfff"/>
      <stop offset="1" stop-color="#b0c4ff"/>
    </linearGradient>
    <linearGradient id="linear-gradient-4" x1="551.89" y1="715.23" x2="551.89" y2="587.54" gradientUnits="userSpaceOnUse">
      <stop offset="0" stop-color="#fff"/>
      <stop offset="1" stop-color="#000"/>
    </linearGradient>
    <linearGradient id="linear-gradient-5" x1="431.38" y1="691.95" x2="672.39" y2="450.95" gradientUnits="userSpaceOnUse">
      <stop offset="0" stop-color="#99b4ff"/>
      <stop offset="1" stop-color="#bdceff"/>
    </linearGradient>
    <linearGradient id="linear-gradient-6" x1="516.42" y1="540.99" x2="206.63" y2="540.99" xlink:href="#linear-gradient"/>
    <linearGradient id="linear-gradient-7" x1="198.35" y1="430.89" x2="905.42" y2="430.89" gradientUnits="userSpaceOnUse">
      <stop offset="0" stop-color="#5c75e0"/>
      <stop offset=".24" stop-color="#355acc"/>
      <stop offset="1" stop-color="#7e9fff"/>
    </linearGradient>
    <linearGradient id="linear-gradient-8" x1="281.94" y1="480.56" x2="421.93" y2="340.57" gradientUnits="userSpaceOnUse">
      <stop offset="0" stop-color="#5c75e0"/>
      <stop offset="1" stop-color="#fff"/>
    </linearGradient>
    <linearGradient id="linear-gradient-9" x1="767.95" y1="548.86" x2="767.95" y2="339.72" gradientUnits="userSpaceOnUse">
      <stop offset="0" stop-color="#000"/>
      <stop offset="1" stop-color="#afc4ff"/>
    </linearGradient>
    <linearGradient id="linear-gradient-10" x1="551.88" y1="633.8" x2="551.88" y2="546.65" gradientUnits="userSpaceOnUse">
      <stop offset="0" stop-color="#3653b3"/>
      <stop offset=".99" stop-color="#fff"/>
      <stop offset="1" stop-color="#f7f8fc"/>
    </linearGradient>
    <linearGradient id="linear-gradient-11" x1="333.23" y1="531.86" x2="535.25" y2="329.83" xlink:href="#linear-gradient-8"/>
    <linearGradient id="linear-gradient-12" x1="551.89" y1="406.24" x2="551.89" y2="52.63" xlink:href="#linear-gradient-3"/>
    <linearGradient id="linear-gradient-13" x1="551.89" y1="407.68" x2="551.89" y2="255.57" xlink:href="#linear-gradient-4"/>
    <linearGradient id="linear-gradient-14" x1="238.28" y1="229.44" x2="868.47" y2="229.44" gradientUnits="userSpaceOnUse">
      <stop offset="0" stop-color="#f0f4ff"/>
      <stop offset="1" stop-color="#bdceff"/>
    </linearGradient>
    <linearGradient id="linear-gradient-15" x1="818.43" y1="254.04" x2="818.43" y2="116.04" xlink:href="#linear-gradient-8"/>
    <linearGradient id="linear-gradient-16" x1="400.26" y1="440.76" x2="703.51" y2="137.51" gradientUnits="userSpaceOnUse">
      <stop offset="0" stop-color="#000"/>
      <stop offset="1" stop-color="#40556b"/>
    </linearGradient>
    <linearGradient id="linear-gradient-17" x1="655.67" y1="377.03" x2="499.84" y2="221.2" xlink:href="#linear-gradient-9"/>
    <linearGradient id="linear-gradient-18" x1="766.56" y1="584.62" x2="919.68" y2="431.5" xlink:href="#linear-gradient-16"/>
    <linearGradient id="linear-gradient-19" x1="888.2" y1="615.84" x2="731.55" y2="322.88" gradientUnits="userSpaceOnUse">
      <stop offset="0" stop-color="#000"/>
      <stop offset="1" stop-color="#fff"/>
    </linearGradient>
    <linearGradient id="linear-gradient-20" x1="535.06" y1="102.02" x2="535.06" y2="323.5" gradientUnits="userSpaceOnUse">
      <stop offset="0" stop-color="#294bb0"/>
      <stop offset="1" stop-color="#afc4ff"/>
    </linearGradient>
  </defs>
  <g class="cls-21">
    <g id="_95c6c890-4df0-4047-9b20-53c1698e0703" data-name="95c6c890-4df0-4047-9b20-53c1698e0703">
      <g>
        <rect class="cls-10" y="545.24" width="551.89" height="198.24"/>
        <ellipse class="cls-7" cx="551.89" cy="600.35" rx="286.2" ry="143.13"/>
        <ellipse class="cls-9" cx="551.89" cy="545.24" rx="353.54" ry="176.81"/>
        <g class="cls-22">
          <path class="cls-17" d="m551.89,715.23c-77.58,0-151.25-12.31-213.06-35.61-29.77-11.22-55.74-24.65-77.19-39.91-21.8-15.51-38.42-32.56-49.38-50.68l2.47-1.49c21.36,35.28,65.79,67.02,125.12,89.38,61.48,23.17,134.81,35.42,212.04,35.42s150.56-12.25,212.04-35.42c59.33-22.36,103.77-54.11,125.12-89.38l2.47,1.49c-10.97,18.11-27.58,35.16-49.38,50.68-21.45,15.26-47.42,28.69-77.19,39.91-61.81,23.29-135.48,35.61-213.06,35.61Z"/>
        </g>
        <ellipse class="cls-3" cx="551.89" cy="571.45" rx="215.51" ry="107.78"/>
        <path class="cls-18" d="m198.35,545.24c0,8.62,1.26,17.09,3.64,25.37,107.11,48.4,239.45,61.74,349.9,61.74v-123.19c-103.27-3.68-197.5-24.93-297.41-59.54-35.51,27.57-56.13,60.39-56.13,95.62Z"/>
        <path class="cls-8" d="m905.42,229.44H198.35c0,139.26,110.51,211.74,163.47,317.51,10.18,48.01,91.38,85.41,190.07,85.41s179.89-37.4,190.05-85.41c52.97-105.77,163.49-178.25,163.49-317.51Z"/>
        <path class="cls-19" d="m422.17,553.86c-35.15-108.99-107.42-184.64-111.37-324.43h-112.45c0,139.26,110.51,211.74,163.47,317.51,7.29,34.38,51.01,63.31,111.47,76.97-28.02-16.45-47.22-41.48-51.12-70.05Z"/>
        <path class="cls-2" d="m792.97,229.44c-3.95,139.78-76.23,215.44-111.38,324.43-3.9,28.58-23.1,53.6-51.11,70.06,60.47-13.66,104.18-42.6,111.46-76.97,52.97-105.77,163.49-178.25,163.49-317.51h-112.45Z"/>
        <g class="cls-23">
          <path class="cls-16" d="m551.89,633.8c-47.7,0-93.45-8.82-128.82-24.83-35.36-16.01-57.61-37.93-62.66-61.72l2.82-.6c4.85,22.87,26.52,44.07,61.03,59.69,35,15.85,80.33,24.57,127.63,24.57s92.63-8.73,127.63-24.57c34.5-15.62,56.17-36.82,61.01-59.69l2.82.6c-5.04,23.79-27.29,45.71-62.65,61.72-35.37,16.01-81.11,24.83-128.82,24.83Z"/>
        </g>
        <path class="cls-13" d="m646.19,550.59c-207.79,0-384.16-134.48-446.85-321.15h-.98c0,139.26,110.51,211.74,163.47,317.51,10.18,48,91.38,85.41,190.07,85.41s179.89-37.4,190.05-85.41c1.16-2.31,2.35-4.6,3.56-6.87-32.02,6.87-65.24,10.52-99.31,10.52Z"/>
        <ellipse class="cls-1" cx="551.89" cy="229.44" rx="353.54" ry="176.81"/>
        <g class="cls-22">
          <path class="cls-4" d="m551.89,407.68c-85.34,0-167.81-15.4-232.21-43.35-63.98-27.77-106.15-66.11-118.74-107.93l2.76-.83c12.35,41,53.94,78.69,117.13,106.12,64.04,27.8,146.1,43.12,231.06,43.12s167.02-15.31,231.06-43.12c63.19-27.43,104.78-65.12,117.13-106.12l2.76.83c-12.59,41.83-54.76,80.16-118.74,107.93-64.4,27.96-146.87,43.35-232.21,43.35Z"/>
        </g>
        <ellipse class="cls-6" cx="551.89" cy="229.44" rx="326.95" ry="163.51"/>
        <path class="cls-15" d="m878.83,229.44c0-33.18-19.78-64.04-53.73-89.82,1.13,5.76,1.72,11.59,1.72,17.5,0,39.23-25.57,75.48-68.8,104.8l46.14,71.52c46.64-28.26,74.67-64.5,74.67-104.01Z"/>
        <path class="cls-5" d="m551.89,157.12c-152.97,0-276.97,62.02-276.97,138.51,0,8.15,1.42,16.14,4.12,23.9,58.52,44.23,158.86,73.41,272.85,73.41s214.33-29.18,272.85-73.41c2.7-7.76,4.12-15.75,4.12-23.9,0-76.5-124-138.51-276.97-138.51Z"/>
        <path class="cls-14" d="m809.21,273.04c-2.31-6.84-5.24-13.43-9.01-19.36-.85-1.55-1.91-2.93-2.9-4.37-1.02-1.41-1.95-2.9-3.05-4.23-2.19-2.67-4.29-5.42-6.69-7.85-1.17-1.24-2.31-2.52-3.52-3.72l-3.69-3.49c-2.41-2.4-5.08-4.42-7.62-6.62-10.41-8.46-21.72-15.38-33.34-21.42-11.64-6.01-23.66-11.05-35.87-15.37-24.45-8.58-49.68-14.2-75.06-17.85-12.71-1.75-25.46-3-38.23-3.8-12.78-.71-25.56-.95-38.33-.8-12.77.28-25.52.95-38.24,2.09-12.7,1.23-25.36,2.9-37.93,5.06-25.1,4.48-49.9,10.89-73.67,20.14-11.87,4.64-23.48,9.98-34.61,16.21-11.1,6.25-21.8,13.31-31.43,21.68-9.57,8.39-18.34,17.9-24.68,28.98-3.25,5.49-5.63,11.44-7.49,17.5-1.68,6.14-2.46,12.47-2.48,18.79.24-6.32,1.23-12.59,3.1-18.6,2.05-5.95,4.59-11.73,7.98-17.02.75-1.38,1.72-2.62,2.61-3.91.93-1.27,1.74-2.61,2.76-3.81,2-2.42,3.9-4.92,6.11-7.14,1.08-1.14,2.12-2.31,3.23-3.41l3.42-3.23c2.22-2.21,4.74-4.1,7.1-6.16,9.74-7.91,20.49-14.49,31.61-20.26,11.15-5.75,22.74-10.61,34.57-14.77,23.68-8.3,48.29-13.78,73.09-17.34,12.42-1.71,24.9-2.92,37.4-3.71,12.51-.69,25.04-.92,37.55-.77,12.52.28,25.01.94,37.46,2.06,12.44,1.21,24.82,2.85,37.1,4.97,24.52,4.38,48.7,10.66,71.7,19.63,11.48,4.5,22.67,9.65,33.3,15.62,10.61,5.98,20.75,12.7,29.71,20.52,8.9,7.82,16.88,16.58,22.44,26.35,2.87,4.85,4.87,9.99,6.46,15.16,1.4,5.22,2.02,10.53,2.05,15.83v.43c0,.08,0,.16,0,.24.18,5.7,4.95,10.17,10.65,9.99,5.7-.18,10.17-4.95,9.99-10.65-.24-7.35-1.39-14.63-3.53-21.56Zm-83.15-1.57c-4.51,7.16-10.57,13.2-17.12,18.47-13.28,10.45-28.8,17.69-44.71,23.19-32.04,10.76-66.08,14.64-99.68,13.84-33.58-.9-67.19-6.56-97.89-18.68-15.21-6.14-29.81-13.98-41.54-24.29-5.78-5.17-10.88-10.91-14.33-17.16-1.79-3.1-2.99-6.34-3.95-9.56-.83-3.25-1.16-6.51-1.14-9.76v-.36c0-.13,0-.26,0-.4-.21-5.7-5-10.15-10.7-9.94-5.7.21-10.15,5-9.94,10.7.19,5.29,1.06,10.53,2.63,15.49,1.68,4.89,3.8,9.57,6.5,13.75,5.3,8.46,12.15,15.25,19.37,21.09,14.62,11.54,31.06,19.14,47.74,24.95,33.56,11.31,68.64,15.27,103.27,14.48,34.61-.92,69.26-6.66,101.47-19.32,15.99-6.45,31.51-14.66,44.57-26.05,6.45-5.74,12.34-12.24,16.58-19.78,2.17-3.74,3.76-7.78,4.98-11.89,1.1-4.16,1.59-8.45,1.57-12.72-.2,4.27-.9,8.49-2.19,12.53-1.41,4-3.16,7.87-5.47,11.42Zm-234.02,22.64c9.35,4.86,19.26,8.32,29.31,10.89,10.06,2.55,20.32,4.28,30.63,5.05,10.32.79,20.7.97,31.06.22,10.36-.78,20.72-2.3,30.95-4.82,10.25-2.47,20.31-6.24,29.97-11.43,4.81-2.67,9.5-5.8,13.85-9.66,4.36-3.83,8.34-8.58,11.32-14.3,1.44-2.9,2.57-6.05,3.28-9.36.67-3.33.83-6.81.51-10.22-.66-6.87-3.42-13.17-6.95-18.33-7.25-10.32-16.92-16.93-26.62-22.1-.14-.08-.32-.17-.47-.24-5.16-2.42-11.31-.19-13.73,4.97-6.05-2.38-12.28-4.37-18.59-5.99-9.75-2.48-19.72-4.17-29.78-4.93-10.05-.78-20.18-.96-30.28-.23-10.09.76-20.16,2.23-30.06,4.66-9.92,2.37-19.58,6.02-28.73,10.91-4.55,2.51-8.93,5.44-12.94,8.98-4.01,3.51-7.57,7.78-10.18,12.76-1.25,2.52-2.23,5.23-2.85,8.06-.57,2.84-.71,5.79-.46,8.69.55,5.84,2.9,11.31,6.03,15.93,6.44,9.24,15.46,15.55,24.72,20.47Zm-22.37-43.62c.37-2.09,1-4.15,1.89-6.16,3.73-8.05,11.22-14.56,19.39-19.54,8.31-4.91,17.38-8.82,26.85-11.51,9.46-2.75,19.21-4.62,29.05-5.78,9.86-1.14,19.82-1.39,29.77-1.05,9.95.32,19.88,1.56,29.64,3.61,6.33,1.34,12.6,3.04,18.7,5.23-2.06,5.06.15,10.89,5.15,13.23,8.1,3.79,15.5,8.82,20.07,14.83,4.52,6.07,5.64,12.31,2.69,18.84-2.96,6.58-9.66,12.67-17.33,17.32-7.8,4.62-16.48,8.4-25.62,11-9.12,2.66-18.59,4.48-28.17,5.62-9.59,1.12-19.3,1.36-28.98,1.04-9.69-.3-19.34-1.51-28.79-3.48-9.44-1.99-18.7-4.79-27.33-8.82-8.55-4.05-16.59-9.37-21.97-16.46-2.63-3.54-4.49-7.51-5.06-11.65-.27-2.07-.27-4.17.05-6.27Z"/>
        <path class="cls-12" d="m879.34,597.89c-15.45,0-32.3-4.28-49.33-12.8l-123.89-61.96c-7.14-3.57-10.03-12.25-6.46-19.39,3.57-7.14,12.25-10.03,19.39-6.46l123.89,61.96c22.66,11.33,43.61,12.92,57.47,4.35,11.34-7.01,17.58-21,17.58-39.4,0-47.18-40.29-107.19-87.98-131.04-7.14-3.57-10.03-12.25-6.46-19.39,3.57-7.14,12.25-10.03,19.39-6.46,58.29,29.15,103.96,98.07,103.96,156.89,0,28.79-11.11,51.52-31.29,63.99-10.49,6.48-22.85,9.71-36.26,9.71Z"/>
        <path class="cls-11" d="m879.28,571.11c-12.54,0-26.71-3.77-40.95-10.9l-123.89-61.96c-.58-.29-1.2-.44-1.83-.44-1.24,0-2.86.6-3.7,2.29-1.02,2.04-.19,4.52,1.85,5.54l123.89,61.96c6.01,3.01,12.04,5.43,17.99,7.3,6.64,1.71,13.09,2.61,19.15,2.61,10.12,0,19.05-2.35,26.56-7,3.23-2,6.12-4.42,8.69-7.2-.39.26-.78.54-1.18.79-7.51,4.64-16.45,7-26.56,7Zm-40.96-202.84c-.58-.29-1.2-.44-1.83-.44-1.24,0-2.86.6-3.7,2.29-1.02,2.04-.19,4.52,1.85,5.54,48.02,24.01,87.7,80.07,93.05,129.23.89,5.88,1.38,11.72,1.38,17.45,0,19.76-5.84,36.1-16.63,47.3,15.58-10.82,24.14-29.76,24.14-53.7,0-55.25-43.16-120.11-98.26-147.66Z"/>
        <path class="cls-20" d="m795.21,229.43c-46.96-43.08-138.31-72.31-243.32-72.31-152.97,0-276.97,62.02-276.97,138.51,0,8.15,1.42,16.14,4.12,23.9,11.11,8.4,23.73,16.25,37.66,23.46-45.29-185.88,351.06,20.14,478.51-113.57Z"/>
      </g>
    </g>
  </g>
</svg>