<?xml version="1.0" encoding="UTF-8"?>
<svg xmlns="http://www.w3.org/2000/svg" xmlns:xlink="http://www.w3.org/1999/xlink" viewBox="0 0 1060.39 798.26">
  <defs>
    <style>
      .cls-1 {
        fill: url(#linear-gradient-12);
      }

      .cls-1, .cls-2, .cls-3, .cls-4, .cls-5, .cls-6, .cls-7, .cls-8, .cls-9, .cls-10, .cls-11, .cls-12, .cls-13, .cls-14, .cls-15, .cls-16, .cls-17, .cls-18, .cls-19 {
        stroke-width: 0px;
      }

      .cls-1, .cls-20, .cls-14 {
        mix-blend-mode: screen;
      }

      .cls-1, .cls-14 {
        opacity: .6;
      }

      .cls-2 {
        fill: url(#linear-gradient-15);
      }

      .cls-2, .cls-3, .cls-4, .cls-5, .cls-12, .cls-16, .cls-19 {
        mix-blend-mode: multiply;
      }

      .cls-3 {
        fill: url(#linear-gradient-11);
      }

      .cls-21 {
        isolation: isolate;
      }

      .cls-4 {
        fill: url(#linear-gradient-6);
      }

      .cls-4, .cls-16 {
        opacity: .5;
      }

      .cls-5 {
        fill: url(#linear-gradient-9);
      }

      .cls-6 {
        fill: #fff;
      }

      .cls-7 {
        fill: url(#linear-gradient-14);
      }

      .cls-8 {
        fill: url(#linear-gradient-2);
      }

      .cls-9 {
        fill: url(#linear-gradient-7);
      }

      .cls-10 {
        fill: url(#radial-gradient-2);
      }

      .cls-11 {
        fill: url(#linear-gradient-3);
      }

      .cls-12 {
        fill: url(#linear-gradient);
      }

      .cls-13 {
        fill: url(#radial-gradient);
      }

      .cls-14 {
        fill: url(#linear-gradient-16);
      }

      .cls-15 {
        fill: url(#linear-gradient-8);
      }

      .cls-16 {
        fill: url(#linear-gradient-5);
      }

      .cls-17 {
        fill: url(#linear-gradient-10);
      }

      .cls-18 {
        fill: url(#linear-gradient-4);
      }

      .cls-19 {
        fill: url(#linear-gradient-13);
      }
    </style>
    <linearGradient id="linear-gradient" x1="563.33" y1="557.35" x2="14.66" y2="557.35" gradientUnits="userSpaceOnUse">
      <stop offset="0" stop-color="#9fb8ff"/>
      <stop offset="1" stop-color="#fff"/>
    </linearGradient>
    <linearGradient id="linear-gradient-2" x1="48.15" y1="448.51" x2="1059.76" y2="448.51" gradientUnits="userSpaceOnUse">
      <stop offset="0" stop-color="#3755c4"/>
      <stop offset=".43" stop-color="#1539ab"/>
      <stop offset=".81" stop-color="#577ae0"/>
      <stop offset="1" stop-color="#3e61cc"/>
    </linearGradient>
    <linearGradient id="linear-gradient-3" x1="391.09" y1="511.17" x2="824.52" y2="294.99" gradientUnits="userSpaceOnUse">
      <stop offset="0" stop-color="#d4dfff"/>
      <stop offset="1" stop-color="#b0c4ff"/>
    </linearGradient>
    <linearGradient id="linear-gradient-4" x1="554.27" y1="684.48" x2="554.27" y2="391.6" gradientUnits="userSpaceOnUse">
      <stop offset="0" stop-color="#fff"/>
      <stop offset="1" stop-color="#000"/>
    </linearGradient>
    <linearGradient id="linear-gradient-5" x1="613.73" y1="640.97" x2="613.73" y2="80.84" gradientUnits="userSpaceOnUse">
      <stop offset="0" stop-color="#5c75e0"/>
      <stop offset="1" stop-color="#fff"/>
    </linearGradient>
    <linearGradient id="linear-gradient-6" x1="423.45" y1="566.45" x2="680.08" y2="184.67" xlink:href="#linear-gradient-5"/>
    <linearGradient id="linear-gradient-7" x1="454.31" y1="394.28" x2="454.31" y2="174.9" gradientTransform="translate(175.27 -173.15) rotate(26.57)" xlink:href="#linear-gradient-4"/>
    <linearGradient id="linear-gradient-8" x1="643.67" y1="584.49" x2="643.67" y2="365.1" gradientTransform="translate(280.35 -237.76) rotate(26.57)" xlink:href="#linear-gradient-4"/>
    <linearGradient id="linear-gradient-9" x1="295.52" y1="329.84" x2="223.68" y2="329.84" xlink:href="#linear-gradient"/>
    <linearGradient id="linear-gradient-10" x1="262.42" y1="300.47" x2="345.07" y2="217.83" gradientUnits="userSpaceOnUse">
      <stop offset="0" stop-color="#5073d9"/>
      <stop offset="1" stop-color="#99b4ff"/>
    </linearGradient>
    <linearGradient id="linear-gradient-11" x1="309.71" y1="214.53" x2="292.92" y2="231.32" gradientUnits="userSpaceOnUse">
      <stop offset="0" stop-color="#314d9e"/>
      <stop offset=".45" stop-color="#9fb8ff"/>
      <stop offset="1" stop-color="#fff"/>
    </linearGradient>
    <radialGradient id="radial-gradient" cx="316.03" cy="145.37" fx="316.03" fy="145.37" r="78.33" gradientUnits="userSpaceOnUse">
      <stop offset="0" stop-color="#7e9fff"/>
      <stop offset=".76" stop-color="#355acc"/>
      <stop offset="1" stop-color="#5c75e0"/>
    </radialGradient>
    <linearGradient id="linear-gradient-12" x1="310.33" y1="155.67" x2="317.25" y2="136.86" gradientUnits="userSpaceOnUse">
      <stop offset="0" stop-color="#294bb0"/>
      <stop offset="1" stop-color="#afc4ff"/>
    </linearGradient>
    <linearGradient id="linear-gradient-13" x1="774.48" y1="480.58" x2="666.41" y2="480.58" xlink:href="#linear-gradient"/>
    <linearGradient id="linear-gradient-14" x1="724.69" y1="436.4" x2="849.02" y2="312.08" xlink:href="#linear-gradient-10"/>
    <linearGradient id="linear-gradient-15" x1="795.83" y1="307.11" x2="770.58" y2="332.37" xlink:href="#linear-gradient-11"/>
    <radialGradient id="radial-gradient-2" cx="805.33" cy="203.09" fx="805.33" fy="203.09" r="112.65" gradientTransform="translate(394.56 -488.42) rotate(45)" gradientUnits="userSpaceOnUse">
      <stop offset="0" stop-color="#6987ad"/>
      <stop offset=".76" stop-color="#080a0d"/>
      <stop offset="1" stop-color="#516c87"/>
    </radialGradient>
    <linearGradient id="linear-gradient-16" x1="796.76" y1="218.58" x2="807.17" y2="190.28" gradientTransform="translate(878.48 -614.27) rotate(80.78)" xlink:href="#linear-gradient-12"/>
  </defs>
  <g class="cls-21">
    <g id="_95c6c890-4df0-4047-9b20-53c1698e0703" data-name="95c6c890-4df0-4047-9b20-53c1698e0703">
      <g>
        <rect class="cls-12" y="412.81" width="626.14" height="289.07"/>
        <polygon class="cls-8" points="1059.76 485.03 1059.76 466.04 860.47 385.35 671.12 195.15 481.77 195.96 48.15 393.83 48.15 412.81 237.5 412 426.86 602.21 626.14 701.88 1059.76 485.03"/>
        <polygon class="cls-11" points="1059.76 466.04 860.47 366.37 671.12 176.16 481.77 176.97 48.15 393.83 237.5 393.02 426.86 583.22 626.14 682.9 1059.76 466.04"/>
        <g class="cls-20">
          <polygon class="cls-18" points="626.14 684.48 625.51 684.16 426.02 584.38 425.86 584.22 236.92 394.43 48.16 395.24 48.15 392.41 238.09 391.6 427.7 582.06 626.14 681.31 1059.12 464.78 1060.39 467.31 626.14 684.48"/>
        </g>
        <path class="cls-16" d="m384.8,386.44l44.41,44.81,39.71-20.2-44.41-44.81-39.71,20.2Zm415.77,93.33l-84-41.43-142.88-144.17-127.75,64.99,142.88,144.17,84,41.43,127.75-64.99Zm125.74-59.98l-57.69,28.85,102.27,51.15,57.69-28.85-102.28-51.15Zm-130.44,116.39l51.14,25.57,67.67-33.84-51.14-25.57-67.67,33.84Zm-340.09,61.51l98.18,49.11,51.27-25.64-98.18-49.11-51.27,25.64Zm216.45-318.59l44.94,45.14,67.67-33.84-44.94-45.14-67.67,33.84Zm10.99,272.42l42.52,19.73-61.07,30.54,51.14,25.57,112.21-56.12-93.66-45.3-51.14,25.57Zm-212.23-275.26l-144.36-2.15-127.75,64.99,143.63,1.41,33,33.3,127.75-64.99-32.27-32.56Zm142.98-99.84l-132.19.57-62.17,30.76,132.19-.57,62.17-30.76Z"/>
        <polygon class="cls-6" points="755.18 412.02 752.58 409.71 626.86 283.43 727.71 233 713.6 218.83 612.76 269.26 563.53 219.81 396.1 219.81 358.14 238.8 555.64 238.8 734.69 418.66 506.95 532.55 319.66 344.41 146.97 344.41 109 363.4 311.77 363.4 489.07 541.5 419.8 576.14 426.86 583.22 437.47 588.53 505.08 554.72 694.37 648.78 715.63 638.14 526.34 544.08 751.59 431.43 940.89 525.49 962.15 514.86 755.18 412.02"/>
        <polygon class="cls-4" points="237.5 393.02 426.86 583.22 860.47 366.37 671.12 176.16 237.5 393.02"/>
        <g class="cls-20">
          <rect class="cls-9" x="211.9" y="283.17" width="484.82" height="2.83" transform="translate(-79.31 233.26) rotate(-26.57)"/>
        </g>
        <g class="cls-20">
          <rect class="cls-15" x="401.26" y="473.38" width="484.82" height="2.83" transform="translate(-144.39 338.04) rotate(-26.57)"/>
        </g>
        <g>
          <rect class="cls-5" x="221.76" y="324.61" width="81.99" height="10.47"/>
          <path class="cls-17" d="m292.88,187.37v142.27c0,1.39,1.06,2.78,3.18,3.84,4.24,2.12,11.13,2.12,15.37,0,2.12-1.06,3.18-2.45,3.18-3.84v-142.27h-21.74Z"/>
          <path class="cls-3" d="m292.88,211.79v23.79c8.88-10.66,17.9-13.11,21.74-6.39v-17.4h-21.74Z"/>
          <circle class="cls-13" cx="303.75" cy="164.64" r="52.72"/>
          <circle class="cls-1" cx="312.64" cy="149.39" r="19.76"/>
        </g>
        <g>
          <rect class="cls-19" x="663.52" y="472.71" width="123.34" height="15.75"/>
          <path class="cls-7" d="m770.51,266.26v214.02c0,2.09,1.6,4.18,4.79,5.78,6.39,3.19,16.74,3.19,23.12,0,3.19-1.6,4.79-3.69,4.79-5.78v-214.02h-32.7Z"/>
          <path class="cls-2" d="m770.51,303v35.79c13.36-16.04,26.92-19.72,32.7-9.61v-26.18h-32.7Z"/>
          <circle class="cls-10" cx="786.86" cy="232.07" r="79.3" transform="translate(66.37 624.36) rotate(-45)"/>
          <circle class="cls-14" cx="800.23" cy="209.13" r="29.73" transform="translate(465.62 965.54) rotate(-80.78)"/>
        </g>
      </g>
    </g>
  </g>
</svg>