<?xml version="1.0" encoding="UTF-8"?>
<svg xmlns="http://www.w3.org/2000/svg" xmlns:xlink="http://www.w3.org/1999/xlink" viewBox="0 0 937.93 798.26">
  <defs>
    <style>
      .cls-1 {
        fill: url(#linear-gradient-12);
      }

      .cls-1, .cls-2, .cls-3, .cls-4, .cls-5, .cls-6, .cls-7, .cls-8, .cls-9, .cls-10, .cls-11, .cls-12, .cls-13, .cls-14, .cls-15, .cls-16, .cls-17, .cls-18 {
        stroke-width: 0px;
      }

      .cls-2 {
        fill: url(#linear-gradient-17);
      }

      .cls-3 {
        fill: url(#linear-gradient-5);
        opacity: .3;
      }

      .cls-3, .cls-13, .cls-19 {
        mix-blend-mode: multiply;
      }

      .cls-20 {
        isolation: isolate;
      }

      .cls-4 {
        fill: url(#linear-gradient-6);
        opacity: .6;
      }

      .cls-4, .cls-21 {
        mix-blend-mode: screen;
      }

      .cls-5 {
        fill: url(#linear-gradient-15);
      }

      .cls-6 {
        fill: url(#linear-gradient-11);
      }

      .cls-7 {
        fill: url(#linear-gradient-13);
      }

      .cls-8 {
        fill: url(#linear-gradient-16);
      }

      .cls-9 {
        fill: url(#linear-gradient-14);
      }

      .cls-10 {
        fill: url(#linear-gradient-2);
      }

      .cls-11 {
        fill: url(#linear-gradient-7);
      }

      .cls-12 {
        fill: url(#linear-gradient-3);
      }

      .cls-13 {
        fill: url(#linear-gradient);
      }

      .cls-14 {
        fill: url(#linear-gradient-9);
      }

      .cls-15 {
        fill: url(#linear-gradient-8);
      }

      .cls-16 {
        fill: url(#linear-gradient-18);
      }

      .cls-17 {
        fill: url(#linear-gradient-10);
      }

      .cls-18 {
        fill: url(#linear-gradient-4);
      }
    </style>
    <linearGradient id="linear-gradient" x1="624.22" y1="692.55" x2="45.32" y2="692.55" gradientUnits="userSpaceOnUse">
      <stop offset="0" stop-color="#9fb8ff"/>
      <stop offset="1" stop-color="#fff"/>
    </linearGradient>
    <linearGradient id="linear-gradient-2" x1="331.83" y1="580.45" x2="715.67" y2="196.62" gradientUnits="userSpaceOnUse">
      <stop offset="0" stop-color="#99b4ff"/>
      <stop offset="1" stop-color="#bdceff"/>
    </linearGradient>
    <linearGradient id="linear-gradient-3" x1="513.16" y1="214.62" x2="513.16" y2="8.46" gradientUnits="userSpaceOnUse">
      <stop offset="0" stop-color="#d4dfff"/>
      <stop offset="1" stop-color="#b0c4ff"/>
    </linearGradient>
    <linearGradient id="linear-gradient-4" x1="686.66" y1="219.87" x2="307.59" y2="598.94" gradientUnits="userSpaceOnUse">
      <stop offset="0" stop-color="#94b0ff"/>
      <stop offset="1" stop-color="#acc1ff"/>
    </linearGradient>
    <linearGradient id="linear-gradient-5" x1="307.05" y1="599.48" x2="604.27" y2="302.26" gradientUnits="userSpaceOnUse">
      <stop offset="0" stop-color="#5c75e0"/>
      <stop offset="1" stop-color="#fff"/>
    </linearGradient>
    <linearGradient id="linear-gradient-6" x1="669.65" y1="602.41" x2="336.18" y2="602.41" gradientUnits="userSpaceOnUse">
      <stop offset="0" stop-color="#afc4ff"/>
      <stop offset="1" stop-color="#294bb0"/>
    </linearGradient>
    <linearGradient id="linear-gradient-7" x1="386.45" y1="1287.29" x2="492.81" y2="1324.35" gradientTransform="translate(-573.44 -427.52) rotate(-27.92)" gradientUnits="userSpaceOnUse">
      <stop offset="0" stop-color="#7e9fff"/>
      <stop offset=".54" stop-color="#5c75e0"/>
      <stop offset=".99" stop-color="#0e2791"/>
    </linearGradient>
    <linearGradient id="linear-gradient-8" x1="513.16" y1="791.27" x2="513.16" y2="596.87" gradientUnits="userSpaceOnUse">
      <stop offset="0" stop-color="#3653b3"/>
      <stop offset=".99" stop-color="#fff"/>
      <stop offset="1" stop-color="#f7f8fc"/>
    </linearGradient>
    <linearGradient id="linear-gradient-9" x1="402.42" y1="503.04" x2="691.72" y2="213.73" gradientUnits="userSpaceOnUse">
      <stop offset="0" stop-color="#000"/>
      <stop offset="1" stop-color="#fff"/>
    </linearGradient>
    <linearGradient id="linear-gradient-10" x1="459.4" y1="314.27" x2="538.13" y2="235.54" gradientUnits="userSpaceOnUse">
      <stop offset="0" stop-color="#000"/>
      <stop offset="1" stop-color="#40556b"/>
    </linearGradient>
    <linearGradient id="linear-gradient-11" x1="585.63" y1="724.2" x2="582.89" y2="654.2" gradientTransform="matrix(1,0,0,1,0,0)" xlink:href="#linear-gradient-7"/>
    <linearGradient id="linear-gradient-12" x1="510.26" y1="687.64" x2="540.45" y2="635.03" gradientTransform="matrix(1,0,0,1,0,0)" xlink:href="#linear-gradient-7"/>
    <linearGradient id="linear-gradient-13" x1="523.24" y1="629.04" x2="594.89" y2="557.39" gradientUnits="userSpaceOnUse">
      <stop offset="0" stop-color="#294bb0"/>
      <stop offset="1" stop-color="#5c75e0"/>
    </linearGradient>
    <linearGradient id="linear-gradient-14" x1="537.98" y1="614.31" x2="580.16" y2="572.12" gradientTransform="translate(483.46 -218.42) rotate(37.98)" xlink:href="#linear-gradient-10"/>
    <linearGradient id="linear-gradient-15" x1="537.07" y1="615.21" x2="581.07" y2="571.22" xlink:href="#linear-gradient-9"/>
    <linearGradient id="linear-gradient-16" x1="449.61" y1="150.8" x2="548.38" y2="249.57" gradientUnits="userSpaceOnUse">
      <stop offset="0" stop-color="#bdceff"/>
      <stop offset="1" stop-color="#f0f4ff"/>
    </linearGradient>
    <linearGradient id="linear-gradient-17" x1="486.22" y1="-561.95" x2="525.25" y2="-600.97" gradientTransform="translate(-95.08 150.87) rotate(64.55) scale(1.12 .89) skewX(21.8)" xlink:href="#linear-gradient-10"/>
    <linearGradient id="linear-gradient-18" x1="459.43" y1="428.24" x2="539.25" y2="348.42" gradientUnits="userSpaceOnUse">
      <stop offset="0" stop-color="#5c75e0"/>
      <stop offset="1" stop-color="#294bb0"/>
    </linearGradient>
  </defs>
  <g class="cls-20">
    <g id="_95c6c890-4df0-4047-9b20-53c1698e0703" data-name="95c6c890-4df0-4047-9b20-53c1698e0703">
      <g>
        <rect class="cls-13" x="29.85" y="595.28" width="660.65" height="194.52"/>
        <polygon class="cls-10" points="327.13 575.75 307.04 22.85 335.82 8.46 719.27 200.23 719.27 775.42 690.5 789.81 327.13 575.75"/>
        <polygon class="cls-12" points="690.5 214.62 719.27 200.23 335.82 8.46 307.04 22.85 690.5 214.62"/>
        <polygon class="cls-18" points="307.04 599.47 307.04 24.28 690.5 216.05 690.5 791.24 307.04 599.47"/>
        <path class="cls-3" d="m345.55,45.77c0-.74,0-1.48.01-2.22l-38.52-19.27v575.19l383.46,191.77v-68.78C327.47,651.64,345.55,346.16,345.55,45.77Z"/>
        <path class="cls-4" d="m307.04,415.39v182.64l383.46,191.77v-142.27c-177.24,30.89-193.61-244.22-383.46-232.14Z"/>
        <path class="cls-11" d="m396.92,495.89c-3.67,1.82-6.5,4.34-8.33,7.33-.47.74-.87,1.52-1.21,2.32-.36.79-.56,1.61-.59,2.5-.02.88.13,1.8.57,2.69.43.89,1.18,1.69,2.17,2.22,2.03,1.13,4.39.82,6.25.13,1.92-.72,3.72-1.63,5.34-2.64,3.24-2.04,5.74-4.63,7.52-7.55l3.49,1.85-7.93,10.9-3.95,5.46-1.96,2.72c-.28.4-.47.82-.47,1.13.03.32.08.31.18.39.02,0,.02.02.16.05.13.03.37.03.61.01.5-.04,1.06-.2,1.54-.42.43-.2,1.01-.57,1.54-.87l1.61-.95,6.46-3.79,12.91-7.58,7.21-4.23-4.05,6.28-11.31,17.54-2.99-2.13c4.97-1.89,10.5-3.2,16.38-3.98,2.94-.39,5.95-.67,9.04-.82,1.57-.07,3.03-.15,4.73-.14,1.7.04,3.48.14,5.59.72,1.04.3,2.23.77,3.32,1.55,1.11.77,1.85,1.79,2.15,2.62.58,1.68.18,2.87-.23,3.96-.95,2.14-2.46,3.85-4.1,5.47-1.67,1.6-3.52,3.09-5.58,4.41-2.09,1.31-4.36,2.46-6.8,3.46-9.8,3.98-22.15,5.26-35.09,4.6-12.97-.65-26.58-3.1-40.1-6.88l-9.25-2.59h8.65c14.35.01,27.42-2.36,39.58-5.68,12.19-3.33,23.56-7.6,35.21-11.64,5.81-2.03,11.73-3.97,17.76-5.81,3.03-.9,6.23-1.62,9.43-2.34l4.87-.99c1.66-.28,3.3-.59,4.98-.85,6.7-1.04,13.7-1.69,20.99-1.77,1.81-.05,3.67.01,5.52.05,1.83.03,3.73.1,5.75.5,1,.21,2.04.53,3.02,1,.48.24.95.51,1.37.83.41.32.75.68,1.02,1.05.52.73.77,1.49.66,2.14-.09.65-.7,1.16-1.65,1.12.93-.01,1.44-.55,1.46-1.18.04-.64-.26-1.36-.79-2.03-.52-.68-1.33-1.22-2.24-1.61-.9-.4-1.85-.65-2.77-.8-1.86-.3-3.66-.26-5.45-.22-1.8.03-3.6.05-5.34.17-7.04.37-13.72,1.31-20.1,2.63-6.4,1.29-12.38,3.09-18.36,4.88-6.06,1.71-11.87,3.7-17.68,5.71-11.61,4.03-23.03,8.32-35.39,11.7-12.33,3.37-25.7,5.82-40.54,5.81l-.6-2.58c13.14,3.67,26.38,6.06,38.9,6.68,12.5.63,24.31-.61,33.61-4.39,2.31-.95,4.47-2.04,6.45-3.27,1.95-1.25,3.7-2.66,5.28-4.18,1.56-1.53,2.97-3.17,3.76-4.97.37-.89.55-1.88.26-2.64-.15-.38-.34-.63-.65-.84-.31-.22-.8-.46-1.42-.63-2.59-.73-5.64-.49-8.63-.37-2.98.15-5.89.42-8.72.79-5.66.75-10.96,2.01-15.7,3.81l-5.78,2.2,2.79-4.33,11.31-17.54,3.16,2.05-12.91,7.58-6.46,3.79-1.61.95c-.56.32-1,.62-1.75.98-.71.31-1.49.56-2.52.66-.52.04-1.1.05-1.83-.07-.71-.12-1.6-.43-2.34-.9-.73-.46-1.3-.99-1.67-1.59-.37-.59-.47-1.12-.46-1.55.03-.86.38-1.43.73-1.96l1.98-2.74,3.95-5.46,7.86-10.93,3.49,1.85c-2.09,3.06-5.12,5.59-8.77,7.57-1.85.98-3.81,1.82-6.01,2.49-1.13.32-2.38.58-3.86.56-1.46,0-3.31-.44-4.82-1.35-1.55-.9-2.57-2.18-3.02-3.28-.47-1.12-.54-2.15-.45-3.11.1-.95.41-1.85.86-2.63.42-.79.9-1.56,1.46-2.28,2.22-2.89,5.42-5.21,9.35-6.79Z"/>
        <g class="cls-19">
          <polygon class="cls-15" points="690.5 791.27 689.91 790.97 306.46 599.2 307.62 596.87 690.5 788.35 718.69 774.25 719.86 776.58 690.5 791.27"/>
        </g>
        <g class="cls-21">
          <polygon class="cls-14" points="691.8 789.81 689.19 789.81 689.19 215.43 306.46 24.02 307.62 21.68 691.8 213.81 691.8 789.81"/>
        </g>
        <path class="cls-17" d="m619.12,317.66l-226.75-113.4c-10.37-5.18-22.57,2.35-22.57,13.94,0,5.9,3.34,11.3,8.62,13.94l226.75,113.4c10.37,5.18,22.57-2.35,22.57-13.94,0-5.91-3.34-11.3-8.62-13.95Z"/>
        <g>
          <polygon class="cls-6" points="626.5 726.12 594.41 705.04 573.06 718.84 540.48 613.04 593.92 620.32 626.5 726.12"/>
          <polygon class="cls-1" points="491.63 658.67 523.73 669.69 545.08 704.85 577.65 631.63 524.21 585.45 491.63 658.67"/>
          <polygon class="cls-7" points="559.07 529.07 564.94 540.33 572.41 537.14 576.41 548.51 585.16 547.66 587.13 558.64 596.77 560.17 596.63 570.28 606.74 574.13 604.48 582.93 614.62 588.92 610.35 596.03 620.08 603.9 613.97 609 622.87 618.42 615.2 621.29 622.87 631.83 613.97 632.34 620.08 643.55 610.35 641.69 614.62 653.07 604.48 648.92 606.74 659.98 596.63 653.71 596.77 663.97 587.13 655.86 585.16 664.87 576.41 655.27 572.41 662.63 564.94 651.97 559.07 657.36 553.2 646.1 545.73 649.29 541.72 637.92 532.98 638.77 531 627.79 521.36 626.26 521.51 616.14 511.4 612.3 513.66 603.5 503.51 597.51 507.79 590.4 498.06 582.53 504.16 577.43 495.27 568.01 502.94 565.14 495.27 554.6 504.16 554.09 498.06 542.88 507.79 544.74 503.51 533.36 513.66 537.51 511.4 526.45 521.51 532.72 521.36 522.46 531 530.57 532.98 521.56 541.72 531.16 545.73 523.8 553.2 534.46 559.07 529.07"/>
          <ellipse class="cls-9" cx="559.07" cy="593.21" rx="29.45" ry="48.32" transform="translate(-246.66 469.68) rotate(-37.98)"/>
          <g class="cls-21">
            <path class="cls-5" d="m575.94,636.69c-5.39,0-11.36-1.54-17.46-4.58-21.2-10.6-38.44-36.51-38.44-57.76,0-9.76,3.63-17.38,10.22-21.45,7.55-4.66,18.26-4.14,29.4,1.42,21.2,10.6,38.44,36.51,38.44,57.76,0,9.76-3.63,17.38-10.22,21.45-3.41,2.11-7.48,3.16-11.94,3.16Zm-33.75-84.34c-3.97,0-7.57.92-10.57,2.77-5.79,3.58-8.98,10.41-8.98,19.23,0,20.36,16.6,45.22,37,55.42,10.31,5.16,20.1,5.72,26.86,1.54,5.79-3.58,8.98-10.41,8.98-19.23,0-20.36-16.6-45.22-37-55.42-5.73-2.87-11.31-4.31-16.29-4.31Z"/>
          </g>
        </g>
        <path class="cls-8" d="m447.96,168.12c-13.31-.13-19.41-1.2-26.29-11.52l-9.8,4.9c6.17,9.25,12.58,14.61,18.81,17.73,8.5,4.25,16.66,4.33,23.39,4.39,5.71.05,10.38.23,14.57,1.52,0-.19-.01-.39-.01-.58,0-4.81.92-8.93,2.59-12.32-8.51-3.97-16.56-4.06-23.24-4.12Zm141.84,72.56c-6.88,3.44-12.98-1.59-26.29-14.78-6.69-6.63-14.74-14.59-23.24-19.13,1.66,5.05,2.59,10.1,2.59,14.91,0,.19-.01.37-.01.56,4.18,2.89,8.86,7.39,14.57,13.05,6.73,6.66,14.89,14.75,23.39,19,6.23,3.12,12.65,4.17,18.81,1.09l-9.8-14.7Z"/>
        <ellipse class="cls-2" cx="505.73" cy="203.13" rx="21.54" ry="35.34" transform="translate(-17.9 354.24) rotate(-37.98)"/>
        <path class="cls-16" d="m575.08,471.05l-145.65-72.84c-5.18-2.59-11.28,1.18-11.28,6.97,0,2.95,1.67,5.65,4.31,6.97l145.65,72.84c5.18,2.59,11.28-1.18,11.28-6.97,0-2.95-1.67-5.65-4.31-6.97Zm48.35-46.09l-242.35-121.2c-5.18-2.59-11.28,1.18-11.28,6.97,0,2.95,1.67,5.65,4.31,6.97l242.35,121.2c5.18,2.59,11.28-1.18,11.28-6.97,0-2.95-1.67-5.65-4.31-6.97Zm0,35.14l-242.35-121.2c-5.18-2.59-11.28,1.18-11.28,6.97,0,2.95,1.67,5.65,4.31,6.97l242.35,121.2c5.18,2.59,11.28-1.18,11.28-6.97,0-2.95-1.67-5.65-4.31-6.97Z"/>
      </g>
    </g>
  </g>
</svg>